<svg id="Группа_1" data-name="Группа 1" xmlns="http://www.w3.org/2000/svg" width="60" height="60" viewBox="0 0 60 60">
  <defs>
    <style>
      .cls-1 {
        fill: #fe3e57;
      }

      .cls-2 {
        fill: #fff;
        fill-rule: evenodd;
      }
    </style>
  </defs>
  <rect id="Icon_bg" class="cls-1" width="60" height="60"/>
  <path id="Icon" class="cls-2" d="M42.384,29.676a2.387,2.387,0,0,0-1.452-.594,2.109,2.109,0,0,0-1.6.594l-2.89,2.792a1.858,1.858,0,0,0-1.66-.911H30.738a8.5,8.5,0,0,1-2.212-.287,5.543,5.543,0,0,0-5.077,1.049,7.254,7.254,0,0,0-1.322,1.386L21.4,33.018a0.52,0.52,0,0,0-.358-0.142h0a0.523,0.523,0,0,0-.367.153L17.146,36.6a0.491,0.491,0,0,0,.015.708l5.965,5.546a0.519,0.519,0,0,0,.719-0.013l3.494-3.5a0.493,0.493,0,0,0-.01-0.71l-0.3-.288,0.7-.076A11.131,11.131,0,0,1,29,38.2h6.156a4.708,4.708,0,0,0,2.525-.635l0.017-.011a3.35,3.35,0,0,0,.652-0.578l4.149-4.766a1.716,1.716,0,0,0-.111-2.532h0ZM23.466,41.8l-5.227-4.86,2.816-2.854,5.2,4.924Zm18.25-10.234-4.149,4.767a2.381,2.381,0,0,1-.449.4,3.708,3.708,0,0,1-1.966.472H29a12.5,12.5,0,0,0-1.39.078l-1.531.168L22.87,34.409A6.283,6.283,0,0,1,24.1,33.093a4.483,4.483,0,0,1,4.158-.86,9.535,9.535,0,0,0,2.485.323h4.046a0.91,0.91,0,0,1,.921.977,1.063,1.063,0,0,1-.239.693,0.879,0.879,0,0,1-.7.286H31.246a0.5,0.5,0,1,0,0,1h3.522a1.919,1.919,0,0,0,1.477-.638,2.023,2.023,0,0,0,.482-1.272l3.329-3.217a1.218,1.218,0,0,1,1.635.027,0.741,0.741,0,0,1,.025,1.151h0Zm0,0M29.651,34.879a0.512,0.512,0,0,0-.614-0.372,0.5,0.5,0,0,0-.381.6l0,0.021a0.513,0.513,0,0,0,.615.372,0.5,0.5,0,0,0,.381-0.6Zm0,0-9.192-6.346h4.983a1.243,1.243,0,0,0,.727-0.231,1.244,1.244,0,0,0,.727.231h4.983A1.243,1.243,0,0,0,32.6,28.3a1.244,1.244,0,0,0,.727.231h4.983a1.225,1.225,0,0,0,1.238-1.209V25.055a2.612,2.612,0,0,0-1.458-2.341,2.825,2.825,0,0,0,.679-1.836,2.951,2.951,0,0,0-5.9,0,2.824,2.824,0,0,0,.679,1.836,2.67,2.67,0,0,0-.947.793,2.662,2.662,0,0,0-.947-0.793,2.823,2.823,0,0,0,.679-1.836,2.951,2.951,0,0,0-5.9,0,2.827,2.827,0,0,0,.679,1.836,2.66,2.66,0,0,0-.947.793,2.666,2.666,0,0,0-.947-0.793,2.824,2.824,0,0,0,.679-1.836,2.951,2.951,0,0,0-5.9,0,2.825,2.825,0,0,0,.679,1.836,2.612,2.612,0,0,0-1.459,2.341v2.268a1.225,1.225,0,0,0,1.238,1.209h0ZM35.823,19A1.882,1.882,0,1,1,33.9,20.878,1.907,1.907,0,0,1,35.823,19h0Zm-1.328,4.452a3,3,0,0,0,2.657,0,1.634,1.634,0,0,1,1.378,1.607v2.269a0.213,0.213,0,0,1-.215.211H33.332a0.213,0.213,0,0,1-.215-0.211V25.055a1.634,1.634,0,0,1,1.378-1.607h0ZM29.387,19a1.882,1.882,0,1,1-1.927,1.882A1.907,1.907,0,0,1,29.387,19h0Zm-1.328,4.452a3,3,0,0,0,2.657,0,1.634,1.634,0,0,1,1.378,1.607v2.269a0.213,0.213,0,0,1-.215.211H26.9a0.213,0.213,0,0,1-.215-0.211V25.055a1.634,1.634,0,0,1,1.378-1.607h0ZM22.951,19a1.882,1.882,0,1,1-1.927,1.882A1.907,1.907,0,0,1,22.951,19h0Zm-2.707,6.058a1.635,1.635,0,0,1,1.379-1.607,3,3,0,0,0,2.657,0,1.634,1.634,0,0,1,1.378,1.607v2.269a0.213,0.213,0,0,1-.215.211H20.459a0.213,0.213,0,0,1-.215-0.211V25.055Zm0,0"/>
</svg>
