<svg id="Группа_1" data-name="Группа 1" xmlns="http://www.w3.org/2000/svg" width="60" height="60"><path id="Icon_bg" fill="#fe3e57" d="M0 0h60v60H0z"/><path id="Icon" d="M42.384 29.676a2.387 2.387 0 00-1.452-.594 2.109 2.109 0 00-1.6.594l-2.89 2.792a1.858 1.858 0 00-1.66-.911h-4.044a8.5 8.5 0 01-2.212-.287 5.543 5.543 0 00-5.077 1.049 7.254 7.254 0 00-1.322 1.386l-.727-.687a.52.52 0 00-.358-.142.523.523 0 00-.367.153L17.146 36.6a.491.491 0 00.015.708l5.965 5.546a.519.519 0 00.719-.013l3.494-3.5a.493.493 0 00-.01-.71l-.3-.288.7-.076A11.131 11.131 0 0129 38.2h6.156a4.708 4.708 0 002.525-.635l.017-.011a3.35 3.35 0 00.652-.578l4.149-4.766a1.716 1.716 0 00-.111-2.532zM23.466 41.8l-5.227-4.86 2.816-2.854 5.2 4.924zm18.25-10.234l-4.149 4.767a2.381 2.381 0 01-.449.4 3.708 3.708 0 01-1.966.472H29a12.5 12.5 0 00-1.39.078l-1.531.168-3.209-3.042a6.283 6.283 0 011.23-1.316 4.483 4.483 0 014.158-.86 9.535 9.535 0 002.485.323h4.046a.91.91 0 01.921.977 1.063 1.063 0 01-.239.693.879.879 0 01-.7.286h-3.525a.5.5 0 100 1h3.522a1.919 1.919 0 001.477-.638 2.023 2.023 0 00.482-1.272l3.329-3.217a1.218 1.218 0 011.635.027.741.741 0 01.025 1.151zm-12.065 3.313a.512.512 0 00-.614-.372.5.5 0 00-.381.6v.021a.513.513 0 00.615.372.5.5 0 00.381-.6zm0 0l-9.192-6.346h4.983a1.243 1.243 0 00.727-.231 1.244 1.244 0 00.727.231h4.983a1.243 1.243 0 00.721-.233 1.244 1.244 0 00.727.231h4.983a1.225 1.225 0 001.238-1.209v-2.267a2.612 2.612 0 00-1.458-2.341 2.825 2.825 0 00.679-1.836 2.951 2.951 0 00-5.9 0 2.824 2.824 0 00.679 1.836 2.67 2.67 0 00-.947.793 2.662 2.662 0 00-.947-.793 2.823 2.823 0 00.679-1.836 2.951 2.951 0 00-5.9 0 2.827 2.827 0 00.679 1.836 2.66 2.66 0 00-.947.793 2.666 2.666 0 00-.947-.793 2.824 2.824 0 00.679-1.836 2.951 2.951 0 00-5.9 0 2.825 2.825 0 00.679 1.836 2.612 2.612 0 00-1.459 2.341v2.268a1.225 1.225 0 001.238 1.209zM35.823 19a1.882 1.882 0 11-1.923 1.878A1.907 1.907 0 0135.823 19zm-1.328 4.452a3 3 0 002.657 0 1.634 1.634 0 011.378 1.607v2.269a.213.213 0 01-.215.211h-4.983a.213.213 0 01-.215-.211v-2.273a1.634 1.634 0 011.378-1.607zM29.387 19a1.882 1.882 0 11-1.927 1.882A1.907 1.907 0 0129.387 19zm-1.328 4.452a3 3 0 002.657 0 1.634 1.634 0 011.378 1.607v2.269a.213.213 0 01-.215.211H26.9a.213.213 0 01-.215-.211v-2.273a1.634 1.634 0 011.378-1.607zM22.951 19a1.882 1.882 0 11-1.927 1.882A1.907 1.907 0 0122.951 19zm-2.707 6.058a1.635 1.635 0 011.379-1.607 3 3 0 002.657 0 1.634 1.634 0 011.378 1.607v2.269a.213.213 0 01-.215.211h-4.984a.213.213 0 01-.215-.211v-2.272zm0 0" fill="#fff" fill-rule="evenodd"/></svg>