<svg width="61" height="60" fill="none" xmlns="http://www.w3.org/2000/svg"><g clip-path="url(#clip0_887_16770)" fill="#868686"><path d="M2.971 57.257c.115 0 .343-.114.458-.228.114-.115.228-.115.228-.229.114-.114.114-.229.114-.343v-.343c0-.228 0-.457-.114-.571a1.55 1.55 0 00-.343-.457c-.114-.115-.228-.115-.457-.229-.228 0-.571-.114-.914-.114H0V60h2.057c.343 0 .572 0 .8-.114.229-.115.457-.229.572-.343.114-.114.342-.343.342-.457.115-.229.115-.343.115-.572 0-.343-.115-.571-.229-.685 0-.343-.343-.458-.686-.572zm-1.714-1.6h1.029c.114 0 .228 0 .228.114.115 0 .115.115.115.229v.343c0 .114 0 .228-.115.343 0 .114-.114.114-.114.228 0 .115-.114 0-.229 0h-.914v-1.257zm1.6 2.972c0 .114-.114.114-.114.228s-.114.114-.229.114c-.114 0-.228.115-.343.115h-.914v-1.257H2.4c.114 0 .229.114.229.114.114 0 .114.114.114.228v.229c.114.114.114.114.114.229zm6.172-.686c-.115-.114-.115-.114-.229-.114.114-.115.343-.115.457-.229l.343-.343c.114-.114.114-.228.229-.457 0-.114.114-.343.114-.457 0-.229 0-.457-.114-.572a1.579 1.579 0 00-.343-.457c-.115-.114-.343-.228-.686-.343-.229-.114-.571-.114-.914-.114H6.057v5.257h1.257v-1.943h.572l.114.115.914 1.485c.115.115.229.229.457.229h1.143l-1.143-1.829c-.114-.114-.228-.114-.342-.228zm-.343-1.257c0 .114-.115.228-.115.228-.114.115-.228.229-.342.229-.115 0-.229.114-.458.114h-.457v-1.486h.457c.343 0 .572.115.686.229a.873.873 0 01.229.571v.115zm5.143-1.943L11.77 60h.915c.114 0 .228 0 .228-.114.115 0 .115-.115.115-.229l.342-.914h1.943l.343.914c0 .114.114.114.114.229.115 0 .115.114.229.114h1.143l-2.057-5.257h-1.257zm0 3.2l.457-1.372c0-.114.114-.228.114-.342 0-.115.114-.229.114-.458 0 .115.115.229.115.343 0 .115.114.229.114.343l.457 1.372h-1.371v.114zm8.571-.457v.571l-2.514-3.086-.115-.114h-1.028v5.257h1.028v-3.428l2.4 3.085c.115.115.115.115.229.115h.8v-5.257h-1.029v2.857h.229zm7.429-1.943a3.475 3.475 0 00-.8-.572c-.343-.114-.686-.228-1.143-.228h-2.057V60h2.057c.457 0 .8-.114 1.143-.229.342-.114.571-.342.8-.571.228-.229.457-.457.571-.8.114-.343.229-.686.229-1.029 0-.342-.115-.685-.229-1.028-.229-.343-.343-.572-.571-.8zm-.686 2.514c-.114.229-.114.343-.343.572a1.578 1.578 0 01-.457.342c-.229.115-.343.115-.572.115h-.8V55.77h.8c.229 0 .458 0 .572.115.114.114.343.228.457.343.114.114.229.342.343.571.114.229.114.457.114.686 0 .114 0 .343-.114.571zm9.714-.571v.571l-2.514-3.086-.114-.114H35.2v5.257h1.029v-3.428l2.4 3.085c.114.115.114.115.228.115h.8v-5.257h-.8v2.857zm4.914-2.743L41.714 60h.915c.114 0 .228 0 .228-.114.114 0 .114-.115.114-.229l.343-.914h1.943l.343.914c0 .114.114.114.114.229 0 .114.115.114.229.114h.914L44.8 54.743h-1.029zm-.114 3.2l.457-1.372c0-.114.115-.228.115-.342 0-.115.114-.229.114-.458 0 .115.114.229.114.343 0 .115.114.229.114.343l.458 1.372h-1.372v.114zm9.943-3.2c-.114 0-.114 0-.229.114 0 0 0 .114-.114.114L51.886 57.6c0 .114-.115.229-.115.343 0 .114-.114.228-.114.343 0-.115-.114-.229-.114-.343 0-.114-.114-.229-.114-.229l-1.372-2.628s0-.115-.114-.115h-1.257v5.143h1.028v-3.428l1.372 2.628c0 .115.114.115.228.229.115 0 .115.114.229.114h.114c.114 0 .229 0 .229-.114.114 0 .114-.114.228-.229l1.372-2.628v3.428h1.028v-5.143h-.8c0-.228 0-.228-.114-.228zm6.743.914v-.914h-3.314V60h3.314v-.914H58.17v-1.257h1.6v-.915h-1.6v-1.257h2.172zm-7.086-15.428l-7.886-13.715 6.743-11.657c.572-.914-.114-2.057-1.143-2.057H37.486L30.057 0 22.63 12.8H9.256c-1.028 0-1.714 1.143-1.143 2.057l6.743 11.657-8 13.715h15.771L28.8 50.97c.229.458.686.686 1.143.686.457 0 .914-.228 1.143-.686l6.171-10.742h16zm-3.314-25.486l-5.6 9.828-5.6-9.828h11.2zM36.8 37.486H24.457L20.343 30.4l6.4-10.971 10.286 17.828-.229.229zM25.714 17.829l-6.4 10.971-1.257-2.286 6.4-10.971 1.257 2.286zm-15.543-3.086h11.315l-5.6 9.828-5.715-9.828zm19.886 34.4l-5.143-8.914H35.2l-5.143 8.914z"/></g><defs><clipPath id="clip0_887_16770"><path fill="#fff" d="M0 0h60.343v60H0z"/></clipPath></defs></svg>