<svg width="76" height="60" fill="none" xmlns="http://www.w3.org/2000/svg"><g clip-path="url(#clip0_887_1645)" fill="#868686"><path d="M5.787 50.05c.304.407.406.813.406 1.32 0 .711-.203 1.219-.71 1.625-.508.406-1.118.61-2.031.61H0v-8.123h3.452c.812 0 1.421.203 1.929.508.406.406.71.914.71 1.523 0 .507-.101.913-.406 1.218-.304.304-.609.508-1.015.61.406.202.812.405 1.117.71zm-4.163-1.217h1.422c.406 0 .71-.102.913-.305.203-.203.305-.406.305-.812 0-.305-.102-.61-.305-.812-.101-.102-.406-.204-.913-.204H1.624v2.133zm2.538 3.147c.203-.203.305-.508.305-.813 0-.406-.102-.609-.305-.812-.203-.203-.609-.304-1.015-.304H1.624v2.233h1.523c.508 0 .812-.101 1.015-.304zm8.63 1.624l-1.93-3.147h-.71v3.147H8.528v-8.122h3.147c.914 0 1.624.203 2.132.71.508.508.71 1.118.71 1.828 0 .61-.202 1.117-.507 1.523-.304.406-.812.71-1.523.812l2.03 3.25h-1.725zm-2.64-4.264h1.32c.914 0 1.421-.406 1.421-1.218 0-.406-.101-.71-.304-.914-.203-.203-.61-.304-1.015-.304h-1.422v2.436zm11.574 2.64h-3.249l-.609 1.624h-1.726l3.046-8.122h1.827l3.046 8.122h-1.726l-.61-1.624zm-.406-1.219l-1.218-3.451-1.219 3.451h2.437zm11.675 2.843H31.37l-3.655-5.584v5.584H26.09v-8.122h1.625l3.655 5.584v-5.584h1.624v8.122zm9.34-1.929a2.985 2.985 0 01-1.523 1.421c-.609.305-1.421.508-2.335.508h-2.944v-8.122h3.046c.913 0 1.624.203 2.335.508.609.304 1.117.812 1.523 1.421.304.61.507 1.32.507 2.132-.101.812-.304 1.523-.609 2.132zm-1.827-.203c.507-.508.71-1.117.71-1.929s-.203-1.523-.71-1.929c-.508-.507-1.117-.71-2.03-.71H37.36v5.279h1.117a3.27 3.27 0 002.03-.71zM22.741 0s21.117 7.919 20.61 19.492v19.493s-21.117-7.919-20.61-19.493V0zm39.391 34.416c3.858-2.64 8.528-4.467 13.401-4.974V23.35a28.544 28.544 0 00-7.919 4.67 27.699 27.699 0 00-5.482 6.396z"/><path d="M59.797 36.244a29.278 29.278 0 017.107-9.137c2.64-2.234 5.583-3.858 8.629-5.076V4.466s-30.05 11.37-29.34 27.716v27.715s1.32-.507 3.452-1.42c0-.915 0-1.828.101-2.64.61-7.92 4.467-14.823 10.051-19.594z"/><path d="M56.954 46.498c.203-1.93.508-3.858 1.015-5.686-3.451 4.163-5.786 9.34-6.294 15.127 0 .508-.101 1.015-.101 1.624 1.726-.812 3.654-1.827 5.786-3.045-.507-2.64-.609-5.28-.406-8.02zm1.219.101c-.203 2.437-.102 4.873.406 7.31 8.223-4.873 17.462-12.488 17.056-21.625v-.812c-5.99.61-11.371 3.249-15.635 7.31-1.015 2.436-1.624 5.076-1.827 7.817z"/></g><defs><clipPath id="clip0_887_1645"><path fill="#fff" d="M0 0h75.533v60H0z"/></clipPath></defs></svg>