<svg width="96" height="60" fill="none" xmlns="http://www.w3.org/2000/svg"><g clip-path="url(#clip0_887_1573)" fill="#868686"><path d="M43.228 5.748c.866-.551 1.575-1.339 2.284-2.126a29.612 29.612 0 001.968-2.44l.158-.237.157.315a29.234 29.234 0 001.811 2.52c.63.787 1.339 1.574 2.205 2.204-.945-.472-1.732-1.18-2.52-1.968a7.952 7.952 0 01-1.023-1.26 7.804 7.804 0 01-.866-1.339h.393a20.046 20.046 0 01-2.047 2.363c-.709.787-1.496 1.496-2.52 1.968zM70 10.315c-.63-.472-.709-1.496-.079-2.047.63-.551 1.575-.551 2.284-.315.787.315 1.338 1.102 1.26 1.968 0 .866-.552 1.575-1.26 2.048-1.339.866-3.15.866-4.567.236-1.418-.63-2.52-1.811-3.307-3.071.945 1.181 2.047 2.283 3.464 2.756 1.339.55 2.992.55 4.174-.237.63-.393 1.023-.944 1.102-1.653.079-.709-.394-1.339-1.024-1.654-.63-.315-1.417-.315-2.047.158-.551.315-.551 1.26 0 1.811zm-44.646 0c.552-.551.473-1.496-.078-1.89-.552-.394-1.418-.394-2.048-.157a1.836 1.836 0 00-1.023 1.653c0 .709.472 1.26 1.102 1.654 1.181.787 2.835.787 4.173.236 1.418-.472 2.52-1.575 3.465-2.756-.788 1.339-1.89 2.441-3.307 3.071-1.418.63-3.15.63-4.567-.236-.63-.394-1.26-1.181-1.26-2.047-.079-.867.473-1.654 1.26-1.969.787-.315 1.653-.236 2.283.315.709.63.63 1.732 0 2.126z"/><path d="M37.638 0l1.89.236c.63.158 1.26.315 1.81.63 1.182.473 2.284 1.26 3.15 2.126.866.945 1.654 1.969 2.205 3.15.551 1.18.945 2.362 1.024 3.622-.315-1.26-.71-2.441-1.339-3.544-.551-1.102-1.339-2.126-2.205-2.992-.394-.472-.945-.866-1.417-1.18-.551-.316-1.024-.71-1.575-.946C40.08.63 38.82.315 37.638 0z"/><path d="M58.032 0c-1.26.315-2.441.63-3.623 1.181-.55.236-1.102.63-1.653.945-.473.394-1.024.787-1.417 1.181-.945.866-1.654 1.89-2.284 2.992a13.902 13.902 0 00-1.417 3.544c.157-1.26.551-2.52 1.102-3.701s1.339-2.205 2.284-3.15c.944-.866 2.047-1.653 3.228-2.126.551-.315 1.181-.394 1.811-.63A139.45 139.45 0 0058.031 0zM24.724 8.189c-.55-.236-1.102-.315-1.653-.236-.551.078-1.024.393-1.418.787-.708.866-.787 2.126-.314 3.071.472.945 1.417 1.654 2.44 1.969a5.633 5.633 0 003.229 0A11.534 11.534 0 0030 12.362c.945-.63 1.732-1.338 2.598-2.047 1.654-1.496 3.308-2.992 5.355-4.095 1.023-.55 2.126-.944 3.307-.866 1.18 0 2.283.473 3.228 1.181 1.811 1.496 2.205 4.41.709 6.3-.709.944-1.811 1.496-2.914 1.732-1.102.236-2.362-.079-3.228-.866-.866-.788-1.102-2.205-.394-3.15.63-.945 2.205-1.18 2.992-.236-.787-.866-2.283-.63-2.834.315-.551.945-.315 2.283.472 2.992.788.787 1.969 1.024 2.992.787 1.024-.236 2.048-.787 2.678-1.653 1.338-1.732.945-4.41-.709-5.748-.866-.63-1.89-1.102-2.913-1.102-1.103 0-2.126.314-3.071.866-1.969 1.023-3.622 2.52-5.276 4.015-1.653 1.496-3.464 2.992-5.748 3.544-1.102.315-2.283.315-3.386-.079-1.102-.394-2.126-1.102-2.598-2.126-.473-1.024-.315-2.362.472-3.228.394-.394.866-.709 1.496-.788.473-.236 1.024-.079 1.496.079z"/><path d="M70.63 8.189c.551-.236 1.102-.394 1.654-.315.55.079 1.102.394 1.495.787.788.867.945 2.205.473 3.229-.472 1.102-1.496 1.81-2.599 2.126-1.102.393-2.283.393-3.385.079-2.284-.552-4.095-2.048-5.748-3.544-1.654-1.496-3.307-2.992-5.276-4.016-.945-.55-2.047-.866-3.07-.866-1.103 0-2.127.473-2.914 1.103-1.654 1.338-2.047 4.094-.709 5.748.63.866 1.654 1.417 2.677 1.653 1.024.236 2.205 0 2.992-.787.788-.709 1.103-2.047.473-2.992-.551-.945-2.126-1.181-2.835-.315.709-.866 2.284-.709 2.992.236.63.945.394 2.362-.393 3.15-.788.866-2.047 1.102-3.229.866-1.102-.236-2.204-.788-2.913-1.733-1.496-1.89-1.102-4.803.709-6.299.944-.708 2.047-1.18 3.228-1.18s2.283.314 3.307.865c2.047 1.103 3.7 2.599 5.354 4.095.867.708 1.654 1.496 2.599 2.047.945.63 1.89 1.102 2.992 1.417a5.633 5.633 0 003.228 0c1.024-.315 2.047-1.023 2.441-1.968.473-.945.315-2.205-.394-3.071-.314-.394-.866-.709-1.417-.787-.63.157-1.18.236-1.732.472zm0 45.669c.472.158 1.023.315 1.496.236.551-.078 1.024-.315 1.339-.708.708-.709.944-1.89.63-2.835-.316-.945-1.103-1.732-2.048-2.126-.866-.393-1.968-.551-2.913-.393-2.047.315-3.858 1.496-5.433 2.834-1.575 1.339-3.071 2.835-4.882 4.016-.866.551-1.811 1.102-2.835 1.417-1.023.315-2.205.394-3.228.079l-.788-.315-.708-.472c-.473-.237-.866-.71-1.181-1.103a4.433 4.433 0 01-.788-3.15c.08-1.102.63-2.125 1.418-2.834.787-.709 1.89-1.181 2.913-1.181 1.102-.079 2.205.394 2.835 1.26.63.866.787 2.126.078 2.992.63-.866.473-2.126-.157-2.914-.63-.787-1.732-1.18-2.756-1.102-1.024.079-2.047.473-2.756 1.181-.787.709-1.181 1.654-1.26 2.677a4.43 4.43 0 00.788 2.835c.315.394.63.787 1.102 1.024.236.157.394.314.63.393l.709.315c.944.315 1.968.236 2.992-.078.945-.315 1.89-.867 2.756-1.418 1.732-1.18 3.228-2.598 4.882-4.016 1.574-1.338 3.464-2.598 5.59-2.913 1.102-.157 2.205 0 3.15.473.945.472 1.89 1.26 2.126 2.283.315 1.024 0 2.205-.788 2.992a2.44 2.44 0 01-1.417.709c-.473.157-1.024 0-1.496-.158zm-45.827 0c-.472.236-1.024.315-1.575.315a2.443 2.443 0 01-1.417-.708c-.787-.788-1.102-1.969-.787-2.993.315-1.102 1.18-1.89 2.126-2.283.945-.472 2.126-.63 3.15-.472 2.125.315 4.015 1.496 5.59 2.913 1.575 1.338 3.15 2.835 4.882 4.016.866.55 1.732 1.102 2.756 1.417.944.315 2.047.394 2.992.079l.708-.315c.237-.158.394-.236.63-.394.473-.236.788-.63 1.103-1.024.55-.787.866-1.89.787-2.834-.079-1.024-.551-1.969-1.26-2.677-.709-.709-1.732-1.103-2.756-1.181a3.36 3.36 0 00-2.756 1.102c-.63.787-.787 2.047-.157 2.913-.709-.866-.551-2.126.079-2.992.63-.866 1.732-1.338 2.834-1.26 1.103.08 2.126.473 2.914 1.181.787.71 1.338 1.733 1.417 2.835.079 1.102-.157 2.205-.787 3.15-.315.472-.71.866-1.182 1.102l-.708.473-.788.314c-1.023.315-2.204.237-3.228-.078-1.023-.315-1.968-.866-2.835-1.418-1.732-1.18-3.307-2.677-4.881-4.015-1.575-1.339-3.386-2.52-5.433-2.835-1.024-.157-2.048-.079-2.993.394-.866.236-1.653 1.023-1.968 1.968-.315.945-.079 2.126.63 2.835.315.393.866.63 1.338.708.551.08 1.024-.078 1.575-.236zm62.284-39.842c-.473.393-1.181.472-1.733.236-.55-.236-.945-.787-1.102-1.417-.236-1.26.709-2.52 1.89-2.835 1.26-.315 2.598.394 3.228 1.496.63 1.102.472 2.52-.157 3.622-.71 1.103-1.89 1.732-3.071 1.89-1.26.157-2.441-.158-3.544-.709-2.126-1.18-3.464-3.464-3.78-5.827.395 2.284 1.89 4.41 3.938 5.512 1.023.551 2.205.788 3.307.63 1.102-.157 2.205-.787 2.756-1.732.63-.945.709-2.205.157-3.15-.55-.945-1.732-1.574-2.755-1.338-1.103.236-1.969 1.338-1.812 2.44.08.552.394 1.103.945 1.34.63.157 1.26.157 1.733-.158zm-78.819 0c.472.393 1.18.393 1.653.079.473-.237.866-.788.945-1.34.158-1.102-.708-2.204-1.81-2.44-1.103-.236-2.284.394-2.757 1.338-.551.945-.393 2.205.236 3.15a4.019 4.019 0 002.756 1.732c1.103.158 2.284-.078 3.307-.63 2.048-1.102 3.465-3.228 3.859-5.511-.236 2.362-1.575 4.645-3.701 5.827-1.024.63-2.284.866-3.543.708-1.181-.157-2.363-.787-3.071-1.89-.63-1.023-.788-2.44-.158-3.622.63-1.102 1.969-1.81 3.229-1.496 1.18.315 2.126 1.575 1.89 2.835-.158.63-.552 1.181-1.103 1.417-.63.315-1.26.236-1.732-.157z"/><path d="M7.402 20.157a3.303 3.303 0 01-2.048 2.048c-.945.315-2.047.236-2.834-.473-.788-.708-1.103-1.732-1.103-2.756 0-1.023.315-2.047 1.103-2.834.708-.788 1.89-.945 2.913-.709 1.024.236 1.89.945 2.441 1.732 1.26 1.654 1.654 3.701 1.89 5.67.945 7.952.394 16.063-1.811 23.78-.315.944-.551 1.889-.945 2.834-.315.945-.63 1.89-1.102 2.834-.473.867-1.103 1.811-2.048 2.284-1.023.551-2.283.394-3.07-.394a2.443 2.443 0 01-.71-1.417c-.078-.551 0-1.024.08-1.575.236-1.023 1.023-1.89 1.89-2.362 1.81-1.024 3.858-1.181 5.826-1.496a75.76 75.76 0 0123.858.472c-3.937-.63-7.953-.945-11.89-1.023-4.015-.08-7.952.236-11.89.787-1.968.315-4.015.473-5.669 1.496-.787.473-1.496 1.26-1.732 2.205-.079.472-.157.945-.079 1.417.08.473.315.866.63 1.181.63.63 1.733.788 2.599.394.866-.394 1.417-1.26 1.89-2.126.472-.866.787-1.811 1.102-2.756.315-.945.63-1.89.866-2.835 2.205-7.637 2.913-15.748 1.969-23.622-.237-1.968-.63-3.937-1.811-5.59-.552-.788-1.418-1.418-2.363-1.654-.945-.236-1.968-.078-2.677.63-.709.709-1.023 1.654-1.023 2.677-.08.945.236 1.969 1.023 2.678.709.708 1.811.866 2.756.472.866-.236 1.654-1.024 1.969-1.969zm80.787-.078a3.303 3.303 0 002.047 2.047c.945.315 2.047.157 2.756-.473.709-.63 1.024-1.653 1.024-2.677 0-.944-.394-1.968-1.024-2.677-.709-.708-1.732-.866-2.677-.63-.945.236-1.732.866-2.362 1.654-1.181 1.575-1.575 3.622-1.811 5.512-.945 7.874-.236 15.984 1.968 23.543.237.945.551 1.89.866 2.835.315.944.63 1.89 1.103 2.755.393.867 1.023 1.654 1.81 2.126.395.237.867.394 1.34.315.472-.078.865-.236 1.18-.63.63-.708.788-1.732.63-2.677-.157-.944-.866-1.732-1.653-2.204-1.654-1.024-3.701-1.103-5.67-1.418-3.936-.55-7.873-.787-11.89-.787-3.936 0-7.952.394-11.889 1.024 3.937-.71 7.874-1.103 11.89-1.26a74.77 74.77 0 0111.89.708c1.968.315 4.015.394 5.826 1.418.866.472 1.654 1.338 1.811 2.44.158 1.024 0 2.127-.708 2.993-.394.393-.867.708-1.418.708-.55.08-1.102-.078-1.574-.393-.945-.552-1.575-1.418-1.969-2.284-.472-.945-.787-1.89-1.102-2.834l-.945-2.835c-2.205-7.717-2.835-15.827-1.811-23.7.236-1.97.63-4.017 1.89-5.67a5.204 5.204 0 012.52-1.732c1.023-.315 2.125-.08 2.834.708.709.788 1.023 1.811 1.023 2.835s-.314 2.047-1.102 2.756c-.787.709-1.89.787-2.835.472-.866-.236-1.653-1.023-1.968-1.968zM26.378 50.945c2.205.709 4.173 1.81 6.063 3.228 1.89 1.339 3.465 2.992 5.354 4.252.945.63 1.89 1.181 2.992 1.181 1.103 0 2.048-.63 2.835-1.417a16.992 16.992 0 002.126-2.598c.63-.945 1.26-1.89 1.811-2.914-1.024 2.047-2.126 4.095-3.7 5.748-.788.788-1.89 1.496-3.072 1.575-1.26 0-2.283-.63-3.228-1.26-1.89-1.338-3.465-2.992-5.276-4.33-1.89-1.34-3.858-2.599-5.905-3.465zm42.283 0c-2.126.866-4.015 2.047-5.826 3.464-1.811 1.418-3.386 2.993-5.276 4.331-.945.63-2.047 1.26-3.228 1.26-1.26 0-2.284-.709-3.071-1.575-1.654-1.653-2.677-3.7-3.7-5.748a58.62 58.62 0 001.81 2.914c.63.944 1.339 1.81 2.126 2.598.787.787 1.811 1.417 2.835 1.417 1.102 0 2.126-.55 2.992-1.18 1.81-1.34 3.464-2.914 5.354-4.253a20.073 20.073 0 015.984-3.228z"/><path d="M15.197 20.551h1.653v11.575h5.512v1.417h-7.244l.079-12.992zm16.771-.079v7.638c0 2.914 1.26 4.095 2.993 4.095 1.89 0 3.15-1.26 3.15-4.173v-7.638h1.653v7.559c0 4.015-2.126 5.59-4.882 5.59-2.677 0-4.646-1.496-4.646-5.511v-7.638l1.732.078zm24.646 12.993l-1.653-2.835a39.616 39.616 0 01-1.496-2.52 32.675 32.675 0 01-1.418 2.599l-1.575 2.834h-1.89l3.938-6.535-3.859-6.536h1.969l1.732 3.071c.473.867.866 1.496 1.181 2.205.394-.787.709-1.338 1.181-2.205l1.733-3.07h1.89l-3.938 6.299 4.016 6.614-1.81.079zm21.102-6.615c0 4.489-2.677 6.85-5.984 6.85-3.385 0-5.826-2.676-5.826-6.535 0-4.094 2.52-6.771 5.984-6.771 3.543-.158 5.826 2.598 5.826 6.456zm-10.078.158c0 2.756 1.496 5.275 4.173 5.275s4.173-2.44 4.173-5.354c0-2.598-1.338-5.275-4.173-5.275-2.756 0-4.173 2.52-4.173 5.354zM14.724 38.74h.552v4.095h1.968v.472h-2.52V38.74zm5.197 0v2.677c0 1.024.473 1.418 1.024 1.418.709 0 1.102-.473 1.102-1.418V38.74h.63v2.677c0 1.418-.709 1.969-1.732 1.969-.945 0-1.654-.551-1.654-1.969V38.74h.63zm7.953 4.488l-.551-1.023c-.236-.394-.394-.63-.551-.866-.158.236-.237.472-.473.866l-.551 1.023h-.709l1.418-2.283-1.339-2.284h.709l.63 1.103c.157.315.315.551.393.787.158-.236.237-.472.394-.787l.63-1.103h.709l-1.418 2.284 1.418 2.362h-.709v-.079zm3.701-4.488v2.677c0 1.024.472 1.418 1.023 1.418.71 0 1.103-.473 1.103-1.418V38.74h.63v2.677c0 1.418-.709 1.969-1.733 1.969-.944 0-1.653-.551-1.653-1.969V38.74h.63zm5.433 0c.315-.079.709-.079 1.102-.079.63 0 1.024.08 1.339.394.236.236.394.551.394.866 0 .63-.394 1.024-.867 1.181.315.158.552.473.709.945.157.63.236 1.103.315 1.26h-.63c-.079-.157-.157-.551-.315-1.102-.157-.63-.394-.866-.945-.866h-.55v1.968h-.552V38.74zm.63 2.126h.63c.63 0 1.023-.315 1.023-.866 0-.551-.393-.866-1.023-.866-.315 0-.473 0-.551.079l-.08 1.653zm5.669 2.362V41.26l-1.417-2.6h.63l.63 1.26.472.945.472-.945.63-1.26h.63l-1.496 2.599v1.968h-.55zm7.402-4.488c.236-.079.63-.079 1.102-.079.551 0 .945.08 1.26.315.236.158.394.473.394.788 0 .472-.315.787-.788 1.023.394.08.945.473.945 1.103 0 .393-.157.708-.394.945-.315.315-.866.393-1.575.393-.393 0-.708 0-.944-.078v-4.41zm.63 1.89h.55c.63 0 1.024-.315 1.024-.788 0-.55-.393-.708-1.023-.708-.236 0-.394 0-.551.079v1.417zm0 2.205h.472c.63 0 1.181-.237 1.181-.867s-.551-.866-1.181-.866h-.472v1.733zm4.724-4.095c.315-.079.709-.079 1.102-.079.63 0 1.024.08 1.339.394.236.236.394.551.394.866 0 .63-.394 1.024-.867 1.181.316.158.552.473.71.945.157.63.235 1.103.314 1.26h-.63c-.078-.157-.157-.551-.315-1.102-.157-.63-.393-.866-.945-.866h-.55v1.968h-.552V38.74zm.63 2.126h.63c.63 0 1.023-.315 1.023-.866 0-.551-.393-.866-1.023-.866-.315 0-.473 0-.551.079l-.08 1.653zm5.512.945l-.473 1.417h-.63l1.575-4.567h.709l1.575 4.567h-.63l-.552-1.417h-1.574zm1.496-.472L63.228 40c-.078-.315-.157-.551-.236-.866-.079.236-.157.551-.236.787l-.473 1.339 1.418.079zm3.543 1.889v-4.567h.63l1.496 2.284c.315.551.63 1.023.787 1.496-.078-.63-.078-1.181-.078-1.89v-1.89h.55v4.567h-.55l-1.418-2.283a14.634 14.634 0 01-.866-1.496c0 .551.079 1.102.079 1.89v1.968h-.63v-.079zm6.142-4.488c.394-.079.787-.079 1.26-.079.866 0 1.417.158 1.81.552.394.393.63.866.63 1.653 0 .709-.236 1.339-.63 1.732-.393.394-1.102.63-2.047.63-.393 0-.787 0-1.102-.078l.079-4.41zm.63 4.016h.63c1.26 0 1.968-.709 1.968-1.969 0-1.102-.63-1.732-1.81-1.732-.316 0-.552 0-.71.079l-.078 3.622z"/></g><defs><clipPath id="clip0_887_1573"><path fill="#fff" d="M0 0h95.433v60H0z"/></clipPath></defs></svg>