<svg width="54" height="60" fill="none" xmlns="http://www.w3.org/2000/svg"><g clip-path="url(#clip0_887_1659)" fill="#868686"><path d="M28.277.51L53.234.256h.255v.256l.128 26.297.064 26.298v.511h-.51l-26.299.064-26.361-.064H0v-.51c0-8.745 0-17.554.064-26.299L.319.511V.255h.255l23.681.256L.511.702.766.447l.191 26.361c.064 8.745.064 17.554.064 26.298l-.51-.51 26.297-.064 26.298.064-.51.51.191-26.298.128-26.297.255.255L28.277.511z"/><path d="M53.17 28.213l.255 24.957v.255h-.255l-26.298.128-26.361.064H0V26.808L.064.511V0h.51C9.32 0 18.128 0 26.872.064L53.17.255h.255v.256l-.255 23.744L52.915.511l.255.255-26.298.128C18.064.957 9.32.957.511.957l.51-.51.064 26.361-.064 26.298-.51-.51 26.297.064 26.298.127-.255.256.32-24.83z"/><path d="M4.532 49.213c-.128 1.212.957 2.234 2.106 2.234 1.15 0 2.17-.702 2.936-1.532.766-.83 1.469-1.787 2.362-2.617a4.604 4.604 0 011.532-.894c.575-.191 1.277-.191 1.851.064 1.15.447 1.979 1.66 1.979 2.872a2.95 2.95 0 01-2.043 2.809 2.852 2.852 0 01-1.787 0c-.574-.255-1.021-.702-1.213-1.277-.191-.574-.064-1.276.383-1.66.447-.382 1.213-.446 1.596 0-.447-.446-1.149-.318-1.532.065s-.447 1.02-.255 1.595c.191.511.638.958 1.149 1.15.51.19 1.085.19 1.595 0 1.022-.384 1.788-1.469 1.788-2.554 0-1.085-.766-2.17-1.724-2.553-.51-.192-1.085-.255-1.595-.064-.511.128-1.022.447-1.469.83-.893.702-1.531 1.723-2.361 2.553-.83.83-1.915 1.596-3.128 1.532-1.276-.191-2.362-1.34-2.17-2.553z"/><path d="M5.745 48.51c1.212.32 2.553.447 3.766.128.574-.127 1.212-.383 1.66-.766.446-.383.829-.893 1.02-1.468.192-.574.192-1.213.064-1.787-.127-.574-.574-1.085-1.149-1.149-.574-.128-1.212.255-1.34.894-.128.574.064 1.276.32 1.787-.32-.51-.575-1.149-.512-1.851.064-.32.256-.638.511-.83.255-.191.638-.32 1.021-.255.32 0 .703.191.958.447.255.255.383.574.51.893.192.639.192 1.34-.063 1.979-.256.638-.639 1.213-1.15 1.596-.51.383-1.148.638-1.787.766-1.276.255-2.617 0-3.83-.383zm6.957-2.233c1.787-2.107 4.596-3.32 7.404-3.128 1.405.064 2.809.447 3.958 1.276 1.149.767 2.106 2.043 2.106 3.511-.064 1.468-1.021 2.745-2.17 3.51-1.277.703-2.745.83-4.149.448-.702-.192-1.34-.575-1.723-1.213-.383-.638-.447-1.404-.256-2.106.256-1.469 1.724-2.554 3.192-2.362v.255c-.447 0-.894.255-1.213.51-.383.256-.638.703-.702 1.15-.128.447-.064.893.064 1.34.191.447.51.766.893 1.021.766.511 1.851.447 2.681-.063a2.913 2.913 0 001.15-2.49c.127.958-.32 1.979-1.086 2.553-.766.575-1.915.703-2.808.192a2.254 2.254 0 01-.958-1.085 2.298 2.298 0 01-.128-1.468c.128-.511.383-.958.766-1.277.383-.32.83-.574 1.405-.574v.255c-1.277-.128-2.617.83-2.873 2.106-.127.639-.063 1.34.256 1.851.319.511.957.894 1.595 1.086 1.277.319 2.745.255 3.83-.384 1.15-.702 1.979-1.914 2.043-3.191.064-1.34-.83-2.553-1.915-3.32-1.085-.765-2.426-1.148-3.766-1.276-2.936-.191-5.681.894-7.596 2.873zm.447-1.724c1.979-.83 3.83-2.106 5.362-3.574a20.582 20.582 0 004.02-5.043l.129.255c-1.15-.063-2.362.064-3.447.447s-2.17.958-3.064 1.66c-.894.766-1.66 1.66-2.234 2.68-.575 1.022-1.021 2.107-1.277 3.256.32-2.362 1.532-4.596 3.32-6.191 1.85-1.596 4.276-2.426 6.702-2.234h.255l-.128.255a18.65 18.65 0 01-4.149 5.042 14.556 14.556 0 01-5.49 3.447z"/><path d="M12.894 45.447c.191-1.085.638-2.043 1.212-2.936.575-.894 1.34-1.66 2.107-2.426.83-.702 1.66-1.404 2.553-1.979.894-.638 1.851-1.085 2.809-1.595-.447.319-.894.574-1.341.893-.447.256-.894.575-1.34.894-.83.638-1.66 1.276-2.426 2.042-.766.703-1.532 1.468-2.17 2.298-.51.83-1.021 1.788-1.404 2.809zm7.596-4.213c.765 1.085 1.914 2.106 3.255 2.234.638.064 1.34-.064 1.85-.447.511-.383.958-.957 1.022-1.532.128-.638-.064-1.34-.447-1.787-.383-.447-1.149-.638-1.66-.383-.51.255-.83 1.085-.446 1.596.191.255.447.447.766.447s.638-.192.83-.447c-.192.319-.511.51-.83.51-.383 0-.702-.191-.958-.446-.447-.639-.191-1.532.511-1.979.702-.383 1.596-.191 2.043.383.51.574.702 1.34.574 2.042-.255 1.469-1.851 2.49-3.255 2.17-.703-.127-1.34-.446-1.915-.893-.575-.319-1.021-.83-1.34-1.468zm.957 3.575a5.95 5.95 0 00-2.234.83c-.639.382-1.213.957-1.66 1.595l-.128.191-.127-.191a4.377 4.377 0 00-1.851-1.723l-.32-.192.256-.128a6.853 6.853 0 013-.893 7.05 7.05 0 013.064.51zm0 0c-1.021-.256-2.043-.383-3-.256-1.021.128-1.979.383-2.809.894v-.32c.83.384 1.532 1.086 1.979 1.852h-.255c.447-.639 1.149-1.213 1.85-1.596.64-.32 1.469-.575 2.235-.575zm27.447 4.851c.574.063 1.149-.256 1.532-.639A2.451 2.451 0 0051 47.425c0-1.148-.638-2.233-1.404-3.063-.766-.83-1.724-1.596-2.49-2.553-.383-.511-.702-1.022-.83-1.596-.19-.575-.19-1.213 0-1.851.384-1.15 1.469-2.17 2.745-2.17 1.277 0 2.362 1.02 2.745 2.17a2.852 2.852 0 010 1.787c-.191.574-.575 1.085-1.213 1.34-.574.192-1.276.064-1.66-.446-.319-.511-.382-1.213.065-1.66-.383.447-.32 1.149.063 1.596a1.278 1.278 0 001.532.319c.51-.192.894-.702 1.022-1.213.191-.51.127-1.149 0-1.66-.384-1.02-1.34-1.914-2.49-1.914-1.085 0-2.106.893-2.425 1.978-.383 1.086.063 2.234.766 3.128.702.958 1.595 1.66 2.425 2.553.766.894 1.468 1.979 1.404 3.255 0 .639-.255 1.213-.702 1.66-.447.383-1.085.702-1.66.575z"/><path d="M48.191 48.32c.256-1.277.383-2.554.192-3.83-.128-.639-.32-1.213-.638-1.724-.32-.51-.766-.957-1.34-1.213-.511-.255-1.15-.319-1.788-.191-.574.127-1.085.574-1.213 1.149-.127.574.128 1.276.702 1.468.575.191 1.277 0 1.788-.32-.511.384-1.15.703-1.851.511-.703-.191-1.022-1.021-.958-1.66.064-.701.702-1.276 1.34-1.467a2.996 2.996 0 011.98.127c.638.32 1.084.766 1.467 1.404.32.575.511 1.213.639 1.852.319 1.404.127 2.68-.32 3.893zm-2.042-7.341c-1.979-1.979-3.064-4.851-3-7.66 0-.702.128-1.404.255-2.106.128-.702.447-1.34.766-1.979a4.816 4.816 0 011.34-1.66c.575-.446 1.277-.766 1.98-.83.765 0 1.468.256 2.042.703.574.447 1.085 1.021 1.404 1.66.32.638.51 1.34.575 2.042.063.702 0 1.468-.128 2.17-.192.702-.51 1.404-1.085 1.915-.575.51-1.404.575-2.107.383-.765-.128-1.34-.638-1.723-1.277-.383-.638-.574-1.34-.51-2.106h.255c0 .447.191.894.447 1.277.255.383.638.702 1.085.83.447.127.893.063 1.34-.128.383-.192.766-.575.958-.958.446-.83.383-1.85-.064-2.68-.447-.83-1.404-1.341-2.362-1.277.958-.128 1.979.383 2.49 1.213.51.83.574 1.915.127 2.808-.191.447-.574.83-1.021 1.085-.447.256-1.022.256-1.468.128-.51-.128-.894-.447-1.213-.894a2.23 2.23 0 01-.51-1.404h.255c-.128 1.34.702 2.745 2.042 3.064.639.191 1.34.064 1.851-.383.51-.447.766-1.085.958-1.724.255-1.34.191-2.744-.447-3.957-.32-.574-.766-1.149-1.277-1.532-.51-.383-1.213-.638-1.85-.638-.64 0-1.277.319-1.788.702-.51.447-.957.957-1.277 1.532a8.565 8.565 0 00-.766 1.915c-.191.638-.255 1.34-.319 2.042-.127 2.873.83 5.681 2.745 7.724zm-1.659-.447a19.203 19.203 0 00-3.32-5.617c-1.404-1.66-3-3.192-4.85-4.34l.255-.128a10.906 10.906 0 001.85 6.702c1.341 1.915 3.384 3.383 5.745 3.894a9.194 9.194 0 01-3.319-1.277 8.834 8.834 0 01-2.617-2.49c-.702-.957-1.213-2.106-1.596-3.255a11.19 11.19 0 01-.383-3.574v-.32l.256.192a20.23 20.23 0 014.85 4.468 16.255 16.255 0 013.128 5.745z"/><path d="M45.32 40.787c-1.086-.191-2.043-.766-2.873-1.404-.83-.638-1.596-1.468-2.298-2.298-.702-.83-1.277-1.723-1.851-2.68-.575-.894-.958-1.916-1.404-2.873.255.447.574.893.83 1.404.255.447.51.958.83 1.34a26.213 26.213 0 001.85 2.554c.639.83 1.404 1.596 2.17 2.298.83.702 1.724 1.276 2.745 1.66zm-3.895-8.042c1.086-.83 1.98-2.043 2.107-3.383.064-.639 0-1.34-.32-1.915-.318-.575-.829-1.021-1.467-1.15a1.893 1.893 0 00-1.724.511c-.447.447-.574 1.15-.319 1.788.192.574 1.021.893 1.532.51.255-.191.447-.51.447-.83 0-.319-.128-.701-.383-.893.319.192.51.51.51.894 0 .383-.127.702-.383.957-.255.255-.702.32-1.085.191-.383-.127-.702-.382-.83-.702-.319-.702-.127-1.531.384-2.106.51-.574 1.34-.766 2.042-.638.766.191 1.34.702 1.66 1.34.319.638.447 1.404.319 2.107-.128.702-.383 1.404-.83 1.914-.574.575-1.085 1.085-1.66 1.405zm3.32-1.022c.127.83.383 1.596.766 2.298s.893 1.34 1.532 1.851l.191.128-.191.128a4.1 4.1 0 00-1.596 1.978l-.128.32-.191-.32c-.511-.957-.766-2.042-.83-3.191-.128-1.085.064-2.17.447-3.192zm0 0c-.256 1.022-.32 2.107-.256 3.192.128 1.085.383 2.106.894 3h-.32c.384-.83.958-1.596 1.788-2.106v.255c-.638-.51-1.149-1.213-1.532-1.979-.383-.702-.574-1.532-.574-2.362zM4.851 49.66c-.574.127-1.213-.192-1.596-.639a3.005 3.005 0 01-.702-1.66C2.49 46.15 3.191 45 3.957 44.107c.766-.893 1.724-1.595 2.426-2.553.702-.893 1.149-2.042.766-3.127-.32-1.022-1.277-1.98-2.426-1.98-1.085 0-2.106.894-2.489 1.916a2.469 2.469 0 000 1.66c.192.51.51 1.02 1.021 1.212.575.32 1.213.191 1.596-.255.32-.447.447-1.15.064-1.596.383.447.383 1.149.064 1.66-.383.51-1.085.638-1.66.446-.574-.191-1.021-.766-1.213-1.34a2.852 2.852 0 010-1.787c.32-1.15 1.468-2.17 2.745-2.17 1.277 0 2.362 1.02 2.745 2.17a3.054 3.054 0 010 1.85 6.293 6.293 0 01-.83 1.596c-.702.958-1.66 1.724-2.49 2.554-.765.83-1.404 1.915-1.404 3.063 0 .575.192 1.15.575 1.596.191.383.766.702 1.404.639z"/><path d="M5.49 48.32c-.384-1.214-.639-2.554-.447-3.83a4.022 4.022 0 01.638-1.852 3.47 3.47 0 011.468-1.404c.638-.32 1.34-.383 1.979-.128.638.192 1.276.703 1.34 1.468.128.703-.255 1.469-.957 1.66-.702.191-1.34-.128-1.851-.51.638.319 1.276.51 1.85.319.575-.192.83-.894.703-1.468-.128-.575-.575-1.022-1.213-1.15-.574-.191-1.213-.127-1.787.192-.575.255-1.022.702-1.34 1.213-.32.51-.511 1.149-.639 1.723-.128 1.213 0 2.553.255 3.766zm2.042-7.341c1.915-2.043 2.872-4.915 2.745-7.66 0-.702-.128-1.404-.32-2.042a8.57 8.57 0 00-.766-1.915c-.319-.575-.765-1.15-1.276-1.532-.51-.447-1.149-.702-1.787-.702-.639 0-1.277.255-1.851.638-.511.383-.958.957-1.277 1.532-.574 1.213-.702 2.68-.447 3.957.128.639.447 1.277.958 1.724.51.447 1.212.51 1.85.383 1.277-.256 2.17-1.724 2.043-3.064h.256c0 .51-.256 1.021-.511 1.404s-.702.766-1.213.894a2.297 2.297 0 01-1.468-.128c-.447-.255-.83-.638-1.021-1.085a2.926 2.926 0 01.127-2.809c.511-.83 1.532-1.34 2.49-1.212-.958-.064-1.915.447-2.362 1.276-.447.83-.51 1.851-.064 2.681.192.383.575.766.958.958.383.191.893.255 1.34.127.447-.127.766-.447 1.085-.83.256-.383.447-.83.447-1.276h.255c.064.702-.127 1.468-.51 2.106-.383.639-1.022 1.15-1.724 1.277-.702.191-1.532.128-2.106-.383-.574-.51-.894-1.213-1.085-1.915-.192-.702-.192-1.404-.128-2.17a5.754 5.754 0 01.575-2.043c.319-.638.83-1.213 1.404-1.66a3.298 3.298 0 012.042-.702c.766 0 1.469.384 1.98.83a4.816 4.816 0 011.34 1.66c.319.638.574 1.277.766 1.979.191.702.255 1.404.255 2.106.128 2.808-.958 5.617-3 7.596zm1.659-.447c.639-2.106 1.724-4.085 3.064-5.809 1.34-1.723 3-3.255 4.851-4.468l.256-.191v.319a11.186 11.186 0 01-.383 3.574c-.32 1.15-.83 2.298-1.596 3.256-.702.957-1.596 1.787-2.617 2.49a9.194 9.194 0 01-3.32 1.276c2.363-.51 4.405-1.979 5.745-3.894 1.34-1.915 1.98-4.34 1.852-6.702l.255.128c-1.851 1.149-3.447 2.68-4.851 4.34-1.34 1.724-2.49 3.638-3.255 5.68z"/><path d="M8.362 40.787a9.097 9.097 0 002.744-1.596c.766-.702 1.532-1.468 2.17-2.297.703-.83 1.277-1.66 1.852-2.554.319-.446.574-.893.83-1.34.255-.447.51-.894.83-1.404-.448.957-.894 1.979-1.405 2.872a25.072 25.072 0 01-1.851 2.68c-.702.83-1.404 1.597-2.298 2.299-.83.574-1.787 1.149-2.872 1.34zm3.958-8.042a6.373 6.373 0 01-1.533-1.405c-.447-.574-.702-1.212-.83-1.915-.127-.702 0-1.468.32-2.106.319-.638.893-1.213 1.66-1.34a2.042 2.042 0 012.042.638c.51.575.702 1.404.383 2.106-.192.32-.51.639-.83.703a1.115 1.115 0 01-1.085-.192c-.255-.255-.447-.638-.383-.957 0-.383.191-.703.51-.894-.255.192-.383.574-.383.894 0 .319.192.638.447.83.51.446 1.34.063 1.532-.511.255-.575.128-1.34-.319-1.788-.447-.446-1.149-.638-1.723-.51-.639.128-1.15.574-1.468 1.149-.32.574-.383 1.276-.32 1.915.064 1.404.894 2.553 1.98 3.383zM9 31.723c0 .83-.191 1.66-.574 2.426a4.632 4.632 0 01-1.532 1.979v-.256c.766.511 1.404 1.213 1.787 2.107h-.32c.511-.958.767-1.979.894-3 .064-1.085-.064-2.17-.255-3.256zm0 0c.383 1.022.574 2.107.51 3.192 0 1.085-.319 2.17-.83 3.191l-.19.32-.128-.32c-.32-.766-.894-1.468-1.596-1.978L6.574 36l.192-.128a6.096 6.096 0 001.532-1.85A8.802 8.802 0 009 31.723zm40.213 17.49c.191 1.212-.894 2.361-2.107 2.425-1.212.064-2.297-.702-3.127-1.532-.83-.83-1.532-1.787-2.362-2.553-.447-.383-.894-.702-1.468-.83-.51-.191-1.085-.127-1.596.064-1.021.383-1.787 1.468-1.723 2.553 0 1.085.766 2.17 1.787 2.554.51.191 1.085.255 1.596 0 .51-.192.957-.575 1.149-1.15.191-.51.127-1.148-.256-1.595-.383-.383-1.149-.51-1.532-.064.383-.447 1.15-.383 1.596 0 .447.447.575 1.085.383 1.66-.191.574-.638 1.085-1.213 1.276a2.18 2.18 0 01-1.787 0c-1.149-.447-1.979-1.596-2.042-2.808 0-1.213.766-2.426 1.978-2.873.575-.255 1.213-.255 1.851-.063.575.191 1.085.51 1.532.893.894.766 1.596 1.724 2.362 2.617.766.83 1.787 1.532 2.936 1.532 1.021.128 2.17-.894 2.043-2.106z"/><path d="M47.936 48.51c-1.213.447-2.49.639-3.83.447-.638-.127-1.276-.383-1.787-.766-.51-.383-.957-.957-1.149-1.595-.191-.639-.255-1.34-.064-1.979.128-.32.256-.638.511-.894.255-.255.575-.446.958-.446.319-.064.702.063 1.02.255.256.191.447.51.511.83.128.702-.191 1.34-.51 1.85.255-.574.51-1.212.319-1.787-.128-.574-.766-.957-1.34-.893-.575.064-1.022.574-1.15 1.149-.191.574-.127 1.213.064 1.787.192.575.575 1.085 1.022 1.468.446.383 1.085.639 1.66.766 1.212.192 2.552.064 3.765-.191zm-6.957-2.233c-1.851-2.043-4.66-3.128-7.34-2.937a7.2 7.2 0 00-3.767 1.277c-1.085.766-1.978 1.979-1.915 3.32.064 1.34.958 2.552 2.043 3.19 1.149.639 2.617.767 3.83.384.638-.192 1.213-.511 1.596-1.086.319-.51.383-1.212.255-1.85-.255-1.277-1.532-2.298-2.872-2.107v-.255c.51.064 1.02.255 1.404.574.383.32.702.766.766 1.277.127.51.064 1.021-.128 1.468-.191.447-.574.83-.957 1.085-.894.51-2.043.383-2.809-.191-.766-.575-1.213-1.596-1.085-2.554a2.913 2.913 0 001.149 2.49c.766.574 1.851.574 2.68.063.384-.255.703-.574.894-1.02.192-.448.192-.894.064-1.341a2.67 2.67 0 00-.702-1.15c-.383-.254-.766-.51-1.213-.51v-.255c1.468-.192 2.937.894 3.192 2.362.191.702.127 1.468-.255 2.106-.383.638-1.086 1.021-1.724 1.213-1.34.383-2.872.255-4.149-.447-1.213-.766-2.17-2.043-2.17-3.51 0-1.469.957-2.745 2.106-3.511 1.15-.83 2.553-1.213 3.958-1.277 2.553-.064 5.361 1.149 7.149 3.192zm-.447-1.724c-2.043-.702-3.957-1.915-5.553-3.383a20.82 20.82 0 01-4.15-5.042l-.127-.256h.255c2.426-.191 4.852.703 6.703 2.234 1.85 1.596 3 3.83 3.319 6.192-.256-1.15-.639-2.298-1.277-3.255-.574-1.022-1.34-1.915-2.234-2.681a7.977 7.977 0 00-3.064-1.66c-1.085-.383-2.298-.51-3.447-.447l.128-.255c1.021 1.915 2.426 3.575 4.021 5.043 1.66 1.404 3.447 2.68 5.426 3.51z"/><path d="M40.787 45.447a9.078 9.078 0 00-1.468-2.809 14.722 14.722 0 00-2.17-2.298c-.766-.766-1.596-1.404-2.426-2.042-.446-.32-.83-.638-1.34-.894-.447-.319-.894-.574-1.34-.893.957.51 1.914.957 2.808 1.595.894.575 1.724 1.277 2.553 1.98.766.765 1.532 1.531 2.107 2.425a6.775 6.775 0 011.276 2.936zm-7.532-4.213a6.111 6.111 0 01-1.276 1.596c-.51.447-1.213.766-1.915.893-1.404.256-3-.702-3.256-2.17-.127-.702.064-1.532.575-2.042.51-.575 1.404-.766 2.043-.383.638.383.893 1.34.51 1.978a.95.95 0 01-.957.447.964.964 0 01-.83-.51c.191.255.51.446.83.446.319 0 .638-.191.766-.446.319-.511.063-1.34-.447-1.596-.575-.256-1.277-.128-1.66.383-.447.383-.638 1.021-.51 1.66.127.638.51 1.212 1.02 1.531.512.383 1.214.51 1.852.447 1.34-.128 2.49-1.085 3.255-2.234zm-1.021 3.575c.766 0 1.596.255 2.298.638s1.34.893 1.851 1.596h-.255c.447-.766 1.149-1.468 1.978-1.852v.32c-.893-.511-1.85-.83-2.808-.894-1.021-.191-2.043-.064-3.064.192zm0 0a7.05 7.05 0 013.064-.511c1.021.064 2.042.383 3 .893l.255.128-.255.128a4.377 4.377 0 00-1.851 1.723l-.128.192-.128-.192c-.446-.638-1.02-1.149-1.66-1.596a6.973 6.973 0 00-2.297-.765zM4.532 4.404c-.192-1.213.894-2.361 2.106-2.425 1.213-.064 2.298.702 3.128 1.532.83.83 1.532 1.787 2.362 2.553.447.383.893.702 1.468.83.51.191 1.085.127 1.595-.064 1.022-.383 1.788-1.468 1.724-2.553 0-1.086-.766-2.17-1.787-2.554-.511-.191-1.085-.255-1.596 0-.51.192-.957.575-1.149 1.15-.191.51-.128 1.148.255 1.595.383.383 1.15.51 1.532.064-.383.447-1.149.383-1.595 0a1.608 1.608 0 01-.383-1.66c.191-.574.638-1.085 1.212-1.276.639-.383 1.277-.32 1.851-.128 1.15.383 1.979 1.532 1.979 2.809 0 1.212-.766 2.425-1.979 2.872-.574.255-1.213.255-1.85.064a4.607 4.607 0 01-1.533-.894c-.893-.766-1.595-1.723-2.361-2.617-.766-.83-1.788-1.532-2.937-1.532-1.085 0-2.17 1.021-2.042 2.234z"/><path d="M5.745 5.17c1.212-.447 2.489-.638 3.83-.447.638.128 1.276.383 1.787.766.51.383.957.958 1.149 1.596.191.638.255 1.34.064 1.979-.128.319-.256.638-.511.893-.255.256-.575.447-.958.447-.319.064-.702-.064-1.02-.255a1.419 1.419 0 01-.512-.83c-.127-.702.192-1.34.511-1.85-.255.574-.51 1.212-.319 1.786.128.575.766.958 1.34.894.575-.064 1.022-.575 1.15-1.149.19-.574.127-1.213-.065-1.787-.191-.575-.574-1.085-1.02-1.468-.448-.383-1.086-.639-1.66-.766-1.213-.256-2.49-.128-3.766.191zm6.957 2.17c1.851 2.043 4.66 3.128 7.34 2.937A7.196 7.196 0 0023.809 9c1.086-.766 1.98-1.979 1.915-3.32-.063-1.34-.957-2.552-2.042-3.19-1.15-.639-2.617-.767-3.83-.384-.638.192-1.213.511-1.596 1.085-.319.511-.383 1.213-.255 1.852.255 1.276 1.532 2.297 2.872 2.106v.255c-.51-.064-1.02-.255-1.404-.574-.383-.32-.702-.766-.766-1.277a2.298 2.298 0 01.128-1.468c.191-.447.574-.83.957-1.085.894-.51 2.043-.383 2.809.191.766.575 1.212 1.596 1.085 2.554a2.913 2.913 0 00-1.15-2.49c-.765-.574-1.85-.574-2.68-.064-.383.256-.702.575-.894 1.022-.191.447-.191.893-.063 1.34.127.447.383.83.702 1.15.383.254.766.51 1.212.51v.255c-1.468.192-2.936-.894-3.191-2.362-.192-.702-.128-1.468.255-2.106.383-.638 1.085-1.021 1.724-1.213 1.34-.383 2.872-.255 4.149.447 1.212.766 2.17 2.043 2.17 3.51 0 1.469-.958 2.745-2.107 3.511-1.148.83-2.553 1.213-3.957 1.277-2.553.064-5.362-1.149-7.149-3.192zm.447 1.724c2.043.702 3.957 1.915 5.553 3.383a20.82 20.82 0 014.15 5.042l.127.256h-.256c-2.425.191-4.85-.702-6.702-2.234-1.85-1.596-3-3.83-3.319-6.192.255 1.15.638 2.298 1.277 3.255.574 1.022 1.34 1.915 2.234 2.681a7.97 7.97 0 003.064 1.66c1.085.383 2.297.51 3.446.447l-.127.255c-1.021-1.915-2.426-3.574-4.021-5.043-1.596-1.404-3.383-2.68-5.426-3.51z"/><path d="M12.894 8.17a9.08 9.08 0 001.468 2.809 14.68 14.68 0 002.17 2.298 37.328 37.328 0 002.425 2.042c.447.32.83.638 1.34.894.448.319.895.574 1.341.893-.957-.51-1.915-.957-2.808-1.595-.894-.575-1.724-1.277-2.553-1.98-.766-.765-1.532-1.531-2.107-2.425a6.775 6.775 0 01-1.276-2.936zm7.596 4.213a6.116 6.116 0 011.276-1.596c.51-.447 1.213-.766 1.915-.893 1.404-.256 3 .702 3.255 2.17.128.702-.064 1.532-.574 2.042-.51.575-1.405.766-2.043.383-.638-.383-.893-1.34-.51-1.978a.95.95 0 01.957-.447c.383 0 .702.255.83.51-.192-.255-.51-.446-.83-.446-.32 0-.638.191-.766.447-.32.51-.064 1.34.447 1.595.574.255 1.276.128 1.66-.383.446-.447.574-1.149.446-1.787-.128-.638-.51-1.213-1.021-1.532-.51-.383-1.213-.51-1.851-.447-1.277.256-2.426 1.213-3.192 2.362zm.957-3.574c-.766 0-1.596-.256-2.298-.639s-1.34-.893-1.851-1.596h.255c-.447.766-1.149 1.469-1.979 1.852v-.32c.894.511 1.851.83 2.809.894 1.085.191 2.106.064 3.064-.191zm0 0a7.05 7.05 0 01-3.064.51c-1.021-.064-2.043-.383-3-.893l-.255-.128.319-.128a4.376 4.376 0 001.85-1.723l.128-.192.128.192c.447.638 1.021 1.149 1.66 1.596a7.138 7.138 0 002.234.766zm27.447-4.852c.574-.127 1.212.192 1.595.639s.639 1.021.703 1.66c.063 1.212-.639 2.361-1.405 3.255-.766.893-1.723 1.595-2.425 2.553-.702.893-1.15 2.042-.766 3.127.319 1.022 1.276 1.98 2.425 1.98 1.085 0 2.107-.894 2.49-1.916a2.469 2.469 0 000-1.66c-.192-.51-.511-1.02-1.022-1.212-.51-.191-1.149-.128-1.532.32-.319.446-.446 1.148-.063 1.595-.383-.447-.383-1.15-.064-1.66.383-.51 1.085-.638 1.66-.447.574.192 1.02.766 1.212 1.34a2.852 2.852 0 010 1.788c-.319 1.15-1.468 2.17-2.745 2.17-1.276 0-2.361-1.02-2.744-2.17a3.054 3.054 0 010-1.85c.191-.575.51-1.15.83-1.597.702-.957 1.66-1.723 2.489-2.553.766-.83 1.404-1.915 1.404-3.064 0-.574-.191-1.149-.574-1.595-.32-.447-.894-.766-1.468-.703z"/><path d="M48.191 5.298c.383 1.213.639 2.553.447 3.83a4.02 4.02 0 01-.638 1.85 3.47 3.47 0 01-1.468 1.405c-.638.32-1.34.383-1.979.128-.638-.192-1.276-.702-1.34-1.468-.128-.703.255-1.469.957-1.66.702-.192 1.34.128 1.851.51-.574-.319-1.212-.574-1.787-.319-.574.192-.83.894-.702 1.469.128.574.574 1.02 1.213 1.149.574.191 1.213.127 1.787-.192.574-.255 1.021-.702 1.34-1.213.32-.51.511-1.149.639-1.723.063-1.213 0-2.553-.32-3.766zm-2.042 7.34c-1.915 2.043-2.872 4.915-2.745 7.66 0 .702.128 1.404.32 2.042a8.5 8.5 0 00.765 1.915c.32.575.766 1.15 1.277 1.532.51.447 1.149.702 1.787.702.639 0 1.277-.255 1.851-.638.51-.383.958-.957 1.277-1.532.574-1.213.702-2.68.447-3.957-.128-.639-.447-1.277-.958-1.724-.51-.447-1.213-.51-1.85-.383-1.277.256-2.171 1.724-2.043 3.064h-.256c0-.51.256-1.021.51-1.404.256-.383.703-.766 1.214-.894a2.297 2.297 0 011.468.128c.447.255.83.638 1.021 1.085a2.926 2.926 0 01-.128 2.809c-.51.83-1.532 1.34-2.489 1.212.958.064 1.915-.447 2.362-1.276.447-.83.51-1.851.064-2.681a2.308 2.308 0 00-.958-.958 1.926 1.926 0 00-1.34-.127c-.447.127-.766.447-1.085.83-.256.383-.447.83-.447 1.276h-.256c-.063-.702.128-1.468.511-2.106.383-.639 1.021-1.15 1.723-1.277.703-.191 1.532-.128 2.107.383.574.51.893 1.213 1.085 1.915.191.702.191 1.404.128 2.17a5.754 5.754 0 01-.575 2.043c-.319.638-.83 1.213-1.404 1.66a3.298 3.298 0 01-2.043.701c-.766 0-1.468-.383-1.978-.83a4.817 4.817 0 01-1.34-1.659 10.58 10.58 0 01-.767-1.979c-.191-.702-.255-1.404-.255-2.106-.064-2.809 1.021-5.617 3-7.596zm-1.659.447c-.639 2.106-1.724 4.085-3.065 5.809a20.23 20.23 0 01-4.85 4.468l-.256.191v-.319a11.188 11.188 0 01.383-3.574c.32-1.15.83-2.298 1.596-3.256.702-.957 1.596-1.787 2.617-2.49a9.194 9.194 0 013.319-1.276c-2.362.51-4.404 1.979-5.745 3.894-1.34 1.915-1.978 4.34-1.85 6.702l-.256-.191c1.851-1.15 3.447-2.681 4.851-4.34 1.34-1.66 2.49-3.575 3.255-5.618z"/><path d="M45.32 12.83a9.1 9.1 0 00-2.745 1.595c-.767.703-1.532 1.469-2.17 2.298-.703.83-1.277 1.66-1.852 2.554-.319.446-.574.893-.83 1.34-.255.447-.51.894-.83 1.404.447-.957.894-1.978 1.405-2.872a25.056 25.056 0 011.85-2.68c.703-.83 1.405-1.597 2.299-2.299.83-.574 1.85-1.085 2.872-1.34zm-3.895 8.042c.575.383 1.086.83 1.533 1.405.446.574.702 1.212.83 1.915.127.702 0 1.468-.32 2.106-.32.638-.894 1.213-1.66 1.34A2.042 2.042 0 0139.767 27c-.51-.575-.702-1.404-.383-2.106.191-.32.51-.639.83-.702a1.115 1.115 0 011.085.191c.255.255.447.638.383.957 0 .383-.192.703-.51.894.255-.191.382-.574.382-.894 0-.319-.191-.638-.447-.83-.51-.446-1.34-.063-1.532.511-.255.575-.127 1.34.32 1.787.446.447 1.149.639 1.723.511.638-.127 1.149-.574 1.468-1.149.32-.574.383-1.276.32-1.915-.065-1.34-.958-2.553-1.98-3.383zm3.32 1.022c0-.83.191-1.66.574-2.426a4.63 4.63 0 011.532-1.979v.256c-.766-.511-1.404-1.213-1.787-2.107h.319c-.51.958-.766 1.979-.894 3-.063 1.15 0 2.17.256 3.256zm0 0c-.383-1.022-.575-2.107-.51-3.192 0-1.085.318-2.17.829-3.191l.191-.32.128.32c.32.766.894 1.468 1.596 1.978l.191.128-.191.128a6.096 6.096 0 00-1.532 1.85 8.768 8.768 0 00-.702 2.299zM4.851 3.957c-.574-.063-1.149.256-1.532.639a2.451 2.451 0 00-.574 1.595c0 1.15.638 2.235 1.404 3.064.766.83 1.723 1.596 2.49 2.553.382.511.701 1.022.83 1.596.19.575.19 1.213 0 1.851-.384 1.15-1.469 2.17-2.746 2.17-1.276 0-2.361-1.02-2.744-2.17a2.852 2.852 0 010-1.787c.191-.574.574-1.085 1.212-1.34.575-.192 1.277-.064 1.66.447.32.51.383 1.212-.064 1.659.383-.447.32-1.149-.064-1.596-.255-.447-.893-.574-1.404-.319-.51.192-.893.702-1.021 1.213-.192.51-.128 1.149 0 1.66.383 1.02 1.34 1.914 2.49 1.914 1.084 0 2.106-.893 2.425-1.978.383-1.085-.064-2.234-.766-3.128-.702-.957-1.596-1.66-2.426-2.553-.83-.894-1.468-1.979-1.468-3.256 0-.638.256-1.212.702-1.66.383-.382.958-.701 1.596-.574z"/><path d="M5.49 5.298c-.256 1.276-.384 2.553-.192 3.83.128.638.319 1.212.638 1.723.32.51.766.957 1.34 1.213.511.255 1.15.319 1.788.191.574-.127 1.085-.574 1.213-1.149.127-.574-.128-1.276-.703-1.468-.574-.191-1.276 0-1.787.32.51-.384 1.15-.703 1.851-.511.702.191 1.022 1.021.958 1.66-.064.702-.702 1.276-1.34 1.468a2.996 2.996 0 01-1.98-.128c-.638-.32-1.085-.766-1.467-1.404-.32-.575-.511-1.213-.639-1.852-.255-1.404-.064-2.68.32-3.893zm2.042 7.34c1.979 1.979 3.064 4.851 3 7.66 0 .702-.128 1.404-.255 2.106-.128.702-.447 1.34-.766 1.979a4.817 4.817 0 01-1.34 1.66c-.575.446-1.277.765-1.98.83a3.298 3.298 0 01-2.042-.703c-.575-.447-1.085-1.021-1.404-1.66a5.754 5.754 0 01-.575-2.042c-.064-.702 0-1.468.128-2.17.191-.702.51-1.404 1.085-1.915.574-.51 1.404-.575 2.106-.383.766.128 1.34.638 1.724 1.277.383.638.574 1.34.51 2.106h-.255c0-.447-.191-.894-.447-1.277-.255-.383-.638-.702-1.085-.83-.447-.127-.893-.063-1.34.128a2.307 2.307 0 00-.958.958c-.447.83-.383 1.85.064 2.68.447.83 1.404 1.341 2.362 1.277-.958.128-1.979-.383-2.49-1.213a2.926 2.926 0 01-.127-2.808c.191-.447.574-.83 1.021-1.085.447-.256 1.021-.256 1.468-.128.51.128.894.447 1.213.894.32.383.51.893.51 1.404h-.255c.128-1.34-.702-2.745-2.042-3.064a1.952 1.952 0 00-1.851.383c-.511.447-.766 1.085-.958 1.723-.255 1.341-.191 2.745.447 3.958.32.574.766 1.149 1.277 1.532.51.383 1.212.638 1.85.638.639 0 1.277-.319 1.788-.702.51-.447.957-.957 1.276-1.532a8.5 8.5 0 00.766-1.915c.192-.638.256-1.34.32-2.042.191-2.873-.766-5.681-2.745-7.724zm1.659.447a19.201 19.201 0 003.32 5.617c1.404 1.66 3 3.192 4.85 4.34l-.255.128a10.906 10.906 0 00-1.85-6.702c-1.341-1.915-3.384-3.383-5.745-3.893a9.194 9.194 0 013.319 1.276 8.835 8.835 0 012.617 2.49c.702.957 1.213 2.106 1.596 3.255.319 1.149.446 2.361.383 3.574v.32l-.256-.192a20.23 20.23 0 01-4.85-4.468 16.255 16.255 0 01-3.129-5.745z"/><path d="M8.362 12.83c1.085.191 2.042.766 2.872 1.404.83.638 1.596 1.468 2.298 2.298.702.83 1.277 1.723 1.851 2.68.574.894.957 1.916 1.404 2.873-.255-.447-.574-.893-.83-1.404-.255-.447-.51-.958-.83-1.34a26.213 26.213 0 00-1.85-2.554c-.639-.83-1.405-1.595-2.17-2.298-.83-.702-1.724-1.276-2.745-1.66zm3.958 8.042c-1.086.83-1.916 2.043-2.107 3.383-.064.639 0 1.34.319 1.915.32.575.83 1.021 1.468 1.15a1.893 1.893 0 001.723-.512c.447-.446.575-1.148.32-1.787-.192-.574-1.022-.893-1.532-.51-.256.191-.447.51-.447.83 0 .319.127.702.383.893-.32-.191-.51-.51-.51-.894 0-.383.127-.702.382-.957s.702-.32 1.085-.191c.383.127.702.383.83.702.32.702.128 1.532-.383 2.106-.51.575-1.34.766-2.043.638a2.53 2.53 0 01-1.659-1.34c-.32-.638-.447-1.404-.32-2.106.128-.703.384-1.405.83-1.915.575-.575 1.086-1.022 1.66-1.405zM9 21.894a6.973 6.973 0 00-.766-2.298 6.096 6.096 0 00-1.532-1.851l-.191-.128.191-.128a4.1 4.1 0 001.596-1.978l.128-.32.191.32c.51.957.766 2.042.83 3.191.064 1.085-.128 2.17-.447 3.192zm0 0c.255-1.022.32-2.107.255-3.192-.127-1.085-.383-2.106-.893-3h.319c-.383.83-1.021 1.532-1.787 2.043v-.256c.638.511 1.149 1.213 1.532 1.98.383.765.51 1.595.574 2.425zm40.213-17.49c.127-1.213-.958-2.234-2.107-2.234-1.148 0-2.17.702-2.936 1.532-.766.83-1.468 1.787-2.361 2.617a4.323 4.323 0 01-1.596.894c-.575.191-1.277.191-1.851-.064-1.15-.447-1.979-1.66-1.979-2.872 0-1.277.83-2.426 2.042-2.809a2.852 2.852 0 011.788 0c.574.255 1.021.702 1.212 1.277.192.574.064 1.276-.382 1.66-.447.382-1.213.446-1.596 0 .447.446 1.149.318 1.532-.065s.447-1.02.255-1.595a2.034 2.034 0 00-1.149-1.15 2.288 2.288 0 00-1.596 0c-1.02.384-1.787 1.469-1.787 2.554 0 1.085.766 2.17 1.724 2.553.51.192 1.085.255 1.595.064.51-.128 1.022-.447 1.468-.83.894-.702 1.532-1.723 2.362-2.553.83-.83 1.915-1.596 3.128-1.532 1.34.255 2.425 1.404 2.234 2.553z"/><path d="M47.936 5.17c-1.213-.319-2.553-.447-3.766-.127-.574.127-1.212.383-1.66.766-.446.382-.83.893-1.02 1.468-.192.574-.192 1.212-.064 1.787.127.574.574 1.085 1.148 1.149a1.143 1.143 0 001.34-.894c.129-.574-.063-1.276-.318-1.787.319.51.574 1.149.51 1.851-.063.32-.255.638-.51.83a1.376 1.376 0 01-1.021.255c-.32 0-.703-.191-.958-.447-.255-.255-.383-.574-.51-.893a3.012 3.012 0 01.063-1.98c.256-.637.639-1.212 1.15-1.595.51-.383 1.148-.638 1.786-.766 1.34-.319 2.617-.064 3.83.383zm-6.957 2.17c-1.788 2.107-4.596 3.32-7.404 3.128-1.405-.064-2.809-.447-3.958-1.277-1.149-.765-2.106-2.042-2.106-3.51.064-1.468 1.02-2.745 2.17-3.51 1.276-.703 2.744-.83 4.149-.448.702.192 1.34.575 1.723 1.213.383.638.447 1.404.256 2.107-.256 1.468-1.724 2.553-3.192 2.361V7.15c.447 0 .894-.255 1.213-.51.383-.256.638-.703.702-1.15.128-.446.064-.893-.064-1.34-.191-.447-.51-.766-.894-1.021-.765-.511-1.85-.447-2.68.063a2.913 2.913 0 00-1.15 2.49c-.127-.958.32-1.979 1.086-2.553.766-.575 1.915-.702 2.808-.192.447.255.766.638.958 1.085.191.447.255.958.127 1.468-.127.511-.383.958-.765 1.277-.383.32-.83.574-1.405.574v-.255c1.277.128 2.617-.83 2.873-2.106.127-.639.063-1.34-.256-1.851-.127-.511-.702-.894-1.34-1.022-1.277-.319-2.745-.255-3.83.383-1.149.702-1.979 1.915-2.043 3.192-.063 1.34.83 2.553 1.915 3.319s2.426 1.149 3.766 1.277c2.681.127 5.49-.894 7.34-2.937zm-.447 1.724c-1.979.83-3.83 2.106-5.362 3.574a20.585 20.585 0 00-4.021 5.043l-.128-.256c1.15.064 2.362-.063 3.447-.446s2.17-.958 3.064-1.66c.894-.766 1.66-1.66 2.234-2.68.574-1.022 1.021-2.107 1.277-3.256-.32 2.362-1.532 4.596-3.32 6.192-1.85 1.595-4.276 2.425-6.702 2.233h-.255l.128-.255a18.65 18.65 0 014.149-5.042c1.595-1.532 3.446-2.745 5.489-3.447z"/><path d="M40.787 8.17c-.191 1.085-.638 2.043-1.212 2.936-.575.894-1.341 1.66-2.107 2.426-.83.702-1.66 1.404-2.553 1.979-.894.638-1.851 1.085-2.809 1.595.447-.319.894-.574 1.34-.893.448-.256.894-.575 1.341-.894.83-.638 1.66-1.276 2.426-2.042.766-.702 1.532-1.468 2.17-2.298.574-.83 1.085-1.788 1.404-2.809zm-7.532 4.213c-.766-1.085-1.915-2.106-3.255-2.234-.638-.064-1.34.064-1.851.447-.51.383-.957.957-1.021 1.532-.128.638.064 1.34.447 1.787.383.447 1.148.638 1.659.383.51-.255.83-1.085.447-1.596-.192-.255-.447-.447-.766-.447-.32 0-.638.192-.83.447.192-.319.51-.51.83-.51.383 0 .702.191.957.446.447.639.192 1.532-.51 1.979-.702.383-1.596.191-2.043-.383a2.433 2.433 0 01-.574-2.043c.255-1.468 1.85-2.489 3.255-2.17.702.128 1.34.447 1.915.894.574.319.957.83 1.34 1.468zm-1.021-3.574a5.949 5.949 0 002.234-.83c.638-.383 1.213-.958 1.66-1.596l.127-.192.128.192a4.377 4.377 0 001.851 1.723l.32.128-.256.255a6.853 6.853 0 01-3 .894 8.417 8.417 0 01-3.064-.574zm0 0c1.021.255 2.043.382 3 .255 1.021-.128 1.979-.383 2.808-.894v.32c-.83-.384-1.531-1.086-1.978-1.852h.255c-.447.639-1.149 1.213-1.85 1.596-.575.383-1.405.575-2.235.575zm-8.298 12.255h1.404v9.702H30v1.149h-6.064V21.064zM3.192 57.32c.191 0 .382-.065.638-.065.319 0 .574.064.766.192a.81.81 0 01.255.574c0 .256-.064.447-.191.575-.192.191-.447.319-.83.319h-.256V60h-.382v-2.68zm.319 1.276h.255c.383 0 .638-.192.638-.575 0-.319-.255-.51-.638-.51h-.32v1.085h.065zm2.744-1.276c.192-.065.447-.065.639-.065.383 0 .574.064.766.192a.725.725 0 01.191.51c0 .32-.191.575-.51.703.19.063.319.255.382.51.064.383.128.639.192.702h-.383c-.064-.063-.128-.319-.192-.638-.063-.383-.191-.51-.51-.51h-.32v1.148h-.255V57.32zm.32 1.212h.319c.383 0 .574-.192.574-.51 0-.32-.255-.511-.638-.511h-.32v1.02h.064zm4.148.128h-1.02v.957h1.148v.32H9.383v-2.682h1.404v.32H9.702v.83h1.021v.255zm3.767.127c0-.383-.065-.83-.065-1.149-.063.32-.19.639-.319 1.022l-.446 1.276h-.256l-.447-1.276c-.127-.383-.255-.703-.319-1.022 0 .32 0 .766-.063 1.15l-.064 1.148h-.32l.192-2.68h.447l.447 1.276c.127.32.191.638.255.894.064-.256.191-.575.255-.894l.447-1.277h.447l.191 2.681h-.319l-.064-1.149zm2.233-1.532v2.681h-.319v-2.68h.32zm1.979 0v1.596c0 .575.255.83.638.83s.639-.255.639-.83v-1.596h.319v1.532c0 .83-.447 1.15-1.021 1.15-.575 0-.958-.32-.958-1.15v-1.532h.383zm5.362 1.532c0-.383-.064-.83-.064-1.149-.064.32-.192.639-.32 1.022l-.446 1.276h-.255l-.447-1.276c-.128-.383-.255-.703-.32-1.022 0 .32 0 .766-.063 1.15l-.064 1.148h-.319l.192-2.68h.446l.447 1.276c.128.32.192.638.255.894.064-.256.192-.575.256-.894l.447-1.277h.446l.192 2.681h-.32l-.063-1.149zm3.766-1.467c.191 0 .383-.065.638-.065.32 0 .575.064.766.192a.81.81 0 01.255.574c0 .256-.064.447-.191.575-.192.191-.447.319-.83.319h-.255V60h-.32v-2.68h-.063zm.319 1.276h.255c.383 0 .639-.192.639-.575 0-.319-.256-.51-.639-.51h-.319v1.085h.064zm2.745-1.276c.191-.065.446-.065.638-.065.383 0 .574.064.766.192a.725.725 0 01.191.51c0 .32-.191.575-.51.703.191.063.319.255.383.51.063.383.127.639.191.702h-.383c-.064-.063-.128-.319-.191-.638-.064-.383-.192-.51-.51-.51h-.32v1.148h-.32V57.32h.065zm.319 1.212h.319c.383 0 .574-.192.574-.51 0-.32-.255-.511-.638-.511h-.32v1.02h.065zm5.042.064c0 .893-.574 1.404-1.213 1.404-.702 0-1.212-.575-1.212-1.34 0-.83.51-1.405 1.212-1.405.767 0 1.213.511 1.213 1.34zm-2.042 0c0 .574.319 1.085.83 1.085.574 0 .83-.51.83-1.085 0-.51-.256-1.085-.83-1.085-.511 0-.83.51-.83 1.085zm3.51-1.276c.192 0 .447-.065.703-.065.51 0 .83.128 1.085.32.255.191.383.51.383.957 0 .447-.128.766-.383 1.021-.256.256-.639.383-1.15.383h-.638V57.32zm.32 2.36h.319c.702 0 1.149-.382 1.149-1.148 0-.638-.32-1.021-1.086-1.021-.191 0-.319 0-.383.063v2.107zm3.637-2.425v1.596c0 .575.256.83.64.83.382 0 .638-.255.638-.83v-1.596h.319v1.532c0 .83-.447 1.15-1.022 1.15-.574 0-.957-.32-.957-1.15v-1.532h.383zm4.98 2.617c-.064.064-.32.128-.639.128-.766 0-1.34-.447-1.34-1.34 0-.83.574-1.405 1.404-1.405.32 0 .51.064.638.128l-.127.255a1.202 1.202 0 00-.51-.127c-.64 0-1.022.383-1.022 1.085 0 .638.383 1.085 1.021 1.085.192 0 .447-.064.575-.128v.32zm2.042-2.297h-.83v-.32h1.98v.32h-.83v2.361h-.32v-2.361z"/></g><defs><clipPath id="clip0_887_1659"><path fill="#fff" d="M0 0h53.681v60H0z"/></clipPath></defs></svg>