<svg width="60" height="60" fill="none" xmlns="http://www.w3.org/2000/svg"><path d="M30.435 9.938c-2.733 0-5.404.435-7.95 1.49a20.418 20.418 0 00-6.77 4.348C11.8 19.503 9.502 24.845 9.44 30.25a20.18 20.18 0 001.428 7.888c.994 2.484 2.485 4.782 4.348 6.77 3.727 3.913 9.069 6.211 14.41 6.273 2.671.062 5.404-.435 7.889-1.366 2.484-.994 4.844-2.423 6.77-4.286 3.913-3.727 6.273-9.006 6.335-14.41.062-2.67-.435-5.404-1.366-7.95a20.418 20.418 0 00-4.348-6.77c-1.864-1.926-4.1-3.54-6.584-4.659a20.578 20.578 0 00-7.888-1.801zm0 0c2.733.062 5.404.621 7.888 1.677s4.783 2.67 6.646 4.596c1.863 1.926 3.416 4.286 4.41 6.833.994 2.546 1.49 5.279 1.428 7.95-.062 2.733-.62 5.466-1.677 7.95a19.824 19.824 0 01-4.658 6.646A20.502 20.502 0 0137.64 50a20.794 20.794 0 01-8.013 1.429c-2.733-.063-5.465-.622-7.95-1.74-2.485-1.118-4.783-2.67-6.646-4.658-1.863-1.987-3.354-4.286-4.348-6.832a20.794 20.794 0 01-1.428-8.013c.062-5.465 2.422-10.807 6.397-14.534 1.988-1.863 4.286-3.354 6.832-4.348 2.485-.931 5.218-1.366 7.95-1.366zM5.031 37.08c-.062 0-.124.063-.248.063-.063 0-.125 0-.187.062-.062 0-.124.062-.248.062-.124.062-.187.062-.249.124 0 0-.062.062-.062.125v.248h-.062s0-.062-.062-.186l-.124-.497c-.062-.125-.062-.187-.062-.249 0 0 .062 0 .062.062.062.063.062.125.124.125h.248c.125 0 .249-.063.435-.125l.497-.124.497-.124c.186-.062.31-.124.31-.124s.063-.124.063-.187v-.124s.062 0 .062.062l.124.373.186.559c.125.373.125.621.062.807-.062.187-.186.249-.372.311-.187.062-.373 0-.56-.124a1.38 1.38 0 01-.372-.746c0-.186-.062-.248-.062-.372zm.062 0c.062.187.062.25.062.311.062.125.062.249.187.31.124.063.186.125.31.187h.373c.124-.062.248-.124.31-.248s.062-.31 0-.56c-.062-.123-.062-.248-.124-.31H6.15l-.435.124-.435.125c-.062 0-.124.062-.186.062zm1.367 3.79c0 .186 0 .31-.062.434-.063.124-.125.187-.311.31-.186.125-.31.25-.373.374-.062.124-.062.186 0 .31v.062s-.062 0-.062-.062c-.124-.31-.248-.497-.248-.621 0-.062.062-.186.31-.31.187-.125.31-.249.435-.311a.471.471 0 00.124-.249c0-.124 0-.248-.062-.372 0-.062-.062-.125-.124-.187-.062 0-.124.063-.248.063-.311.124-.497.248-.56.248l-.186.186v.311s-.062 0-.062-.062l-.373-.87v-.062s.062 0 .062.062c.063.062.063.124.125.186.062.063.124 0 .186 0s.186-.062.31-.124L5.715 40l.56-.248c.248-.125.434-.187.558-.249l.125-.124v-.311s.062 0 .062.062l.497.994c.124.249.186.497.124.683-.062.187-.124.311-.31.373-.125.062-.187.062-.311.062-.125 0-.187-.062-.249-.124-.062 0-.186-.124-.31-.248zm-.187-.622c.125.187.187.373.249.497a.342.342 0 00.31.187c.125.062.249 0 .373 0 .124-.063.248-.125.248-.249.063-.124.063-.31-.062-.497-.062-.124-.124-.186-.186-.31-.31.124-.559.248-.745.31-.062-.062-.125 0-.187.062zm3.23 3.665a2.696 2.696 0 01-.435.373v-.062c.062-.125.125-.249.125-.373v-.31c0-.063-.063-.187-.187-.373-.124-.124-.186-.249-.248-.373h-.124c-.063.062-.311.186-.684.435 0 0-.062 0-.062.062.062.062.062.124.124.186.063.124.187.187.249.249s.186.062.373 0h.062v.062l-.062.062c-.063.062-.187.062-.249.124-.124.062-.248.186-.373.249H7.95v-.063c.125-.124.187-.186.187-.31s-.063-.248-.187-.497c-.062.062-.186.124-.372.248-.249.125-.373.249-.435.311s-.062.124-.062.186c0 .063.062.187.124.31.248.436.559.56.932.56h.062v.062h-.062l-.249.124s-.124.062-.31.124l-.435-.683a3.555 3.555 0 00-.249-.434c-.124-.187-.186-.373-.31-.497l-.124-.249s.062 0 .062.062c.062.124.124.187.248.187s.249-.063.497-.249l.31-.186.311-.186c.062-.063.186-.125.31-.249.187-.124.25-.186.311-.186 0 0 .062-.062.062-.125 0-.062 0-.124-.062-.248v-.062s.062 0 .062.062l.187.31c.062.125.248.373.497.87l.248.497zm1.242 1.677c-.124.248-.248.497-.31.745-.124.249-.187.497-.249.621-.062.187-.124.311-.186.497.497-.062 1.18-.248 1.988-.497l.497.56v.062h-.063c-.124-.063-.186-.125-.248-.125s-.124 0-.186.063c-.063.062-.249.186-.435.31a3.44 3.44 0 00-.497.435c-.248.248-.435.372-.435.372-.062.063-.062.063-.062.125s0 .124.062.186v.062h-.062l-.497-.559-.124-.124c0-.062-.062-.062 0-.062H10c.062.062.124.124.186.124h.125c.062 0 .186-.124.372-.31l.684-.56.372-.248s.062-.062 0-.062h-.062l-.807.186c-.497.125-.808.187-.994.249l-.31.124c-.063 0-.125.062-.125.062v-.062c.062-.062.124-.31.31-.745a10.1 10.1 0 00.373-.808c.124-.31.187-.497.187-.497v-.062h-.063l-.87.745-.31.249c-.124.124-.248.248-.248.31 0 .063 0 .187.062.249s.062.062.062.124h-.062l-.062-.062-.186-.186-.311-.31v-.063h.062a.471.471 0 00.249.124c.124 0 .248-.124.434-.248l.249-.249.62-.496c.125-.125.25-.249.25-.311s0-.186-.063-.248c0-.063-.062-.063 0-.063h.062s0 .063.063.063l.496.31zm2.609 2.733l.248.248.373.311.062.062h-.062c-.124-.062-.186-.124-.31-.062-.125.062-.311.248-.622.621-.124.124-.248.31-.434.497-.125.186-.249.31-.249.373v.124c0 .062.062.124.124.186v.062h-.062l-.372-.31-.31-.249c-.063 0-.063-.062 0-.062h.061c.062.062.187.062.249.062.062-.062.248-.186.496-.497.249-.31.435-.559.622-.683.124-.186.248-.31.248-.373 0-.062 0-.124-.062-.186-.062-.124-.062-.124 0-.124 0-.062-.062-.062 0 0zm1.677 1.429l.745.558c.063 0 .063.063.063.063h-.063c-.062-.063-.124-.063-.186-.063s-.124.063-.186.125-.187.248-.373.497c-.248.31-.373.559-.435.683a.53.53 0 000 .435c.062.124.187.248.31.372.187.125.373.187.498.187.124 0 .248-.062.372-.187.125-.124.311-.372.622-.87.186-.248.248-.372.248-.496s-.062-.186-.124-.249c-.062 0-.062-.062-.062-.062h.124l.621.435s.062.062 0 .062h-.062c-.062-.062-.187-.062-.249-.062s-.124.062-.186.186c-.062.063-.186.249-.31.435-.187.249-.311.435-.435.621a.827.827 0 01-.373.31c-.124.063-.248.063-.435 0-.124-.061-.31-.123-.497-.248-.186-.124-.31-.248-.372-.372s-.124-.249-.124-.373.124-.31.248-.497l.31-.435c.249-.372.435-.62.435-.745 0-.062-.062-.186-.124-.31h-.062.062zm3.727 2.36v2.048c.434-.248.931-.683 1.615-1.304l.683.31v.063h-.062c-.125-.062-.187-.062-.249-.062s-.124.062-.186.186l-.248.497c-.125.248-.249.435-.311.621-.124.31-.248.497-.248.559v.124c0 .062.062.124.186.187 0 0 .062.062 0 .062h-.062l-.684-.31-.186-.063c-.062 0-.062-.062-.062-.062h.062a.48.48 0 00.186.062s.063-.062.125-.062.124-.186.248-.435l.435-.807.186-.373v-.062h-.062l-.62.497c-.436.31-.684.559-.808.62l-.249.187-.124.125v-2.299l-.062.062-.497.994-.186.31c-.063.187-.125.311-.063.373.063.063.063.125.187.187.062 0 .062.062.062.062h-.124l-.125-.062-.248-.124a3.038 3.038 0 00-.435-.187v-.062h.062c.125.062.187.062.31 0 .063-.062.187-.186.311-.435l.125-.31.372-.746c.063-.186.125-.31.063-.372 0-.062-.063-.187-.187-.249-.062 0-.062-.062-.062-.062h.124l.808.31zm6.273 3.416c.124.124.248.186.31.31.063.125.063.249.063.373 0 .249 0 .373.062.497a.857.857 0 00.248.186c.062 0 .062 0 .062.063h-.062c-.31-.063-.559-.125-.62-.187-.063-.062-.125-.186-.063-.435v-.496c0-.125-.062-.187-.124-.249s-.186-.124-.373-.186h-.248c0 .062-.062.124-.062.248-.063.31-.125.497-.125.621s0 .187.063.187c.062.062.124.062.186.124.062 0 .062 0 .062.062h-.062l-.932-.186c-.062 0-.062 0-.062-.063h.248l.125-.124c.062-.062.062-.186.124-.31l.062-.373.124-.559c.062-.31.062-.497.125-.559.062-.062 0-.186 0-.186 0-.062-.125-.062-.187-.125 0 0-.062 0-.062-.062h.062l1.118.187c.31.062.497.186.621.31.125.125.125.31.125.435 0 .124-.063.186-.125.248-.062.063-.124.125-.248.125a.9.9 0 01-.435.124zm-.683-.186c.248.062.435.062.559.062a.474.474 0 00.31-.125.342.342 0 00.187-.31c0-.124 0-.248-.062-.373-.063-.124-.187-.186-.435-.248-.124 0-.249-.062-.373-.062-.062.31-.124.62-.186.807v.249zm2.671.558a1 1 0 01.186-.558c.124-.187.248-.373.497-.497a.86.86 0 01.683-.124c.373 0 .621.186.807.434.187.249.311.56.311.87 0 .31-.186.621-.435.87-.248.248-.559.372-.931.31-.31 0-.622-.186-.808-.435-.186-.186-.31-.497-.31-.87zm.434-.061c0 .186 0 .434.063.62.062.187.124.373.248.497a.564.564 0 00.435.187c.248 0 .434-.062.62-.31.187-.25.25-.498.25-.808 0-.31-.063-.56-.187-.808s-.31-.372-.559-.372c-.186 0-.31.062-.497.124-.124.124-.248.248-.31.435 0 .124-.063.31-.063.434zm4.348.061c.062-.061.187-.248.31-.434.125-.187.187-.31.25-.373.061-.062.061-.062 0-.124 0-.062-.063-.062-.063-.124s-.124-.062-.186-.062h-.062s.062-.063.124-.063l.683-.062c.062 0 .124 0 .124.063 0 0 0 .062-.062.062s-.124 0-.186.062a748.8 748.8 0 00-.248.248l-.311.435c-.186.248-.248.373-.248.435v.497c0 .31.062.559.062.62.062.063.124.063.248.125.062 0 .062 0 .062.062 0 0 0 .062-.062.062h-.932c-.062 0-.062 0-.062-.062 0 0 0-.062.062-.062.125 0 .187-.062.249-.124s.062-.187.062-.373-.062-.31-.062-.435c0 0-.062-.124-.187-.31a3.418 3.418 0 00-.434-.56c-.187-.186-.249-.31-.31-.372-.063-.062-.125-.062-.187-.062s-.062 0-.062-.062h.124l.807-.062h.125c.062 0 0 0 0 0s0 .062-.063.062c-.186 0-.248.062-.248.186 0 .062.062.124.124.186.062.063.249.249.56.622zm2.919-1.552h.063c.186.248.496.683.87 1.304.248.435.372.621.496.745a.475.475 0 00.31.125h.063v.062c-.124 0-.249.062-.435.062-.248.062-.435.062-.497.124h-.062l.062-.062c.124 0 .186-.062.186-.124.063-.062.063-.062.063-.124 0-.063-.063-.187-.187-.373l-.186-.31c-.062 0-.373.062-.87.186-.062.372-.062.559-.062.683 0 .062.062.124.124.124.063 0 .125.062.187 0h.062c-.186 0-.31.062-.373.062-.186.062-.373.062-.435.062h-.062s0-.062.062-.062a.42.42 0 00.249-.372c.062-.187.124-.497.186-.994 0-.31.062-.745.187-1.118zm0 .373a10.21 10.21 0 00-.186 1.118c.124 0 .187-.063.249-.063l.496-.062c-.062-.124-.186-.248-.31-.497l-.248-.496zm5.094.745c-.062 0-.062.062-.124.062-.063 0-.125.062-.249.062-.124.062-.373.124-.745.248l-.435.125s-.062 0-.187.062c-.124.062-.186.062-.186.062-.062 0-.124.062-.124 0 0 0 0-.062.062-.062.124-.062.186-.124.186-.186 0-.063.063-.125 0-.187 0-.062-.062-.31-.186-.621l-.186-.621c-.062-.186-.124-.373-.187-.435-.062-.062-.124-.124-.186-.124h-.311s0-.062.063-.062h.062c.186-.062.434-.124.683-.187l.31-.124h.063s0 .062-.063.062c-.062 0-.124.063-.186.125s-.062.124-.062.124 0 .124.062.248l.249.87.186.497c.062.124.062.248.124.248s.062.062.124.062h.249s.124-.062.31-.124c.125-.062.249-.186.373-.373.124-.186.124-.31.124-.434 0-.063 0-.063.063-.063 0 0 .062 0 .062.063 0 .062.062.186.062.372a.43.43 0 000 .31zm3.106-4.1v-.186h.061c0 .062.062.124.187.186l.186.311v.062h-.062a.671.671 0 00-.435-.186c-.186 0-.31 0-.435.062-.124.062-.186.186-.248.31 0 .125 0 .249.062.311.062.124.124.186.248.186.125 0 .311 0 .56-.062.186-.062.372-.062.434-.062.124 0 .249 0 .31.062a.485.485 0 01.25.249.604.604 0 01.061.559.966.966 0 01-.372.497c-.187.124-.373.186-.684.124v.186s-.062 0-.062-.062c-.062-.062-.186-.248-.434-.621v-.062h.062c.434.31.745.373 1.055.248.125-.062.249-.186.249-.31.062-.124 0-.249-.062-.373a327.49 327.49 0 00-.187-.186c-.062-.062-.186-.062-.248-.062-.124 0-.248 0-.435.062-.248.062-.434.062-.497.062a.47.47 0 01-.248-.124l-.186-.187c-.063-.124-.063-.31 0-.497.062-.186.186-.31.372-.434.062-.063.125-.063.249-.125.062.062.186.062.248.062zm2.856-2.111c.125.062.249.248.435.372h-.062c-.124-.062-.31-.062-.373-.124-.062-.062-.186 0-.31 0-.062 0-.187.124-.373.186-.124.125-.248.187-.31.311v.124c.062.062.186.31.496.683 0 0 0 .063.063.063.062-.063.124-.063.186-.125l.248-.248c.063-.062 0-.187-.062-.373v-.062h.062l.063.062c.062.062.124.186.186.249.124.124.186.248.31.372v.062h-.062c-.124-.124-.248-.124-.31-.124-.124 0-.249.062-.497.249.062.062.124.186.248.372.187.187.249.31.31.373.063.062.125.062.187.062s.187-.062.31-.186c.373-.31.56-.621.435-.994v-.062h.063v.062a494.25 494.25 0 00.248.497l-.621.497c-.062.062-.248.186-.373.31-.186.125-.31.249-.497.31-.124.125-.186.125-.186.125v-.062c.124-.062.186-.186.124-.248 0-.063-.124-.249-.248-.435l-.187-.249-.186-.31c-.062-.062-.124-.187-.248-.31-.124-.125-.187-.25-.249-.25 0 0-.062 0-.124-.061-.062 0-.124 0-.248.062h-.063s0-.062.063-.062l.31-.187c.124-.062.373-.248.808-.62.248-.25.372-.311.434-.311zm2.858-1.118c.186-.063.31-.125.434-.063.125.063.249.063.373.187.186.124.31.186.435.186.124 0 .186-.062.31-.124h.063v.062c-.249.248-.373.373-.497.435-.063.062-.187 0-.373-.124-.186-.125-.31-.249-.435-.249-.124-.062-.186-.062-.31-.062-.125 0-.187.062-.311.186-.062.063-.062.125-.124.187l.186.186.435.435c.062.062.124.062.186.062s.124-.062.187-.124c.062 0 .062-.062.062 0 0 0 0 .062-.062.062l-.622.683-.062.062v-.062c.063-.062.125-.124.125-.186s0-.124-.063-.187c0-.062-.124-.124-.186-.248l-.248-.248-.435-.435c-.186-.187-.373-.31-.435-.373-.062-.062-.124-.062-.186-.062s-.125.062-.249.124h-.062s0-.062.062-.062l.746-.807c.186-.187.434-.31.62-.373.187-.062.311.062.436.186a.47.47 0 01.124.249v.248c0 .062-.062.124-.124.249zm-.56.496c.187-.186.311-.31.373-.434s.062-.249.062-.373a.342.342 0 00-.186-.31c-.124-.125-.248-.125-.373-.187a.67.67 0 00-.434.187 1.353 1.353 0 00-.249.31c.249.248.435.435.56.621.123.062.185.124.248.186zm3.603-2.049l-.062.062c-.186-.062-.435-.124-.808-.248l-.931-.249c-.31-.062-.497-.124-.56-.124h-.186c-.062 0-.062.062-.124.124h-.062v-.062l.621-.808.062-.062v.063c-.124.124-.124.248 0 .31 0 0 .062.062.125.062.062.062.186.062.248.124.124.063.31.125.683.187.31.124.56.186.621.186l-.62-.994a2.316 2.316 0 00-.373-.497c-.125-.062-.187-.062-.311.063h-.062s0-.063.062-.063l.373-.497.062-.062h.062v.063c-.062.062-.062.186-.062.248s.062.124.062.248c.062.063.186.373.497.808.124.186.372.559.683 1.118zm-.621-3.478l.186-.311.249-.435.062-.062v.062c-.062.124-.062.249 0 .31.062.063.31.25.745.498.186.124.373.186.56.31.186.124.372.187.372.187h.124a.134.134 0 00.124-.125s.062-.062.062 0v.063l-.248.372-.186.373c0 .062-.063.062-.063.062v-.062c.063-.124.063-.187 0-.249-.062-.062-.248-.186-.62-.372-.311-.187-.622-.373-.808-.497-.186-.124-.373-.186-.435-.186s-.124.062-.186.124c.062 0 .062 0 .062-.062-.062.062-.062.062 0 0zm1.988-3.603c0-.062-.063-.124-.063-.186v-.062h.063l.62.248c.063 0 .063 0 .063.062h-.124c-.187 0-.435.062-.56.124a.56.56 0 00-.372.373c-.062.124-.062.31-.062.435 0 .124.124.31.248.435.124.124.31.248.497.31.31.124.621.187.932.062.31-.062.497-.248.559-.434.062-.125.062-.311.062-.497 0-.187-.124-.31-.186-.435 0-.062-.063-.062 0-.062h.062c.062 0 .062.062.186.248s.124.31.124.435c0 .186 0 .31-.124.497a.966.966 0 01-.373.497 2.207 2.207 0 01-.559.248c-.186 0-.434 0-.683-.124-.248-.124-.435-.248-.559-.435-.124-.186-.186-.372-.248-.62 0-.25 0-.436.124-.622.062-.124.124-.186.186-.31.062-.125.124-.063.187-.187zm.993-3.23c.124 0 .31 0 .621.062-.186.063-.31.063-.372.125s-.187.124-.187.186c-.062.062-.124.186-.186.373-.062.186-.062.31-.062.434l.062.063h.062c.062.062.373.124.745.248h.063c0-.062.062-.124.062-.186a.396.396 0 000-.373c0-.062-.124-.186-.249-.248 0 0-.062 0 0-.063h.125c.062.063.186.063.31.125.186.062.31.062.435.124.062 0 .062 0 .062.062h-.062c-.124 0-.249 0-.373.062a1.19 1.19 0 00-.248.497c.062 0 .248.062.434.124.249.062.435.124.497.124.063 0 .125 0 .187-.062s.124-.186.186-.31c.124-.435.062-.808-.186-1.056-.062 0-.062-.062-.062-.062h.124l.248.124.249.124-.249.745c-.062.125-.062.249-.124.497l-.186.56c-.062.186-.062.248-.062.248v-.062c.062-.125 0-.249 0-.31 0-.063-.249-.125-.497-.187l-.373-.124-.373-.125c-.062 0-.186-.062-.372-.124-.187-.062-.31-.062-.31-.062s-.063 0-.125.062-.062.062-.124.187l-.062.062v-.063l.124-.372c.062-.124.124-.435.31-.932-.124-.31-.124-.497-.062-.497z" fill="#868686"/><path d="M12.795 28.634h1.118v2.67c0 .746.31 1.305.87 1.615.248.187.559.249.993.249h2.733v1.118h-2.67c-.746 0-1.305-.125-1.74-.435-.124-.062-.31-.186-.559-.435-.31-.372-.496-.683-.62-1.056-.125-.248-.125-.683-.125-1.18v-2.546zm12.05 5.652c-.932 0-1.677-.373-2.298-1.118-.125-.125-.187-.31-.249-.373a4.226 4.226 0 01-.186-.497 4.46 4.46 0 01-.124-1.056v-2.546h1.118v2.67c0 .932.434 1.491 1.242 1.802.186.062.373.062.497.062s.31 0 .497-.062c.807-.31 1.242-.932 1.242-1.802v-2.67h1.118v2.546c0 .435-.062.808-.124 1.056a2.103 2.103 0 01-.187.497 1.301 1.301 0 01-.248.373c-.683.745-1.429 1.118-2.298 1.118zm6.273-5.652h1.304L34.1 30.62l1.677-1.987h1.305l-2.36 2.795 2.236 2.857h-1.305l-1.677-1.988-1.677 1.988h-1.304l2.236-2.857-2.112-2.795zm11.925-.063c.932 0 1.678.373 2.299 1.056.372.56.62 1.118.62 1.74v.062c0 .87-.372 1.615-1.117 2.236-.56.372-1.118.62-1.74.62h-.062c-.87 0-1.614-.372-2.236-1.055-.186-.31-.372-.56-.434-.808-.125-.31-.125-.62-.125-.931v-.062c0-.87.373-1.615 1.056-2.174.497-.31.932-.56 1.305-.56a.896.896 0 01.434-.124zm-1.677 2.858c0 .497.187.931.56 1.304.372.31.683.435 1.055.435h.125c.31 0 .62-.124.931-.31.31-.25.56-.56.684-.932.062-.125.062-.249.062-.497 0-.497-.187-.932-.56-1.305-.372-.31-.745-.497-1.18-.497-.496 0-.931.187-1.304.622-.186.186-.248.372-.31.559-.063.248-.063.434-.063.62z" fill="#868686"/><path d="M59.938 29.938c0 3.913-.745 7.826-2.236 11.49-1.49 3.603-3.727 6.957-6.46 9.752-2.795 2.795-6.087 5.031-9.69 6.522A30.111 30.111 0 0130.063 60c-3.913 0-7.888-.745-11.49-2.236-3.665-1.49-6.957-3.727-9.752-6.46-2.795-2.795-5.031-6.087-6.522-9.751A30.347 30.347 0 010 30.063c0-3.914.807-7.89 2.298-11.492 1.49-3.664 3.727-6.956 6.522-9.751a30.21 30.21 0 019.751-6.522A30.347 30.347 0 0130.062 0c3.913 0 7.826.807 11.49 2.298 3.603 1.49 6.957 3.727 9.69 6.522a29.386 29.386 0 016.46 9.751c1.49 3.54 2.236 7.454 2.236 11.367zm0 0c0-3.913-.808-7.826-2.298-11.429-1.49-3.602-3.727-6.894-6.522-9.69-2.795-2.732-6.087-4.968-9.69-6.459C37.827.87 33.914.124 30 .124c-3.913 0-7.826.808-11.429 2.298-3.602 1.491-6.894 3.727-9.627 6.46-2.733 2.795-4.969 6.087-6.46 9.69C.994 22.173.248 26.086.248 29.937c0 3.913.746 7.764 2.236 11.366a29.77 29.77 0 006.46 9.69 30.104 30.104 0 009.69 6.46c3.602 1.49 7.515 2.298 11.428 2.298 3.913 0 7.826-.746 11.429-2.236a30.103 30.103 0 009.69-6.46 29.769 29.769 0 006.459-9.69c1.553-3.602 2.298-7.515 2.298-11.428z" fill="#868686"/><path d="M2.547 36.708c2.546-1.863 4.099-4.907 4.223-8.012 0-.746-.062-1.553-.248-2.299-.187-.745-.56-1.49-1.18-1.925-.56-.435-1.429-.559-2.112-.186-.31.186-.56.434-.683.807-.125.31-.063.683.124 1.056.372.621 1.118 1.056 1.801 1.056.745 0 1.429-.435 1.988-.932a6.78 6.78 0 001.428-1.801c.435-.621.746-1.367.994-2.112.932-2.919.621-6.335-1.18-8.944h.186a9.317 9.317 0 00-.683 2.236c-.124.746-.248 1.553-.248 2.298 0 .808 0 1.553.124 2.36.124.808.31 1.553.497 2.299a13.798 13.798 0 01-.56-2.299 14.535 14.535 0 01-.186-2.36c0-.807.062-1.552.249-2.36.124-.807.372-1.553.683-2.298l.062-.124.124.124c1.802 2.609 2.236 6.087 1.305 9.13-.249.746-.56 1.491-.994 2.174-.435.683-.87 1.305-1.49 1.864-.622.496-1.367.931-2.237.993-.87 0-1.677-.497-2.05-1.18a1.707 1.707 0 01-.124-1.242c.124-.435.435-.745.808-.932.745-.372 1.677-.248 2.36.249.683.497 1.056 1.304 1.242 2.05a7.57 7.57 0 01.187 2.36 10.303 10.303 0 01-1.243 4.534 11.826 11.826 0 01-3.167 3.416zM13.23 8.571a11.12 11.12 0 01-.187 5.342 11.776 11.776 0 01-2.484 4.783l-.186.248-.062-.31c-.56-1.802-.497-3.727.062-5.466.559-1.677 1.615-3.23 2.857-4.597zm0 0c-1.18 1.429-2.112 2.982-2.609 4.72a9.569 9.569 0 00-.373 2.672c0 .87.125 1.801.435 2.608l-.248-.062c1.18-1.366 1.987-2.981 2.484-4.658a13.62 13.62 0 00.31-5.28zm5.28 1.243a10.265 10.265 0 014.099-2.485 9.156 9.156 0 014.844-.186l.249.062-.187.248a7.606 7.606 0 01-4.161 2.61c-1.615.31-3.292.185-4.845-.25zm0 0c1.614.31 3.23.372 4.782-.062a6.233 6.233 0 002.174-.994c.683-.435 1.242-.994 1.801-1.615l.124.248a9.101 9.101 0 00-4.658.125c-1.615.496-3.044 1.242-4.224 2.298z" fill="#868686"/><path d="M18.385 9.876c.186-.808.497-1.615.87-2.423.372-.745.807-1.49 1.366-2.174.56-.683 1.118-1.304 1.801-1.8a8.787 8.787 0 012.174-1.305l.249-.124-.062.248a8.582 8.582 0 01-2.05 4.348c.435-.683.87-1.367 1.118-2.112.31-.745.497-1.49.621-2.298l.186.186c-.745.373-1.428.808-2.111 1.305-.622.497-1.243 1.118-1.802 1.739a17.075 17.075 0 00-1.428 2.05c-.31.745-.683 1.552-.932 2.36zm-3.043 4.161c1.118-.87 1.987-1.987 2.422-3.292.248-.62.373-1.304.435-1.987 0-.683-.062-1.367-.435-1.926-.31-.559-.87-.994-1.49-1.118a1.64 1.64 0 00-1.678.683c-.372.56-.434 1.305-.062 1.864.373.559 1.056.932 1.74.807-.684.187-1.491-.124-1.926-.745a1.873 1.873 0 010-2.112c.186-.31.497-.559.87-.745.372-.124.745-.187 1.117-.124.746.124 1.367.62 1.74 1.304.372.683.496 1.429.434 2.112-.062.745-.186 1.428-.497 2.112a6.326 6.326 0 01-2.67 3.167zm42.174 22.609c-1.305-.87-2.36-2.112-3.168-3.478-.745-1.367-1.18-2.92-1.304-4.534 0-.808 0-1.615.186-2.36.186-.746.559-1.553 1.242-2.05.683-.497 1.615-.622 2.36-.249.373.186.684.497.808.932.124.435.062.87-.124 1.242-.435.745-1.243 1.242-2.05 1.18-.87 0-1.615-.435-2.236-.994a7.038 7.038 0 01-1.49-1.863c-.436-.683-.746-1.428-.995-2.174-.993-3.043-.559-6.522 1.243-9.13l.124-.124.062.124c.31.745.559 1.49.683 2.298.124.807.249 1.553.249 2.36 0 .808-.063 1.553-.187 2.36a13.79 13.79 0 01-.559 2.299c.249-.746.435-1.491.497-2.299.124-.745.124-1.552.124-2.36 0-.807-.124-1.553-.248-2.298a9.32 9.32 0 00-.683-2.236h.186c-1.74 2.609-2.112 5.963-1.18 8.944.248.745.559 1.429.994 2.112.434.683.87 1.304 1.428 1.801.56.497 1.242.87 1.988.932.745.062 1.428-.373 1.801-1.056.186-.31.248-.683.124-1.056-.124-.31-.372-.621-.683-.745a2.143 2.143 0 00-2.112.186c-.62.435-.931 1.18-1.18 1.925-.186.746-.248 1.553-.248 2.299.248 3.105 1.8 6.149 4.348 8.012z" fill="#868686"/><path d="M46.77 8.571c-.248 1.802-.062 3.603.373 5.28.497 1.677 1.304 3.292 2.484 4.658l-.248.062c.248-.87.435-1.739.435-2.67a9.91 9.91 0 00-.373-2.671c-.559-1.677-1.49-3.23-2.67-4.659zm0 0c1.242 1.305 2.298 2.858 2.857 4.659.56 1.739.621 3.664.062 5.466l-.062.31-.186-.248a11.776 11.776 0 01-2.485-4.783c-.434-1.801-.496-3.664-.186-5.404zm-5.217 1.243C40.31 8.758 38.882 8.012 37.39 7.64c-1.552-.435-3.167-.497-4.658-.124l.124-.249a7.462 7.462 0 001.801 1.615 7.42 7.42 0 002.174.932c1.491.372 3.106.31 4.72 0zm0 0c-1.553.496-3.23.62-4.845.248a7.606 7.606 0 01-4.161-2.609l-.187-.248.249-.062a9.156 9.156 0 014.844.186c1.553.497 2.982 1.305 4.1 2.485z" fill="#868686"/><path d="M41.677 9.814c-.248-.808-.621-1.553-1.056-2.298a9.338 9.338 0 00-1.428-2.05c-.56-.621-1.118-1.242-1.802-1.74-.62-.496-1.366-.993-2.111-1.304l.186-.186c.124.807.31 1.553.62 2.298.312.745.684 1.429 1.119 2.112a8.58 8.58 0 01-2.05-4.348l-.062-.248.249.124c.807.373 1.49.807 2.174 1.304.683.56 1.242 1.18 1.8 1.801.56.684.994 1.43 1.367 2.174a7.1 7.1 0 01.994 2.36z" fill="#868686"/><path d="M44.658 14.037c-1.18-.745-2.174-1.863-2.67-3.168-.249-.683-.435-1.366-.497-2.111-.063-.746.062-1.49.434-2.112a2.864 2.864 0 011.74-1.304c.372-.063.745-.063 1.118.124.372.124.62.435.87.745.434.621.434 1.49 0 2.112-.436.559-1.181.932-1.926.745.683.062 1.428-.248 1.739-.807.373-.56.31-1.304-.062-1.864a1.64 1.64 0 00-1.677-.683c-.621.124-1.18.56-1.491 1.118-.31.56-.435 1.243-.435 1.926 0 .683.187 1.366.435 1.987.435 1.305 1.304 2.423 2.422 3.292zM30 1.801c.808 0 1.553.31 2.112.87.559.559.931 1.304.994 2.112 0 .807-.249 1.615-.87 2.236-.559.62-1.428.931-2.236.931-.87 0-1.677-.372-2.236-.931a3.37 3.37 0 01-.87-2.236c0-.808.373-1.615.932-2.112.621-.621 1.429-.932 2.174-.87zm0 0c-.808 0-1.553.31-2.112.87-.559.559-.807 1.366-.807 2.112 0 .745.372 1.49.87 1.987.558.497 1.241.808 1.987.808.745 0 1.428-.31 1.988-.808.558-.497.869-1.242.869-1.987 0-.746-.248-1.553-.807-2.112-.435-.56-1.18-.87-1.988-.87zM15.776 38.51c.063.558.125 1.18.125 1.738.062.56.062 1.18.062 1.74 0 .559 0 1.18-.062 1.739 0 .559-.063 1.18-.125 1.739-.062-.56-.124-1.18-.124-1.74-.062-.558-.062-1.18-.062-1.738 0-.56 0-1.18.062-1.74 0-.62.062-1.18.124-1.739zm2.858 0c.062.807.124 1.614.124 2.422 0 .807 0 1.615.062 2.422 0 .807 0 1.615-.062 2.422 0 .808-.062 1.615-.124 2.423-.063-.808-.125-1.615-.125-2.423 0-.807 0-1.615-.062-2.422 0-.807 0-1.615.062-2.422 0-.808.062-1.615.125-2.423zm2.856 0c.063.931.125 1.863.125 2.794.062.932.062 1.864.062 2.795v2.795c0 .932-.062 1.864-.124 2.795-.062-.931-.124-1.863-.124-2.795-.063-.931-.063-1.863-.063-2.795v-2.795c0-.931.063-1.863.125-2.795zm2.858 0c.062.993.124 2.049.124 3.043 0 .994 0 2.05.062 3.043 0 .994 0 2.05-.062 3.044 0 .993-.062 2.05-.124 3.043-.062-.994-.124-2.05-.124-3.043 0-.994 0-2.05-.063-3.044 0-.993 0-2.05.063-3.043 0-1.056.062-2.05.124-3.044zm2.857 0c.062 1.055.062 2.173.124 3.23v3.229c0 1.056 0 2.174-.062 3.23s-.062 2.174-.186 3.23c-.062-1.056-.062-2.174-.125-3.23v-3.23c0-1.056 0-2.174.063-3.23.062-1.118.062-2.174.186-3.23zm2.857 0c.062 1.055.124 2.111.124 3.105 0 1.056 0 2.112.062 3.105 0 1.056 0 2.112-.062 3.106 0 1.056-.062 2.112-.124 3.106-.062-1.056-.124-2.112-.124-3.106 0-1.056 0-2.112-.062-3.105 0-1.056 0-2.112.062-3.106 0-1.056 0-2.112.124-3.106zm2.858 0c.061 1.055.123 2.173.123 3.23 0 1.055 0 2.173.063 3.229 0 1.056 0 2.174-.063 3.23 0 1.056-.062 2.174-.124 3.23-.062-1.056-.124-2.174-.124-3.23s0-2.174-.062-3.23c0-1.056 0-2.174.062-3.23 0-1.118 0-2.174.124-3.23zm2.794 0c.062.993.125 2.049.125 3.043 0 .994 0 2.05.062 3.043 0 .994 0 2.05-.063 3.044 0 .993-.062 2.05-.124 3.043-.062-.994-.124-2.05-.124-3.043 0-.994 0-2.05-.062-3.044 0-.993 0-2.05.062-3.043.062-1.056.062-2.05.124-3.044zm2.857-.063c.063.87.125 1.801.125 2.671 0 .87 0 1.801.062 2.67 0 .87 0 1.802-.062 2.672 0 .87-.063 1.8-.125 2.67-.062-.87-.124-1.8-.124-2.67 0-.87 0-1.802-.062-2.671 0-.87 0-1.801.062-2.671.062-.87.062-1.74.124-2.67zm2.858 0c.062.745.124 1.49.124 2.236.062.745.062 1.49.062 2.236 0 .746 0 1.49-.062 2.236 0 .746-.062 1.49-.124 2.236-.063-.745-.125-1.49-.125-2.236-.062-.745-.062-1.49-.062-2.236 0-.745 0-1.49.062-2.236.063-.683.063-1.428.125-2.236zm2.857 0c.062.621.124 1.18.124 1.801.062.622.062 1.18.062 1.802 0 .62 0 1.18-.062 1.8 0 .622-.062 1.181-.124 1.802-.062-.621-.125-1.18-.125-1.801-.062-.621-.062-1.18-.062-1.801s0-1.18.063-1.802c.062-.559.062-1.18.124-1.8zm0-15.217c-.062-.56-.125-1.18-.125-1.74-.062-.558-.062-1.18-.062-1.738 0-.56 0-1.18.063-1.74 0-.559.062-1.18.124-1.739.062.56.124 1.18.124 1.74.062.558.062 1.18.062 1.738 0 .56 0 1.18-.062 1.74 0 .62-.062 1.18-.124 1.739zm-2.857 0c-.063-.808-.125-1.615-.125-2.423 0-.807 0-1.614-.062-2.422 0-.807 0-1.615.062-2.422 0-.808.063-1.615.125-2.423.062.808.124 1.615.124 2.423 0 .807 0 1.615.062 2.422 0 .807 0 1.615-.062 2.422 0 .808-.062 1.615-.124 2.423zm-2.858 0c-.062-.932-.124-1.864-.124-2.795-.062-.932-.062-1.864-.062-2.795v-2.795c0-.932.062-1.864.124-2.795.062.931.124 1.863.124 2.795.063.931.063 1.863.063 2.795v2.795c0 .931-.063 1.863-.125 2.795zm-2.857 0c-.062-.994-.124-2.05-.124-3.044 0-.994 0-2.05-.062-3.043 0-.994 0-2.05.062-3.044 0-.993.062-2.05.124-3.043.062.994.125 2.05.125 3.043 0 .994 0 2.05.062 3.044 0 .994 0 2.05-.063 3.043 0 1.056 0 2.05-.124 3.044zm-2.857 0c-.062-1.056-.062-2.174-.124-3.23v-3.23c0-1.056 0-2.174.062-3.23.062-1.055.062-2.174.186-3.23.063 1.056.063 2.175.125 3.23v3.23c0 1.056 0 2.174-.063 3.23-.062 1.118-.062 2.174-.186 3.23zm-2.857 0c-.062-1.056-.124-2.112-.124-3.106 0-1.056 0-2.112-.062-3.105 0-1.056 0-2.112.062-3.106 0-1.056.062-2.112.124-3.106.062 1.056.124 2.112.124 3.106 0 1.056 0 2.112.062 3.106 0 1.056 0 2.111-.062 3.105 0 1.056 0 2.112-.124 3.106zm-2.795 0c-.062-1.056-.124-2.174-.124-3.23s0-2.174-.062-3.23c0-1.056 0-2.174.062-3.23 0-1.055.062-2.174.124-3.23.062 1.056.124 2.175.124 3.23 0 1.056 0 2.174.062 3.23 0 1.056 0 2.174-.062 3.23-.062 1.118-.062 2.174-.124 3.23zm-2.857.062c-.062-.994-.124-2.05-.124-3.044 0-.993 0-2.05-.063-3.043 0-.994 0-2.05.063-3.043 0-.994.062-2.05.124-3.044.062.994.124 2.05.124 3.043 0 .994 0 2.05.062 3.044 0 .994 0 2.05-.062 3.043-.062.994-.062 1.988-.124 3.044zm-2.858 0c-.061-.87-.124-1.801-.124-2.67 0-.87 0-1.802-.062-2.672 0-.87 0-1.8.062-2.67 0-.87.063-1.802.125-2.671.062.87.124 1.8.124 2.67 0 .87 0 1.802.062 2.671 0 .87 0 1.802-.062 2.671-.062.87-.062 1.74-.124 2.67zm-2.856 0c-.063-.745-.125-1.49-.125-2.236-.062-.745-.062-1.49-.062-2.236 0-.745 0-1.49.062-2.236 0-.745.062-1.49.125-2.236.062.745.124 1.49.124 2.236.062.745.062 1.49.062 2.236 0 .745 0 1.49-.062 2.236-.062.683-.062 1.428-.124 2.236zm-2.858 0c-.062-.621-.124-1.18-.124-1.801-.062-.622-.062-1.18-.062-1.802 0-.62 0-1.18.062-1.8 0-.622.062-1.18.124-1.802.063.621.125 1.18.125 1.801.062.621.062 1.18.062 1.801 0 .622 0 1.18-.062 1.802-.063.559-.063 1.18-.125 1.8z" fill="#868686"/><path d="M15.963 19.69l-.062-3.54h.062v3.54z" fill="#868686"/><path d="M15.963 23.292l-.062-7.143.062 3.54v3.603z" fill="#868686"/><path stroke="#868686" stroke-width=".33" d="M11 38.335h38m-38-15h38"/></svg>