<svg width="80" height="60" fill="none" xmlns="http://www.w3.org/2000/svg"><g clip-path="url(#clip0_887_1809)" fill="#868686"><path d="M27.769 8.713c.141-.992 1.275-1.842 2.408-1.487 1.063.283 1.771 1.558 1.275 2.62-.425 1.063-1.63 1.63-2.763 1.346-1.062-.283-1.841-1.275-2.125-2.266-.212-1.063.071-2.196.709-3.046a4.94 4.94 0 012.55-1.771 6.601 6.601 0 013.117-.142c.992.212 1.983.567 2.904.992-1.913-.709-3.967-1.205-5.95-.567-.921.354-1.842.85-2.338 1.7-.567.78-.85 1.842-.637 2.763.212.92.92 1.77 1.841 2.054.921.283 1.984-.212 2.338-1.062.425-.85-.142-1.984-1.063-2.338-.92-.425-2.054.212-2.266 1.204zm24.439 0c-.213-.992-1.417-1.63-2.338-1.346-.92.284-1.487 1.488-1.062 2.338.425.85 1.487 1.346 2.337 1.062.921-.283 1.63-1.133 1.842-2.054.212-.92-.07-1.983-.638-2.763-.566-.85-1.416-1.346-2.337-1.7-1.842-.566-3.967-.141-5.88.567.921-.425 1.913-.78 2.905-.992.991-.141 2.054-.141 3.117.142.991.283 1.983.92 2.55 1.77.637.851.92 1.984.708 3.047a3.008 3.008 0 01-2.125 2.267c-1.063.283-2.338-.284-2.763-1.346-.425-1.063.284-2.338 1.275-2.621 1.134-.142 2.267.637 2.409 1.63zm26.564 6.447c-.496-.921-1.7-1.276-2.55-.78-.85.496-1.133 1.771-.496 2.48.567.708 1.771.991 2.55.495.85-.425 1.346-1.416 1.346-2.408s-.496-1.913-1.204-2.55c-.709-.638-1.7-.992-2.692-1.134-1.983-.212-3.967.709-5.667 1.842a12.48 12.48 0 012.621-1.63 6.329 6.329 0 013.046-.566c1.063.07 2.125.425 2.904 1.133.78.709 1.346 1.7 1.346 2.834 0 1.063-.566 2.196-1.558 2.692-.992.496-2.338.283-2.975-.638-.709-.92-.284-2.337.637-2.833 1.063-.425 2.338.142 2.692 1.062zm-77.568 0c.354-.992 1.7-1.488 2.692-.921.921.495 1.346 1.912.638 2.833-.638.92-1.984 1.204-2.976.638C.567 17.214 0 16.15 0 15.018c0-1.063.567-2.125 1.346-2.834a4.39 4.39 0 012.904-1.133 6.326 6.326 0 013.046.566c.921.425 1.842.992 2.621 1.63-1.7-1.134-3.612-2.055-5.667-1.842-.991.07-1.983.425-2.692 1.133-.708.638-1.204 1.559-1.204 2.55 0 .921.496 1.913 1.346 2.409.85.496 1.984.213 2.55-.496.638-.708.284-1.983-.496-2.48-.85-.637-2.125-.283-2.55.638z"/><path d="M26.635 11.405c0-.354-.142-.708-.425-.85-.283-.213-.637-.142-.992 0-.283.142-.566.354-.708.637-.142.284-.142.638-.07.921.212.638.85.992 1.487 1.134a4.684 4.684 0 001.983 0c1.346-.284 2.48-1.063 3.542-1.984.992-.92 1.984-1.983 3.188-2.692a5.343 5.343 0 012.054-.637c.709 0 1.488.142 2.054.567.638.354 1.134.991 1.276 1.7.212.708 0 1.487-.425 2.125-.425.567-1.063 1.062-1.771 1.204-.709.142-1.488-.07-2.055-.496a1.933 1.933 0 01-.637-.85c-.142-.354-.071-.708.07-1.062.142-.355.426-.567.78-.709.354-.142.708-.142.992 0-.355-.142-.709-.142-.992 0a1.708 1.708 0 00-.709.709c-.354.637 0 1.345.567 1.77.496.426 1.204.567 1.913.426.637-.142 1.204-.567 1.558-1.134.354-.566.496-1.204.354-1.842-.141-.637-.566-1.133-1.133-1.487-.567-.354-1.204-.496-1.842-.496-.637 0-1.275.283-1.912.567-1.205.637-2.126 1.7-3.188 2.62-1.063.921-2.267 1.7-3.684 1.984a5.365 5.365 0 01-2.125 0c-.637-.212-1.417-.567-1.63-1.346-.07-.354-.07-.708.142-1.062.142-.355.496-.567.78-.709.354-.142.708-.142 1.062.071.355.142.496.567.496.921z"/><path d="M53.412 11.405c0-.354.142-.708.425-.92.283-.213.708-.213 1.063-.072.354.142.637.354.779.709.142.354.212.708.142 1.062-.213.78-.921 1.134-1.63 1.346a3.622 3.622 0 01-2.125 0c-1.417-.283-2.62-1.063-3.684-1.983-1.062-.921-1.983-1.984-3.187-2.621a3.563 3.563 0 00-1.913-.567c-.637-.07-1.346.142-1.842.496-.566.354-.991.85-1.133 1.487-.142.638 0 1.275.354 1.842.354.567.921.992 1.559 1.134.637.141 1.346 0 1.912-.425.496-.355.85-1.134.567-1.771a1.707 1.707 0 00-.708-.709c.354.142.637.354.779.709.141.283.212.708.07 1.062a1.934 1.934 0 01-.637.85c-.567.425-1.346.638-2.054.496-.709-.142-1.346-.637-1.771-1.204-.425-.567-.638-1.346-.425-2.125.212-.709.708-1.346 1.275-1.7.637-.425 1.346-.567 2.054-.567.709 0 1.417.283 2.055.637 1.275.709 2.195 1.771 3.187 2.692 1.063.921 2.196 1.63 3.542 1.984.638.141 1.346.212 1.984 0 .637-.142 1.275-.496 1.487-1.134.071-.283.071-.637-.07-.92-.142-.284-.426-.567-.709-.638a1.21 1.21 0 00-.992 0c-.212.142-.354.496-.354.85z"/><path d="M58.3 11.405c0-.354-.142-.708-.425-.85-.283-.213-.638-.142-.992 0-.283.142-.567.354-.708.637-.142.284-.142.638-.071.921.212.638.85.992 1.488 1.134a4.684 4.684 0 001.983 0c1.346-.284 2.48-1.063 3.542-1.984.992-.92 1.983-1.983 3.188-2.692a5.344 5.344 0 012.054-.637c.708 0 1.488.142 2.054.567.638.354 1.134.991 1.275 1.7.213.708 0 1.487-.425 2.125-.425.567-1.062 1.062-1.77 1.204-.709.142-1.488-.07-2.055-.496a1.934 1.934 0 01-.638-.85c-.141-.354-.07-.708.071-1.062.142-.355.425-.567.78-.709.354-.142.708-.142.991 0-.354-.142-.708-.142-.991 0a1.707 1.707 0 00-.709.709c-.354.637 0 1.345.567 1.77.496.426 1.204.567 1.912.426.638-.142 1.205-.567 1.559-1.134.354-.566.496-1.204.354-1.842-.142-.637-.567-1.133-1.133-1.487-.567-.354-1.204-.496-1.842-.496-.638 0-1.275.283-1.913.567-1.204.637-2.125 1.7-3.187 2.62-1.063.921-2.267 1.7-3.684 1.984a5.365 5.365 0 01-2.125 0c-.638-.212-1.417-.567-1.63-1.346-.07-.354-.07-.708.142-1.062.142-.355.496-.567.78-.709.354-.142.708-.142 1.062.071.354.142.496.567.496.921zm-36.553 0c0-.354.142-.708.425-.92.284-.213.709-.213 1.063-.072.354.142.637.354.78.709.14.354.212.708.14 1.062-.212.78-.92 1.134-1.628 1.346a3.622 3.622 0 01-2.126 0c-1.416-.283-2.62-1.063-3.683-1.983-1.134-.921-2.054-1.984-3.259-2.621a3.563 3.563 0 00-1.912-.567c-.638-.07-1.346.142-1.842.496-.567.354-.992.85-1.134 1.487-.141.638 0 1.275.355 1.842.354.567.92.992 1.558 1.134a2.36 2.36 0 001.913-.425c.496-.355.85-1.134.566-1.771a1.708 1.708 0 00-.708-.709c.354.142.638.354.78.709.14.283.212.708.07 1.062a1.934 1.934 0 01-.638.85c-.566.425-1.345.638-2.054.496-.708-.142-1.346-.637-1.77-1.204a2.47 2.47 0 01-.426-2.125c.213-.709.709-1.346 1.275-1.7.638-.425 1.346-.567 2.055-.567.708 0 1.416.283 2.054.637 1.275.709 2.196 1.771 3.188 2.692 1.062.921 2.196 1.63 3.542 1.984.637.141 1.346.212 1.983 0 .638-.142 1.275-.496 1.488-1.134.07-.283.07-.637-.071-.92-.142-.284-.425-.567-.709-.638a1.21 1.21 0 00-.991 0c-.142.142-.284.496-.284.85zm48.808 6.375H9.42c0 3.4-2.762 6.163-6.162 6.163v20.26c3.4 0 6.162 2.763 6.162 6.163h61.134c0-3.4 2.763-6.163 6.163-6.163v-20.26a6.167 6.167 0 01-6.163-6.163zm-49.8 25.431H11.76v-16.08h2.054v14.38h6.872v1.7h.07zm21.677-6.73c0 4.96-2.62 6.943-6.092 6.943-3.33 0-5.809-1.913-5.809-6.871V27.13h2.125v9.492c0 3.613 1.63 5.1 3.755 5.1 2.408 0 3.896-1.558 3.896-5.1V27.13h2.125v9.35zm20.756 6.73l-2.055-3.542a46.81 46.81 0 01-1.841-3.187h-.071c-.425.92-.921 1.77-1.771 3.187l-1.913 3.542H53.13l4.958-8.146-4.746-7.934h2.409l2.125 3.755c.566 1.062 1.062 1.841 1.487 2.691h.071c.425-.92.85-1.7 1.488-2.691l2.196-3.755h2.408l-4.888 7.863 4.96 8.217h-2.41zM11.547 59.93l-1.913-4.89h.708l1.275 3.542c.071.284.213.567.284.78.07-.284.142-.567.283-.78l1.346-3.542h.638l-1.913 4.888h-.708zm5.029 0v-4.89h.638v4.888h-.638zm3.542 0v-4.89h1.842c.354 0 .567 0 .78.071l.637.213c.141.141.283.283.425.495.07.213.141.426.141.638 0 .425-.141.78-.425 1.063-.283.283-.779.425-1.416.425h-1.276v1.983h-.708zm.638-2.551h1.275c.425 0 .708-.07.92-.212a.898.898 0 00.284-.638c0-.213-.07-.354-.142-.496-.07-.142-.212-.212-.425-.283-.141 0-.283-.071-.637-.071h-1.275v1.7zm8.925.991l.638-.07c0 .212.07.425.212.637.071.142.284.284.496.355.213.07.496.141.78.141.283 0 .495-.07.637-.141.212-.071.354-.142.425-.284.07-.141.142-.283.142-.425 0-.141-.071-.283-.142-.425-.07-.142-.213-.212-.425-.283-.142-.071-.425-.142-.85-.213a3.565 3.565 0 01-.921-.283c-.212-.142-.425-.283-.496-.425-.142-.213-.142-.354-.142-.638 0-.283.071-.495.213-.708.142-.212.354-.354.637-.496.284-.142.567-.142.921-.142.355 0 .709.071.992.142.283.071.496.283.638.496.141.213.212.496.212.78l-.637.07c0-.283-.142-.567-.355-.708-.212-.142-.495-.213-.85-.213-.425 0-.708.071-.85.213a.614.614 0 00-.283.496c0 .212.07.354.213.425.141.141.425.212.991.354.496.142.921.212 1.063.283.283.142.496.284.637.496.142.212.213.425.213.708 0 .284-.071.496-.213.709a1.672 1.672 0 01-.637.567 1.96 1.96 0 01-.921.212c-.425 0-.85-.07-1.133-.212-.284-.142-.567-.355-.709-.567-.425-.284-.496-.567-.496-.85zm6.517 1.56v-4.89h3.542v.567h-2.904v1.488h2.692v.566h-2.692v1.7h3.046v.567h-3.684zm6.305 0v-4.89h2.196c.425 0 .78.071.992.142.212.07.425.212.566.496.142.212.213.496.213.708 0 .354-.142.638-.354.85a1.48 1.48 0 01-1.063.425l.425.213c.213.142.354.425.567.637l.85 1.346h-.85l-.638-.991a14.194 14.194 0 01-.495-.709c-.142-.142-.213-.283-.355-.354-.07-.07-.212-.07-.283-.142H43.21v2.196h-.708v.071zm.708-2.764h1.417c.283 0 .496 0 .709-.07.141-.071.283-.142.354-.284.07-.141.141-.283.141-.425 0-.212-.07-.425-.283-.566-.142-.142-.425-.213-.78-.213h-1.558v1.559zm7.297 2.764l-1.913-4.889h.708l1.276 3.542c.07.284.212.567.283.78.07-.284.142-.567.283-.78l1.346-3.542h.638l-1.913 4.888h-.708zm4.958 0v-4.89h.638v4.888h-.638zm7.084-1.701l.638.142c-.142.566-.355.92-.709 1.204-.354.283-.779.425-1.275.425-.496 0-.992-.142-1.275-.354-.354-.213-.567-.496-.78-.921-.14-.425-.282-.85-.282-1.346 0-.496.07-.992.283-1.346.212-.354.496-.638.85-.85.354-.212.78-.283 1.204-.283.496 0 .921.141 1.275.354.355.283.567.637.709 1.062l-.638.142c-.142-.354-.283-.637-.496-.78-.212-.14-.496-.212-.85-.212s-.708.071-.92.284c-.284.212-.426.425-.567.708a2.263 2.263 0 00-.213.992c0 .425.071.779.213 1.062.141.284.283.567.566.709.284.142.567.212.85.212.355 0 .709-.07.921-.283.213-.213.354-.567.496-.921zm3.188 1.701v-4.89h3.542v.567h-2.904v1.488h2.691v.566h-2.691v1.7h3.045v.567h-3.683zM38.89 1.771c0-.07 0-.07-.07-.07h-.355v-.072h1.417V1.7l-.496.071v4.534H41.3l.141-1.134h.142l-.142 1.204h-3.047v-.07l.355-.071c.07 0 .07-.071.07-.071V1.77h.071z"/><path d="M39.74 52.42l-32.09.071h-.07v-.07c0-.922 0-1.843-.071-2.693-.142-.85-.496-1.7-1.063-2.337-.566-.638-1.416-1.134-2.267-1.275-.425-.071-.85-.071-1.345-.071H1.346V21.96h1.417c.425 0 .85 0 1.275-.071.85-.212 1.629-.637 2.196-1.275a4.104 4.104 0 001.133-2.196c.071-.425.071-.85.071-1.275v-1.417h.142l32.373-.07 32.373.07h.142v1.417c0 .425 0 .85.07 1.275.142.85.567 1.558 1.134 2.196a4.103 4.103 0 002.196 1.133c.425.071.85.071 1.275.071h1.417v24.085h-1.488c-.425 0-.92 0-1.346.071a4.84 4.84 0 00-2.267 1.275c-.566.638-.992 1.488-1.062 2.338-.071.85 0 1.77-.071 2.692v.07h-.071l-32.019.071 32.09-.07-.071.07c0-.92-.07-1.77 0-2.692.142-.92.496-1.77 1.133-2.479.638-.708 1.488-1.133 2.338-1.346.425-.07.921-.142 1.346-.07h1.346l-.142.141V22.172l.142.142h-1.275c-.425 0-.85 0-1.346-.07-.85-.142-1.7-.638-2.338-1.276-.637-.637-1.062-1.488-1.275-2.337-.07-.426-.07-.921-.07-1.346v-1.276l.141.142-32.373.071-32.373-.07.142-.143v1.276c0 .425 0 .85-.071 1.346-.142.92-.638 1.7-1.275 2.337-.638.638-1.488 1.063-2.338 1.275-.425.071-.921.071-1.346.071H1.346l.142-.142v23.802l-.142-.142h1.346c.425 0 .92 0 1.346.071.92.213 1.77.709 2.337 1.346.638.709.992 1.559 1.134 2.48.07.92 0 1.841 0 2.691l-.071-.07 32.302.07zM40.024 0c1.062 0 2.196.425 2.975 1.204.779.78 1.275 1.842 1.275 2.975 0 1.134-.425 2.267-1.204 3.046-.78.78-1.913 1.276-3.046 1.276-1.134 0-2.267-.496-3.046-1.275-.78-.78-1.205-1.984-1.205-3.047 0-1.133.496-2.196 1.275-2.975C37.828.425 38.89 0 40.024 0zm0 0c-1.063 0-2.196.496-2.905 1.275-.779.78-1.133 1.842-1.133 2.904 0 1.063.496 2.126 1.275 2.834.78.708 1.77 1.133 2.833 1.133 1.063 0 2.055-.425 2.834-1.133.78-.708 1.204-1.771 1.275-2.834 0-1.062-.354-2.125-1.133-2.904C42.149.495 41.086 0 40.024 0z"/></g><defs><clipPath id="clip0_887_1809"><path fill="#fff" d="M0 0h79.976v60H0z"/></clipPath></defs></svg>