<svg width="210" height="35" viewBox="0 0 210 35" fill="none" xmlns="http://www.w3.org/2000/svg">
<g clip-path="url(#clip0_973_40509)">
<path d="M0 34.4V0.100006H0.5L16.7 19.1L32.8 0.100006H33.3V34.4H28.3V16.8L28.5 11.9C27.4 13.6 26.4 15 25.5 16L17 26.3H16.4L7.8 16L4.8 11.9C5 13.9 5 15.5 5 16.8V34.4H0V34.4Z" fill="#1A1A1A"/>
<path d="M90.8 23.9L98 34.4H91.9L85.8 25.5C84.5 25.6 83.6 25.7 83 25.7H79.8V34.4H74.5V0.399994H83C87.7 0.399994 91.3 1.49999 93.8 3.79999C96.3 6.09999 97.6 9.19999 97.6 13.1C97.6 18.3 95.3 21.9 90.8 23.9ZM79.8 21.1H82.8C89.1 21.1 92.2 18.4 92.2 13.1C92.2 7.69999 89.1 5.09999 82.8 5.09999H79.8V21.1Z" fill="#1A1A1A"/>
<path d="M120.6 34.9C115.7 34.9 111.6 33.3 108.2 30C104.8 26.7 103.2 22.5 103.2 17.5C103.2 12.5 104.9 8.40001 108.2 5.10001C111.6 1.80001 115.7 0.200012 120.6 0.200012C126.7 0.200012 131.2 2.40001 134.2 6.90001L130.2 9.80001C128.1 6.50001 124.9 4.90001 120.7 4.90001C117.2 4.90001 114.3 6.10001 112.1 8.50001C109.8 10.9 108.7 13.9 108.7 17.5C108.7 21.1 109.8 24.1 112.1 26.6C114.4 29 117.2 30.2 120.7 30.2C125 30.2 128.3 28.4 130.7 24.9L134.7 27.7C131.5 32.4 126.8 34.9 120.6 34.9Z" fill="#FE3E57"/>
<path d="M140.6 34.4V0.399994H145.9V15.7H162.2V0.399994H167.5V34.4H162.2V20.4H145.9V34.4H140.6Z" fill="#FE3E57"/>
<path d="M191.7 34.9C186.8 34.9 182.6 33.3 179.2 30C175.8 26.7 174.1 22.5 174.1 17.5C174.1 12.5 175.8 8.30001 179.2 5.00001C182.6 1.70001 186.7 0.100006 191.7 0.100006C196.6 0.100006 200.7 1.70001 204.1 5.00001C207.5 8.30001 209.2 12.5 209.2 17.5C209.2 22.5 207.5 26.7 204.1 30C200.8 33.2 196.6 34.9 191.7 34.9ZM183 26.5C185.3 28.9 188.2 30.1 191.7 30.1C195.2 30.1 198.1 28.9 200.4 26.5C202.7 24.1 203.8 21.1 203.8 17.4C203.8 13.8 202.7 10.8 200.4 8.30001C198.1 5.90001 195.2 4.70001 191.7 4.70001C188.2 4.70001 185.3 5.90001 183 8.30001C180.7 10.7 179.6 13.7 179.6 17.4C179.6 21.1 180.7 24.1 183 26.5Z" fill="#FE3E57"/>
<path d="M54.1 0.100006H53.5L38.9 34.4H44L53.7 9.50001L63.5 34.4H69L54.1 0.100006Z" fill="#1A1A1A"/>
</g>
<defs>
<clipPath id="clip0_973_40509">
<rect width="209.2" height="34.9" fill="white"/>
</clipPath>
</defs>
</svg>
