<svg width="600" height="549" viewBox="0 0 600 549" fill="none" xmlns="http://www.w3.org/2000/svg">
<g clip-path="url(#clip0_902_1572)">
<path d="M283.411 309.526L266.072 309.311L265.858 339.922L223.689 339.707L223.903 309.097L160.542 308.669L160.756 277.203L227.114 181.306L266.714 181.52L266.072 277.203L283.411 277.417V309.526ZM223.903 277.203L224.117 258.794C224.117 255.369 224.331 250.66 224.545 244.881C224.759 239.101 224.973 235.89 225.187 235.676H223.903C221.334 241.242 218.552 246.379 215.555 251.302L197.788 277.203H223.903Z" fill="#A4C639"/>
<path opacity="0.1" d="M265.858 309.311L283.197 309.526L283.411 277.631L266.072 277.417L266.286 245.951C264.36 247.663 262.433 249.376 260.721 251.516C250.446 263.932 244.024 284.053 241.884 312.094C241.028 322.155 241.028 331.359 241.884 339.707L265.644 339.922L265.858 309.311Z" fill="black"/>
<path d="M366.25 321.085C364.11 348.912 357.902 369.033 347.413 381.448C337.139 393.65 322.155 399.001 302.89 397.503C284.053 396.004 270.353 388.084 261.791 373.956C253.229 359.615 250.018 339.065 252.158 312.308C254.299 284.267 260.507 263.932 270.995 251.73C281.27 239.315 296.254 233.964 315.519 235.462C334.356 236.96 348.056 244.88 356.618 259.222C365.18 273.35 368.391 294.113 366.25 321.085ZM294.756 315.519C293.471 333.286 293.471 345.701 295.184 352.551C296.896 359.401 300.321 363.04 305.672 363.468C311.024 363.896 315.091 360.685 317.66 354.049C320.442 347.413 322.369 335.212 323.867 317.874C325.152 300.321 325.152 288.12 323.439 280.842C321.727 273.564 318.302 269.925 312.95 269.497C307.599 269.069 303.746 272.28 300.963 278.701C298.181 285.337 296.254 297.538 294.756 315.519Z" fill="#F0C419"/>
<path opacity="0.1" d="M356.618 259.008C353.835 254.299 350.624 250.446 346.771 247.021L329.219 281.056L333.072 312.308L366.893 308.027C367.107 287.264 363.682 270.995 356.618 259.008Z" fill="black"/>
<path d="M462.362 289.832L445.023 291.973L448.876 322.369L406.921 327.72L403.068 297.324L340.35 305.244L336.497 273.992L389.797 170.389L428.969 165.466L440.956 260.507L458.295 258.366L462.362 289.832ZM399.215 265.644L396.86 247.449C396.432 244.024 396.004 239.315 395.576 233.536C395.148 227.756 394.934 224.545 394.934 224.331L393.65 224.545C391.937 230.325 389.797 235.89 387.228 241.027L373.1 269.069L399.215 265.644Z" fill="#D36BC5"/>
<path d="M451.231 428.541H173.386L141.063 208.705H491.901L451.231 428.541ZM186.871 412.915H438.173L473.065 224.545H159.258L186.871 412.915Z" fill="#DADADA"/>
<path d="M471.352 273.564H160.97V282.126H471.352V273.564Z" fill="#DADADA"/>
<path d="M458.723 355.762H174.028V364.324H458.723V355.762Z" fill="#DADADA"/>
<path d="M320.442 216.625H311.88V420.835H320.442V216.625Z" fill="#DADADA"/>
<path d="M220.133 216.106L211.616 216.99L232.822 421.182L241.339 420.298L220.133 216.106Z" fill="#DADADA"/>
<path d="M412.381 216.119L387.264 420.285L395.762 421.33L420.879 217.165L412.381 216.119Z" fill="#DADADA"/>
<path d="M144.488 229.682L107.028 192.437H57.5811V165.68H118.159L163.325 210.846L144.488 229.682Z" fill="#DADADA"/>
<path d="M433.25 502.604H179.165C151.338 502.604 128.648 479.914 128.648 452.087C128.648 424.26 151.338 401.57 179.165 401.57H180.235V428.327H179.165C166.108 428.327 155.405 439.03 155.405 452.087C155.405 465.144 166.108 475.847 179.165 475.847H433.25V502.604Z" fill="#DADADA"/>
<path d="M89.2615 192.437H41.0988C33.8209 192.437 27.8273 186.443 27.8273 179.165C27.8273 171.887 33.8209 165.894 41.0988 165.894H89.2615C96.5394 165.894 102.533 171.887 102.533 179.165C102.533 186.443 96.5394 192.437 89.2615 192.437Z" fill="#E2413E"/>
<path d="M474.761 508.826C478.821 483.019 461.191 458.806 435.383 454.746C409.575 450.686 385.362 468.316 381.302 494.124C377.242 519.931 394.872 544.144 420.68 548.204C446.488 552.264 470.701 534.634 474.761 508.826Z" fill="#28384F"/>
<path d="M451.518 505.135C453.552 492.171 444.692 480.013 431.728 477.979C418.765 475.945 406.607 484.805 404.573 497.769C402.539 510.733 411.399 522.891 424.363 524.925C437.326 526.959 449.484 518.098 451.518 505.135Z" fill="white"/>
<path d="M226.267 509.142C230.481 483.358 212.995 459.039 187.21 454.825C161.426 450.611 137.107 468.097 132.893 493.881C128.679 519.666 146.165 543.984 171.949 548.198C197.734 552.413 222.052 534.927 226.267 509.142Z" fill="#28384F"/>
<path d="M203.028 505.305C205.137 492.353 196.347 480.144 183.395 478.036C170.443 475.927 158.234 484.717 156.125 497.669C154.016 510.621 162.806 522.83 175.758 524.938C188.71 527.047 200.919 518.257 203.028 505.305Z" fill="white"/>
<path d="M186.015 84.3382C186.015 87.7631 183.232 90.3318 180.021 90.3318C176.596 90.3318 174.028 87.5491 174.028 84.3382C174.028 81.1274 176.811 78.3446 180.021 78.3446C183.446 78.3446 186.015 81.1274 186.015 84.3382Z" fill="#F0C419"/>
<path d="M333.928 193.935C338.066 193.935 341.42 190.581 341.42 186.443C341.42 182.305 338.066 178.951 333.928 178.951C329.79 178.951 326.436 182.305 326.436 186.443C326.436 190.581 329.79 193.935 333.928 193.935Z" fill="#33AEFF"/>
<path d="M530.646 156.903C533.956 156.903 536.639 154.22 536.639 150.91C536.639 147.6 533.956 144.916 530.646 144.916C527.336 144.916 524.652 147.6 524.652 150.91C524.652 154.22 527.336 156.903 530.646 156.903Z" fill="#A4C639"/>
<path d="M196.504 339.493C199.814 339.493 202.497 336.81 202.497 333.5C202.497 330.19 199.814 327.506 196.504 327.506C193.194 327.506 190.51 330.19 190.51 333.5C190.51 336.81 193.194 339.493 196.504 339.493Z" fill="#F0C419"/>
<path d="M331.573 12.4153C334.884 12.4153 337.567 9.73185 337.567 6.42169C337.567 3.11152 334.884 0.428108 331.573 0.428108C328.263 0.428108 325.58 3.11152 325.58 6.42169C325.58 9.73185 328.263 12.4153 331.573 12.4153Z" fill="#D36BC5"/>
<path d="M580.093 261.363C583.403 261.363 586.086 258.679 586.086 255.369C586.086 252.059 583.403 249.376 580.093 249.376C576.783 249.376 574.099 252.059 574.099 255.369C574.099 258.679 576.783 261.363 580.093 261.363Z" fill="#E2413E"/>
<path d="M348.698 469.212C352.008 469.212 354.691 466.528 354.691 463.218C354.691 459.908 352.008 457.224 348.698 457.224C345.388 457.224 342.704 459.908 342.704 463.218C342.704 466.528 345.388 469.212 348.698 469.212Z" fill="#A4C639"/>
<path d="M19.9073 121.584C23.2174 121.584 25.9009 118.901 25.9009 115.59C25.9009 112.28 23.2174 109.597 19.9073 109.597C16.5971 109.597 13.9137 112.28 13.9137 115.59C13.9137 118.901 16.5971 121.584 19.9073 121.584Z" fill="#E2413E"/>
<path d="M96.9675 232.037C96.9675 236.532 93.3285 240.171 88.8334 240.171C84.3382 240.171 80.6992 236.532 80.6992 232.037C80.6992 227.542 84.3382 223.903 88.8334 223.903C93.3285 223.903 96.9675 227.542 96.9675 232.037Z" fill="#A4C639"/>
<path d="M372.03 41.955C372.03 44.0956 370.318 45.8081 368.177 45.8081C366.036 45.8081 364.324 44.0956 364.324 41.955C364.324 39.8145 366.036 38.102 368.177 38.102C370.318 38.102 372.03 39.8145 372.03 41.955Z" fill="#E2413E"/>
<path d="M174.028 197.788C176.156 197.788 177.881 196.063 177.881 193.935C177.881 191.807 176.156 190.082 174.028 190.082C171.9 190.082 170.175 191.807 170.175 193.935C170.175 196.063 171.9 197.788 174.028 197.788Z" fill="#D36BC5"/>
<path d="M515.448 282.554C515.448 285.123 513.307 287.264 510.739 287.264C508.17 287.264 506.029 285.123 506.029 282.554C506.029 279.986 508.17 277.845 510.739 277.845C513.307 277.845 515.448 279.986 515.448 282.554Z" fill="#33AEFF"/>
<path d="M268.213 452.943C270.814 452.943 272.922 450.835 272.922 448.234C272.922 445.633 270.814 443.525 268.213 443.525C265.612 443.525 263.503 445.633 263.503 448.234C263.503 450.835 265.612 452.943 268.213 452.943Z" fill="#D36BC5"/>
<path d="M201.855 19.2651H199.072V16.4823C199.072 14.5558 197.574 13.0574 195.648 13.0574C193.721 13.0574 192.223 14.5558 192.223 16.4823V19.2651H189.44C187.513 19.2651 186.015 20.7635 186.015 22.69C186.015 24.6165 187.513 26.1149 189.44 26.1149H192.223V28.8976C192.223 30.8241 193.721 32.3225 195.648 32.3225C197.574 32.3225 199.072 30.8241 199.072 28.8976V26.1149H201.855C203.782 26.1149 205.28 24.6165 205.28 22.69C205.28 20.7635 203.782 19.2651 201.855 19.2651Z" fill="#28384F"/>
<path d="M502.604 356.832H499.822V354.049C499.822 352.123 498.323 350.624 496.397 350.624C494.47 350.624 492.972 352.123 492.972 354.049V356.832H490.189C488.263 356.832 486.764 358.33 486.764 360.257C486.764 362.183 488.263 363.682 490.189 363.682H492.972V366.465C492.972 368.391 494.47 369.889 496.397 369.889C498.323 369.889 499.822 368.391 499.822 366.465V363.682H502.604C504.531 363.682 506.029 362.183 506.029 360.257C505.815 358.33 504.317 356.832 502.604 356.832Z" fill="#28384F"/>
<path d="M512.237 80.9133H509.454V78.1306C509.454 76.2041 507.956 74.7057 506.029 74.7057C504.103 74.7057 502.604 76.2041 502.604 78.1306V80.9133H499.822C497.895 80.9133 496.397 82.4117 496.397 84.3382C496.397 86.2647 497.895 87.7631 499.822 87.7631H502.604V90.5458C502.604 92.4723 504.103 93.9707 506.029 93.9707C507.956 93.9707 509.454 92.4723 509.454 90.5458V87.7631H512.237C514.163 87.7631 515.662 86.2647 515.662 84.3382C515.662 82.4117 513.949 80.9133 512.237 80.9133Z" fill="#28384F"/>
<path d="M117.945 305.672H115.162V302.89C115.162 300.963 113.664 299.465 111.737 299.465C109.811 299.465 108.312 300.963 108.312 302.89V305.672H105.53C103.603 305.672 102.105 307.171 102.105 309.097C102.105 311.024 103.603 312.522 105.53 312.522H108.312V315.305C108.312 317.232 109.811 318.73 111.737 318.73C113.664 318.73 115.162 317.232 115.162 315.305V312.522H117.945C119.872 312.522 121.37 311.024 121.37 309.097C121.37 307.171 119.872 305.672 117.945 305.672Z" fill="#28384F"/>
<path d="M111.737 116.661C110.453 116.661 109.383 116.233 108.312 115.59L88.8334 102.747C85.8366 100.821 84.9803 96.7535 86.9068 93.7567C88.8334 90.7599 92.9004 89.9037 95.8972 91.8302L115.376 104.674C118.373 106.6 119.229 110.667 117.303 113.664C116.019 115.59 113.878 116.661 111.737 116.661Z" fill="#D36BC5"/>
<path d="M449.946 60.5779C448.662 60.5779 447.378 60.1498 446.308 59.5077C443.311 57.3671 442.669 53.5141 444.809 50.5173L462.148 25.9008C464.288 22.904 468.141 22.2619 471.138 24.4024C474.135 26.543 474.777 30.396 472.636 33.3928L455.298 58.0093C454.014 59.7217 451.873 60.5779 449.946 60.5779Z" fill="#A4C639"/>
<path d="M566.607 192.865C563.825 192.865 561.256 190.938 560.4 188.156C559.543 184.731 561.47 181.306 564.895 180.235L592.08 172.958C595.505 172.101 598.93 174.028 600 177.453C600.856 180.878 598.93 184.303 595.505 185.373L568.106 192.651C567.677 192.865 567.035 192.865 566.607 192.865Z" fill="#D36BC5"/>
<path d="M526.579 429.397C525.294 429.397 524.01 428.969 522.726 428.113L500.678 412.059C497.895 409.918 497.253 406.065 499.18 403.068C501.32 400.285 505.173 399.643 508.17 401.57L530.218 417.624C533 419.765 533.643 423.618 531.716 426.614C530.432 428.327 528.505 429.397 526.579 429.397Z" fill="#A4C639"/>
<path d="M74.2776 396.646C72.3511 396.646 70.2105 395.79 69.1402 393.864C66.9996 391.081 67.6418 387.014 70.6386 384.873L93.3286 368.605C96.1113 366.465 100.178 367.107 102.319 370.103C104.46 372.886 103.817 376.953 100.821 379.094L78.1306 395.362C76.8462 396.432 75.5619 396.646 74.2776 396.646Z" fill="#F0C419"/>
<path d="M278.701 48.3767C275.705 48.3767 273.136 46.2362 272.494 43.2394L264.788 7.70603C264.146 4.28112 266.286 0.856223 269.711 -2.61243e-06C273.136 -0.642172 276.561 1.49839 277.417 4.92329L285.123 40.4566C285.765 43.8816 283.625 47.3065 280.2 48.1627C279.772 48.3767 279.344 48.3767 278.701 48.3767Z" fill="#F0C419"/>
<path d="M6.42169 277.417C3.63896 277.417 1.07028 275.705 0.214056 272.922C-0.856226 269.497 1.07028 265.858 4.49518 264.788L31.6803 256.225C35.1052 255.155 38.7442 257.082 39.8145 260.507C40.8848 263.931 38.9583 267.57 35.5334 268.641L8.3482 277.203C7.70603 277.203 7.06386 277.417 6.42169 277.417Z" fill="#A4C639"/>
<path d="M582.233 320.228C581.805 320.228 581.377 320.228 580.949 320.014L556.761 315.305C553.336 314.663 550.981 311.238 551.623 307.813C552.265 304.388 555.69 302.034 559.115 302.676L583.304 307.385C586.729 308.027 589.083 311.452 588.441 314.877C588.013 318.088 585.23 320.228 582.233 320.228Z" fill="#F0C419"/>
<path d="M201.427 161.613C195.219 163.111 190.082 162.469 185.801 159.9C181.52 157.331 178.737 153.05 177.453 147.057C175.954 140.849 176.382 135.498 178.951 131.431C181.306 127.364 185.587 124.581 191.366 123.296C196.932 122.012 201.641 122.44 205.28 124.581C208.919 126.721 211.488 130.574 212.772 136.14L214.056 141.919L191.152 147.271C191.794 149.411 192.865 150.696 194.577 151.552C196.29 152.408 198.43 152.622 200.785 151.98C203.139 151.552 205.066 150.696 206.778 149.839C208.491 148.983 210.417 147.699 212.344 146.201L214.484 155.405C212.772 156.903 210.845 158.188 208.705 159.044C206.992 160.114 204.424 160.97 201.427 161.613ZM193.721 132.073C192.223 132.501 191.152 133.143 190.296 134.427C189.44 135.712 189.226 137.21 189.44 139.351L200.571 136.782C200.143 135.07 199.286 133.571 198.002 132.929C196.932 131.859 195.433 131.645 193.721 132.073Z" fill="#28384F"/>
<path d="M267.999 94.3989C269.069 94.3989 270.139 94.6129 271.209 95.041L271.852 95.2551L269.711 107.67C268.641 107.242 267.142 107.028 265.216 106.814C262.433 106.6 260.293 107.028 258.794 108.313C257.296 109.597 256.654 111.309 256.44 113.878L254.941 132.715L241.884 131.645L245.095 93.5426L254.941 94.3989L256.44 100.606H257.082C258.366 98.68 260.078 97.1816 262.005 96.1113C263.931 94.6129 265.858 94.1848 267.999 94.3989Z" fill="#28384F"/>
<path d="M324.938 113.45C326.008 113.236 327.078 113.022 328.148 113.022H329.005L330.075 125.437C329.005 125.437 327.506 125.437 325.58 125.865C322.797 126.293 320.87 127.364 319.8 128.862C318.73 130.36 318.516 132.287 318.944 134.856L322.369 153.264L309.311 155.619L302.248 117.945L311.88 116.233L315.091 121.798L315.733 121.584C316.375 119.443 317.66 117.517 319.372 115.804C321.299 114.734 323.011 113.878 324.938 113.45Z" fill="#28384F"/>
<path d="M459.579 117.089C460.649 117.089 461.72 117.089 462.79 117.303L463.432 117.517L462.576 129.932C461.506 129.718 460.007 129.504 458.081 129.718C455.298 129.718 453.157 130.574 451.873 131.859C450.589 133.143 449.947 135.07 450.161 137.638L450.803 156.475L437.531 156.903L436.675 118.373L446.522 118.159L448.876 124.153H449.518C450.589 122.012 452.087 120.514 454.014 119.015C455.726 117.731 457.653 117.089 459.579 117.089Z" fill="#28384F"/>
<path d="M403.282 117.731C402.64 126.507 400.714 132.715 397.503 136.568C394.292 140.421 389.583 142.133 383.589 141.705C377.809 141.277 373.528 138.923 370.746 134.427C367.963 129.932 367.107 123.511 367.535 115.162C368.177 106.386 370.103 100.178 373.314 96.3254C376.525 92.4724 381.234 90.7599 387.228 91.188C393.007 91.6161 397.289 93.9707 400.071 98.4659C402.64 102.747 403.71 109.169 403.282 117.731ZM380.806 116.019C380.378 121.584 380.378 125.437 381.02 127.578C381.662 129.718 382.733 130.788 384.231 131.003C385.944 131.217 387.228 130.146 388.084 128.006C388.94 125.865 389.583 122.226 390.011 116.661C390.439 111.309 390.225 107.456 389.797 105.102C389.154 102.961 388.084 101.677 386.586 101.463C384.873 101.249 383.803 102.319 382.947 104.46C381.877 106.6 381.234 110.453 380.806 116.019Z" fill="#28384F"/>
</g>
<defs>
<clipPath id="clip0_902_1572">
<rect width="600" height="548.841" fill="white"/>
</clipPath>
</defs>
</svg>
