<svg width="49" height="29" viewBox="0 0 49 29" fill="none" xmlns="http://www.w3.org/2000/svg">
<g clip-path="url(#clip0_997_40519)">
<path d="M48.1 14.4C48.1 22.3 41.7 28.8 33.7 28.8C25.8 28.8 19.3 22.3 19.3 14.4C19.2 6.5 25.7 0 33.6 0C41.7 0 48.1 6.5 48.1 14.4Z" fill="#FFB600"/>
<path d="M33.7 0C41.6 0 48.1 6.5 48.1 14.4C48.1 22.3 41.7 28.8 33.7 28.8C25.8 28.8 19.3 22.3 19.3 14.4" fill="#F7981D"/>
<path d="M33.7 0C41.6 0 48.1 6.5 48.1 14.4C48.1 22.3 41.7 28.8 33.7 28.8" fill="#FF8500"/>
<path d="M14.3 0C6.4 0.1 0 6.5 0 14.4C0 22.3 6.4 28.8 14.4 28.8C18.1 28.8 21.5 27.3 24.1 25.1C24.6 24.6 25.1 24.1 25.6 23.6H22.6C22.2 23.1 21.8 22.6 21.5 22.1H26.6C26.9 21.6 27.2 21.1 27.4 20.6H20.6C20.4 20.1 20.1 19.6 20 19.1H28C28.5 17.6 28.8 16.1 28.8 14.5C28.8 13.4 28.6 12.4 28.5 11.4H19.6C19.7 10.9 19.8 10.4 20 9.9H27.9C27.7 9.4 27.5 8.8 27.3 8.4H20.6C20.8 7.9 21.1 7.4 21.4 6.9H26.5C26.2 6.4 25.8 5.8 25.4 5.4H22.6C23.1 4.9 23.5 4.4 24.1 3.9C21.6 1.5 18.1 0.2 14.4 0.2C14.4 0 14.4 0 14.3 0Z" fill="#FF5050"/>
<path d="M0 14.4C0 22.3 6.4 28.8 14.4 28.8C18.1 28.8 21.5 27.3 24.1 25.1C24.6 24.6 25.1 24.1 25.6 23.6H22.6C22.2 23.1 21.8 22.6 21.5 22.1H26.6C26.9 21.6 27.2 21.1 27.4 20.6H20.6C20.4 20.1 20.1 19.6 20 19.1H28C28.5 17.6 28.8 16.1 28.8 14.5C28.8 13.4 28.6 12.4 28.5 11.4H19.6C19.7 10.9 19.8 10.4 20 9.90001H27.9C27.7 9.40001 27.5 8.80001 27.3 8.40001H20.6C20.8 7.90001 21.1 7.40001 21.4 6.90001H26.5C26.2 6.40001 25.8 5.80001 25.4 5.40001H22.6C23.1 4.90001 23.5 4.40001 24.1 3.90001C21.6 1.50001 18.1 0.200012 14.4 0.200012H14.3" fill="#E52836"/>
<path d="M14.4 28.9C18.1 28.9 21.5 27.4 24.1 25.2C24.6 24.7 25.1 24.2 25.6 23.7H22.6C22.2 23.2 21.8 22.7 21.5 22.2H26.6C26.9 21.7 27.2 21.2 27.4 20.7H20.6C20.4 20.2 20.1 19.7 20 19.2H28C28.5 17.7 28.8 16.2 28.8 14.6C28.8 13.5 28.6 12.5 28.5 11.5H19.6C19.7 11 19.8 10.5 20 9.99999H27.9C27.7 9.49999 27.5 8.89999 27.3 8.49999H20.6C20.8 7.99999 21.1 7.49999 21.4 6.99999H26.5C26.2 6.49999 25.8 5.89999 25.4 5.49999H22.6C23.1 4.99999 23.5 4.49999 24.1 3.99999C21.6 1.59999 18.1 0.299988 14.4 0.299988H14.3" fill="#CB2026"/>
<path d="M19.5 18.1L19.7 16.8C19.6 16.8 19.5 16.9 19.3 16.9C18.8 16.9 18.7 16.6 18.8 16.4L19.3 13.7H20.1L20.3 12.2H19.5L19.7 11.3H18.2C18.2 11.3 17.3 16.3 17.3 16.9C17.3 17.8 17.8 18.2 18.5 18.2C19 18.3 19.4 18.2 19.5 18.1Z" fill="white"/>
<path d="M20.1 15.7C20.1 17.8 21.6 18.4 22.8 18.4C23.9 18.4 24.4 18.2 24.4 18.2L24.7 16.7C24.7 16.7 23.9 17.1 23.1 17.1C21.4 17.1 21.7 15.9 21.7 15.9H24.8C24.8 15.9 25 14.9 25 14.5C25 13.5 24.5 12.3 22.8 12.3C21.2 12.1 20.1 13.7 20.1 15.7ZM22.7 13.4C23.5 13.4 23.4 14.4 23.4 14.5H21.7C21.8 14.4 21.9 13.4 22.7 13.4Z" fill="white"/>
<path d="M32.4 18.1L32.7 16.4C32.7 16.4 31.9 16.8 31.4 16.8C30.3 16.8 29.9 16 29.9 15C29.9 13.2 30.8 12.2 31.9 12.2C32.7 12.2 33.3 12.7 33.3 12.7L33.5 11.1C33.5 11.1 32.6 10.7 31.7 10.7C29.9 10.7 28.2 12.2 28.2 15.1C28.2 17 29.1 18.3 30.9 18.3C31.6 18.3 32.4 18.1 32.4 18.1Z" fill="white"/>
<path d="M11.1 12.1C10 12.1 9.3 12.4 9.3 12.4L9.1 13.7C9.1 13.7 9.8 13.4 10.8 13.4C11.3 13.4 11.8 13.5 11.8 13.9C11.8 14.2 11.7 14.3 11.7 14.3C11.7 14.3 11.2 14.3 11 14.3C9.7 14.3 8.3 14.8 8.3 16.6C8.3 18 9.2 18.3 9.8 18.3C10.9 18.3 11.3 17.6 11.4 17.6L11.3 18.2H12.7L13.3 14C13.2 12.1 11.7 12.1 11.1 12.1ZM11.5 15.5C11.5 15.7 11.3 17 10.4 17C9.9 17 9.8 16.6 9.8 16.4C9.8 16 10 15.5 11.2 15.5C11.4 15.5 11.5 15.5 11.5 15.5Z" fill="white"/>
<path d="M14.7 18.2C15.1 18.2 17 18.3 17 16.2C17 14.3 15.2 14.7 15.2 13.9C15.2 13.5 15.5 13.4 16 13.4C16.2 13.4 17.1 13.5 17.1 13.5L17.3 12.1C17.3 12.1 16.8 11.9 15.8 11.9C14.7 11.9 13.5 12.4 13.5 13.9C13.5 15.7 15.4 15.5 15.4 16.2C15.4 16.7 14.9 16.7 14.5 16.7C13.8 16.7 13.1 16.5 13.1 16.5L12.9 17.9C13 18.1 13.4 18.2 14.7 18.2Z" fill="white"/>
<path d="M45.1 10.8L44.8 12.9C44.8 12.9 44.2 12.1 43.3 12.1C41.9 12.1 40.7 13.8 40.7 15.8C40.7 17 41.3 18.3 42.6 18.3C43.5 18.3 44.1 17.7 44.1 17.7L44 18.2H45.5L46.6 10.9L45.1 10.8ZM44.4 14.9C44.4 15.7 44 16.8 43.2 16.8C42.7 16.8 42.4 16.3 42.4 15.6C42.4 14.4 42.9 13.6 43.6 13.6C44.1 13.6 44.4 14 44.4 14.9Z" fill="white"/>
<path d="M2.8 18.2L3.7 12.7L3.9 18.2H5L7 12.7L6.2 18.2H7.8L9 10.9H6.4L4.9 15.4L4.8 10.9H2.6L1.4 18.2H2.8Z" fill="white"/>
<path d="M26.5 18.2C27 15.7 27 13.6 28.1 14C28.3 13 28.5 12.6 28.6 12.2C28.6 12.2 28.5 12.2 28.3 12.2C27.6 12.2 27.1 13.1 27.1 13.1L27.3 12.3H25.8L24.8 18.3L26.5 18.2Z" fill="white"/>
<path d="M36 12.1C34.9 12.1 34.2 12.4 34.2 12.4L34 13.7C34 13.7 34.7 13.4 35.7 13.4C36.2 13.4 36.7 13.5 36.7 13.9C36.7 14.2 36.6 14.3 36.6 14.3C36.6 14.3 36.1 14.3 35.9 14.3C34.6 14.3 33.2 14.8 33.2 16.6C33.2 18 34.1 18.3 34.7 18.3C35.8 18.3 36.2 17.6 36.3 17.6L36 18.2H37.4L38 14C38.1 12.1 36.5 12.1 36 12.1ZM36.3 15.5C36.3 15.7 36.1 17 35.2 17C34.7 17 34.6 16.6 34.6 16.4C34.6 16 34.8 15.5 36 15.5C36.3 15.5 36.3 15.5 36.3 15.5Z" fill="white"/>
<path d="M39.3 18.2C39.8 15.7 39.8 13.6 40.9 14C41.1 13 41.3 12.6 41.4 12.2C41.4 12.2 41.3 12.2 41.1 12.2C40.4 12.2 39.9 13.1 39.9 13.1L40.1 12.3H38.6L37.6 18.3L39.3 18.2Z" fill="white"/>
<path d="M17.2 17C17.2 17.9 17.7 18.3 18.4 18.3C18.9 18.3 19.4 18.1 19.5 18.1L19.7 16.8C19.6 16.8 19.5 16.9 19.3 16.9C18.8 16.9 18.7 16.6 18.8 16.4L19.3 13.7H20.1L20.3 12.2H19.5L19.7 11.3" fill="#DCE5E5"/>
<path d="M20.8 15.7C20.8 17.8 21.5 18.4 22.7 18.4C23.8 18.4 24.3 18.2 24.3 18.2L24.6 16.7C24.6 16.7 23.8 17.1 23 17.1C21.3 17.1 21.6 15.9 21.6 15.9H24.7C24.7 15.9 24.9 14.9 24.9 14.5C24.9 13.5 24.4 12.3 22.7 12.3C21.2 12.1 20.8 13.7 20.8 15.7ZM22.7 13.4C23.5 13.4 23.7 14.4 23.7 14.5H21.7C21.8 14.4 21.9 13.4 22.7 13.4Z" fill="#DCE5E5"/>
<path d="M32.4 18.1L32.7 16.4C32.7 16.4 31.9 16.8 31.4 16.8C30.3 16.8 29.9 16 29.9 15C29.9 13.2 30.8 12.2 31.9 12.2C32.7 12.2 33.3 12.7 33.3 12.7L33.5 11.1C33.5 11.1 32.6 10.7 31.7 10.7C29.9 10.7 29 12.2 29 15.1C29 17 29.2 18.3 31 18.3C31.6 18.3 32.4 18.1 32.4 18.1Z" fill="#DCE5E5"/>
<path d="M9.1 13.7C9.1 13.7 9.8 13.4 10.8 13.4C11.3 13.4 11.8 13.5 11.8 13.9C11.8 14.2 11.7 14.3 11.7 14.3C11.7 14.3 11.2 14.3 11 14.3C9.7 14.3 8.3 14.8 8.3 16.6C8.3 18 9.2 18.3 9.8 18.3C10.9 18.3 11.3 17.6 11.4 17.6L11.3 18.2H12.7L13.3 14C13.3 12.2 11.8 12.2 11.2 12.2M12.2 15.5C12.2 15.7 11.3 17 10.4 17C9.9 17 9.8 16.6 9.8 16.4C9.8 16 10 15.5 11.2 15.5C11.4 15.5 12.2 15.5 12.2 15.5Z" fill="#DCE5E5"/>
<path d="M13 18.1C13 18.1 13.5 18.3 14.8 18.3C15.2 18.3 17.1 18.4 17.1 16.3C17.1 14.4 15.3 14.8 15.3 14C15.3 13.6 15.6 13.5 16.1 13.5C16.3 13.5 17.2 13.6 17.2 13.6L17.4 12.2C17.4 12.2 16.9 12 15.9 12C14.8 12 14.4 12.5 14.4 14C14.4 15.8 15.5 15.6 15.5 16.3C15.5 16.8 15 16.8 14.6 16.8" fill="#DCE5E5"/>
<path d="M44.8 12.9C44.8 12.9 44.2 12.1 43.3 12.1C41.9 12.1 41.5 13.8 41.5 15.8C41.5 17 41.3 18.3 42.6 18.3C43.5 18.3 44.1 17.7 44.1 17.7L44 18.2H45.5L46.6 10.9M44.7 14.9C44.7 15.7 44 16.8 43.2 16.8C42.7 16.8 42.4 16.3 42.4 15.6C42.4 14.4 42.9 13.6 43.6 13.6C44.1 13.6 44.7 14 44.7 14.9Z" fill="#DCE5E5"/>
<path d="M2.8 18.2L3.7 12.7L3.9 18.2H5L7 12.7L6.2 18.2H7.8L9 10.9H7L4.9 15.4L4.8 10.9H4L1.4 18.2H2.8Z" fill="#DCE5E5"/>
<path d="M24.9 18.2H26.5C27 15.7 27 13.6 28.1 14C28.3 13 28.5 12.6 28.6 12.2C28.6 12.2 28.5 12.2 28.3 12.2C27.6 12.2 27.1 13.1 27.1 13.1L27.3 12.3" fill="#DCE5E5"/>
<path d="M33.9 13.7C33.9 13.7 34.6 13.4 35.6 13.4C36.1 13.4 36.6 13.5 36.6 13.9C36.6 14.2 36.5 14.3 36.5 14.3C36.5 14.3 36 14.3 35.8 14.3C34.5 14.3 33.1 14.8 33.1 16.6C33.1 18 34 18.3 34.6 18.3C35.7 18.3 36.1 17.6 36.2 17.6L36 18.2H37.4L38 14C38 12.2 36.5 12.2 35.9 12.2M37 15.5C37 15.7 36.1 17 35.2 17C34.7 17 34.6 16.6 34.6 16.4C34.6 16 34.8 15.5 36 15.5C36.3 15.5 37 15.5 37 15.5Z" fill="#DCE5E5"/>
<path d="M37.7 18.2H39.3C39.8 15.7 39.8 13.6 40.9 14C41.1 13 41.3 12.6 41.4 12.2C41.4 12.2 41.3 12.2 41.1 12.2C40.4 12.2 39.9 13.1 39.9 13.1L40.1 12.3" fill="#DCE5E5"/>
</g>
<defs>
<clipPath id="clip0_997_40519">
<rect width="48.1" height="28.9" fill="white"/>
</clipPath>
</defs>
</svg>
