<svg width="57" height="15" viewBox="0 0 57 15" fill="none" xmlns="http://www.w3.org/2000/svg">
<g clip-path="url(#clip0_998_40559)">
<path d="M43.6 3.79999H40.6C40.4 3.79999 40.2 3.99999 40.2 4.19999L38.8 12C38.8 12.2 38.9 12.3 39.1 12.3H40.7C40.9 12.3 41 12.2 41 12L41.4 9.79999C41.4 9.59999 41.6 9.39999 41.8 9.39999H42.8C44.9 9.39999 46 8.39999 46.3 6.39999C46.5 5.59999 46.3 4.89999 45.9 4.39999C45.3 3.99999 44.5 3.79999 43.6 3.79999ZM43.9 6.69999C43.7 7.79999 42.9 7.79999 42.1 7.79999H41.6L42 5.69999C42 5.59999 42.1 5.49999 42.3 5.49999H42.5C43 5.49999 43.6 5.49999 43.8 5.89999C43.9 5.99999 43.9 6.29999 43.9 6.69999Z" fill="#139AD6"/>
<path d="M21.6 3.79999H18.6C18.4 3.79999 18.2 3.99999 18.2 4.19999L16.9 12C16.9 12.2 17 12.3 17.2 12.3H18.6C18.8 12.3 19 12.1 19 11.9L19.4 9.79999C19.4 9.59999 19.6 9.39999 19.8 9.39999H20.8C22.9 9.39999 24 8.39999 24.3 6.39999C24.5 5.59999 24.3 4.89999 23.9 4.39999C23.4 3.99999 22.7 3.79999 21.6 3.79999ZM22 6.69999C21.8 7.79999 21 7.79999 20.2 7.79999H19.8L20.2 5.69999C20.2 5.59999 20.3 5.49999 20.5 5.49999H20.7C21.2 5.49999 21.8 5.49999 22 5.89999C22 5.99999 22.1 6.29999 22 6.69999Z" fill="#263B80"/>
<path d="M30.9 6.6H29.5C29.4 6.6 29.2 6.7 29.2 6.8L29.1 7.2L29 7.1C28.6 6.7 28 6.5 27.3 6.5C25.7 6.5 24.3 7.8 24 9.5C23.8 10.4 24.1 11.2 24.5 11.7C24.9 12.2 25.6 12.4 26.4 12.4C27.7 12.4 28.5 11.6 28.5 11.6L28.4 12C28.4 12.2 28.5 12.3 28.7 12.3H30C30.2 12.3 30.4 12.1 30.4 11.9L31.2 6.9C31.1 6.8 30.9 6.6 30.9 6.6ZM28.8 9.5C28.6 10.3 28 10.9 27.1 10.9C26.7 10.9 26.3 10.7 26.1 10.5C25.9 10.2 25.8 9.9 25.8 9.4C25.9 8.7 26.7 8 27.5 8C27.9 8 28.2 8.2 28.5 8.4C28.7 8.7 28.8 9.1 28.8 9.5Z" fill="#263B80"/>
<path d="M52.7 6.59999H51.3C51.2 6.59999 51 6.69999 51 6.79999L50.9 7.19999L50.8 6.99999C50.4 6.59999 49.8 6.39999 49.1 6.39999C47.5 6.39999 46.1 7.69999 45.8 9.39999C45.6 10.3 45.9 11.1 46.3 11.6C46.7 12.1 47.4 12.3 48.2 12.3C49.5 12.3 50.3 11.5 50.3 11.5L50.2 12C50.2 12.2 50.3 12.3 50.5 12.3H51.8C52 12.3 52.2 12.1 52.2 11.9L53 6.89999C52.9 6.79999 52.9 6.59999 52.7 6.59999ZM50.6 9.49999C50.4 10.3 49.8 10.9 48.9 10.9C48.5 10.9 48.1 10.7 47.9 10.5C47.7 10.2 47.6 9.89999 47.6 9.39999C47.8 8.69999 48.5 7.99999 49.3 7.99999C49.7 7.99999 50 8.19999 50.3 8.39999C50.6 8.69999 50.7 9.09999 50.6 9.49999Z" fill="#139AD6"/>
<path d="M38.6 6.60001H37.1C36.9 6.60001 36.8 6.70001 36.7 6.80001L34.7 9.80001L33.9 7.00001C33.8 6.80001 33.7 6.70001 33.5 6.70001H32C31.8 6.70001 31.7 6.90001 31.7 7.10001L33.3 11.8L31.8 14C31.7 14.2 31.8 14.4 32 14.4H33.4C33.6 14.4 33.7 14.3 33.8 14.2L38.7 7.10001C39 6.90001 38.8 6.60001 38.6 6.60001Z" fill="#263B80"/>
<path d="M54.4 4.00001L53.1 12C53.1 12.2 53.2 12.3 53.4 12.3H54.7C54.9 12.3 55.1 12.1 55.1 11.9L56.4 4.00001C56.4 3.80001 56.3 3.70001 56.1 3.70001H54.7C54.6 3.80001 54.5 3.80001 54.4 4.00001Z" fill="#139AD6"/>
<path d="M10.3 1.1C9.7 0.4 8.5 0 6.9 0H2.4C2.1 0 1.9 0.3 1.8 0.5L0 12.3C0 12.6 0.2 12.7 0.4 12.7H3.2L3.9 8.3V8.5C3.9 8.2 4.2 8 4.5 8H5.8C8.4 8 10.4 6.9 11 4C11 3.9 11 3.8 11 3.7C10.9 3.7 10.9 3.7 11 3.7C11.1 2.5 10.9 1.8 10.3 1.1Z" fill="#263B80"/>
<path d="M10.9 3.70001C10.9 3.80001 10.9 3.90001 10.9 4.00001C10.3 7.00001 8.3 8.00001 5.7 8.00001H4.4C4.1 8.00001 3.8 8.20001 3.8 8.50001L2.9 14C2.9 14.2 3 14.4 3.3 14.4H5.6C5.9 14.4 6.1 14.2 6.1 14V13.9L6.5 11V10.8C6.5 10.5 6.8 10.4 7 10.4H7.4C9.6 10.4 11.4 9.50001 11.9 6.80001C12.1 5.70001 12 4.70001 11.5 4.10001C11.4 3.90001 11.2 3.80001 10.9 3.70001Z" fill="#139AD6"/>
<path d="M10.3 3.40001C10.2 3.40001 10.1 3.30001 10 3.30001C9.9 3.30001 9.8 3.30001 9.7 3.20001C9.4 3.10001 9 3.10001 8.6 3.10001H5.1C5 3.10001 4.9 3.10001 4.8 3.20001C4.7 3.30001 4.6 3.50001 4.6 3.70001L3.8 8.30001V8.50001C3.9 8.20001 4.2 8.00001 4.5 8.00001H5.8C8.4 8.00001 10.4 6.90001 11 4.00001C11 3.90001 11 3.80001 11.1 3.70001C10.9 3.60001 10.8 3.50001 10.7 3.50001C10.4 3.40001 10.4 3.40001 10.3 3.40001Z" fill="#232C65"/>
</g>
<defs>
<clipPath id="clip0_998_40559">
<rect width="56.3" height="14.4" fill="white"/>
</clipPath>
</defs>
</svg>
