<svg width="13" height="17" viewBox="0 0 13 17" fill="none" xmlns="http://www.w3.org/2000/svg">
<path d="M6.90625 0C3.43281 0 0 2.31563 0 6.06328C0 8.44661 1.34062 9.80078 2.15313 9.80078C2.48828 9.80078 2.68125 8.86641 2.68125 8.60234C2.68125 8.2875 1.87891 7.61719 1.87891 6.30703C1.87891 3.58516 3.95078 1.65547 6.63203 1.65547C8.9375 1.65547 10.6438 2.96562 10.6438 5.37266C10.6438 7.17031 9.92266 10.5422 7.58672 10.5422C6.74375 10.5422 6.02266 9.93281 6.02266 9.05937C6.02266 7.77969 6.91641 6.54062 6.91641 5.22031C6.91641 2.97917 3.7375 3.38542 3.7375 6.09375C3.7375 6.6625 3.80859 7.29219 4.0625 7.81016C3.59531 9.82109 2.64063 12.8172 2.64063 14.8891C2.64063 15.5289 2.73203 16.1586 2.79297 16.7984C2.90807 16.9271 2.85052 16.9135 3.02656 16.8492C4.73281 14.5133 4.67188 14.0562 5.44375 10.9992C5.86016 11.7914 6.93672 12.218 7.78984 12.218C11.3852 12.218 13 8.71406 13 5.55547C13 2.19375 10.0953 0 6.90625 0Z" fill="black"/>
</svg>
