<svg width="48" height="34" viewBox="0 0 48 34" fill="none" xmlns="http://www.w3.org/2000/svg">
<g clip-path="url(#clip0_998_40548)">
<path d="M48 30.3C48 31.9 46.7 33.1 45.2 33.1H2.8C1.2 33.1 0 31.8 0 30.3V2.8C0 1.3 1.3 0 2.8 0H45.1C46.7 0 48 1.3 48 2.8V30.3Z" fill="white"/>
<path d="M10.7 16.7L9.6 11.3C9.4 10.6 8.8 10.3 8.1 10.3H2.9V10.5C6.9 11.6 9.5 13.9 10.7 16.7Z" fill="#F79F1A"/>
<path d="M22.6 10.4H19.3L17.2 22.7H20.5L22.6 10.4Z" fill="#059BBF"/>
<path d="M12.7 22.7L18 10.5H14.5L11.2 18.8L10.9 17.5C10.3 16 8.4 13.8 6.3 12.4L9.3 22.6L12.7 22.7Z" fill="#059BBF"/>
<path d="M32.1 18.7C32.1 17.3 31.2 16.3 29.3 15.4C28.1 14.8 27.4 14.5 27.4 13.9C27.4 13.4 28 12.8 29.3 12.8C30.4 12.8 31.2 13 31.8 13.3L32.1 13.4L32.6 10.7C31.9 10.5 30.9 10.2 29.6 10.2C26.3 10.2 24 11.9 24 14.2C24 16 25.7 16.9 26.9 17.5C28.2 18.1 28.6 18.5 28.6 19C28.6 19.8 27.6 20.2 26.6 20.2C25.3 20.2 24.6 20 23.5 19.6L23.1 19.4L22.6 22.1C23.4 22.4 24.8 22.7 26.3 22.7C29.8 22.9 32.1 21.2 32.1 18.7Z" fill="#059BBF"/>
<path d="M36.1 20.9C36.5 20.9 39.9 20.9 40.4 20.9C40.5 21.3 40.8 22.7 40.8 22.7H43.9L41.2 10.5H38.6C37.8 10.5 37.2 10.7 36.9 11.5L31.9 22.7H35.4C35.4 22.7 36 21.2 36.1 20.9ZM38.4 14.9C38.4 14.9 38.7 14.2 38.8 13.7L39 14.8C39 14.8 39.6 17.7 39.8 18.3H37C37.4 17.6 38.4 14.9 38.4 14.9Z" fill="#059BBF"/>
<path d="M45.2 0H2.8C1.3 0 0 1.3 0 2.8V5.7H48V2.8C48 1.3 46.7 0 45.2 0Z" fill="#059BBF"/>
<path d="M45.2 33.1H2.8C1.2 33.1 0 31.8 0 30.3V27.4H48V30.3C48 31.8 46.7 33.1 45.2 33.1Z" fill="#F79F1A"/>
<path opacity="0.15" d="M2 30.3V2.8C2 1.3 3.3 0 4.9 0H2.9C1.3 0 0 1.3 0 2.8V30.2C0 31.8 1.3 33 2.8 33H4.8C3.3 33.1 2 31.8 2 30.3Z" fill="#202121"/>
</g>
<defs>
<clipPath id="clip0_998_40548">
<rect width="48" height="33.1" fill="white"/>
</clipPath>
</defs>
</svg>
