<svg width="76" height="60" viewBox="0 0 76 60" fill="none" xmlns="http://www.w3.org/2000/svg">
<g clip-path="url(#clip0_887_1645)">
<path d="M5.7868 50.0508C6.09137 50.4569 6.19289 50.8629 6.19289 51.3706C6.19289 52.0812 5.98985 52.5888 5.48223 52.9949C4.97462 53.401 4.36548 53.6041 3.45178 53.6041H0V45.4822H3.45178C4.26396 45.4822 4.8731 45.6853 5.38071 45.9898C5.7868 46.3959 6.09137 46.9036 6.09137 47.5127C6.09137 48.0203 5.98985 48.4264 5.68528 48.731C5.38071 49.0355 5.07614 49.2386 4.67005 49.3401C5.07614 49.5431 5.48223 49.7462 5.7868 50.0508ZM1.62437 48.8325H3.04569C3.45178 48.8325 3.75635 48.731 3.95939 48.5279C4.16244 48.3249 4.26396 48.1218 4.26396 47.7157C4.26396 47.4112 4.16244 47.1066 3.95939 46.9036C3.85787 46.802 3.5533 46.7005 3.04569 46.7005H1.62437V48.8325ZM4.16244 51.9797C4.36548 51.7767 4.46701 51.4721 4.46701 51.1675C4.46701 50.7614 4.36548 50.5584 4.16244 50.3553C3.95939 50.1523 3.5533 50.0508 3.14721 50.0508H1.62437V52.2843H3.14721C3.65482 52.2843 3.95939 52.1827 4.16244 51.9797Z" fill="#868686"/>
<path d="M12.7919 53.6041L10.8629 50.4569H10.1523V53.6041H8.52792V45.4822H11.6751C12.5888 45.4822 13.2995 45.6853 13.8071 46.1929C14.3147 46.7005 14.5178 47.3096 14.5178 48.0203C14.5178 48.6294 14.3147 49.1371 14.0101 49.5431C13.7056 49.9492 13.198 50.2538 12.4873 50.3553L14.5178 53.6041H12.7919ZM10.1523 49.3401H11.4721C12.3858 49.3401 12.8934 48.934 12.8934 48.1218C12.8934 47.7157 12.7919 47.4112 12.5888 47.2081C12.3858 47.0051 11.9797 46.9036 11.5736 46.9036H10.1523V49.3401Z" fill="#868686"/>
<path d="M21.7259 51.9797H18.4772L17.868 53.6041H16.1421L19.1878 45.4822H21.0152L24.0609 53.6041H22.335L21.7259 51.9797ZM21.3198 50.7614L20.1015 47.3096L18.8833 50.7614H21.3198Z" fill="#868686"/>
<path d="M32.9949 53.6041H31.3706L27.7157 48.0203V53.6041H26.0914V45.4822H27.7157L31.3706 51.066V45.4822H32.9949V53.6041Z" fill="#868686"/>
<path d="M42.335 51.6751C42.0305 52.2843 41.5228 52.7919 40.8122 53.0964C40.203 53.401 39.3909 53.6041 38.4772 53.6041H35.533V45.4822H38.5787C39.4924 45.4822 40.203 45.6853 40.9137 45.9898C41.5228 46.2944 42.0305 46.802 42.4365 47.4112C42.7411 48.0203 42.9442 48.731 42.9442 49.5431C42.8426 50.3553 42.6396 51.066 42.335 51.6751ZM40.5076 51.4721C41.0152 50.9645 41.2183 50.3553 41.2183 49.5431C41.2183 48.731 41.0152 48.0203 40.5076 47.6142C40 47.1066 39.3909 46.9036 38.4772 46.9036H37.3604V52.1827H38.4772C39.2893 52.1827 40 51.8782 40.5076 51.4721Z" fill="#868686"/>
<path d="M22.7411 0C22.7411 0 43.8579 7.91878 43.3503 19.4924V38.9848C43.3503 38.9848 22.2335 31.066 22.7411 19.4924V0V0Z" fill="#868686"/>
<path d="M62.132 34.4162C65.9899 31.7767 70.6599 29.9492 75.533 29.4416V23.3503C72.6904 24.467 70.0508 25.9898 67.6142 28.0203C65.4822 29.8477 63.6548 31.9797 62.132 34.4162Z" fill="#868686"/>
<path d="M59.797 36.2437C61.5228 32.7919 63.8579 29.7462 66.9036 27.1066C69.5431 24.8731 72.4873 23.2487 75.533 22.0305V4.46701C75.533 4.46701 45.4822 15.8376 46.1929 32.1827V59.8985C46.1929 59.8985 47.5127 59.3909 49.6447 58.4772C49.6447 57.5635 49.6447 56.6498 49.7462 55.8376C50.3553 47.9188 54.2132 41.0152 59.797 36.2437Z" fill="#868686"/>
<path d="M56.9543 46.4975C57.1574 44.5685 57.4619 42.6396 57.9695 40.8122C54.5178 44.9746 52.1827 50.1523 51.6751 55.9391C51.6751 56.4467 51.5736 56.9543 51.5736 57.5635C53.2995 56.7513 55.2284 55.736 57.3604 54.5178C56.8528 51.8782 56.7513 49.2386 56.9543 46.4975Z" fill="#868686"/>
<path d="M58.1726 46.599C57.9696 49.0355 58.0711 51.4721 58.5787 53.9086C66.802 49.0355 76.0406 41.4213 75.6345 32.2843V31.4721C69.6447 32.0812 64.264 34.7208 60 38.7817C58.9848 41.2183 58.3756 43.8579 58.1726 46.599Z" fill="#868686"/>
</g>
<defs>
<clipPath id="clip0_887_1645">
<rect width="75.533" height="60" fill="white"/>
</clipPath>
</defs>
</svg>
