<svg width="61" height="60" viewBox="0 0 61 60" fill="none" xmlns="http://www.w3.org/2000/svg">
<g clip-path="url(#clip0_887_16770)">
<path d="M2.97143 57.2571C3.08571 57.2571 3.31429 57.1429 3.42857 57.0286C3.54286 56.9143 3.65714 56.9143 3.65714 56.8C3.77143 56.6857 3.77143 56.5714 3.77143 56.4571C3.77143 56.3429 3.77143 56.2286 3.77143 56.1143C3.77143 55.8857 3.77143 55.6571 3.65714 55.5429C3.54286 55.3143 3.42857 55.2 3.31429 55.0857C3.2 54.9714 3.08571 54.9714 2.85714 54.8571C2.62857 54.8571 2.28571 54.7429 1.94286 54.7429H0V60H2.05714C2.4 60 2.62857 60 2.85714 59.8857C3.08571 59.7714 3.31429 59.6571 3.42857 59.5429C3.54286 59.4286 3.77143 59.2 3.77143 59.0857C3.88571 58.8571 3.88571 58.7429 3.88571 58.5143C3.88571 58.1714 3.77143 57.9429 3.65714 57.8286C3.65714 57.4857 3.31429 57.3714 2.97143 57.2571ZM1.25714 55.6571H1.94286C2.05714 55.6571 2.17143 55.6571 2.28571 55.6571C2.4 55.6571 2.51429 55.6571 2.51429 55.7714C2.62857 55.7714 2.62857 55.8857 2.62857 56C2.62857 56.1143 2.62857 56.2286 2.62857 56.3429C2.62857 56.4571 2.62857 56.5714 2.51429 56.6857C2.51429 56.8 2.4 56.8 2.4 56.9143C2.4 57.0286 2.28571 56.9143 2.17143 56.9143C2.05714 56.9143 1.94286 56.9143 1.82857 56.9143H1.25714V55.6571ZM2.85714 58.6286C2.85714 58.7429 2.74286 58.7429 2.74286 58.8571C2.74286 58.9714 2.62857 58.9714 2.51429 58.9714C2.4 58.9714 2.28571 59.0857 2.17143 59.0857H1.25714V57.8286H2.05714C2.17143 57.8286 2.28571 57.8286 2.4 57.8286C2.51429 57.8286 2.62857 57.9429 2.62857 57.9429C2.74286 57.9429 2.74286 58.0571 2.74286 58.1714C2.74286 58.2857 2.74286 58.2857 2.74286 58.4C2.85714 58.5143 2.85714 58.5143 2.85714 58.6286Z" fill="#868686"/>
<path d="M9.02856 57.9429C8.91427 57.8286 8.91427 57.8286 8.79999 57.8286C8.91427 57.7143 9.14284 57.7143 9.25713 57.6C9.37141 57.4857 9.4857 57.3714 9.59999 57.2571C9.71427 57.1429 9.71427 57.0286 9.82856 56.8C9.82856 56.6857 9.94284 56.4571 9.94284 56.3429C9.94284 56.1143 9.94284 55.8857 9.82856 55.7714C9.71427 55.5429 9.59999 55.4286 9.4857 55.3143C9.37141 55.2 9.14284 55.0857 8.79999 54.9714C8.57141 54.8571 8.22856 54.8571 7.8857 54.8571H6.05713V60.1143H7.31427V58.1714H7.65713C7.77141 58.1714 7.77141 58.1714 7.8857 58.1714L7.99999 58.2857L8.91427 59.7714C9.02856 59.8857 9.14284 60 9.37141 60H10.5143L9.37141 58.1714C9.25713 58.0571 9.14284 58.0571 9.02856 57.9429ZM8.6857 56.6857C8.6857 56.8 8.57141 56.9143 8.57141 56.9143C8.45713 57.0286 8.34284 57.1429 8.22856 57.1429C8.11427 57.1429 7.99999 57.2571 7.77141 57.2571H7.31427V55.7714H7.77141C8.11427 55.7714 8.34284 55.8857 8.45713 56C8.57141 56.1143 8.6857 56.3429 8.6857 56.5714C8.6857 56.5714 8.6857 56.5714 8.6857 56.6857Z" fill="#868686"/>
<path d="M13.8286 54.7429L11.7714 60H12.6857C12.8 60 12.9143 60 12.9143 59.8857C13.0286 59.8857 13.0286 59.7714 13.0286 59.6571L13.3714 58.7429H15.3143L15.6571 59.6571C15.6571 59.7714 15.7714 59.7714 15.7714 59.8857C15.8857 59.8857 15.8857 60 16 60H17.1429L15.0857 54.7429H13.8286ZM13.8286 57.9429L14.2857 56.5714C14.2857 56.4571 14.4 56.3429 14.4 56.2286C14.4 56.1143 14.5143 56 14.5143 55.7714C14.5143 55.8857 14.6286 56 14.6286 56.1143C14.6286 56.2286 14.7429 56.3429 14.7429 56.4571L15.2 57.8286H13.8286V57.9429Z" fill="#868686"/>
<path d="M22.4 57.4857C22.4 57.6 22.4 57.7143 22.4 57.7143C22.4 57.8286 22.4 57.9429 22.4 58.0571L19.8857 54.9714L19.7714 54.8571C19.7714 54.8571 19.7714 54.8571 19.6571 54.8571H19.5429H19.4286H18.7429V60.1143H19.7714V57.1429C19.7714 57.0286 19.7714 57.0286 19.7714 56.9143C19.7714 56.8 19.7714 56.6857 19.7714 56.6857L22.1714 59.7714C22.2857 59.8857 22.2857 59.8857 22.4 59.8857C22.5143 59.8857 22.5143 59.8857 22.6286 59.8857H23.2V54.6286H22.1714V57.4857H22.4Z" fill="#868686"/>
<path d="M29.8286 55.5429C29.6 55.3143 29.2571 55.0857 29.0286 54.9714C28.6857 54.8571 28.3428 54.7429 27.8857 54.7429H25.8286V60H27.8857C28.3428 60 28.6857 59.8857 29.0286 59.7714C29.3714 59.6571 29.6 59.4286 29.8286 59.2C30.0571 58.9714 30.2857 58.7429 30.4 58.4C30.5143 58.0571 30.6286 57.7143 30.6286 57.3714C30.6286 57.0286 30.5143 56.6857 30.4 56.3429C30.1714 56 30.0571 55.7714 29.8286 55.5429ZM29.1428 58.0571C29.0286 58.2857 29.0286 58.4 28.8 58.6286C28.6857 58.7429 28.5714 58.8571 28.3428 58.9714C28.1143 59.0857 28 59.0857 27.7714 59.0857H26.9714V55.7714H27.7714C28 55.7714 28.2286 55.7714 28.3428 55.8857C28.4571 56 28.6857 56.1143 28.8 56.2286C28.9143 56.3429 29.0286 56.5714 29.1428 56.8C29.2571 57.0286 29.2571 57.2571 29.2571 57.4857C29.2571 57.6 29.2571 57.8286 29.1428 58.0571Z" fill="#868686"/>
<path d="M38.8572 57.4857C38.8572 57.6 38.8572 57.7143 38.8572 57.7143C38.8572 57.8286 38.8572 57.9429 38.8572 58.0571L36.3429 54.9714L36.2286 54.8571C36.2286 54.8571 36.2286 54.8571 36.1143 54.8571C36 54.8571 36 54.8571 36 54.8571H35.8857H35.2V60.1143H36.2286V57.1429C36.2286 57.0286 36.2286 57.0286 36.2286 56.9143C36.2286 56.8 36.2286 56.6857 36.2286 56.6857L38.6286 59.7714C38.7429 59.8857 38.7429 59.8857 38.8572 59.8857C38.9714 59.8857 38.9714 59.8857 39.0857 59.8857H39.6572V54.6286H38.8572V57.4857Z" fill="#868686"/>
<path d="M43.7714 54.7429L41.7143 60H42.6286C42.7429 60 42.8572 60 42.8572 59.8857C42.9714 59.8857 42.9714 59.7714 42.9714 59.6571L43.3143 58.7429H45.2571L45.6 59.6571C45.6 59.7714 45.7143 59.7714 45.7143 59.8857C45.7143 60 45.8286 60 45.9429 60H46.8572L44.8 54.7429H43.7714ZM43.6572 57.9429L44.1143 56.5714C44.1143 56.4571 44.2286 56.3429 44.2286 56.2286C44.2286 56.1143 44.3429 56 44.3429 55.7714C44.3429 55.8857 44.4572 56 44.4572 56.1143C44.4572 56.2286 44.5714 56.3429 44.5714 56.4571L45.0286 57.8286H43.6572V57.9429Z" fill="#868686"/>
<path d="M53.6 54.7429C53.4857 54.7429 53.4857 54.7429 53.3714 54.8571C53.3714 54.8571 53.3714 54.9714 53.2572 54.9714L51.8857 57.6C51.8857 57.7143 51.7714 57.8286 51.7714 57.9429C51.7714 58.0571 51.6572 58.1714 51.6572 58.2857C51.6572 58.1714 51.5429 58.0571 51.5429 57.9429C51.5429 57.8286 51.4286 57.7143 51.4286 57.7143L50.0572 55.0857C50.0572 55.0857 50.0572 54.9714 49.9429 54.9714C49.9429 54.9714 49.9429 54.9714 49.8286 54.9714H49.7143H49.6H48.6857V60.1143H49.7143V57.1429C49.7143 57.0286 49.7143 57.0286 49.7143 56.9143C49.7143 56.8 49.7143 56.8 49.7143 56.6857L51.0857 59.3143C51.0857 59.4286 51.2 59.4286 51.3143 59.5429C51.4286 59.5429 51.4286 59.6571 51.5429 59.6571H51.6572C51.7714 59.6571 51.8857 59.6571 51.8857 59.5429C52 59.5429 52 59.4286 52.1143 59.3143L53.4857 56.6857C53.4857 56.8 53.4857 57.0286 53.4857 57.1429V60.1143H54.5143V54.9714H53.7143C53.7143 54.7429 53.7143 54.7429 53.6 54.7429Z" fill="#868686"/>
<path d="M60.3428 55.6571V54.7429H57.0286V60H60.3428V59.0857H58.1714V57.8286H59.7714V56.9143H58.1714V55.6571H60.3428Z" fill="#868686"/>
<path d="M53.2571 40.2286L45.3714 26.5143L52.1143 14.8571C52.6857 13.9429 52 12.8 50.9714 12.8H37.4857L30.0571 0L22.6285 12.8H9.25712C8.22855 12.8 7.54283 13.9429 8.11426 14.8571L14.8571 26.5143L6.85712 40.2286H22.6285L28.8 50.9714C29.0285 51.4286 29.4857 51.6571 29.9428 51.6571C30.4 51.6571 30.8571 51.4286 31.0857 50.9714L37.2571 40.2286H53.2571ZM49.9428 14.7429L44.3428 24.5714L38.7428 14.7429H49.9428ZM36.8 37.4857H24.4571L20.3428 30.4L26.7428 19.4286L37.0285 37.2571L36.8 37.4857ZM25.7143 17.8286L19.3143 28.8L18.0571 26.5143L24.4571 15.5429L25.7143 17.8286ZM10.1714 14.7429H21.4857L15.8857 24.5714L10.1714 14.7429ZM30.0571 49.1429L24.9143 40.2286H35.2L30.0571 49.1429Z" fill="#868686"/>
</g>
<defs>
<clipPath id="clip0_887_16770">
<rect width="60.3429" height="60" fill="white"/>
</clipPath>
</defs>
</svg>
