<svg width="96" height="60" viewBox="0 0 96 60" fill="none" xmlns="http://www.w3.org/2000/svg">
<g clip-path="url(#clip0_887_1573)">
<path d="M43.2284 5.74803C44.0945 5.19685 44.8032 4.40945 45.5118 3.62205C46.2205 2.83465 46.8504 2.04724 47.4803 1.1811L47.6378 0.944881L47.7953 1.25984C48.3465 2.12598 48.9764 2.99213 49.6063 3.77953C50.2362 4.56693 50.9449 5.35433 51.811 5.98425C50.8661 5.51181 50.0787 4.80315 49.2913 4.01575C48.8976 3.62205 48.5827 3.22835 48.2677 2.75591C47.9528 2.3622 47.6378 1.88976 47.4016 1.41732H47.7953C47.1654 2.28346 46.4567 3.07087 45.748 3.77953C45.0394 4.56693 44.252 5.27559 43.2284 5.74803Z" fill="#868686"/>
<path d="M70 10.315C69.3701 9.84252 69.2913 8.8189 69.9213 8.26772C70.5512 7.71654 71.4961 7.71654 72.2047 7.95276C72.9921 8.26772 73.5433 9.05512 73.4646 9.92126C73.4646 10.7874 72.9134 11.4961 72.2047 11.9685C70.8661 12.8346 69.0551 12.8346 67.6378 12.2047C66.2205 11.5748 65.1181 10.3937 64.3307 9.13386C65.2756 10.315 66.378 11.4173 67.7953 11.8898C69.1339 12.4409 70.7874 12.4409 71.9685 11.6535C72.5984 11.2598 72.9921 10.7087 73.0709 10C73.1496 9.29134 72.6772 8.66142 72.0472 8.34646C71.4173 8.0315 70.6299 8.0315 70 8.50394C69.4488 8.8189 69.4488 9.76378 70 10.315Z" fill="#868686"/>
<path d="M25.3543 10.315C25.9055 9.76378 25.8268 8.8189 25.2756 8.4252C24.7244 8.0315 23.8583 8.0315 23.2283 8.26772C22.5984 8.58268 22.2047 9.2126 22.2047 9.92126C22.2047 10.6299 22.6772 11.1811 23.3071 11.5748C24.4882 12.3622 26.1417 12.3622 27.4803 11.811C28.8976 11.3386 30 10.2362 30.9449 9.05512C30.1575 10.3937 29.0551 11.4961 27.6378 12.126C26.2205 12.7559 24.4882 12.7559 23.0709 11.8898C22.4409 11.4961 21.811 10.7087 21.811 9.84252C21.7323 8.97638 22.2835 8.18898 23.0709 7.87402C23.8583 7.55906 24.7244 7.63779 25.3543 8.18898C26.063 8.8189 25.9843 9.92126 25.3543 10.315Z" fill="#868686"/>
<path d="M37.6378 0C38.2677 0.0787402 38.8976 0.15748 39.5276 0.23622C40.1575 0.393701 40.7874 0.551181 41.3386 0.866142C42.5197 1.33858 43.622 2.12598 44.4882 2.99213C45.3543 3.93701 46.1417 4.96063 46.6929 6.14173C47.2441 7.32284 47.6378 8.50394 47.7165 9.76378C47.4016 8.50394 47.0079 7.32284 46.378 6.22047C45.8268 5.11811 45.0394 4.09449 44.1732 3.22835C43.7795 2.75591 43.2283 2.3622 42.7559 2.04724C42.2047 1.73228 41.7323 1.33858 41.1811 1.10236C40.0787 0.629921 38.8189 0.314961 37.6378 0Z" fill="#868686"/>
<path d="M58.0315 0C56.7717 0.314961 55.5906 0.629921 54.4094 1.1811C53.8583 1.41732 53.3071 1.81102 52.7559 2.12598C52.2835 2.51969 51.7323 2.91339 51.3386 3.30709C50.3937 4.17323 49.685 5.19685 49.0551 6.29921C48.4252 7.40158 47.9528 8.58268 47.6378 9.84252C47.7953 8.58268 48.189 7.32284 48.7402 6.14173C49.2913 4.96063 50.0787 3.93701 51.0236 2.99213C51.9685 2.12598 53.0709 1.33858 54.252 0.866142C54.8032 0.551181 55.4331 0.472441 56.063 0.236221C56.7717 0.15748 57.4016 0.0787402 58.0315 0Z" fill="#868686"/>
<path d="M24.7244 8.18898C24.1732 7.95276 23.622 7.87402 23.0709 7.95276C22.5197 8.0315 22.0472 8.34646 21.6535 8.74016C20.9449 9.6063 20.8661 10.8661 21.3386 11.811C21.811 12.7559 22.7559 13.4646 23.7795 13.7795C24.8032 14.0945 25.9843 14.0945 27.0079 13.7795C28.0315 13.4646 29.0551 12.9921 30 12.3622C30.9449 11.7323 31.7323 11.0236 32.5984 10.315C34.252 8.8189 35.9055 7.32284 37.9528 6.22047C38.9764 5.66929 40.0787 5.27559 41.2598 5.35433C42.4409 5.35433 43.5433 5.82677 44.4882 6.53543C46.2992 8.0315 46.6929 10.9449 45.1969 12.8346C44.4882 13.7795 43.3858 14.3307 42.2835 14.5669C41.1811 14.8032 39.9213 14.4882 39.0551 13.7008C38.189 12.9134 37.9528 11.4961 38.6614 10.5512C39.2913 9.6063 40.8661 9.37008 41.6535 10.315C40.8661 9.44882 39.3701 9.68504 38.8189 10.6299C38.2677 11.5748 38.5039 12.9134 39.2913 13.622C40.0787 14.4095 41.2598 14.6457 42.2835 14.4095C43.3071 14.1732 44.3307 13.622 44.9606 12.7559C46.2992 11.0236 45.9055 8.34646 44.252 7.00788C43.3858 6.37795 42.3622 5.90551 41.3386 5.90551C40.2362 5.90551 39.2126 6.22047 38.2677 6.77166C36.2992 7.79528 34.6457 9.29134 32.9921 10.7874C31.3386 12.2835 29.5276 13.7795 27.2441 14.3307C26.1417 14.6457 24.9606 14.6457 23.8583 14.252C22.7559 13.8583 21.7323 13.1496 21.2598 12.126C20.7874 11.1024 20.9449 9.76378 21.7323 8.89764C22.126 8.50394 22.5984 8.18898 23.2283 8.11024C23.7008 7.87402 24.252 8.0315 24.7244 8.18898Z" fill="#868686"/>
<path d="M70.6299 8.18898C71.1811 7.95276 71.7323 7.79528 72.2835 7.87402C72.8347 7.95276 73.3858 8.26772 73.7795 8.66142C74.5669 9.52756 74.7244 10.8661 74.252 11.8898C73.7795 12.9921 72.7559 13.7008 71.6535 14.0157C70.5512 14.4094 69.3701 14.4094 68.2677 14.0945C65.9843 13.5433 64.1732 12.0472 62.5197 10.5512C60.8661 9.05512 59.2126 7.55906 57.2441 6.53543C56.2992 5.98425 55.1969 5.66929 54.1732 5.66929C53.0709 5.66929 52.0472 6.14173 51.2598 6.77165C49.6063 8.11024 49.2126 10.8661 50.5512 12.5197C51.1811 13.3858 52.2047 13.937 53.2283 14.1732C54.252 14.4094 55.4331 14.1732 56.2205 13.3858C57.0079 12.6772 57.3228 11.3386 56.6929 10.3937C56.1417 9.44882 54.5669 9.2126 53.8583 10.0787C54.5669 9.2126 56.1417 9.37008 56.8504 10.315C57.4803 11.2598 57.2441 12.6772 56.4567 13.4646C55.6693 14.3307 54.4095 14.5669 53.2283 14.3307C52.126 14.0945 51.0236 13.5433 50.315 12.5984C48.8189 10.7087 49.2126 7.79528 51.0236 6.29921C51.9685 5.59055 53.0709 5.11811 54.252 5.11811C55.4331 5.11811 56.5354 5.43307 57.5591 5.98425C59.6063 7.08661 61.2598 8.58268 62.9134 10.0787C63.7795 10.7874 64.5669 11.5748 65.5118 12.126C66.4567 12.7559 67.4016 13.2283 68.5039 13.5433C69.5276 13.8583 70.7087 13.8583 71.7323 13.5433C72.7559 13.2283 73.7795 12.5197 74.1732 11.5748C74.6457 10.6299 74.4882 9.37008 73.7795 8.50394C73.4646 8.11024 72.9134 7.79528 72.3622 7.71654C71.7323 7.87402 71.1811 7.95276 70.6299 8.18898Z" fill="#868686"/>
<path d="M70.6299 53.8583C71.1024 54.0157 71.6535 54.1732 72.126 54.0945C72.6772 54.0157 73.1496 53.7795 73.4646 53.3858C74.1732 52.6772 74.4095 51.4961 74.0945 50.5512C73.7795 49.6063 72.9921 48.8189 72.0472 48.4252C71.1811 48.0315 70.0787 47.874 69.1339 48.0315C67.0866 48.3465 65.2756 49.5276 63.7008 50.8661C62.126 52.2047 60.6299 53.7008 58.8189 54.8819C57.9528 55.4331 57.0079 55.9843 55.9843 56.2992C54.9606 56.6142 53.7795 56.6929 52.7559 56.378L51.9685 56.063C51.7323 55.9055 51.4961 55.748 51.2598 55.5906C50.7874 55.3543 50.3937 54.8819 50.0787 54.4882C49.4488 53.622 49.1339 52.4409 49.2913 51.3386C49.3701 50.2362 49.9213 49.2126 50.7087 48.5039C51.4961 47.7953 52.5984 47.3228 53.622 47.3228C54.7244 47.2441 55.8268 47.7165 56.4567 48.5827C57.0866 49.4488 57.2441 50.7087 56.5354 51.5748C57.1654 50.7087 57.0079 49.4488 56.378 48.6614C55.748 47.874 54.6457 47.4803 53.622 47.5591C52.5984 47.6378 51.5748 48.0315 50.8661 48.7402C50.0787 49.4488 49.685 50.3937 49.6063 51.4173C49.5276 52.4409 49.8425 53.4646 50.3937 54.252C50.7087 54.6457 51.0236 55.0394 51.4961 55.2756C51.7323 55.4331 51.8898 55.5905 52.126 55.6693L52.8346 55.9843C53.7795 56.2992 54.8032 56.2205 55.8268 55.9055C56.7717 55.5906 57.7165 55.0394 58.5827 54.4882C60.315 53.3071 61.811 51.8898 63.4646 50.4724C65.0394 49.1339 66.9291 47.874 69.0551 47.5591C70.1575 47.4016 71.2598 47.5591 72.2047 48.0315C73.1496 48.5039 74.0945 49.2913 74.3307 50.315C74.6457 51.3386 74.3307 52.5197 73.5433 53.3071C73.1496 53.7008 72.6772 53.937 72.126 54.0157C71.6535 54.1732 71.1024 54.0157 70.6299 53.8583Z" fill="#868686"/>
<path d="M24.8032 53.8583C24.3307 54.0945 23.7795 54.1732 23.2283 54.1732C22.6772 54.0945 22.2047 53.8583 21.811 53.4646C21.0236 52.6772 20.7087 51.4961 21.0236 50.4724C21.3386 49.3701 22.2047 48.5827 23.1496 48.189C24.0945 47.7165 25.2756 47.5591 26.2992 47.7165C28.4252 48.0315 30.315 49.2126 31.8898 50.6299C33.4646 51.9685 35.0394 53.4646 36.7717 54.6457C37.6378 55.1969 38.5039 55.748 39.5276 56.063C40.4724 56.378 41.5748 56.4567 42.5197 56.1417L43.2284 55.8268C43.4646 55.6693 43.6221 55.5906 43.8583 55.4331C44.3307 55.1969 44.6457 54.8031 44.9606 54.4094C45.5118 53.622 45.8268 52.5197 45.748 51.5748C45.6693 50.5512 45.1969 49.6063 44.4882 48.8976C43.7795 48.189 42.7559 47.7953 41.7323 47.7165C40.7087 47.6378 39.685 48.0315 38.9764 48.8189C38.3465 49.6063 38.189 50.8661 38.8189 51.7323C38.1102 50.8661 38.2677 49.6063 38.8976 48.7402C39.5276 47.874 40.6299 47.4016 41.7323 47.4803C42.8346 47.5591 43.8583 47.9528 44.6457 48.6614C45.4331 49.3701 45.9843 50.3937 46.063 51.4961C46.1417 52.5984 45.9055 53.7008 45.2756 54.6457C44.9606 55.1181 44.5669 55.5118 44.0945 55.748C43.8583 55.9055 43.6221 56.063 43.3858 56.2205L42.5984 56.5354C41.5748 56.8504 40.3937 56.7717 39.3701 56.4567C38.3465 56.1417 37.4016 55.5906 36.5354 55.0394C34.8032 53.8583 33.2284 52.3622 31.6535 51.0236C30.0787 49.685 28.2677 48.5039 26.2205 48.189C25.1969 48.0315 24.1732 48.1102 23.2283 48.5827C22.3622 48.8189 21.5748 49.6063 21.2598 50.5512C20.9449 51.4961 21.1811 52.6772 21.8898 53.3858C22.2047 53.7795 22.7559 54.0157 23.2283 54.0945C23.7795 54.1732 24.252 54.0158 24.8032 53.8583Z" fill="#868686"/>
<path d="M87.0866 14.0157C86.6142 14.4094 85.9055 14.4882 85.3543 14.252C84.8032 14.0157 84.4095 13.4646 84.252 12.8346C84.0158 11.5748 84.9606 10.315 86.1417 10C87.4016 9.68504 88.7402 10.3937 89.3701 11.4961C90 12.5984 89.8425 14.0157 89.2126 15.1181C88.5039 16.2205 87.3228 16.8504 86.1417 17.0079C84.8819 17.1654 83.7008 16.8504 82.5984 16.2992C80.4724 15.1181 79.1339 12.8346 78.8189 10.4724C79.2126 12.7559 80.7087 14.8819 82.7559 15.9843C83.7795 16.5354 84.9606 16.7717 86.063 16.6142C87.1654 16.4567 88.2677 15.8268 88.8189 14.8819C89.4488 13.937 89.5276 12.6772 88.9764 11.7323C88.4252 10.7874 87.2441 10.1575 86.2205 10.3937C85.1181 10.6299 84.252 11.7323 84.4095 12.8346C84.4882 13.3858 84.8032 13.937 85.3543 14.1732C85.9843 14.3307 86.6142 14.3307 87.0866 14.0157Z" fill="#868686"/>
<path d="M8.26772 14.0157C8.74016 14.4094 9.44882 14.4094 9.92126 14.0945C10.3937 13.8583 10.7874 13.3071 10.8661 12.7559C11.0236 11.6535 10.1575 10.5512 9.05512 10.315C7.95276 10.0787 6.77165 10.7087 6.29921 11.6535C5.74803 12.5984 5.90551 13.8583 6.53543 14.8031C7.16535 15.748 8.18898 16.378 9.29134 16.5354C10.3937 16.6929 11.5748 16.4567 12.5984 15.9055C14.6457 14.8032 16.063 12.6772 16.4567 10.3937C16.2205 12.7559 14.8819 15.0394 12.7559 16.2205C11.7323 16.8504 10.4724 17.0866 9.2126 16.9291C8.0315 16.7717 6.85039 16.1417 6.14173 15.0394C5.51181 14.0157 5.35433 12.5984 5.98425 11.4173C6.61417 10.315 7.95276 9.6063 9.2126 9.92126C10.3937 10.2362 11.3386 11.4961 11.1024 12.7559C10.9449 13.3858 10.5512 13.937 10 14.1732C9.37008 14.4882 8.74016 14.4094 8.26772 14.0157Z" fill="#868686"/>
<path d="M7.40157 20.1575C7.08661 21.1024 6.29921 21.8898 5.35433 22.2047C4.40945 22.5197 3.30709 22.4409 2.51968 21.7323C1.73228 21.0236 1.41732 20 1.41732 18.9764C1.41732 17.9528 1.73228 16.9291 2.51968 16.1417C3.22835 15.3543 4.40945 15.1969 5.43307 15.4331C6.45669 15.6693 7.32283 16.378 7.87401 17.1654C9.13386 18.8189 9.52756 20.8661 9.76378 22.8346C10.7087 30.7874 10.1575 38.8976 7.95276 46.6142C7.63779 47.5591 7.40157 48.5039 7.00787 49.4488C6.69291 50.3937 6.37795 51.3386 5.90551 52.2835C5.43307 53.1496 4.80315 54.0945 3.85827 54.5669C2.83464 55.1181 1.5748 54.9606 0.7874 54.1732C0.393699 53.7795 0.157479 53.3071 0.0787387 52.7559C-1.4143e-06 52.2047 0.0787388 51.7323 0.157479 51.1811C0.393699 50.1575 1.1811 49.2913 2.04724 48.8189C3.85827 47.7953 5.90551 47.6378 7.87401 47.3228C11.811 46.7717 15.8268 46.5354 19.8425 46.6142C23.8583 46.6929 27.7953 47.0866 31.7323 47.7953C27.7953 47.1654 23.7795 46.8504 19.8425 46.7717C15.8268 46.6929 11.8898 47.0079 7.95276 47.5591C5.98425 47.874 3.93701 48.0315 2.28346 49.0551C1.49606 49.5276 0.7874 50.315 0.55118 51.2598C0.47244 51.7323 0.393699 52.2047 0.47244 52.6772C0.55118 53.1496 0.7874 53.5433 1.10236 53.8583C1.73228 54.4882 2.83464 54.6457 3.70079 54.252C4.56693 53.8583 5.11811 52.9921 5.59055 52.126C6.06299 51.2598 6.37795 50.315 6.69291 49.3701C7.00787 48.4252 7.32283 47.4803 7.55905 46.5354C9.76378 38.8976 10.4724 30.7874 9.52756 22.9134C9.29134 20.9449 8.89764 18.9764 7.71653 17.3228C7.16535 16.5354 6.29921 15.9055 5.35433 15.6693C4.40945 15.4331 3.38583 15.5906 2.67716 16.2992C1.9685 17.0079 1.65354 17.9528 1.65354 18.9764C1.5748 19.9213 1.88976 20.9449 2.67716 21.6535C3.38583 22.3622 4.48819 22.5197 5.43307 22.126C6.29921 21.8898 7.08661 21.1024 7.40157 20.1575Z" fill="#868686"/>
<path d="M88.189 20.0787C88.5039 21.0236 89.2913 21.811 90.2362 22.126C91.1811 22.4409 92.2835 22.2835 92.9921 21.6535C93.7008 21.0236 94.0158 20 94.0158 18.9764C94.0158 18.0315 93.6221 17.0079 92.9921 16.2992C92.2835 15.5906 91.2598 15.4331 90.315 15.6693C89.3701 15.9055 88.5827 16.5354 87.9528 17.3228C86.7717 18.8976 86.378 20.9449 86.1417 22.8346C85.1969 30.7087 85.9055 38.8189 88.1102 46.378C88.3465 47.3228 88.6614 48.2677 88.9764 49.2126C89.2913 50.1575 89.6063 51.1024 90.0787 51.9685C90.4724 52.8346 91.1024 53.622 91.8898 54.0945C92.2835 54.3307 92.7559 54.4882 93.2284 54.4094C93.7008 54.3307 94.0945 54.1732 94.4095 53.7795C95.0394 53.0709 95.1969 52.0472 95.0394 51.1024C94.8819 50.1575 94.1732 49.3701 93.3858 48.8976C91.7323 47.874 89.685 47.7953 87.7165 47.4803C83.7795 46.9291 79.8425 46.6929 75.8268 46.6929C71.8898 46.6929 67.874 47.0866 63.937 47.7165C67.874 47.0079 71.811 46.6142 75.8268 46.4567C79.8425 46.378 83.7795 46.6142 87.7165 47.1654C89.685 47.4803 91.7323 47.5591 93.5433 48.5827C94.4095 49.0551 95.1969 49.9213 95.3543 51.0236C95.5118 52.0472 95.3543 53.1496 94.6457 54.0157C94.252 54.4094 93.7795 54.7244 93.2284 54.7244C92.6772 54.8032 92.126 54.6457 91.6536 54.3307C90.7087 53.7795 90.0787 52.9134 89.685 52.0472C89.2126 51.1024 88.8976 50.1575 88.5827 49.2126C88.2677 48.2677 87.9528 47.3228 87.6378 46.378C85.4331 38.6614 84.8032 30.5512 85.8268 22.6772C86.063 20.7087 86.4567 18.6614 87.7165 17.0079C88.3465 16.2205 89.2126 15.5906 90.2362 15.2756C91.2598 14.9606 92.3622 15.1969 93.0709 15.9843C93.7795 16.7717 94.0945 17.7953 94.0945 18.8189C94.0945 19.8425 93.7795 20.8661 92.9921 21.5748C92.2047 22.2835 91.1024 22.3622 90.1575 22.0472C89.2913 21.811 88.5039 21.0236 88.189 20.0787Z" fill="#868686"/>
<path d="M26.378 50.9449C28.5827 51.6535 30.5512 52.7559 32.4409 54.1732C34.3307 55.5118 35.9055 57.1654 37.7953 58.4252C38.7402 59.0551 39.685 59.6063 40.7874 59.6063C41.8898 59.6063 42.8346 58.9764 43.622 58.189C44.4095 57.4016 45.1181 56.5354 45.748 55.5906C46.378 54.6457 47.0079 53.7008 47.5591 52.6772C46.5354 54.7244 45.4331 56.7717 43.8583 58.4252C43.0709 59.2126 41.9685 59.9213 40.7874 60C39.5276 60 38.5039 59.3701 37.5591 58.7402C35.6693 57.4016 34.0945 55.748 32.2835 54.4094C30.3937 53.0709 28.4252 51.811 26.378 50.9449Z" fill="#868686"/>
<path d="M68.6614 50.9449C66.5354 51.811 64.6457 52.9921 62.8347 54.4094C61.0236 55.8268 59.4488 57.4016 57.5591 58.7402C56.6142 59.3701 55.5118 60 54.3307 60C53.0709 60 52.0472 59.2913 51.2598 58.4252C49.6063 56.7717 48.5827 54.7244 47.5591 52.6772C48.1102 53.6221 48.7402 54.6457 49.3701 55.5906C50 56.5354 50.7087 57.4016 51.4961 58.189C52.2835 58.9764 53.3071 59.6063 54.3307 59.6063C55.4331 59.6063 56.4567 59.0551 57.3228 58.4252C59.1339 57.0866 60.7874 55.5118 62.6772 54.1732C64.4882 52.7559 66.5354 51.6535 68.6614 50.9449Z" fill="#868686"/>
<path d="M15.1968 20.5512H16.8504V32.126H22.3622V33.5433H15.1181L15.1968 20.5512Z" fill="#868686"/>
<path d="M31.9685 20.4724V28.1102C31.9685 31.0236 33.2284 32.2047 34.9606 32.2047C36.8504 32.2047 38.1102 30.9449 38.1102 28.0315V20.3937H39.7638V27.9528C39.7638 31.9685 37.6378 33.5433 34.8819 33.5433C32.2047 33.5433 30.2362 32.0472 30.2362 28.0315V20.3937L31.9685 20.4724Z" fill="#868686"/>
<path d="M56.6142 33.4646L54.9606 30.6299C54.252 29.5276 53.8583 28.8189 53.4646 28.1102C53.0709 28.8976 52.7559 29.5276 52.0472 30.7087L50.4724 33.5433H48.5827L52.5197 27.0079L48.6614 20.4724H50.6299L52.3622 23.5433C52.8346 24.4095 53.2283 25.0394 53.5433 25.748C53.937 24.9606 54.252 24.4095 54.7244 23.5433L56.4567 20.4724H58.3465L54.4095 26.7717L58.4252 33.3858L56.6142 33.4646Z" fill="#868686"/>
<path d="M77.7165 26.8504C77.7165 31.3386 75.0394 33.7008 71.7323 33.7008C68.3465 33.7008 65.9055 31.0236 65.9055 27.1654C65.9055 23.0709 68.4252 20.3937 71.8898 20.3937C75.4331 20.2362 77.7165 22.9921 77.7165 26.8504ZM67.6378 27.0079C67.6378 29.7638 69.1339 32.2835 71.811 32.2835C74.4882 32.2835 75.9843 29.8425 75.9843 26.9291C75.9843 24.3307 74.6457 21.6535 71.811 21.6535C69.0551 21.6535 67.6378 24.1732 67.6378 27.0079Z" fill="#868686"/>
<path d="M14.7244 38.7402H15.2756V42.8346H17.2441V43.3071H14.7244V38.7402Z" fill="#868686"/>
<path d="M19.9213 38.7402V41.4173C19.9213 42.4409 20.3937 42.8346 20.9449 42.8346C21.6535 42.8346 22.0472 42.3622 22.0472 41.4173V38.7402H22.6772V41.4173C22.6772 42.8346 21.9685 43.3858 20.9449 43.3858C20 43.3858 19.2913 42.8346 19.2913 41.4173V38.7402H19.9213Z" fill="#868686"/>
<path d="M27.874 43.2284L27.3228 42.2047C27.0866 41.811 26.9291 41.5748 26.7717 41.3386C26.6142 41.5748 26.5354 41.811 26.2992 42.2047L25.748 43.2284H25.0394L26.4567 40.9449L25.1181 38.6614H25.8268L26.4567 39.7638C26.6142 40.0787 26.7717 40.315 26.8504 40.5512C27.0079 40.315 27.0866 40.0787 27.2441 39.7638L27.874 38.6614H28.5827L27.1654 40.9449L28.5827 43.3071H27.874V43.2284Z" fill="#868686"/>
<path d="M31.5748 38.7402V41.4173C31.5748 42.4409 32.0472 42.8346 32.5984 42.8346C33.3071 42.8346 33.7008 42.3622 33.7008 41.4173V38.7402H34.3307V41.4173C34.3307 42.8346 33.6221 43.3858 32.5984 43.3858C31.6535 43.3858 30.9449 42.8346 30.9449 41.4173V38.7402H31.5748Z" fill="#868686"/>
<path d="M37.0079 38.7402C37.3228 38.6614 37.7165 38.6614 38.1102 38.6614C38.7402 38.6614 39.1339 38.7402 39.4488 39.0551C39.685 39.2913 39.8425 39.6063 39.8425 39.9213C39.8425 40.5512 39.4488 40.9449 38.9764 41.1024C39.2913 41.2598 39.5276 41.5748 39.685 42.0472C39.8425 42.6772 39.9213 43.1496 40 43.3071H39.3701C39.2913 43.1496 39.2126 42.7559 39.0551 42.2047C38.8976 41.5748 38.6614 41.3386 38.1102 41.3386H37.5591V43.3071H37.0079V38.7402ZM37.6378 40.8661H38.2677C38.8976 40.8661 39.2913 40.5512 39.2913 40C39.2913 39.4488 38.8976 39.1339 38.2677 39.1339C37.9528 39.1339 37.7953 39.1339 37.7165 39.2126L37.6378 40.8661Z" fill="#868686"/>
<path d="M43.3071 43.2284V41.2598L41.8898 38.6614H42.5197L43.1496 39.9213C43.3071 40.2362 43.4646 40.5512 43.6221 40.8661C43.7795 40.5512 43.937 40.2362 44.0945 39.9213L44.7244 38.6614H45.3543L43.8583 41.2598V43.2284H43.3071Z" fill="#868686"/>
<path d="M50.7087 38.7402C50.9449 38.6614 51.3386 38.6614 51.811 38.6614C52.3622 38.6614 52.7559 38.7402 53.0709 38.9764C53.3071 39.1339 53.4646 39.4488 53.4646 39.7638C53.4646 40.2362 53.1496 40.5512 52.6772 40.7874C53.0709 40.8661 53.622 41.2598 53.622 41.8898C53.622 42.2835 53.4646 42.5984 53.2283 42.8346C52.9134 43.1496 52.3622 43.2284 51.6535 43.2284C51.2598 43.2284 50.9449 43.2283 50.7087 43.1496V38.7402ZM51.3386 40.6299H51.8898C52.5197 40.6299 52.9134 40.315 52.9134 39.8425C52.9134 39.2913 52.5197 39.1339 51.8898 39.1339C51.6535 39.1339 51.4961 39.1339 51.3386 39.2126V40.6299ZM51.3386 42.8346C51.4173 42.8346 51.6535 42.8346 51.811 42.8346C52.4409 42.8346 52.9921 42.5984 52.9921 41.9685C52.9921 41.3386 52.4409 41.1024 51.811 41.1024H51.3386V42.8346Z" fill="#868686"/>
<path d="M56.063 38.7402C56.378 38.6614 56.7717 38.6614 57.1654 38.6614C57.7953 38.6614 58.189 38.7402 58.5039 39.0551C58.7402 39.2913 58.8976 39.6063 58.8976 39.9213C58.8976 40.5512 58.5039 40.9449 58.0315 41.1024C58.3465 41.2598 58.5827 41.5748 58.7402 42.0472C58.8976 42.6772 58.9764 43.1496 59.0551 43.3071H58.4252C58.3465 43.1496 58.2677 42.7559 58.1102 42.2047C57.9528 41.5748 57.7165 41.3386 57.1654 41.3386H56.6142V43.3071H56.063V38.7402ZM56.6929 40.8661H57.3228C57.9528 40.8661 58.3465 40.5512 58.3465 40C58.3465 39.4488 57.9528 39.1339 57.3228 39.1339C57.0079 39.1339 56.8504 39.1339 56.7717 39.2126L56.6929 40.8661Z" fill="#868686"/>
<path d="M62.2047 41.811L61.7323 43.2284H61.1024L62.6772 38.6614H63.3858L64.9606 43.2284H64.3307L63.7795 41.811H62.2047ZM63.7008 41.3386L63.2284 40C63.1496 39.685 63.0709 39.4488 62.9921 39.1339C62.9134 39.3701 62.8346 39.685 62.7559 39.9213L62.2835 41.2598L63.7008 41.3386Z" fill="#868686"/>
<path d="M67.2441 43.2284V38.6614H67.874L69.3701 40.9449C69.685 41.4961 70 41.9685 70.1575 42.4409C70.0787 41.811 70.0787 41.2598 70.0787 40.5512V38.6614H70.6299V43.2284H70.0787L68.6614 40.9449C68.3465 40.4724 68.0315 39.9213 67.7953 39.4488C67.7953 40 67.874 40.5512 67.874 41.3386V43.3071H67.2441V43.2284Z" fill="#868686"/>
<path d="M73.3858 38.7402C73.7795 38.6614 74.1732 38.6614 74.6457 38.6614C75.5118 38.6614 76.063 38.8189 76.4567 39.2126C76.8504 39.6063 77.0866 40.0787 77.0866 40.8661C77.0866 41.5748 76.8504 42.2047 76.4567 42.5984C76.063 42.9921 75.3543 43.2284 74.4094 43.2284C74.0157 43.2284 73.622 43.2283 73.3071 43.1496L73.3858 38.7402ZM74.0157 42.7559C74.1732 42.7559 74.4094 42.7559 74.6457 42.7559C75.9055 42.7559 76.6142 42.0472 76.6142 40.7874C76.6142 39.685 75.9842 39.0551 74.8031 39.0551C74.4882 39.0551 74.252 39.0551 74.0945 39.1339L74.0157 42.7559Z" fill="#868686"/>
</g>
<defs>
<clipPath id="clip0_887_1573">
<rect width="95.4331" height="60" fill="white"/>
</clipPath>
</defs>
</svg>
