<svg width="54" height="60" viewBox="0 0 54 60" fill="none" xmlns="http://www.w3.org/2000/svg">
<g clip-path="url(#clip0_887_1659)">
<path d="M28.2766 0.510637L53.234 0.255318H53.4894V0.510637L53.617 26.8085L53.6808 53.1064V53.617H53.1702L26.8723 53.6808L0.510638 53.617H0V53.1064C0 44.3617 0 35.5532 0.0638298 26.8085L0.319149 0.510637V0.255318H0.574468L24.2553 0.510637L0.510638 0.702126L0.765957 0.446807L0.957447 26.8085C1.02128 35.5532 1.02128 44.3617 1.02128 53.1064L0.510638 52.5957L26.8085 52.5319L53.1064 52.5957L52.5957 53.1064L52.7872 26.8085L52.9149 0.510637L53.1702 0.765956L28.2766 0.510637Z" fill="#868686"/>
<path d="M53.1702 28.2128L53.4255 53.1702V53.4255H53.1702L26.8723 53.5532L0.510638 53.617H0V53.1064V26.8085L0.0638298 0.510638V0H0.574468C9.31915 0 18.1277 0 26.8723 0.0638298L53.1702 0.255319H53.4255V0.510638L53.1702 24.2553L52.9149 0.510638L53.1702 0.765957L26.8723 0.893617C18.0638 0.957447 9.31915 0.957447 0.510638 0.957447L1.02128 0.446808L1.08511 26.8085L1.02128 53.1064L0.510638 52.5957L26.8085 52.6596L53.1064 52.7872L52.8511 53.0426L53.1702 28.2128Z" fill="#868686"/>
<path d="M4.53191 49.2128C4.40425 50.4255 5.48936 51.4468 6.63829 51.4468C7.78723 51.4468 8.80851 50.7447 9.57446 49.9149C10.3404 49.0851 11.0425 48.1277 11.9362 47.2979C12.383 46.9149 12.8936 46.5957 13.4681 46.4043C14.0425 46.2128 14.7447 46.2128 15.3191 46.4681C16.4681 46.9149 17.2979 48.1277 17.2979 49.3404C17.2979 50.617 16.4681 51.766 15.2553 52.1489C14.6808 52.3404 14.0425 52.3404 13.4681 52.1489C12.8936 51.8936 12.4468 51.4468 12.2553 50.8723C12.0638 50.2979 12.1915 49.5957 12.6383 49.2128C13.0851 48.8298 13.8511 48.766 14.234 49.2128C13.7872 48.766 13.0851 48.8936 12.7021 49.2766C12.3191 49.6596 12.2553 50.2979 12.4468 50.8723C12.6383 51.383 13.0851 51.8298 13.5957 52.0213C14.1064 52.2128 14.6808 52.2128 15.1915 52.0213C16.2128 51.6383 16.9787 50.5532 16.9787 49.4681C16.9787 48.383 16.2128 47.2979 15.2553 46.9149C14.7447 46.7234 14.1702 46.6596 13.6596 46.8511C13.1489 46.9787 12.6383 47.2979 12.1915 47.6808C11.2979 48.383 10.6596 49.4043 9.82978 50.234C9 51.0638 7.91489 51.8298 6.70212 51.766C5.42553 51.5745 4.34042 50.4255 4.53191 49.2128Z" fill="#868686"/>
<path d="M5.74469 48.5106C6.95746 48.8298 8.29788 48.9574 9.51065 48.6383C10.0851 48.5106 10.7234 48.2553 11.1702 47.8723C11.617 47.4894 12 46.9787 12.1915 46.4043C12.383 45.8298 12.383 45.1915 12.2553 44.617C12.1277 44.0426 11.6809 43.5319 11.1064 43.4681C10.5319 43.3404 9.89363 43.7234 9.76597 44.3617C9.63831 44.9362 9.8298 45.6383 10.0851 46.1489C9.76597 45.6383 9.51065 45 9.57448 44.2979C9.63831 43.9787 9.8298 43.6596 10.0851 43.4681C10.3404 43.2766 10.7234 43.1489 11.1064 43.2128C11.4255 43.2128 11.8085 43.4043 12.0638 43.6596C12.3192 43.9149 12.4468 44.234 12.5745 44.5532C12.766 45.1915 12.766 45.8936 12.5106 46.5319C12.2553 47.1702 11.8723 47.7447 11.3617 48.1277C10.8511 48.5106 10.2128 48.766 9.57448 48.8936C8.29788 49.1489 6.95746 48.8936 5.74469 48.5106Z" fill="#868686"/>
<path d="M12.7021 46.2766C14.4894 44.1702 17.2979 42.9574 20.1064 43.1489C21.5106 43.2128 22.9149 43.5957 24.0638 44.4255C25.2128 45.1915 26.1702 46.4681 26.1702 47.9362C26.1064 49.4043 25.1489 50.6809 24 51.4468C22.7234 52.1489 21.2553 52.2766 19.8511 51.8936C19.1489 51.7021 18.5106 51.3192 18.1276 50.6809C17.7447 50.0426 17.6808 49.2766 17.8723 48.5745C18.1276 47.1064 19.5957 46.0213 21.0638 46.2128V46.4681C20.617 46.4681 20.1702 46.7234 19.8511 46.9787C19.4681 47.234 19.2128 47.6809 19.1489 48.1277C19.0213 48.5745 19.0851 49.0213 19.2128 49.4681C19.4042 49.9149 19.7234 50.234 20.1064 50.4894C20.8723 51 21.9574 50.9362 22.7872 50.4255C23.5532 49.8511 24 48.8936 23.9362 47.9362C24.0638 48.8936 23.617 49.9149 22.8511 50.4894C22.0851 51.0638 20.9362 51.1915 20.0425 50.6809C19.5957 50.4255 19.2766 50.0426 19.0851 49.5957C18.8936 49.1489 18.8298 48.6383 18.9574 48.1277C19.0851 47.617 19.3404 47.1702 19.7234 46.8511C20.1064 46.5319 20.5532 46.2766 21.1276 46.2766V46.5319C19.8511 46.4043 18.5106 47.3617 18.2553 48.6383C18.1277 49.2766 18.1915 49.9787 18.5106 50.4894C18.8298 51 19.4681 51.383 20.1064 51.5745C21.383 51.8936 22.8511 51.8298 23.9362 51.1915C25.0851 50.4894 25.9149 49.2766 25.9787 48C26.0425 46.6596 25.1489 45.4468 24.0638 44.6809C22.9787 43.9149 21.6383 43.5319 20.2979 43.4043C17.3617 43.2128 14.617 44.2979 12.7021 46.2766Z" fill="#868686"/>
<path d="M13.1489 44.5532C15.1277 43.7234 16.9787 42.4468 18.5106 40.9787C20.1064 39.5106 21.4468 37.8511 22.5319 35.9362L22.6596 36.1915C21.5106 36.1277 20.2979 36.2553 19.2128 36.6383C18.1277 37.0213 17.0426 37.5957 16.1489 38.2979C15.2553 39.0638 14.4894 39.9574 13.9149 40.9787C13.3404 42 12.8936 43.0851 12.6383 44.234C12.9575 41.8723 14.1702 39.6383 15.9575 38.0426C17.8085 36.4468 20.2341 35.617 22.6596 35.8085H22.9149L22.7872 36.0638C21.7021 37.9787 20.2979 39.7021 18.6383 41.1064C17.1064 42.6383 15.1915 43.8511 13.1489 44.5532Z" fill="#868686"/>
<path d="M12.8936 45.4468C13.0851 44.3617 13.5319 43.4043 14.1064 42.5106C14.6808 41.617 15.4468 40.8511 16.2128 40.0851C17.0426 39.383 17.8723 38.6809 18.766 38.1064C19.6596 37.4681 20.617 37.0213 21.5745 36.5106C21.1277 36.8298 20.6808 37.0851 20.234 37.4043C19.7872 37.6596 19.3404 37.9787 18.8936 38.2979C18.0638 38.9362 17.234 39.5745 16.4681 40.3404C15.7021 41.0426 14.9362 41.8085 14.2979 42.6383C13.7872 43.4681 13.2766 44.4255 12.8936 45.4468Z" fill="#868686"/>
<path d="M20.4893 41.234C21.2553 42.3191 22.4042 43.3404 23.7447 43.4681C24.383 43.5319 25.0851 43.4043 25.5957 43.0213C26.1064 42.6383 26.5532 42.0638 26.617 41.4894C26.7447 40.8511 26.5532 40.1489 26.1702 39.7021C25.7872 39.2553 25.0213 39.0638 24.5106 39.3191C24 39.5745 23.6808 40.4043 24.0638 40.9149C24.2553 41.1702 24.5106 41.3617 24.8298 41.3617C25.1489 41.3617 25.4681 41.1702 25.6596 40.9149C25.4681 41.234 25.1489 41.4255 24.8298 41.4255C24.4468 41.4255 24.1276 41.234 23.8723 40.9787C23.4255 40.3404 23.6808 39.4468 24.383 39C25.0851 38.617 25.9787 38.8085 26.4255 39.383C26.9362 39.9574 27.1276 40.7234 27 41.4255C26.7447 42.8936 25.1489 43.9149 23.7447 43.5957C23.0425 43.4681 22.4042 43.1489 21.8298 42.7021C21.2553 42.383 20.8085 41.8723 20.4893 41.234Z" fill="#868686"/>
<path d="M21.4468 44.8085C20.6808 44.9362 19.9149 45.1915 19.2128 45.6383C18.5745 46.0213 18 46.5957 17.5532 47.234L17.4255 47.4255L17.2979 47.234C16.8511 46.4681 16.2128 45.8936 15.4468 45.5106L15.1277 45.3191L15.383 45.1915C16.2766 44.6809 17.2979 44.3617 18.383 44.2979C19.4681 44.234 20.4894 44.4255 21.4468 44.8085ZM21.4468 44.8085C20.4255 44.5532 19.4042 44.4255 18.4468 44.5532C17.4255 44.6809 16.4681 44.9362 15.6383 45.4468V45.1277C16.4681 45.5106 17.1702 46.2128 17.617 46.9787H17.3617C17.8085 46.3404 18.5106 45.766 19.2128 45.383C19.8511 45.0638 20.6808 44.8085 21.4468 44.8085Z" fill="#868686"/>
<path d="M48.8936 49.6596C49.4681 49.7234 50.0426 49.4043 50.4255 49.0213C50.8085 48.5745 51 48 51 47.4255C51 46.2766 50.3617 45.1915 49.5958 44.3617C48.8298 43.5319 47.8724 42.766 47.1064 41.8085C46.7234 41.2979 46.4043 40.7872 46.2766 40.2128C46.0851 39.6383 46.0851 39 46.2766 38.3617C46.6596 37.2128 47.7447 36.1915 49.0213 36.1915C50.2979 36.1915 51.383 37.2128 51.766 38.3617C51.9575 38.9362 51.9575 39.5745 51.766 40.1489C51.5745 40.7234 51.1915 41.234 50.5532 41.4894C49.9787 41.6809 49.2766 41.5532 48.8936 41.0426C48.5745 40.5319 48.5107 39.8298 48.9575 39.383C48.5745 39.8298 48.6383 40.5319 49.0213 40.9787C49.4043 41.4255 50.0426 41.5532 50.5532 41.2979C51.0638 41.1064 51.4468 40.5957 51.5745 40.0851C51.766 39.5745 51.7021 38.9362 51.5745 38.4255C51.1915 37.4043 50.2341 36.5106 49.0851 36.5106C48 36.5106 46.9787 37.4043 46.6596 38.4894C46.2766 39.5745 46.7234 40.7234 47.4256 41.617C48.1277 42.5745 49.0213 43.2766 49.8511 44.1702C50.617 45.0638 51.3192 46.1489 51.2553 47.4255C51.2553 48.0638 51 48.6383 50.5532 49.0851C50.1064 49.4681 49.4681 49.7872 48.8936 49.6596Z" fill="#868686"/>
<path d="M48.1915 48.3192C48.4468 47.0426 48.5745 45.766 48.383 44.4894C48.2553 43.8511 48.0639 43.2766 47.7447 42.766C47.4256 42.2553 46.9787 41.8085 46.4043 41.5532C45.8936 41.2979 45.2553 41.234 44.617 41.3617C44.0426 41.4894 43.5319 41.9362 43.4043 42.5106C43.2766 43.0851 43.5319 43.7872 44.1064 43.9787C44.6809 44.1702 45.383 43.9787 45.8936 43.6596C45.383 44.0426 44.7447 44.3617 44.0426 44.1702C43.3404 43.9787 43.0213 43.1489 43.0851 42.5106C43.149 41.8085 43.7873 41.234 44.4256 41.0426C45.0638 40.8511 45.8298 40.9149 46.4043 41.1702C47.0426 41.4894 47.4894 41.9362 47.8724 42.5745C48.1915 43.1489 48.383 43.7872 48.5107 44.4255C48.8298 45.8298 48.6383 47.1064 48.1915 48.3192Z" fill="#868686"/>
<path d="M46.149 40.9787C44.1702 39 43.0851 36.1277 43.149 33.3191C43.149 32.617 43.2766 31.9149 43.4043 31.2128C43.5319 30.5106 43.8511 29.8723 44.1702 29.234C44.4894 28.5957 44.9362 28.0213 45.5107 27.5745C46.0851 27.1277 46.7873 26.8085 47.4894 26.7447C48.2554 26.7447 48.9575 27 49.5319 27.4468C50.1064 27.8936 50.6171 28.4681 50.9362 29.1064C51.2554 29.7447 51.4468 30.4468 51.5107 31.1489C51.5745 31.8511 51.5107 32.617 51.383 33.3191C51.1915 34.0213 50.8724 34.7234 50.2979 35.234C49.7234 35.7447 48.8936 35.8085 48.1915 35.617C47.4256 35.4894 46.8511 34.9787 46.4681 34.3404C46.0851 33.7021 45.8936 33 45.9575 32.234H46.2128C46.2128 32.6809 46.4043 33.1277 46.6596 33.5106C46.9149 33.8936 47.2979 34.2128 47.7447 34.3404C48.1915 34.4681 48.6383 34.4043 49.0851 34.2128C49.4681 34.0213 49.8511 33.6383 50.0426 33.2553C50.4894 32.4255 50.4256 31.4043 49.9788 30.5745C49.5319 29.7447 48.5745 29.234 47.6171 29.2979C48.5745 29.1702 49.5958 29.6809 50.1064 30.5106C50.6171 31.3404 50.6809 32.4255 50.2341 33.3191C50.0426 33.766 49.6596 34.1489 49.2128 34.4043C48.766 34.6596 48.1915 34.6596 47.7447 34.5319C47.2341 34.4043 46.8511 34.0851 46.5319 33.6383C46.2128 33.2553 46.0213 32.7447 46.0213 32.234H46.2766C46.149 33.5745 46.9788 34.9787 48.3192 35.2979C48.9575 35.4894 49.6596 35.3617 50.1702 34.9149C50.6809 34.4681 50.9362 33.8298 51.1277 33.1915C51.383 31.8511 51.3192 30.4468 50.6809 29.234C50.3617 28.6596 49.9149 28.0851 49.4043 27.7021C48.8936 27.3192 48.1915 27.0638 47.5532 27.0638C46.9149 27.0638 46.2766 27.383 45.766 27.766C45.2553 28.2128 44.8085 28.7234 44.4894 29.2979C44.1702 29.8723 43.9149 30.5106 43.7234 31.2128C43.5319 31.8511 43.4681 32.5532 43.4043 33.2553C43.2766 36.1277 44.2341 38.9362 46.149 40.9787Z" fill="#868686"/>
<path d="M44.4894 40.5319C43.7234 38.4894 42.5745 36.5745 41.1702 34.9149C39.766 33.2553 38.1702 31.7234 36.3192 30.5745L36.5745 30.4468C36.4468 32.8085 37.0851 35.1702 38.4256 37.1489C39.766 39.0638 41.8085 40.5319 44.1702 41.0426C43.0213 40.8511 41.8724 40.4043 40.8511 39.766C39.8298 39.1277 38.9362 38.2979 38.2341 37.2766C37.5319 36.3191 37.0213 35.1702 36.6383 34.0213C36.3192 32.8723 36.1915 31.6596 36.2553 30.4468V30.1277L36.5107 30.3191C38.3617 31.5319 40.0213 33.0638 41.3617 34.7872C42.766 36.4468 43.8511 38.4255 44.4894 40.5319Z" fill="#868686"/>
<path d="M45.3192 40.7872C44.2341 40.5957 43.2766 40.0213 42.4468 39.383C41.6171 38.7447 40.8511 37.9149 40.149 37.0851C39.4468 36.2553 38.8724 35.3617 38.2979 34.4043C37.7234 33.5106 37.3405 32.4894 36.8936 31.5319C37.149 31.9787 37.4681 32.4255 37.7234 32.9362C37.9788 33.383 38.2341 33.8936 38.5532 34.2766C39.1277 35.1702 39.766 36.0638 40.4043 36.8298C41.0426 37.6596 41.8085 38.4255 42.5745 39.1277C43.4043 39.8298 44.2979 40.4043 45.3192 40.7872Z" fill="#868686"/>
<path d="M41.4255 32.7447C42.5106 31.9149 43.4043 30.7021 43.5319 29.3617C43.5957 28.7234 43.5319 28.0213 43.2128 27.4468C42.8936 26.8723 42.383 26.4255 41.7447 26.2979C41.1064 26.1702 40.4681 26.3617 40.0213 26.8085C39.5745 27.2553 39.4468 27.9574 39.7021 28.5957C39.8936 29.1702 40.7234 29.4894 41.234 29.1064C41.4894 28.9149 41.6809 28.5957 41.6809 28.2766C41.6809 27.9574 41.5532 27.5745 41.2979 27.383C41.617 27.5745 41.8085 27.8936 41.8085 28.2766C41.8085 28.6596 41.6809 28.9787 41.4255 29.234C41.1702 29.4894 40.7234 29.5532 40.3404 29.4255C39.9575 29.2979 39.6383 29.0426 39.5106 28.7234C39.1915 28.0213 39.383 27.1915 39.8936 26.617C40.4043 26.0426 41.234 25.8511 41.9362 25.9787C42.7021 26.1702 43.2766 26.6809 43.5958 27.3191C43.9149 27.9574 44.0426 28.7234 43.9149 29.4255C43.7872 30.1277 43.5319 30.8298 43.0851 31.3404C42.5106 31.9149 42 32.4255 41.4255 32.7447Z" fill="#868686"/>
<path d="M44.7447 31.7234C44.8724 32.5532 45.1277 33.3191 45.5107 34.0213C45.8936 34.7234 46.4043 35.3617 47.0426 35.8723L47.2341 36L47.0426 36.1277C46.3405 36.5745 45.766 37.2766 45.4468 38.1064L45.3192 38.4255L45.1277 38.1064C44.617 37.1489 44.3617 36.0638 44.2979 34.9149C44.1702 33.8298 44.3617 32.7447 44.7447 31.7234ZM44.7447 31.7234C44.4894 32.7447 44.4256 33.8298 44.4894 34.9149C44.617 36 44.8724 37.0213 45.383 37.9149H45.0639C45.4468 37.0851 46.0213 36.3191 46.8511 35.8085V36.0638C46.2128 35.5532 45.7022 34.8511 45.3192 34.0851C44.9362 33.383 44.7447 32.5532 44.7447 31.7234Z" fill="#868686"/>
<path d="M4.85107 49.6596C4.2766 49.7872 3.6383 49.4681 3.25532 49.0213C2.87234 48.5745 2.61702 48 2.55319 47.3617C2.48936 46.1489 3.19149 45 3.95745 44.1064C4.72341 43.2128 5.68085 42.5106 6.38298 41.5532C7.08511 40.6596 7.53192 39.5106 7.14894 38.4255C6.82979 37.4043 5.87234 36.4468 4.72341 36.4468C3.6383 36.4468 2.61702 37.3404 2.23405 38.3617C2.04256 38.8723 2.04256 39.5106 2.23405 40.0213C2.42553 40.5319 2.74468 41.0426 3.25532 41.234C3.82979 41.5532 4.46809 41.4255 4.85107 40.9787C5.17022 40.5319 5.29787 39.8298 4.9149 39.383C5.29787 39.8298 5.29788 40.5319 4.97873 41.0426C4.59575 41.5532 3.89362 41.6809 3.31915 41.4894C2.74468 41.2979 2.29787 40.7234 2.10639 40.1489C1.9149 39.5745 1.9149 38.9362 2.10639 38.3617C2.42553 37.2128 3.57447 36.1915 4.85107 36.1915C6.12766 36.1915 7.21277 37.2128 7.59575 38.3617C7.78724 38.9362 7.78724 39.6383 7.59575 40.2128C7.40426 40.7872 7.08511 41.3617 6.76596 41.8085C6.06383 42.766 5.10639 43.5319 4.2766 44.3617C3.51064 45.1915 2.87234 46.2766 2.87234 47.4255C2.87234 48 3.06383 48.5745 3.44681 49.0213C3.6383 49.4043 4.21277 49.7234 4.85107 49.6596Z" fill="#868686"/>
<path d="M5.48937 48.3191C5.1064 47.1064 4.85108 45.766 5.04257 44.4894C5.1064 43.8511 5.29788 43.2128 5.68086 42.6383C6.00001 42.0638 6.51065 41.5532 7.14895 41.234C7.78725 40.9149 8.48937 40.8511 9.12767 41.1064C9.76597 41.2979 10.4043 41.8085 10.4681 42.5745C10.5958 43.2766 10.2128 44.0426 9.51065 44.234C8.80852 44.4255 8.17023 44.1064 7.65959 43.7234C8.29788 44.0426 8.93618 44.234 9.51065 44.0426C10.0851 43.8511 10.3404 43.1489 10.2128 42.5745C10.0851 42 9.63831 41.5532 9.00001 41.4255C8.42554 41.234 7.78725 41.2979 7.21278 41.617C6.63831 41.8723 6.1915 42.3191 5.87235 42.8298C5.5532 43.3404 5.36171 43.9787 5.23406 44.5532C5.1064 45.766 5.23406 47.1064 5.48937 48.3191Z" fill="#868686"/>
<path d="M7.53193 40.9787C9.44682 38.9362 10.4043 36.0638 10.2766 33.3192C10.2766 32.617 10.1489 31.9149 9.95746 31.2766C9.76597 30.5745 9.51065 29.9362 9.1915 29.3617C8.87235 28.7872 8.42554 28.2128 7.9149 27.8298C7.40427 27.383 6.76597 27.1277 6.12767 27.1277C5.48937 27.1277 4.85108 27.383 4.27661 27.766C3.76597 28.1489 3.31916 28.7234 3.00001 29.2979C2.42554 30.5106 2.29788 31.9787 2.5532 33.2553C2.68086 33.8936 3.00001 34.5319 3.51065 34.9787C4.02129 35.4255 4.72342 35.4894 5.36171 35.3617C6.63831 35.1064 7.53193 33.6383 7.40427 32.2979H7.65959C7.65959 32.8085 7.40427 33.3192 7.14895 33.7021C6.89363 34.0851 6.44682 34.4681 5.93618 34.5957C5.42554 34.7234 4.91491 34.6596 4.4681 34.4681C4.02129 34.2128 3.63831 33.8298 3.44682 33.383C3.00001 32.4894 3.06384 31.4043 3.57448 30.5745C4.08512 29.7447 5.10639 29.234 6.06384 29.3617C5.10639 29.2979 4.14895 29.8085 3.70214 30.6383C3.25533 31.4681 3.1915 32.4894 3.63831 33.3192C3.8298 33.7021 4.21278 34.0851 4.59576 34.2766C4.97874 34.4681 5.48937 34.5319 5.93618 34.4043C6.38299 34.2766 6.70214 33.9574 7.02129 33.5745C7.27661 33.1915 7.4681 32.7447 7.4681 32.2979H7.72342C7.78725 33 7.59576 33.766 7.21278 34.4043C6.8298 35.0426 6.1915 35.5532 5.48937 35.6809C4.78725 35.8723 3.95746 35.8085 3.38299 35.2979C2.80852 34.7872 2.48937 34.0851 2.29788 33.383C2.10639 32.6809 2.10639 31.9787 2.17022 31.2128C2.23405 30.5106 2.42554 29.8085 2.74469 29.1702C3.06384 28.5319 3.57448 27.9574 4.14895 27.5106C4.72342 27.0638 5.42554 26.8085 6.1915 26.8085C6.95746 26.8085 7.65959 27.1915 8.17022 27.6383C8.74469 28.0851 9.1915 28.6596 9.51065 29.2979C9.8298 29.9362 10.0851 30.5745 10.2766 31.2766C10.4681 31.9787 10.5319 32.6809 10.5319 33.383C10.6596 36.1915 9.57448 39 7.53193 40.9787Z" fill="#868686"/>
<path d="M9.1915 40.5319C9.8298 38.4255 10.9149 36.4468 12.2553 34.7234C13.5958 33 15.2553 31.4681 17.1064 30.2553L17.3617 30.0638V30.383C17.4255 31.5957 17.2979 32.8085 16.9787 33.9574C16.6596 35.1064 16.1489 36.2553 15.383 37.2128C14.6809 38.1702 13.7872 39 12.766 39.7021C11.7447 40.3404 10.5958 40.7872 9.44682 40.9787C11.8085 40.4681 13.8511 39 15.1915 37.0851C16.5319 35.1702 17.1702 32.7447 17.0426 30.383L17.2979 30.5106C15.4468 31.6596 13.8511 33.1915 12.4468 34.8511C11.1064 36.5745 9.95746 38.4894 9.1915 40.5319Z" fill="#868686"/>
<path d="M8.36169 40.7872C9.38297 40.4043 10.2766 39.8936 11.1064 39.1915C11.8723 38.4894 12.6383 37.7234 13.2766 36.8936C13.9787 36.0638 14.5532 35.234 15.1277 34.3404C15.4468 33.8936 15.7021 33.4468 15.9574 33C16.2128 32.5532 16.4681 32.1064 16.7872 31.5957C16.3404 32.5532 15.8936 33.5745 15.383 34.4681C14.8085 35.4255 14.234 36.2553 13.5319 37.1489C12.8298 37.9787 12.1277 38.7447 11.234 39.4468C10.4042 40.0213 9.4468 40.5957 8.36169 40.7872Z" fill="#868686"/>
<path d="M12.3192 32.7447C11.7447 32.3617 11.2341 31.9149 10.7872 31.3404C10.3404 30.766 10.0851 30.1277 9.95746 29.4255C9.8298 28.7234 9.95746 27.9574 10.2766 27.3192C10.5958 26.6809 11.1702 26.1064 11.9362 25.9787C12.7021 25.7872 13.4681 26.0426 13.9787 26.617C14.4894 27.1915 14.6809 28.0213 14.3617 28.7234C14.1702 29.0426 13.8511 29.3617 13.5319 29.4255C13.1489 29.5532 12.766 29.4894 12.4468 29.234C12.1915 28.9787 12 28.5957 12.0638 28.2766C12.0638 27.8936 12.2553 27.5745 12.5745 27.383C12.3192 27.5745 12.1915 27.9574 12.1915 28.2766C12.1915 28.5957 12.383 28.9149 12.6383 29.1064C13.1489 29.5532 13.9787 29.1702 14.1702 28.5957C14.4255 28.0213 14.2979 27.2553 13.8511 26.8085C13.4043 26.3617 12.7021 26.1702 12.1277 26.2979C11.4894 26.4255 10.9787 26.8723 10.6596 27.4468C10.3404 28.0213 10.2766 28.7234 10.3404 29.3617C10.4043 30.766 11.2341 31.9149 12.3192 32.7447Z" fill="#868686"/>
<path d="M8.99999 31.7234C8.99999 32.5532 8.80851 33.383 8.42553 34.1489C8.10638 34.9149 7.59574 35.617 6.89361 36.1277V35.8723C7.65957 36.383 8.29787 37.0851 8.68085 37.9787H8.3617C8.87234 37.0213 9.12765 36 9.25531 34.9787C9.31914 33.8936 9.19148 32.8085 8.99999 31.7234ZM8.99999 31.7234C9.38297 32.7447 9.57446 33.8298 9.51063 34.9149C9.51063 36 9.19148 37.0851 8.68085 38.1064L8.48936 38.4255L8.3617 38.1064C8.04255 37.3404 7.46808 36.6383 6.76595 36.1277L6.57446 36L6.76595 35.8723C7.40425 35.3617 7.91489 34.7234 8.29787 34.0213C8.61702 33.3192 8.87234 32.5532 8.99999 31.7234Z" fill="#868686"/>
<path d="M49.2127 49.2128C49.4042 50.4255 48.3191 51.5745 47.1064 51.6383C45.8936 51.7021 44.8085 50.9362 43.9787 50.1064C43.1489 49.2766 42.4468 48.3192 41.617 47.5532C41.1702 47.1702 40.7234 46.8511 40.1489 46.7234C39.6383 46.5319 39.0638 46.5957 38.5532 46.7872C37.5319 47.1702 36.7659 48.2553 36.8298 49.3404C36.8298 50.4255 37.5957 51.5106 38.617 51.8936C39.1276 52.0851 39.7021 52.1489 40.2127 51.8936C40.7234 51.7021 41.1702 51.3192 41.3617 50.7447C41.5532 50.234 41.4893 49.5957 41.1064 49.1489C40.7234 48.766 39.9574 48.6383 39.5744 49.0851C39.9574 48.6383 40.7234 48.7021 41.1702 49.0851C41.617 49.5319 41.7447 50.1702 41.5532 50.7447C41.3617 51.3192 40.9149 51.8298 40.3404 52.0213C39.7659 52.2766 39.1276 52.2766 38.5532 52.0213C37.4042 51.5745 36.5744 50.4255 36.5106 49.2128C36.5106 48 37.2766 46.7872 38.4893 46.3404C39.0638 46.0851 39.7021 46.0851 40.3404 46.2766C40.9149 46.4681 41.4255 46.7872 41.8723 47.1702C42.7659 47.9362 43.4681 48.8936 44.234 49.7872C45 50.617 46.0213 51.3192 47.1702 51.3192C48.1915 51.4468 49.3404 50.4255 49.2127 49.2128Z" fill="#868686"/>
<path d="M47.9362 48.5106C46.7234 48.9574 45.4468 49.1489 44.1064 48.9574C43.4681 48.8298 42.8298 48.5745 42.3191 48.1915C41.8085 47.8085 41.3617 47.234 41.1702 46.5957C40.9787 45.9574 40.9149 45.2553 41.1064 44.617C41.234 44.2979 41.3617 43.9787 41.617 43.7234C41.8723 43.4681 42.1915 43.2766 42.5745 43.2766C42.8936 43.2128 43.2766 43.3404 43.5957 43.5319C43.8511 43.7234 44.0425 44.0426 44.1064 44.3617C44.234 45.0638 43.9149 45.7021 43.5957 46.2128C43.8511 45.6383 44.1064 45 43.9149 44.4255C43.7872 43.8511 43.1489 43.4681 42.5745 43.5319C42 43.5957 41.5532 44.1064 41.4255 44.6809C41.234 45.2553 41.2979 45.8936 41.4894 46.4681C41.6808 47.0426 42.0638 47.5532 42.5106 47.9362C42.9574 48.3191 43.5957 48.5745 44.1702 48.7021C45.383 48.8936 46.7234 48.766 47.9362 48.5106Z" fill="#868686"/>
<path d="M40.9787 46.2766C39.1277 44.234 36.3192 43.1489 33.6383 43.3404C32.2979 43.4043 30.9574 43.8511 29.8723 44.617C28.7872 45.383 27.8936 46.5957 27.9574 47.9362C28.0213 49.2766 28.9149 50.4894 30 51.1277C31.1489 51.766 32.617 51.8936 33.8298 51.5106C34.4681 51.3191 35.0426 51 35.4255 50.4255C35.7447 49.9149 35.8085 49.2128 35.6809 48.5745C35.4255 47.2979 34.1489 46.2766 32.8085 46.4681V46.2128C33.3192 46.2766 33.8298 46.4681 34.2128 46.7872C34.5957 47.1064 34.9149 47.5532 34.9787 48.0638C35.1064 48.5745 35.0426 49.0851 34.8511 49.5319C34.6596 49.9787 34.2766 50.3617 33.8936 50.617C33 51.1277 31.8511 51 31.0851 50.4255C30.3192 49.8511 29.8723 48.8298 30 47.8723C29.9362 48.8298 30.383 49.7872 31.1489 50.3617C31.9149 50.9362 33 50.9362 33.8298 50.4255C34.2128 50.1702 34.5319 49.8511 34.7234 49.4043C34.9149 48.9574 34.9149 48.5106 34.7872 48.0638C34.6596 47.617 34.4043 47.234 34.0851 46.9149C33.7021 46.6596 33.3192 46.4043 32.8723 46.4043V46.1489C34.3404 45.9574 35.8085 47.0426 36.0638 48.5106C36.2553 49.2128 36.1915 49.9787 35.8085 50.617C35.4255 51.2553 34.7234 51.6383 34.0851 51.8298C32.7447 52.2128 31.2128 52.0851 29.9362 51.383C28.7234 50.617 27.766 49.3404 27.766 47.8723C27.766 46.4043 28.7234 45.1277 29.8723 44.3617C31.0213 43.5319 32.4255 43.1489 33.8298 43.0851C36.383 43.0213 39.1915 44.234 40.9787 46.2766Z" fill="#868686"/>
<path d="M40.5319 44.5532C38.4894 43.8511 36.5745 42.6383 34.9787 41.1702C33.3191 39.7021 31.9149 37.9787 30.8298 36.1277L30.7021 35.8723H30.9574C33.383 35.6809 35.8085 36.5745 37.6596 38.1064C39.5106 39.7021 40.6596 41.9362 40.9787 44.2979C40.7234 43.1489 40.3404 42 39.7021 41.0426C39.1277 40.0213 38.3617 39.1277 37.4681 38.3617C36.5745 37.5957 35.5532 37.0213 34.4042 36.7021C33.3191 36.3192 32.1064 36.1915 30.9574 36.2553L31.0851 36C32.1064 37.9149 33.5106 39.5745 35.1064 41.0426C36.7659 42.4468 38.5532 43.7234 40.5319 44.5532Z" fill="#868686"/>
<path d="M40.7872 45.4468C40.4681 44.4255 39.9574 43.4681 39.3191 42.6383C38.6808 41.8085 37.9787 41.0426 37.1489 40.3404C36.383 39.5745 35.5532 38.9362 34.7234 38.2979C34.2766 37.9787 33.8936 37.6596 33.383 37.4043C32.9362 37.0851 32.4893 36.8298 32.0425 36.5106C33 37.0213 33.9574 37.4681 34.8511 38.1064C35.7447 38.6809 36.5745 39.383 37.4042 40.0851C38.1702 40.8511 38.9362 41.617 39.5106 42.5106C40.1489 43.3404 40.5957 44.3617 40.7872 45.4468Z" fill="#868686"/>
<path d="M33.2553 41.234C32.9362 41.8085 32.4894 42.383 31.9787 42.8298C31.4681 43.2766 30.7659 43.5957 30.0638 43.7234C28.6596 43.9787 27.0638 43.0213 26.8085 41.5532C26.6808 40.8511 26.8723 40.0213 27.383 39.5106C27.8936 38.9362 28.7872 38.7447 29.4255 39.1277C30.0638 39.5106 30.3191 40.4681 29.9362 41.1064C29.7447 41.4255 29.3617 41.617 28.9787 41.5532C28.5957 41.5532 28.2766 41.2979 28.1489 41.0426C28.3404 41.2979 28.6596 41.4894 28.9787 41.4894C29.2979 41.4894 29.617 41.2979 29.7447 41.0426C30.0638 40.5319 29.8085 39.7021 29.2979 39.4468C28.7234 39.1915 28.0213 39.3192 27.6383 39.8298C27.1915 40.2128 27 40.8511 27.1276 41.4894C27.2553 42.1277 27.6383 42.7021 28.1489 43.0213C28.6596 43.4043 29.3617 43.5319 30 43.4681C31.3404 43.3404 32.4894 42.383 33.2553 41.234Z" fill="#868686"/>
<path d="M32.234 44.8085C33 44.8085 33.8298 45.0638 34.5319 45.4468C35.234 45.8298 35.8723 46.3404 36.383 47.0426H36.1277C36.5745 46.2766 37.2766 45.5745 38.1064 45.1915V45.5106C37.2128 45 36.2553 44.6809 35.2979 44.617C34.2766 44.4255 33.2553 44.5532 32.234 44.8085ZM32.234 44.8085C33.1915 44.4255 34.2128 44.234 35.2979 44.2979C36.3191 44.3617 37.3404 44.6809 38.2979 45.1915L38.5532 45.3191L38.2979 45.4468C37.5319 45.8298 36.8936 46.4043 36.4468 47.1702L36.3191 47.3617L36.1915 47.1702C35.7447 46.5319 35.1702 46.0213 34.5319 45.5745C33.8298 45.1915 33.0638 44.9362 32.234 44.8085Z" fill="#868686"/>
<path d="M4.53191 4.40426C4.34042 3.19149 5.42553 2.04255 6.63829 1.97872C7.85106 1.91489 8.93617 2.68085 9.76595 3.51064C10.5957 4.34043 11.2979 5.29787 12.1277 6.06383C12.5745 6.44681 13.0213 6.76596 13.5957 6.89362C14.1064 7.08511 14.6808 7.02128 15.1915 6.82979C16.2128 6.44681 16.9787 5.3617 16.9149 4.2766C16.9149 3.19149 16.1489 2.10638 15.1277 1.72341C14.617 1.53192 14.0425 1.46809 13.5319 1.72341C13.0213 1.91489 12.5745 2.29787 12.383 2.87234C12.1915 3.38298 12.2553 4.02128 12.6383 4.46809C13.0213 4.85107 13.7872 4.97872 14.1702 4.53192C13.7872 4.97872 13.0213 4.91489 12.5745 4.53192C12.1277 4.08511 12 3.44681 12.1915 2.87234C12.383 2.29787 12.8298 1.78724 13.4043 1.59575C14.0425 1.21277 14.6808 1.2766 15.2553 1.46809C16.4043 1.85107 17.234 3 17.234 4.2766C17.234 5.48936 16.4681 6.70213 15.2553 7.14894C14.6808 7.40426 14.0425 7.40426 13.4043 7.21277C12.8298 7.02128 12.3191 6.70213 11.8723 6.31915C10.9787 5.55319 10.2766 4.59575 9.51063 3.70213C8.74468 2.87234 7.7234 2.17021 6.57446 2.17021C5.48936 2.17021 4.40425 3.19149 4.53191 4.40426Z" fill="#868686"/>
<path d="M5.74469 5.17022C6.95746 4.72341 8.23405 4.53192 9.57448 4.72341C10.2128 4.85107 10.8511 5.10639 11.3617 5.48936C11.8723 5.87234 12.3192 6.44681 12.5106 7.08511C12.7021 7.72341 12.766 8.42553 12.5745 9.06383C12.4468 9.38298 12.3192 9.70213 12.0638 9.95745C11.8085 10.2128 11.4894 10.4043 11.1064 10.4043C10.7872 10.4681 10.4043 10.3404 10.0851 10.1489C9.8298 9.95745 9.63831 9.6383 9.57448 9.31915C9.44682 8.61702 9.76597 7.97873 10.0851 7.46809C9.8298 8.04256 9.57448 8.68085 9.76597 9.25532C9.89363 9.82979 10.5319 10.2128 11.1064 10.1489C11.6809 10.0851 12.1277 9.57447 12.2553 9C12.4468 8.42553 12.383 7.78724 12.1915 7.21277C12 6.6383 11.617 6.12766 11.1702 5.74468C10.7234 5.3617 10.0851 5.10639 9.51065 4.97873C8.29788 4.72341 7.02129 4.85107 5.74469 5.17022Z" fill="#868686"/>
<path d="M12.7021 7.34043C14.5532 9.38298 17.3617 10.4681 20.0425 10.2766C21.383 10.2128 22.7234 9.76596 23.8085 9C24.8936 8.23405 25.7872 7.02128 25.7234 5.68086C25.6596 4.34043 24.7659 3.12766 23.6808 2.48937C22.5319 1.85107 21.0638 1.72341 19.8511 2.10639C19.2128 2.29788 18.6383 2.61703 18.2553 3.19149C17.9362 3.70213 17.8723 4.40426 18 5.04256C18.2553 6.31915 19.5319 7.34043 20.8723 7.14894V7.40426C20.3617 7.34043 19.8511 7.14894 19.4681 6.82979C19.0851 6.51064 18.7659 6.06383 18.7021 5.5532C18.5745 5.04256 18.6383 4.53192 18.8298 4.08511C19.0213 3.6383 19.4042 3.25532 19.7872 3C20.6808 2.48937 21.8298 2.61703 22.5957 3.19149C23.3617 3.76596 23.8085 4.78724 23.6808 5.74469C23.7447 4.78724 23.2979 3.82979 22.5319 3.25532C21.7659 2.68086 20.6808 2.68086 19.8511 3.19149C19.4681 3.44681 19.1489 3.76596 18.9574 4.21277C18.7659 4.65958 18.7659 5.10639 18.8936 5.5532C19.0213 6 19.2766 6.38298 19.5957 6.70213C19.9787 6.95745 20.3617 7.21277 20.8085 7.21277V7.46809C19.3404 7.65958 17.8723 6.57447 17.617 5.10639C17.4255 4.40426 17.4894 3.6383 17.8723 3C18.2553 2.36171 18.9574 1.97873 19.5957 1.78724C20.9362 1.40426 22.4681 1.53192 23.7447 2.23405C24.9574 3 25.9149 4.2766 25.9149 5.74469C25.9149 7.21277 24.9574 8.48937 23.8085 9.25532C22.6596 10.0851 21.2553 10.4681 19.8511 10.5319C17.2979 10.5957 14.4894 9.38298 12.7021 7.34043Z" fill="#868686"/>
<path d="M13.1489 9.06383C15.1915 9.76596 17.1064 10.9787 18.7021 12.4468C20.3617 13.9149 21.7659 15.6383 22.8511 17.4894L22.9787 17.7447H22.7234C20.2979 17.9362 17.8723 17.0426 16.0213 15.5106C14.1702 13.9149 13.0213 11.6809 12.7021 9.31915C12.9574 10.4681 13.3404 11.617 13.9787 12.5745C14.5532 13.5957 15.3191 14.4894 16.2128 15.2553C17.1064 16.0213 18.1277 16.5957 19.2766 16.9149C20.3617 17.2979 21.5745 17.4255 22.7234 17.3617L22.5957 17.617C21.5745 15.7021 20.1702 14.0426 18.5745 12.5745C16.9787 11.1702 15.1915 9.89362 13.1489 9.06383Z" fill="#868686"/>
<path d="M12.8936 8.17022C13.2128 9.19149 13.7234 10.1489 14.3617 10.9787C15 11.8085 15.7021 12.5745 16.5319 13.2766C17.2979 13.9787 18.1277 14.6809 18.9574 15.3192C19.4043 15.6383 19.7872 15.9574 20.2979 16.2128C20.7447 16.5319 21.1915 16.7872 21.6383 17.1064C20.6809 16.5957 19.7234 16.1489 18.8298 15.5106C17.9362 14.9362 17.1064 14.234 16.2766 13.5319C15.5106 12.766 14.7447 12 14.1702 11.1064C13.5319 10.2766 13.0851 9.25532 12.8936 8.17022Z" fill="#868686"/>
<path d="M20.4893 12.383C20.8085 11.8085 21.2553 11.234 21.7659 10.7872C22.2766 10.3404 22.9787 10.0213 23.6808 9.89362C25.0851 9.6383 26.6808 10.5957 26.9362 12.0638C27.0638 12.766 26.8723 13.5957 26.3617 14.1064C25.8511 14.6809 24.9574 14.8723 24.3191 14.4894C23.6808 14.1064 23.4255 13.1489 23.8085 12.5106C24 12.1915 24.383 12 24.7659 12.0638C25.1489 12.0638 25.4681 12.3192 25.5957 12.5745C25.4042 12.3192 25.0851 12.1277 24.7659 12.1277C24.4468 12.1277 24.1276 12.3192 24 12.5745C23.6808 13.0851 23.9362 13.9149 24.4468 14.1702C25.0213 14.4255 25.7234 14.2979 26.1064 13.7872C26.5532 13.3404 26.6808 12.6383 26.5532 12C26.4255 11.3617 26.0425 10.7872 25.5319 10.4681C25.0213 10.0851 24.3191 9.95745 23.6808 10.0213C22.4042 10.2766 21.2553 11.234 20.4893 12.383Z" fill="#868686"/>
<path d="M21.4468 8.80851C20.6808 8.80851 19.8511 8.55319 19.1489 8.17022C18.4468 7.78724 17.8085 7.2766 17.2979 6.57447H17.5532C17.1064 7.34043 16.4042 8.04256 15.5745 8.42553V8.10639C16.4681 8.61702 17.4255 8.93617 18.383 9C19.4681 9.19149 20.4894 9.06383 21.4468 8.80851ZM21.4468 8.80851C20.4894 9.19149 19.4681 9.38298 18.383 9.31915C17.3617 9.25532 16.3404 8.93617 15.383 8.42553L15.1277 8.29787L15.4468 8.17022C16.2128 7.78724 16.8511 7.21277 17.2979 6.44681L17.4255 6.25532L17.5532 6.44681C18 7.08511 18.5745 7.59575 19.2128 8.04256C19.9149 8.42553 20.6808 8.68085 21.4468 8.80851Z" fill="#868686"/>
<path d="M48.8936 3.95745C49.4681 3.82979 50.1064 4.14894 50.4894 4.59574C50.8723 5.04255 51.1277 5.61702 51.1915 6.25532C51.2553 7.46808 50.5532 8.61702 49.7872 9.51064C49.0213 10.4043 48.0638 11.1064 47.3617 12.0638C46.6596 12.9574 46.2128 14.1064 46.5957 15.1915C46.9149 16.2128 47.8723 17.1702 49.0213 17.1702C50.1064 17.1702 51.1277 16.2766 51.5106 15.2553C51.7021 14.7447 51.7021 14.1064 51.5106 13.5957C51.3192 13.0851 51 12.5745 50.4894 12.383C49.9787 12.1915 49.3404 12.2553 48.9574 12.7021C48.6383 13.1489 48.5106 13.8511 48.8936 14.2979C48.5106 13.8511 48.5106 13.1489 48.8298 12.6383C49.2128 12.1277 49.9149 12 50.4894 12.1915C51.0638 12.383 51.5106 12.9574 51.7021 13.5319C51.8936 14.1064 51.8936 14.7447 51.7021 15.3191C51.383 16.4681 50.234 17.4894 48.9574 17.4894C47.6809 17.4894 46.5957 16.4681 46.2128 15.3191C46.0213 14.7447 46.0213 14.0426 46.2128 13.4681C46.4043 12.8936 46.7234 12.3191 47.0426 11.8723C47.7447 10.9149 48.7021 10.1489 49.5319 9.31915C50.2979 8.48936 50.9362 7.40426 50.9362 6.25532C50.9362 5.68085 50.7447 5.10638 50.3617 4.65957C50.0426 4.21277 49.4681 3.89362 48.8936 3.95745Z" fill="#868686"/>
<path d="M48.1915 5.29787C48.5745 6.51064 48.8298 7.85106 48.6383 9.12766C48.5745 9.76596 48.383 10.4043 48 10.9787C47.6809 11.5532 47.1702 12.0638 46.5319 12.383C45.8936 12.7021 45.1915 12.766 44.5532 12.5106C43.9149 12.3191 43.2766 11.8085 43.2128 11.0426C43.0851 10.3404 43.4681 9.57447 44.1702 9.38298C44.8723 9.19149 45.5106 9.51064 46.0213 9.89362C45.4468 9.57447 44.8085 9.31915 44.2341 9.57447C43.6596 9.76596 43.4043 10.4681 43.5319 11.0426C43.6596 11.617 44.1064 12.0638 44.7447 12.1915C45.3192 12.383 45.9575 12.3191 46.5319 12C47.1064 11.7447 47.5532 11.2979 47.8723 10.7872C48.1915 10.2766 48.383 9.6383 48.5106 9.06383C48.5745 7.85106 48.5106 6.51064 48.1915 5.29787Z" fill="#868686"/>
<path d="M46.1489 12.6383C44.234 14.6809 43.2766 17.5532 43.4043 20.2979C43.4043 21 43.5319 21.7021 43.7234 22.3404C43.9149 23.0426 44.1702 23.6809 44.4894 24.2553C44.8085 24.8298 45.2553 25.4043 45.766 25.7872C46.2766 26.234 46.9149 26.4894 47.5532 26.4894C48.1915 26.4894 48.8298 26.234 49.4043 25.8511C49.9149 25.4681 50.3617 24.8936 50.6809 24.3191C51.2553 23.1064 51.383 21.6383 51.1277 20.3617C51 19.7234 50.6809 19.0851 50.1702 18.6383C49.6596 18.1915 48.9574 18.1277 48.3191 18.2553C47.0426 18.5106 46.1489 19.9787 46.2766 21.3192H46.0213C46.0213 20.8085 46.2766 20.2979 46.5319 19.9149C46.7872 19.5319 47.234 19.1489 47.7447 19.0213C48.2553 18.8936 48.766 18.9574 49.2128 19.1489C49.6596 19.4043 50.0426 19.7872 50.234 20.234C50.6808 21.1277 50.617 22.2128 50.1064 23.0426C49.5957 23.8723 48.5745 24.383 47.617 24.2553C48.5745 24.3192 49.5319 23.8085 49.9787 22.9787C50.4255 22.1489 50.4894 21.1277 50.0426 20.2979C49.8511 19.9149 49.4681 19.5319 49.0851 19.3404C48.7021 19.1489 48.1915 19.0851 47.7447 19.2128C47.2979 19.3404 46.9787 19.6596 46.6596 20.0426C46.4043 20.4255 46.2128 20.8723 46.2128 21.3192H45.9574C45.8936 20.617 46.0851 19.8511 46.4681 19.2128C46.8511 18.5745 47.4894 18.0638 48.1915 17.9362C48.8936 17.7447 49.7234 17.8085 50.2979 18.3192C50.8723 18.8298 51.1915 19.5319 51.383 20.234C51.5745 20.9362 51.5745 21.6383 51.5106 22.4043C51.4468 23.1064 51.2553 23.8085 50.9362 24.4468C50.617 25.0851 50.1064 25.6596 49.5319 26.1064C48.9574 26.5532 48.2553 26.8085 47.4894 26.8085C46.7234 26.8085 46.0213 26.4255 45.5106 25.9787C44.9362 25.5319 44.4894 24.9574 44.1702 24.3191C43.8511 23.6809 43.5957 23.0426 43.4043 22.3404C43.2128 21.6383 43.1489 20.9362 43.1489 20.234C43.0851 17.4255 44.1702 14.617 46.1489 12.6383Z" fill="#868686"/>
<path d="M44.4894 13.0851C43.8511 15.1915 42.766 17.1702 41.4255 18.8936C40.0851 20.617 38.4255 22.1489 36.5745 23.3617L36.3191 23.5532V23.234C36.2553 22.0213 36.383 20.8085 36.7021 19.6596C37.0213 18.5106 37.5319 17.3617 38.2979 16.4043C39 15.4468 39.8936 14.617 40.9149 13.9149C41.9362 13.2766 43.0851 12.8298 44.234 12.6383C41.8723 13.1489 39.8298 14.617 38.4894 16.5319C37.1489 18.4468 36.5106 20.8723 36.6383 23.234L36.383 23.0426C38.234 21.8936 39.8298 20.3617 41.234 18.7021C42.5745 17.0426 43.7234 15.1277 44.4894 13.0851Z" fill="#868686"/>
<path d="M45.3191 12.8298C44.2979 13.2128 43.4043 13.7234 42.5745 14.4255C41.8085 15.1277 41.0426 15.8936 40.4043 16.7234C39.7021 17.5532 39.1277 18.383 38.5532 19.2766C38.234 19.7234 37.9787 20.1702 37.7234 20.617C37.4681 21.0638 37.2128 21.5106 36.8936 22.0213C37.3404 21.0638 37.7872 20.0426 38.2979 19.1489C38.8723 18.1915 39.4468 17.3617 40.1489 16.4681C40.8511 15.6383 41.5532 14.8723 42.4468 14.1702C43.2766 13.5957 44.2979 13.0851 45.3191 12.8298Z" fill="#868686"/>
<path d="M41.4255 20.8723C42 21.2553 42.5106 21.7021 42.9575 22.2766C43.4043 22.8511 43.6596 23.4894 43.7872 24.1915C43.9149 24.8936 43.7872 25.6596 43.4681 26.2979C43.1489 26.9362 42.5745 27.5106 41.8085 27.6383C41.0426 27.8298 40.2766 27.5745 39.766 27C39.2553 26.4255 39.0638 25.5957 39.383 24.8936C39.5745 24.5745 39.8936 24.2553 40.2128 24.1915C40.5958 24.0638 40.9787 24.1277 41.2979 24.383C41.5532 24.6383 41.7447 25.0213 41.6809 25.3404C41.6809 25.7234 41.4894 26.0426 41.1702 26.234C41.4255 26.0426 41.5532 25.6596 41.5532 25.3404C41.5532 25.0213 41.3617 24.7021 41.1064 24.5106C40.5958 24.0638 39.766 24.4468 39.5745 25.0213C39.3192 25.5957 39.4468 26.3617 39.8936 26.8085C40.3404 27.2553 41.0426 27.4468 41.617 27.3191C42.2553 27.1915 42.766 26.7447 43.0851 26.1702C43.4043 25.5957 43.4681 24.8936 43.4043 24.2553C43.3404 22.9149 42.4468 21.7021 41.4255 20.8723Z" fill="#868686"/>
<path d="M44.7447 21.8936C44.7447 21.0638 44.9362 20.234 45.3192 19.4681C45.6383 18.7021 46.1489 18 46.8511 17.4894V17.7447C46.0851 17.234 45.4468 16.5319 45.0638 15.6383H45.383C44.8723 16.5957 44.617 17.617 44.4894 18.6383C44.4255 19.7872 44.4894 20.8085 44.7447 21.8936ZM44.7447 21.8936C44.3617 20.8723 44.1702 19.7872 44.2341 18.7021C44.2341 17.617 44.5532 16.5319 45.0638 15.5106L45.2553 15.1915L45.383 15.5106C45.7021 16.2766 46.2766 16.9787 46.9787 17.4894L47.1702 17.617L46.9787 17.7447C46.3404 18.2553 45.8298 18.8936 45.4468 19.5957C45.1277 20.2979 44.8723 21.0638 44.7447 21.8936Z" fill="#868686"/>
<path d="M4.85107 3.95745C4.2766 3.89362 3.70213 4.21277 3.31916 4.59575C2.93618 5.04256 2.74469 5.61702 2.74469 6.19149C2.74469 7.34043 3.38299 8.42553 4.14894 9.25532C4.9149 10.0851 5.87235 10.8511 6.63831 11.8085C7.02128 12.3192 7.34043 12.8298 7.46809 13.4043C7.65958 13.9787 7.65958 14.617 7.46809 15.2553C7.08511 16.4043 6.00001 17.4255 4.72341 17.4255C3.44682 17.4255 2.36171 16.4043 1.97873 15.2553C1.78724 14.6809 1.78724 14.0426 1.97873 13.4681C2.17022 12.8936 2.5532 12.383 3.1915 12.1277C3.76596 11.9362 4.46809 12.0638 4.85107 12.5745C5.17022 13.0851 5.23405 13.7872 4.78724 14.234C5.17022 13.7872 5.10639 13.0851 4.72341 12.6383C4.46809 12.1915 3.82979 12.0638 3.31916 12.3192C2.80852 12.5106 2.42554 13.0213 2.29788 13.5319C2.10639 14.0426 2.17022 14.6809 2.29788 15.1915C2.68086 16.2128 3.63831 17.1064 4.78724 17.1064C5.87235 17.1064 6.89362 16.2128 7.21277 15.1277C7.59575 14.0426 7.14894 12.8936 6.44682 12C5.74469 11.0426 4.85107 10.3404 4.02128 9.44681C3.1915 8.55319 2.5532 7.46809 2.5532 6.19149C2.5532 5.55319 2.80852 4.97873 3.25533 4.53192C3.63831 4.14894 4.21277 3.82979 4.85107 3.95745Z" fill="#868686"/>
<path d="M5.48936 5.29787C5.23404 6.57447 5.10638 7.85107 5.29787 9.12766C5.42553 9.76596 5.61702 10.3404 5.93617 10.8511C6.25532 11.3617 6.70212 11.8085 7.27659 12.0638C7.78723 12.3192 8.42553 12.383 9.06383 12.2553C9.63829 12.1277 10.1489 11.6809 10.2766 11.1064C10.4043 10.5319 10.1489 9.82979 9.57447 9.6383C9 9.44681 8.29787 9.6383 7.78723 9.95745C8.29787 9.57447 8.93617 9.25532 9.6383 9.44681C10.3404 9.6383 10.6596 10.4681 10.5957 11.1064C10.5319 11.8085 9.89361 12.383 9.25532 12.5745C8.61702 12.766 7.85106 12.7021 7.27659 12.4468C6.63829 12.1277 6.19149 11.6809 5.80851 11.0426C5.48936 10.4681 5.29787 9.82979 5.17021 9.19149C4.91489 7.78724 5.10638 6.51064 5.48936 5.29787Z" fill="#868686"/>
<path d="M7.53192 12.6383C9.51064 14.617 10.5957 17.4894 10.5319 20.2979C10.5319 21 10.4043 21.7021 10.2766 22.4043C10.1489 23.1064 9.82979 23.7447 9.51064 24.383C9.19149 25.0213 8.74468 25.5957 8.17021 26.0426C7.59574 26.4894 6.89362 26.8085 6.19149 26.8723C5.42553 26.8723 4.7234 26.617 4.14894 26.1702C3.57447 25.7234 3.06383 25.1489 2.74468 24.5106C2.42553 23.8723 2.23404 23.1702 2.17021 22.4681C2.10638 21.766 2.17021 21 2.29787 20.2979C2.48936 19.5957 2.80851 18.8936 3.38298 18.383C3.95745 17.8723 4.78723 17.8085 5.48936 18C6.25532 18.1277 6.82979 18.6383 7.21277 19.2766C7.59574 19.9149 7.78723 20.617 7.7234 21.383H7.46809C7.46809 20.9362 7.2766 20.4894 7.02128 20.1064C6.76596 19.7234 6.38298 19.4043 5.93617 19.2766C5.48936 19.1489 5.04255 19.2128 4.59574 19.4043C4.21277 19.5957 3.82979 19.9787 3.6383 20.3617C3.19149 21.1915 3.25532 22.2128 3.70213 23.0426C4.14894 23.8723 5.10638 24.383 6.06383 24.3191C5.10638 24.4468 4.08511 23.9362 3.57447 23.1064C3.06383 22.2766 3 21.1915 3.44681 20.2979C3.6383 19.8511 4.02128 19.4681 4.46809 19.2128C4.91489 18.9574 5.48936 18.9574 5.93617 19.0851C6.44681 19.2128 6.82979 19.5319 7.14894 19.9787C7.46808 20.3617 7.65957 20.8723 7.65957 21.383H7.40426C7.53192 20.0426 6.70213 18.6383 5.3617 18.3191C4.7234 18.1277 4.02128 18.2553 3.51064 18.7021C3 19.1489 2.74468 19.7872 2.55319 20.4255C2.29787 21.766 2.3617 23.1702 3 24.383C3.31915 24.9574 3.76596 25.5319 4.2766 25.9149C4.78723 26.2979 5.48936 26.5532 6.12766 26.5532C6.76596 26.5532 7.40426 26.234 7.91489 25.8511C8.42553 25.4043 8.87234 24.8936 9.19149 24.3191C9.51064 23.7447 9.76596 23.1064 9.95745 22.4043C10.1489 21.766 10.2128 21.0638 10.2766 20.3617C10.4681 17.4894 9.51064 14.6809 7.53192 12.6383Z" fill="#868686"/>
<path d="M9.1915 13.0851C9.95746 15.1277 11.1064 17.0426 12.5106 18.7021C13.9149 20.3617 15.5106 21.8936 17.3617 23.0426L17.1064 23.1702C17.2341 20.8085 16.5958 18.4468 15.2553 16.4681C13.9149 14.5532 11.8723 13.0851 9.51065 12.5745C10.6596 12.766 11.8085 13.2128 12.8298 13.8511C13.8511 14.4894 14.7447 15.3192 15.4468 16.3404C16.1489 17.2979 16.6596 18.4468 17.0426 19.5957C17.3617 20.7447 17.4894 21.9574 17.4255 23.1702V23.4894L17.1702 23.2979C15.3192 22.0851 13.6596 20.5532 12.3192 18.8298C10.9149 17.1702 9.8298 15.1915 9.1915 13.0851Z" fill="#868686"/>
<path d="M8.36169 12.8298C9.4468 13.0213 10.4042 13.5957 11.234 14.234C12.0638 14.8723 12.8298 15.7021 13.5319 16.5319C14.234 17.3617 14.8085 18.2553 15.383 19.2128C15.9574 20.1064 16.3404 21.1277 16.7872 22.0851C16.5319 21.6383 16.2128 21.1915 15.9574 20.6809C15.7021 20.234 15.4468 19.7234 15.1277 19.3404C14.5532 18.4468 13.9149 17.5532 13.2766 16.7872C12.6383 15.9574 11.8723 15.1915 11.1064 14.4894C10.2766 13.7872 9.38297 13.2128 8.36169 12.8298Z" fill="#868686"/>
<path d="M12.3192 20.8723C11.2341 21.7021 10.4043 22.9149 10.2128 24.2553C10.149 24.8936 10.2128 25.5957 10.5319 26.1702C10.8511 26.7447 11.3617 27.1915 12 27.3192C12.6383 27.4468 13.2766 27.2553 13.7234 26.8085C14.1702 26.3617 14.2979 25.6596 14.0426 25.0213C13.8511 24.4468 13.0213 24.1277 12.5107 24.5106C12.2553 24.7021 12.0638 25.0213 12.0638 25.3404C12.0638 25.6596 12.1915 26.0426 12.4468 26.234C12.1277 26.0426 11.9362 25.7234 11.9362 25.3404C11.9362 24.9575 12.0638 24.6383 12.3192 24.383C12.5745 24.1277 13.0213 24.0638 13.4043 24.1915C13.7873 24.3192 14.1064 24.5745 14.2341 24.8936C14.5532 25.5957 14.3617 26.4255 13.8511 27C13.3404 27.5745 12.5107 27.766 11.8085 27.6383C11.0426 27.4468 10.4681 26.9362 10.149 26.2979C9.8298 25.6596 9.70214 24.8936 9.8298 24.1915C9.95746 23.4894 10.2128 22.7872 10.6596 22.2766C11.2341 21.7021 11.7447 21.2553 12.3192 20.8723Z" fill="#868686"/>
<path d="M9.00001 21.8936C8.87235 21.0638 8.61703 20.2979 8.23405 19.5957C7.85108 18.8936 7.34044 18.2553 6.70214 17.7447L6.51065 17.617L6.70214 17.4894C7.40427 17.0426 7.97874 16.3404 8.29788 15.5106L8.42554 15.1915L8.61703 15.5106C9.12767 16.4681 9.38299 17.5532 9.44682 18.7021C9.51065 19.7872 9.31916 20.8723 9.00001 21.8936ZM9.00001 21.8936C9.25533 20.8723 9.31916 19.7872 9.25533 18.7021C9.12767 17.617 8.87235 16.5957 8.36171 15.7021H8.68086C8.29789 16.5319 7.65959 17.234 6.89363 17.7447V17.4894C7.53193 18 8.04257 18.7021 8.42554 19.4681C8.80852 20.234 8.93618 21.0638 9.00001 21.8936Z" fill="#868686"/>
<path d="M49.2128 4.40426C49.3404 3.19149 48.2553 2.17022 47.1064 2.17022C45.9575 2.17022 44.9362 2.87234 44.1702 3.70213C43.4043 4.53192 42.7021 5.48936 41.8085 6.31915C41.3617 6.70213 40.8511 7.02128 40.2128 7.21277C39.6383 7.40426 38.9362 7.40426 38.3617 7.14894C37.2128 6.70213 36.383 5.48936 36.383 4.2766C36.383 3 37.2128 1.85107 38.4255 1.46809C39 1.2766 39.6383 1.2766 40.2128 1.46809C40.7873 1.72341 41.2341 2.17022 41.4255 2.74468C41.617 3.31915 41.4894 4.02128 41.0426 4.40426C40.5958 4.78724 39.8298 4.85107 39.4468 4.40426C39.8936 4.85107 40.5958 4.72341 40.9787 4.34043C41.3617 3.95745 41.4255 3.31915 41.2341 2.74468C41.0426 2.23405 40.5958 1.78724 40.0851 1.59575C39.5745 1.40426 39 1.40426 38.4894 1.59575C37.4681 1.97873 36.7021 3.06383 36.7021 4.14894C36.7021 5.23405 37.4681 6.31915 38.4255 6.70213C38.9362 6.89362 39.5107 6.95745 40.0213 6.76596C40.5319 6.6383 41.0426 6.31915 41.4894 5.93617C42.383 5.23405 43.0213 4.21277 43.8511 3.38298C44.6809 2.55319 45.766 1.78724 46.9787 1.85107C48.3192 2.10639 49.4043 3.25532 49.2128 4.40426Z" fill="#868686"/>
<path d="M47.9362 5.17022C46.7234 4.85107 45.383 4.72341 44.1702 5.04256C43.5958 5.17022 42.9575 5.42553 42.5107 5.80851C42.0639 6.19149 41.6809 6.70213 41.4894 7.2766C41.2979 7.85107 41.2979 8.48936 41.4256 9.06383C41.5532 9.6383 42 10.1489 42.5745 10.2128C43.149 10.3404 43.7873 9.95745 43.9149 9.31915C44.0426 8.74468 43.8511 8.04256 43.5958 7.53192C43.9149 8.04256 44.1702 8.68085 44.1064 9.38298C44.0426 9.70213 43.8511 10.0213 43.5958 10.2128C43.3405 10.4043 42.9575 10.5319 42.5745 10.4681C42.2553 10.4681 41.8724 10.2766 41.617 10.0213C41.3617 9.76596 41.2341 9.44681 41.1064 9.12766C40.9149 8.48936 40.9149 7.78724 41.1702 7.14894C41.4256 6.51064 41.8085 5.93617 42.3192 5.55319C42.8298 5.17022 43.4681 4.9149 44.1064 4.78724C45.4468 4.46809 46.7234 4.72341 47.9362 5.17022Z" fill="#868686"/>
<path d="M40.9787 7.34042C39.1915 9.44681 36.383 10.6596 33.5745 10.4681C32.1702 10.4043 30.766 10.0213 29.617 9.19149C28.4681 8.42553 27.5107 7.14893 27.5107 5.68085C27.5745 4.21276 28.5319 2.93617 29.6809 2.17021C30.9575 1.46808 32.4255 1.34042 33.8298 1.7234C34.5319 1.91489 35.1702 2.29787 35.5532 2.93617C35.9362 3.57447 36 4.34042 35.8085 5.04255C35.5532 6.51064 34.0851 7.59574 32.617 7.40425V7.14893C33.0638 7.14893 33.5107 6.89362 33.8298 6.6383C34.2128 6.38298 34.4681 5.93617 34.5319 5.48936C34.6596 5.04255 34.5958 4.59574 34.4681 4.14893C34.2766 3.70213 33.9575 3.38298 33.5745 3.12766C32.8085 2.61702 31.7234 2.68085 30.8936 3.19149C30.1277 3.76596 29.6809 4.7234 29.7447 5.68085C29.617 4.7234 30.0638 3.70213 30.8298 3.12766C31.5958 2.55319 32.7447 2.42553 33.6383 2.93617C34.0851 3.19149 34.4043 3.57447 34.5958 4.02128C34.7872 4.46808 34.8511 4.97872 34.7234 5.48936C34.5958 6 34.3404 6.44681 33.9575 6.76596C33.5745 7.08511 33.1277 7.34042 32.5532 7.34042V7.08511C33.8298 7.21276 35.1702 6.25532 35.4255 4.97872C35.5532 4.34042 35.4894 3.6383 35.1702 3.12766C35.0426 2.61702 34.4681 2.23404 33.8298 2.10638C32.5532 1.78723 31.0851 1.85106 30 2.48936C28.8511 3.19149 28.0213 4.40425 27.9575 5.68085C27.8936 7.02128 28.7872 8.23404 29.8724 9C30.9575 9.76596 32.2979 10.1489 33.6383 10.2766C36.3192 10.4043 39.1277 9.38298 40.9787 7.34042Z" fill="#868686"/>
<path d="M40.5319 9.06383C38.5532 9.89362 36.7021 11.1702 35.1702 12.6383C33.5745 14.1064 32.234 15.766 31.1489 17.6809L31.0213 17.4255C32.1702 17.4894 33.383 17.3617 34.4681 16.9787C35.5532 16.5957 36.6383 16.0213 37.5319 15.3192C38.4255 14.5532 39.1915 13.6596 39.766 12.6383C40.3404 11.617 40.7872 10.5319 41.0426 9.38298C40.7234 11.7447 39.5106 13.9787 37.7234 15.5745C35.8723 17.1702 33.4468 18 31.0213 17.8085H30.766L30.8936 17.5532C31.9787 15.6383 33.383 13.9149 35.0426 12.5106C36.6383 10.9787 38.4894 9.76596 40.5319 9.06383Z" fill="#868686"/>
<path d="M40.7872 8.17022C40.5957 9.25532 40.1489 10.2128 39.5745 11.1064C39 12 38.234 12.766 37.4681 13.5319C36.6383 14.234 35.8085 14.9362 34.9149 15.5106C34.0213 16.1489 33.0638 16.5957 32.1064 17.1064C32.5532 16.7872 33 16.5319 33.4468 16.2128C33.8936 15.9574 34.3404 15.6383 34.7872 15.3192C35.617 14.6809 36.4468 14.0426 37.2128 13.2766C37.9787 12.5745 38.7447 11.8085 39.383 10.9787C39.9574 10.1489 40.4681 9.19149 40.7872 8.17022Z" fill="#868686"/>
<path d="M33.2553 12.383C32.4894 11.2979 31.3404 10.2766 30 10.1489C29.3617 10.0851 28.6596 10.2128 28.1489 10.5957C27.6383 10.9787 27.1915 11.5532 27.1277 12.1277C27 12.766 27.1915 13.4681 27.5745 13.9149C27.9575 14.3617 28.7234 14.5532 29.234 14.2979C29.7447 14.0426 30.0638 13.2128 29.6809 12.7021C29.4894 12.4468 29.234 12.2553 28.9149 12.2553C28.5958 12.2553 28.2766 12.4468 28.0851 12.7021C28.2766 12.383 28.5958 12.1915 28.9149 12.1915C29.2979 12.1915 29.617 12.383 29.8723 12.6383C30.3192 13.2766 30.0638 14.1702 29.3617 14.617C28.6596 15 27.766 14.8085 27.3192 14.234C26.8085 13.6596 26.617 12.8936 26.7447 12.1915C27 10.7234 28.5958 9.70213 30 10.0213C30.7021 10.1489 31.3404 10.4681 31.9149 10.9149C32.4894 11.234 32.8723 11.7447 33.2553 12.383Z" fill="#868686"/>
<path d="M32.234 8.80851C33 8.68085 33.766 8.42553 34.4681 7.97872C35.1064 7.59575 35.6808 7.02128 36.1277 6.38298L36.2553 6.19149L36.383 6.38298C36.8298 7.14894 37.4681 7.72341 38.234 8.10638L38.5532 8.23404L38.2979 8.48936C37.4043 9 36.383 9.31915 35.2979 9.38298C34.2766 9.38298 33.1915 9.19149 32.234 8.80851ZM32.234 8.80851C33.2553 9.06383 34.2766 9.19149 35.234 9.06383C36.2553 8.93617 37.2128 8.68085 38.0425 8.17021V8.48936C37.2128 8.10638 36.5106 7.40426 36.0638 6.6383H36.3191C35.8723 7.2766 35.1702 7.85106 34.4681 8.23404C33.8936 8.61702 33.0638 8.80851 32.234 8.80851Z" fill="#868686"/>
<path d="M23.9362 21.0638H25.3404V30.766H30V31.9149H23.9362V21.0638Z" fill="#868686"/>
<path d="M3.1915 57.3192C3.38299 57.3192 3.57448 57.2553 3.8298 57.2553C4.14894 57.2553 4.40426 57.3191 4.59575 57.4468C4.72341 57.5745 4.85107 57.766 4.85107 58.0213C4.85107 58.2766 4.78724 58.4681 4.65958 58.5957C4.46809 58.7872 4.21277 58.9149 3.8298 58.9149C3.70214 58.9149 3.63831 58.9149 3.57448 58.9149V60H3.1915V57.3192ZM3.51065 58.5957C3.57448 58.5957 3.70214 58.5957 3.76597 58.5957C4.14894 58.5957 4.40426 58.4043 4.40426 58.0213C4.40426 57.7021 4.14894 57.5106 3.76597 57.5106C3.63831 57.5106 3.51065 57.5106 3.44682 57.5106V58.5957H3.51065Z" fill="#868686"/>
<path d="M6.25531 57.3192C6.4468 57.2553 6.70212 57.2553 6.89361 57.2553C7.27659 57.2553 7.46808 57.3191 7.65957 57.4468C7.78722 57.5745 7.85105 57.766 7.85105 57.9574C7.85105 58.2766 7.65957 58.5319 7.34042 58.6596C7.53191 58.7234 7.65957 58.9149 7.7234 59.1702C7.78723 59.5532 7.85105 59.8085 7.91488 59.8723H7.53191C7.46808 59.8085 7.40425 59.5532 7.34042 59.234C7.27659 58.8511 7.14893 58.7234 6.82978 58.7234H6.51063V59.8723H6.25531V57.3192ZM6.57446 58.5319H6.89361C7.27659 58.5319 7.46808 58.3404 7.46808 58.0213C7.46808 57.7021 7.21276 57.5106 6.82978 57.5106C6.63829 57.5106 6.57446 57.5106 6.51063 57.5106V58.5319H6.57446Z" fill="#868686"/>
<path d="M10.7234 58.6596H9.70211V59.617H10.8511V59.9362H9.38297V57.2553H10.7872V57.5745H9.70211V58.4043H10.7234V58.6596Z" fill="#868686"/>
<path d="M14.4894 58.7872C14.4894 58.4043 14.4255 57.9574 14.4255 57.6383C14.3617 57.9574 14.2341 58.2766 14.1064 58.6596L13.6596 59.9362H13.4043L12.9575 58.6596C12.8298 58.2766 12.7021 57.9574 12.6383 57.6383C12.6383 57.9574 12.6383 58.4043 12.5745 58.7872L12.5106 59.9362H12.1915L12.383 57.2553H12.8298L13.2766 58.5319C13.4043 58.8511 13.4681 59.1702 13.5319 59.4255C13.5958 59.1702 13.7234 58.8511 13.7872 58.5319L14.2341 57.2553H14.6809L14.8723 59.9362H14.5532L14.4894 58.7872Z" fill="#868686"/>
<path d="M16.7234 57.2553V59.9362H16.4043V57.2553H16.7234Z" fill="#868686"/>
<path d="M18.7021 57.2553V58.8511C18.7021 59.4255 18.9574 59.6809 19.3404 59.6809C19.7234 59.6809 19.9787 59.4255 19.9787 58.8511V57.2553H20.2979V58.7872C20.2979 59.617 19.8511 59.9362 19.2766 59.9362C18.7021 59.9362 18.3192 59.617 18.3192 58.7872V57.2553H18.7021Z" fill="#868686"/>
<path d="M24.0638 58.7872C24.0638 58.4043 24 57.9574 24 57.6383C23.9362 57.9574 23.8085 58.2766 23.6809 58.6596L23.234 59.9362H22.9787L22.5319 58.6596C22.4043 58.2766 22.2766 57.9574 22.2128 57.6383C22.2128 57.9574 22.2128 58.4043 22.1489 58.7872L22.0851 59.9362H21.766L21.9575 57.2553H22.4043L22.8511 58.5319C22.9787 58.8511 23.0426 59.1702 23.1064 59.4255C23.1702 59.1702 23.2979 58.8511 23.3617 58.5319L23.8085 57.2553H24.2553L24.4468 59.9362H24.1277L24.0638 58.7872Z" fill="#868686"/>
<path d="M27.8298 57.3192C28.0213 57.3192 28.2128 57.2553 28.4681 57.2553C28.7872 57.2553 29.0425 57.3191 29.234 57.4468C29.3617 57.5745 29.4893 57.766 29.4893 58.0213C29.4893 58.2766 29.4255 58.4681 29.2979 58.5957C29.1064 58.7872 28.851 58.9149 28.4681 58.9149C28.3404 58.9149 28.2766 58.9149 28.2128 58.9149V60H27.8936V57.3192H27.8298ZM28.1489 58.5957C28.2128 58.5957 28.3404 58.5957 28.4042 58.5957C28.7872 58.5957 29.0425 58.4043 29.0425 58.0213C29.0425 57.7021 28.7872 57.5106 28.4042 57.5106C28.2766 57.5106 28.1489 57.5106 28.0851 57.5106V58.5957H28.1489Z" fill="#868686"/>
<path d="M30.8936 57.3192C31.0851 57.2553 31.3404 57.2553 31.5319 57.2553C31.9149 57.2553 32.1064 57.3191 32.2979 57.4468C32.4255 57.5745 32.4893 57.766 32.4893 57.9574C32.4893 58.2766 32.2979 58.5319 31.9787 58.6596C32.1702 58.7234 32.2979 58.9149 32.3617 59.1702C32.4255 59.5532 32.4893 59.8085 32.5532 59.8723H32.1702C32.1064 59.8085 32.0425 59.5532 31.9787 59.234C31.9149 58.8511 31.7872 58.7234 31.4681 58.7234H31.1489V59.8723H30.8298V57.3192H30.8936ZM31.2128 58.5319H31.5319C31.9149 58.5319 32.1064 58.3404 32.1064 58.0213C32.1064 57.7021 31.851 57.5106 31.4681 57.5106C31.2766 57.5106 31.2128 57.5106 31.1489 57.5106V58.5319H31.2128Z" fill="#868686"/>
<path d="M36.2553 58.5957C36.2553 59.4894 35.6808 60 35.0425 60C34.3404 60 33.8298 59.4255 33.8298 58.6596C33.8298 57.8298 34.3404 57.2553 35.0425 57.2553C35.8085 57.2553 36.2553 57.766 36.2553 58.5957ZM34.2128 58.5957C34.2128 59.1702 34.5319 59.6809 35.0425 59.6809C35.617 59.6809 35.8723 59.1702 35.8723 58.5957C35.8723 58.0851 35.617 57.5106 35.0425 57.5106C34.5319 57.5106 34.2128 58.0213 34.2128 58.5957Z" fill="#868686"/>
<path d="M37.7234 57.3192C37.9149 57.3192 38.1702 57.2553 38.4255 57.2553C38.9362 57.2553 39.2553 57.383 39.5106 57.5745C39.7659 57.766 39.8936 58.0851 39.8936 58.5319C39.8936 58.9787 39.7659 59.2979 39.5106 59.5532C39.2553 59.8085 38.8723 59.9362 38.3617 59.9362C38.1064 59.9362 37.9149 59.9362 37.7234 59.9362V57.3192V57.3192ZM38.0425 59.6809C38.1064 59.6809 38.234 59.6809 38.3617 59.6809C39.0638 59.6809 39.5106 59.2979 39.5106 58.5319C39.5106 57.8936 39.1915 57.5106 38.4255 57.5106C38.234 57.5106 38.1064 57.5106 38.0425 57.5745V59.6809V59.6809Z" fill="#868686"/>
<path d="M41.6809 57.2553V58.8511C41.6809 59.4255 41.9362 59.6809 42.3192 59.6809C42.7021 59.6809 42.9575 59.4255 42.9575 58.8511V57.2553H43.2766V58.7872C43.2766 59.617 42.8298 59.9362 42.2553 59.9362C41.6809 59.9362 41.2979 59.617 41.2979 58.7872V57.2553H41.6809Z" fill="#868686"/>
<path d="M46.6596 59.8723C46.5957 59.9362 46.3404 60 46.0213 60C45.2553 60 44.6808 59.5532 44.6808 58.6596C44.6808 57.8298 45.2553 57.2553 46.0851 57.2553C46.4042 57.2553 46.5957 57.3192 46.7234 57.383L46.5957 57.6383C46.4681 57.5745 46.2766 57.5106 46.0851 57.5106C45.4468 57.5106 45.0638 57.8936 45.0638 58.5957C45.0638 59.234 45.4468 59.6809 46.0851 59.6809C46.2766 59.6809 46.5319 59.617 46.6596 59.5532V59.8723Z" fill="#868686"/>
<path d="M48.7021 57.5745H47.8723V57.2553H49.8511V57.5745H49.0213V59.9362H48.7021V57.5745Z" fill="#868686"/>
</g>
<defs>
<clipPath id="clip0_887_1659">
<rect width="53.6809" height="60" fill="white"/>
</clipPath>
</defs>
</svg>
