<svg width="60" height="60" viewBox="0 0 60 60" fill="none" xmlns="http://www.w3.org/2000/svg">
<path d="M30.4348 9.93789C27.7018 9.93789 25.031 10.3727 22.4844 11.4286C19.9379 12.4224 17.6397 13.913 15.7143 15.7764C11.8012 19.5031 9.50308 24.8447 9.44097 30.2485C9.37885 32.9193 9.87576 35.6522 10.8695 38.1366C11.8633 40.6211 13.354 42.9193 15.2174 44.9068C18.9441 48.8199 24.2857 51.118 29.6273 51.1801C32.2981 51.2422 35.031 50.7453 37.5155 49.8137C40 48.8199 42.3602 47.3913 44.2857 45.528C48.1987 41.8012 50.559 36.5217 50.6211 31.118C50.6832 28.4472 50.1863 25.7143 49.2546 23.1677C48.2608 20.6211 46.7702 18.323 44.9068 16.3975C43.0434 14.4721 40.8074 12.8571 38.3229 11.7391C35.8385 10.6211 33.1056 10 30.4348 9.93789ZM30.4348 9.93789C33.1677 10 35.8385 10.559 38.3229 11.6149C40.8074 12.6708 43.1056 14.2857 44.9689 16.2112C46.8323 18.1366 48.3851 20.4969 49.3789 23.0435C50.3727 25.5901 50.8695 28.323 50.8074 30.9938C50.7453 33.7267 50.1863 36.4596 49.1304 38.9441C48.0745 41.4286 46.4596 43.7267 44.472 45.5901C42.4845 47.5155 40.1863 49.0062 37.6397 50C35.0932 50.9938 32.3602 51.4907 29.6273 51.4286C26.8944 51.3665 24.1615 50.8074 21.677 49.6894C19.1925 48.5714 16.8944 47.0186 15.031 45.0311C13.1677 43.0435 11.677 40.7453 10.6832 38.1988C9.68941 35.6522 9.19253 32.9193 9.25464 30.1863C9.31675 24.7205 11.677 19.3789 15.6521 15.6522C17.6397 13.7888 19.9379 12.2981 22.4844 11.3044C24.9689 10.3727 27.7018 9.93789 30.4348 9.93789Z" fill="#868686"/>
<path d="M5.03103 37.0807C4.96891 37.0807 4.90681 37.1428 4.78258 37.1428C4.72047 37.1428 4.65836 37.1429 4.59625 37.205C4.53413 37.205 4.47203 37.2671 4.3478 37.2671C4.22358 37.3292 4.16146 37.3292 4.09935 37.3913C4.09935 37.3913 4.03724 37.4534 4.03724 37.5155C4.03724 37.5776 4.03724 37.6397 4.03724 37.6397C4.03724 37.7019 4.03724 37.7019 4.03724 37.764C4.03724 37.764 4.03724 37.764 3.97513 37.764C3.97513 37.764 3.97512 37.7019 3.91301 37.5776L3.78879 37.0807C3.72668 36.9565 3.72668 36.8944 3.72668 36.8323C3.72668 36.8323 3.78879 36.8323 3.78879 36.8944C3.8509 36.9565 3.8509 37.0186 3.91301 37.0186C3.97512 37.0186 4.03724 37.0186 4.16147 37.0186C4.28569 37.0186 4.40991 36.9565 4.59625 36.8944L5.09314 36.7702L5.59004 36.646C5.77637 36.5838 5.9006 36.5217 5.9006 36.5217C5.9006 36.5217 5.9627 36.3975 5.9627 36.3354C5.9627 36.2733 5.9627 36.2112 5.9627 36.2112C5.9627 36.2112 6.02482 36.2112 6.02482 36.2733L6.14904 36.646L6.33538 37.205C6.4596 37.5776 6.4596 37.8261 6.39748 38.0124C6.33537 38.1988 6.21115 38.2609 6.02482 38.323C5.83848 38.3851 5.65214 38.323 5.46581 38.1987C5.34158 38.0745 5.15525 37.8261 5.09314 37.4534C5.09314 37.2671 5.03103 37.205 5.03103 37.0807ZM5.09314 37.0807C5.15525 37.2671 5.15525 37.3292 5.15525 37.3913C5.21736 37.5155 5.21736 37.6397 5.34159 37.7019C5.46581 37.764 5.52792 37.8261 5.65214 37.8882C5.77637 37.8882 5.9006 37.8882 6.02482 37.8882C6.14904 37.8261 6.27327 37.764 6.33538 37.6397C6.39749 37.5155 6.39749 37.3292 6.33538 37.0807C6.27327 36.9565 6.27327 36.8323 6.21116 36.7702C6.14904 36.7702 6.14904 36.7702 6.14904 36.7702L5.71426 36.8944L5.27948 37.0186C5.21737 37.0186 5.15525 37.0807 5.09314 37.0807Z" fill="#868686"/>
<path d="M6.45962 40.8695C6.45962 41.0559 6.45962 41.1801 6.39751 41.3043C6.3354 41.4285 6.27329 41.4907 6.08695 41.6149C5.90061 41.7391 5.7764 41.8633 5.71428 41.9876C5.65217 42.1118 5.65217 42.1739 5.71428 42.2981C5.71428 42.3602 5.71428 42.3602 5.71428 42.3602C5.71428 42.3602 5.65217 42.3602 5.65217 42.2981C5.52795 41.9876 5.40373 41.8012 5.40373 41.677C5.40373 41.6149 5.46584 41.4907 5.71428 41.3664C5.90062 41.2422 6.02484 41.118 6.14907 41.0559C6.21118 40.9938 6.27329 40.8695 6.27329 40.8074C6.27329 40.6832 6.27329 40.559 6.21118 40.4348C6.21118 40.3726 6.14906 40.3105 6.08695 40.2484C6.02484 40.2484 5.96273 40.3105 5.83851 40.3105C5.52795 40.4348 5.34162 40.559 5.2795 40.559C5.21739 40.6211 5.15528 40.6832 5.09317 40.7453C5.09317 40.8074 5.09317 40.8695 5.09317 40.9938C5.09317 41.0559 5.09317 41.0559 5.09317 41.0559C5.09317 41.0559 5.03105 41.0559 5.03105 40.9938L4.65839 40.1242C4.65839 40.0621 4.65839 40.0621 4.65839 40.0621C4.65839 40.0621 4.72049 40.0621 4.72049 40.1242C4.7826 40.1863 4.7826 40.2484 4.84471 40.3105C4.90683 40.3726 4.96894 40.3105 5.03105 40.3105C5.09316 40.3105 5.21739 40.2484 5.34161 40.1863L5.71428 40L6.27329 39.7515C6.52173 39.6273 6.70808 39.5652 6.8323 39.5031C6.89441 39.441 6.95652 39.3789 6.95652 39.3789C6.95652 39.3167 6.95652 39.2546 6.95652 39.1304V39.0683C6.95652 39.0683 7.01863 39.0683 7.01863 39.1304L7.51553 40.1242C7.63976 40.3726 7.70186 40.6211 7.63975 40.8074C7.57763 40.9938 7.51552 41.118 7.32919 41.1801C7.20496 41.2422 7.14285 41.2422 7.01863 41.2422C6.8944 41.2422 6.8323 41.1801 6.77018 41.118C6.70807 41.118 6.58385 40.9938 6.45962 40.8695ZM6.27329 40.2484C6.39751 40.4348 6.45963 40.6211 6.52174 40.7453C6.58385 40.8695 6.70808 40.9316 6.8323 40.9316C6.95652 40.9938 7.08074 40.9316 7.20496 40.9316C7.32919 40.8695 7.45342 40.8074 7.45342 40.6832C7.51553 40.559 7.51553 40.3726 7.3913 40.1863C7.32919 40.0621 7.26708 40 7.20496 39.8758C6.89441 40 6.64596 40.1242 6.45962 40.1863C6.39751 40.1242 6.3354 40.1863 6.27329 40.2484Z" fill="#868686"/>
<path d="M9.50307 43.913C9.37885 44.0373 9.25463 44.1615 9.0683 44.2857C9.0683 44.2857 9.0683 44.2857 9.0683 44.2236C9.13041 44.0994 9.19251 43.9751 9.19251 43.8509C9.19251 43.7267 9.19251 43.6646 9.19251 43.5404C9.19251 43.4782 9.13041 43.354 9.00618 43.1677C8.88196 43.0435 8.81985 42.9192 8.75774 42.795H8.69562C8.69562 42.795 8.69562 42.795 8.63351 42.795C8.5714 42.8571 8.32294 42.9814 7.95027 43.2298C7.95027 43.2298 7.88816 43.2298 7.88816 43.2919C7.95027 43.354 7.95028 43.4161 8.01239 43.4782C8.0745 43.6025 8.19872 43.6646 8.26083 43.7267C8.32294 43.7888 8.44717 43.7888 8.63351 43.7267H8.69562V43.7888L8.63351 43.8509C8.5714 43.913 8.44718 43.913 8.38506 43.9751C8.26084 44.0373 8.13661 44.1615 8.01239 44.2236C7.95028 44.2236 7.95027 44.2236 7.95027 44.2236V44.1615C8.0745 44.0373 8.13662 43.9751 8.13662 43.8509C8.13662 43.7267 8.0745 43.6025 7.95027 43.354C7.88816 43.4161 7.76393 43.4782 7.5776 43.6025C7.32915 43.7267 7.20494 43.8509 7.14283 43.913C7.08072 43.9751 7.08071 44.0372 7.08071 44.0994C7.08071 44.1615 7.14282 44.2857 7.20493 44.4099C7.45338 44.8447 7.76395 44.9689 8.13662 44.9689C8.19873 44.9689 8.19872 44.9689 8.19872 44.9689V45.031C8.19872 45.031 8.19873 45.031 8.13662 45.031C8.13662 45.031 8.01238 45.0932 7.88816 45.1553C7.88816 45.1553 7.76393 45.2174 7.5776 45.2795L7.14283 44.5963C7.08072 44.472 7.0186 44.3478 6.89438 44.1615C6.77015 43.9751 6.70804 43.7888 6.58382 43.6646C6.5217 43.5404 6.45959 43.4161 6.45959 43.4161C6.45959 43.4161 6.52171 43.4161 6.52171 43.4782C6.58382 43.6025 6.64593 43.6646 6.77015 43.6646C6.89438 43.6646 7.0186 43.6025 7.26705 43.4161L7.5776 43.2298L7.88816 43.0435C7.95027 42.9814 8.07449 42.9192 8.19872 42.795C8.38505 42.6708 8.44716 42.6087 8.50928 42.6087C8.50928 42.6087 8.57139 42.5466 8.57139 42.4844C8.57139 42.4223 8.57139 42.3602 8.50928 42.236C8.50928 42.1739 8.50928 42.1739 8.50928 42.1739C8.50928 42.1739 8.57139 42.1739 8.57139 42.236L8.75774 42.5466C8.81985 42.6708 9.00618 42.9192 9.25463 43.4161C9.44096 43.7888 9.50307 43.913 9.50307 43.913Z" fill="#868686"/>
<path d="M10.7454 45.59C10.6211 45.8385 10.4969 46.0869 10.4348 46.3354C10.3106 46.5838 10.2485 46.8323 10.1864 46.9565C10.1242 47.1428 10.0621 47.2671 10 47.4534C10.4969 47.3913 11.1801 47.205 11.9876 46.9565L12.4845 47.5155V47.5776H12.4224C12.2982 47.5155 12.236 47.4534 12.1739 47.4534C12.1118 47.4534 12.0497 47.4534 11.9876 47.5155C11.9255 47.5776 11.7392 47.7018 11.5528 47.8261C11.3665 47.9503 11.1801 48.1366 11.0559 48.2609C10.8075 48.5093 10.6211 48.6335 10.6211 48.6335C10.559 48.6956 10.559 48.6956 10.559 48.7577C10.559 48.8199 10.559 48.882 10.6211 48.9441V49.0062H10.559L10.0621 48.4472L9.93791 48.323C9.93791 48.2609 9.8758 48.2609 9.93791 48.2609C9.93791 48.2609 9.93791 48.2609 10 48.2609C10.0621 48.323 10.1242 48.3851 10.1864 48.3851C10.2485 48.3851 10.2485 48.3851 10.3106 48.3851C10.3727 48.3851 10.4969 48.2608 10.6832 48.0745L11.3665 47.5155L11.7391 47.2671C11.7391 47.2671 11.8013 47.2049 11.7391 47.2049C11.7391 47.2049 11.7391 47.2049 11.677 47.2049L10.8696 47.3913C10.3727 47.5155 10.0621 47.5776 9.87579 47.6397L9.56523 47.7639C9.50312 47.7639 9.441 47.8261 9.441 47.8261V47.7639C9.50311 47.7018 9.56523 47.4534 9.75156 47.0186C9.87579 46.7702 10 46.5217 10.1242 46.2112C10.2485 45.9006 10.3106 45.7143 10.3106 45.7143C10.3106 45.7143 10.3106 45.7143 10.3106 45.6522C10.3106 45.6522 10.3106 45.6522 10.2485 45.6522L9.37891 46.3975L9.06835 46.6459C8.94412 46.7702 8.81988 46.8944 8.81988 46.9565C8.81988 47.0186 8.81989 47.1428 8.882 47.2049C8.94411 47.2671 8.94412 47.2671 8.94412 47.3292H8.882L8.81988 47.2671L8.63356 47.0807C8.57145 47.0186 8.44722 46.8944 8.323 46.7702C8.323 46.7702 8.323 46.7702 8.323 46.7081H8.38511C8.44723 46.7702 8.57145 46.8323 8.63356 46.8323C8.75778 46.8323 8.88201 46.7081 9.06835 46.5838L9.31679 46.3354L9.93791 45.8385C10.0621 45.7143 10.1864 45.5901 10.1864 45.5279C10.1864 45.4658 10.1863 45.3416 10.1242 45.2795C10.1242 45.2174 10.0621 45.2174 10.1242 45.2174H10.1864C10.1864 45.2174 10.1864 45.2795 10.2485 45.2795L10.7454 45.59Z" fill="#868686"/>
<path d="M13.354 48.323L13.6024 48.5714L13.9751 48.882C14.0372 48.9441 14.0372 48.9441 14.0372 48.9441H13.9751C13.8509 48.882 13.7888 48.8199 13.6646 48.882C13.5403 48.9441 13.354 49.1304 13.0434 49.5031C12.9192 49.6273 12.795 49.8136 12.6087 50C12.4844 50.1863 12.3602 50.3105 12.3602 50.3726C12.3602 50.4348 12.3602 50.4348 12.3602 50.4969C12.3602 50.559 12.4223 50.6211 12.4844 50.6832V50.7453H12.4223L12.0496 50.4348L11.7391 50.1863C11.677 50.1863 11.677 50.1242 11.7391 50.1242H11.8012C11.8633 50.1863 11.9875 50.1863 12.0496 50.1863C12.1118 50.1242 12.2981 50 12.5465 49.6894C12.795 49.3789 12.9813 49.1304 13.1677 49.0062C13.2919 48.8198 13.4161 48.6956 13.4161 48.6335C13.4161 48.5714 13.4161 48.5093 13.354 48.4472C13.2919 48.323 13.2919 48.323 13.354 48.323C13.354 48.2609 13.2919 48.2609 13.354 48.323Z" fill="#868686"/>
<path d="M15.0311 49.7515L15.7764 50.3105C15.8385 50.3105 15.8385 50.3727 15.8385 50.3727H15.7764C15.7143 50.3105 15.6522 50.3105 15.5901 50.3105C15.528 50.3105 15.4658 50.3727 15.4037 50.4348C15.3416 50.4969 15.2174 50.6832 15.0311 50.9317C14.7826 51.2422 14.6584 51.4907 14.5963 51.6149C14.5342 51.7391 14.5342 51.9255 14.5963 52.0497C14.6584 52.1739 14.7826 52.2981 14.9068 52.4223C15.0932 52.5466 15.2795 52.6087 15.4037 52.6087C15.528 52.6087 15.6522 52.5466 15.7764 52.4223C15.9006 52.2981 16.087 52.0497 16.3975 51.5528C16.5839 51.3043 16.646 51.1801 16.646 51.0559C16.646 50.9317 16.5839 50.8696 16.5218 50.8074C16.4596 50.8074 16.4596 50.7453 16.4596 50.7453C16.4596 50.7453 16.5217 50.7453 16.5839 50.7453L17.205 51.1801C17.205 51.1801 17.2671 51.2422 17.205 51.2422C17.205 51.2422 17.205 51.2422 17.1429 51.2422C17.0808 51.1801 16.9565 51.1801 16.8944 51.1801C16.8323 51.1801 16.7702 51.2422 16.7081 51.3664C16.646 51.4286 16.5218 51.6149 16.3975 51.8012C16.2112 52.0497 16.087 52.236 15.9627 52.4223C15.8385 52.6087 15.7143 52.6708 15.5901 52.7329C15.4659 52.795 15.3416 52.795 15.1553 52.7329C15.0311 52.6708 14.8447 52.6087 14.6584 52.4844C14.4721 52.3602 14.3478 52.236 14.2857 52.1118C14.2236 51.9876 14.1615 51.8633 14.1615 51.7391C14.1615 51.6149 14.2857 51.4285 14.4099 51.2422L14.7205 50.8074C14.9689 50.4348 15.1553 50.1863 15.1553 50.0621C15.1553 50 15.0932 49.8758 15.0311 49.7515C14.9689 49.7515 14.9069 49.7515 14.969 49.7515C14.969 49.7515 14.9689 49.7515 15.0311 49.7515Z" fill="#868686"/>
<path d="M18.7577 52.1118C18.7577 52.4223 18.7577 52.6708 18.7577 52.9192C18.7577 53.2298 18.7577 53.4161 18.7577 53.6025C18.7577 53.7888 18.7577 53.9751 18.7577 54.1615C19.1925 53.913 19.6894 53.4782 20.3726 52.8571L21.0559 53.1677C21.0559 53.1677 21.0559 53.1677 21.0559 53.2298C21.0559 53.2298 21.0559 53.2298 20.9938 53.2298C20.8695 53.1677 20.8074 53.1677 20.7453 53.1677C20.6832 53.1677 20.6211 53.2298 20.559 53.354C20.4969 53.4782 20.4347 53.6025 20.3105 53.8509C20.1863 54.0994 20.0621 54.2857 20 54.472C19.8757 54.7826 19.7515 54.9689 19.7515 55.031C19.7515 55.0931 19.7515 55.1553 19.7515 55.1553C19.7515 55.2174 19.8136 55.2795 19.9379 55.3416C19.9379 55.3416 20 55.4037 19.9379 55.4037C19.9379 55.4037 19.9379 55.4037 19.8757 55.4037L19.1925 55.0932L19.0062 55.031C18.9441 55.031 18.9441 54.9689 18.9441 54.9689C18.9441 54.9689 18.9441 54.9689 19.0062 54.9689C19.1304 55.031 19.1925 55.031 19.1925 55.031C19.1925 55.031 19.2546 54.9689 19.3167 54.9689C19.3789 54.9689 19.441 54.7826 19.5652 54.5342L20 53.7267L20.1863 53.354V53.2919C20.1863 53.2919 20.1863 53.2919 20.1242 53.2919L19.5031 53.7888C19.0683 54.0994 18.8199 54.3478 18.6956 54.4099L18.4472 54.5962C18.3851 54.6584 18.323 54.7205 18.323 54.7205C18.323 54.7205 18.323 54.7205 18.323 54.6584C18.323 54.5963 18.323 54.2857 18.323 53.8509C18.323 53.6025 18.323 53.2919 18.323 52.9814C18.323 52.6708 18.323 52.4844 18.323 52.4223C18.323 52.4223 18.323 52.4223 18.2608 52.4844L17.764 53.4782L17.5776 53.7888C17.5155 53.9751 17.4534 54.0994 17.5155 54.1615C17.5776 54.2236 17.5776 54.2857 17.7018 54.3478C17.7639 54.3478 17.764 54.4099 17.764 54.4099C17.764 54.4099 17.7639 54.4099 17.7018 54.4099H17.6397L17.5155 54.3478L17.267 54.2236C17.1428 54.1615 17.0186 54.0994 16.8323 54.0372C16.8323 54.0372 16.8323 54.0372 16.8323 53.9751H16.8944C17.0186 54.0372 17.0807 54.0372 17.2049 53.9751C17.267 53.913 17.3913 53.7888 17.5155 53.5404L17.6397 53.2298L18.0124 52.4844C18.0745 52.2981 18.1366 52.1739 18.0745 52.1118C18.0745 52.0497 18.0124 51.9254 17.8882 51.8633C17.8261 51.8633 17.826 51.8012 17.826 51.8012C17.826 51.8012 17.8261 51.8012 17.8882 51.8012H17.9503L18.7577 52.1118Z" fill="#868686"/>
<path d="M25.0311 55.5279C25.1553 55.6521 25.2795 55.7143 25.3416 55.8385C25.4037 55.9627 25.4037 56.0869 25.4037 56.2112C25.4037 56.4596 25.4038 56.5838 25.4659 56.7081C25.528 56.7702 25.5901 56.8323 25.7143 56.8944C25.7764 56.8944 25.7764 56.8944 25.7764 56.9565C25.7764 56.9565 25.7764 56.9565 25.7143 56.9565C25.4037 56.8944 25.1553 56.8323 25.0932 56.7702C25.0311 56.708 24.969 56.5838 25.0311 56.3354C25.0311 56.0869 25.0311 55.9627 25.0311 55.8385C25.0311 55.7143 24.969 55.6522 24.9069 55.59C24.8447 55.5279 24.7205 55.4658 24.5342 55.4037C24.4721 55.4037 24.41 55.4037 24.2857 55.4037C24.2857 55.4658 24.2236 55.5279 24.2236 55.6522C24.1615 55.9627 24.0994 56.1491 24.0994 56.2733C24.0994 56.3975 24.0994 56.4596 24.1615 56.4596C24.2236 56.5217 24.2857 56.5217 24.3478 56.5838C24.41 56.5838 24.41 56.5838 24.41 56.6459H24.3478L23.4162 56.4596C23.354 56.4596 23.3541 56.4596 23.3541 56.3975C23.3541 56.3975 23.354 56.3975 23.4162 56.3975C23.4783 56.3975 23.6025 56.3975 23.6025 56.3975C23.6025 56.3975 23.6646 56.3354 23.7267 56.2733C23.7888 56.2112 23.7888 56.0869 23.851 55.9627L23.9131 55.59L24.0373 55.031C24.0994 54.7205 24.0994 54.5341 24.1615 54.472C24.2236 54.4099 24.1615 54.2857 24.1615 54.2857C24.1615 54.2236 24.0373 54.2236 23.9752 54.1615C23.9752 54.1615 23.9131 54.1615 23.9131 54.0994H23.9752L25.0932 54.2857C25.4037 54.3478 25.5901 54.472 25.7143 54.5962C25.8385 54.7205 25.8385 54.9068 25.8385 55.031C25.8385 55.1553 25.7764 55.2174 25.7143 55.2795C25.6522 55.3416 25.5901 55.4037 25.4659 55.4037C25.3416 55.4658 25.2174 55.5279 25.0311 55.5279ZM24.3478 55.3416C24.5963 55.4037 24.7826 55.4037 24.9069 55.4037C25.0311 55.4037 25.1553 55.3416 25.2174 55.2795C25.3416 55.2174 25.4037 55.0931 25.4037 54.9689C25.4037 54.8447 25.4037 54.7205 25.3416 54.5962C25.2795 54.472 25.1553 54.4099 24.9069 54.3478C24.7826 54.3478 24.6584 54.2857 24.5342 54.2857C24.4721 54.5962 24.41 54.9068 24.3478 55.0932C24.3478 55.1553 24.3478 55.2174 24.3478 55.3416Z" fill="#868686"/>
<path d="M27.0186 55.9006C27.0186 55.7143 27.0807 55.528 27.2049 55.3416C27.3292 55.1553 27.4534 54.969 27.7018 54.8447C27.8882 54.7205 28.1366 54.6584 28.3851 54.7205C28.7577 54.7205 29.0062 54.9068 29.1925 55.1553C29.3789 55.4037 29.5031 55.7143 29.5031 56.0249C29.5031 56.3354 29.3167 56.646 29.0683 56.8944C28.8199 57.1429 28.5093 57.2671 28.1366 57.205C27.8261 57.205 27.5155 57.0186 27.3292 56.7702C27.1428 56.5839 27.0186 56.2733 27.0186 55.9006ZM27.4534 55.8385C27.4534 56.0248 27.4534 56.2733 27.5155 56.4596C27.5776 56.646 27.6397 56.8323 27.7639 56.9565C27.8882 57.0808 28.0124 57.1429 28.1987 57.1429C28.4472 57.1429 28.6335 57.0808 28.8199 56.8323C29.0062 56.5839 29.0683 56.3354 29.0683 56.0249C29.0683 55.7143 29.0062 55.4658 28.882 55.2174C28.7577 54.9689 28.5714 54.8447 28.323 54.8447C28.1366 54.8447 28.0124 54.9068 27.8261 54.9689C27.7018 55.0932 27.5776 55.2174 27.5155 55.4037C27.5155 55.528 27.4534 55.7143 27.4534 55.8385Z" fill="#868686"/>
<path d="M31.8012 55.9006C31.8634 55.8385 31.9876 55.6522 32.1118 55.4658C32.236 55.2795 32.2982 55.1553 32.3603 55.0932C32.4224 55.0311 32.4224 55.0311 32.3603 54.9689C32.3603 54.9068 32.2982 54.9068 32.2982 54.8447C32.2982 54.7826 32.1739 54.7826 32.1118 54.7826C32.0497 54.7826 32.0497 54.7826 32.0497 54.7826C32.0497 54.7826 32.1118 54.7205 32.1739 54.7205L32.8572 54.6584C32.9193 54.6584 32.9814 54.6584 32.9814 54.7205C32.9814 54.7205 32.9814 54.7826 32.9193 54.7826C32.8572 54.7826 32.795 54.7826 32.7329 54.8447C32.6708 54.9068 32.6087 54.9689 32.4845 55.0932L32.1739 55.5279C31.9876 55.7764 31.9255 55.9006 31.9255 55.9627C31.9255 56.0248 31.9255 56.1491 31.9255 56.4596C31.9255 56.7702 31.9876 57.0186 31.9876 57.0807C32.0497 57.1429 32.1118 57.1429 32.236 57.205C32.2981 57.205 32.2982 57.205 32.2982 57.2671C32.2982 57.2671 32.2981 57.3292 32.236 57.3292H31.7391C31.6149 57.3292 31.4907 57.3292 31.4286 57.3292C31.3665 57.3292 31.3044 57.3292 31.3044 57.3292C31.2422 57.3292 31.2422 57.3292 31.2422 57.2671C31.2422 57.2671 31.2422 57.205 31.3044 57.205C31.4286 57.205 31.4907 57.1429 31.5528 57.0807C31.6149 57.0186 31.6149 56.8944 31.6149 56.7081C31.6149 56.5217 31.5528 56.3975 31.5528 56.2733C31.5528 56.2733 31.4907 56.1491 31.3665 55.9627C31.2422 55.7764 31.118 55.5901 30.9317 55.4037C30.7453 55.2174 30.6832 55.0932 30.6211 55.0311C30.559 54.9689 30.4969 54.9689 30.4348 54.9689C30.3727 54.9689 30.3727 54.9689 30.3727 54.9068C30.3727 54.9068 30.4348 54.9068 30.4969 54.9068L31.3044 54.8447C31.3665 54.8447 31.3665 54.8447 31.4286 54.8447C31.4907 54.8447 31.4286 54.8447 31.4286 54.8447C31.4286 54.8447 31.4286 54.9068 31.3665 54.9068C31.1801 54.9068 31.118 54.9689 31.118 55.0932C31.118 55.1553 31.1801 55.2174 31.2422 55.2795C31.3044 55.3416 31.4907 55.5279 31.8012 55.9006Z" fill="#868686"/>
<path d="M34.7205 54.3478H34.7826C34.9689 54.5963 35.2795 55.0311 35.6521 55.6522C35.9006 56.087 36.0248 56.2733 36.149 56.3975C36.2111 56.4596 36.3354 56.5217 36.4596 56.5217C36.5217 56.5217 36.5217 56.5217 36.5217 56.5217C36.5217 56.5217 36.5217 56.5217 36.5217 56.5839C36.3975 56.5839 36.2733 56.646 36.0869 56.646C35.8385 56.7081 35.6521 56.7081 35.59 56.7702C35.5279 56.7702 35.5279 56.7702 35.5279 56.7702C35.5279 56.7702 35.5279 56.7702 35.59 56.7081C35.7142 56.7081 35.7764 56.646 35.7764 56.5839C35.8385 56.5217 35.8385 56.5217 35.8385 56.4596C35.8385 56.3975 35.7764 56.2733 35.6521 56.087L35.4658 55.7764C35.4037 55.7764 35.0931 55.8385 34.5962 55.9627C34.5341 56.3354 34.5341 56.5217 34.5341 56.646C34.5341 56.7081 34.5962 56.7702 34.6583 56.7702C34.7205 56.7702 34.7826 56.8323 34.8447 56.7702C34.9068 56.7702 34.9068 56.7702 34.9068 56.7702C34.7205 56.7702 34.5962 56.8323 34.5341 56.8323C34.3478 56.8944 34.1615 56.8944 34.0993 56.8944C34.0372 56.8944 34.0372 56.8944 34.0372 56.8944C34.0372 56.8944 34.0372 56.8323 34.0993 56.8323C34.2236 56.7702 34.3478 56.646 34.3478 56.4596C34.4099 56.2733 34.472 55.9627 34.5341 55.4658C34.5341 55.1553 34.5962 54.7205 34.7205 54.3478ZM34.7205 54.7205C34.6584 54.9689 34.5962 55.3416 34.5341 55.8385C34.6584 55.8385 34.7205 55.7764 34.7826 55.7764L35.2795 55.7143C35.2174 55.5901 35.0931 55.4658 34.9689 55.2174C34.8447 54.9689 34.7826 54.8447 34.7205 54.7205Z" fill="#868686"/>
<path d="M39.8137 55.4658C39.7516 55.4658 39.7516 55.5279 39.6895 55.5279C39.6273 55.5279 39.5652 55.59 39.441 55.59C39.3168 55.6522 39.0683 55.7143 38.6957 55.8385L38.2609 55.9627C38.2609 55.9627 38.1988 55.9627 38.0745 56.0248C37.9503 56.0869 37.8882 56.0869 37.8882 56.0869C37.8261 56.0869 37.764 56.1491 37.764 56.0869C37.764 56.0869 37.764 56.0248 37.8261 56.0248C37.9503 55.9627 38.0124 55.9006 38.0124 55.8385C38.0124 55.7764 38.0745 55.7143 38.0124 55.6522C38.0124 55.59 37.9503 55.3416 37.8261 55.031L37.6398 54.4099C37.5777 54.2236 37.5155 54.0372 37.4534 53.9751C37.3913 53.913 37.3292 53.8509 37.2671 53.8509C37.205 53.8509 37.1429 53.8509 37.0187 53.8509C36.9565 53.8509 36.9565 53.8509 36.9565 53.8509C36.9565 53.8509 36.9565 53.7888 37.0187 53.7888C37.0187 53.7888 37.0186 53.7888 37.0808 53.7888C37.2671 53.7267 37.5155 53.6646 37.764 53.6025L38.0745 53.4782C38.1367 53.4782 38.1367 53.4782 38.1367 53.4782C38.1367 53.4782 38.1367 53.5404 38.0745 53.5404C38.0124 53.5404 37.9503 53.6025 37.8882 53.6646C37.8261 53.7267 37.8261 53.7888 37.8261 53.7888C37.8261 53.7888 37.8261 53.913 37.8882 54.0372L38.1367 54.9068L38.323 55.4037C38.3851 55.5279 38.3851 55.6522 38.4472 55.6522C38.5093 55.6522 38.5093 55.7143 38.5715 55.7143C38.6336 55.7143 38.6957 55.7143 38.8199 55.7143C38.8199 55.7143 38.9441 55.6522 39.1305 55.59C39.2547 55.5279 39.3789 55.4037 39.5031 55.2174C39.6274 55.031 39.6273 54.9068 39.6273 54.7826C39.6273 54.7205 39.6273 54.7205 39.6895 54.7205C39.6895 54.7205 39.7516 54.7205 39.7516 54.7826C39.7516 54.8447 39.8137 54.9689 39.8137 55.1553C39.7516 55.3416 39.8137 55.4658 39.8137 55.4658Z" fill="#868686"/>
<path d="M42.9192 51.3664C42.9192 51.3043 42.9192 51.3043 42.9192 51.2422V51.1801C42.9192 51.1801 42.9192 51.1801 42.9813 51.1801C42.9813 51.2422 43.0434 51.3043 43.1677 51.3664L43.354 51.677V51.7391C43.354 51.7391 43.354 51.7391 43.2919 51.7391C43.1676 51.6149 42.9813 51.5528 42.8571 51.5528C42.6708 51.5528 42.5465 51.5528 42.4223 51.6149C42.2981 51.677 42.236 51.8012 42.1739 51.9254C42.1739 52.0497 42.1739 52.1739 42.236 52.236C42.2981 52.3602 42.3602 52.4223 42.4844 52.4223C42.6086 52.4223 42.795 52.4224 43.0434 52.3602C43.2298 52.2981 43.4161 52.2981 43.4782 52.2981C43.6024 52.2981 43.7267 52.2981 43.7888 52.3602C43.913 52.4224 43.9751 52.4845 44.0372 52.6087C44.1614 52.795 44.1614 52.9813 44.0993 53.1677C44.0372 53.354 43.913 53.5403 43.7267 53.6646C43.5403 53.7888 43.354 53.8509 43.0434 53.7888C43.0434 53.8509 43.0434 53.913 43.0434 53.913C43.0434 53.9751 43.0434 53.9751 43.0434 53.9751C43.0434 53.9751 42.9813 53.9751 42.9813 53.913C42.9192 53.8509 42.795 53.6646 42.5465 53.2919C42.5465 53.2919 42.5465 53.2919 42.5465 53.2298H42.6087C43.0434 53.5404 43.354 53.6025 43.6645 53.4782C43.7888 53.4161 43.913 53.2919 43.913 53.1677C43.9751 53.0435 43.913 52.9192 43.8509 52.795C43.7888 52.7329 43.7267 52.6708 43.6645 52.6087C43.6024 52.5466 43.4782 52.5466 43.4161 52.5466C43.2919 52.5466 43.1676 52.5466 42.9813 52.6087C42.7329 52.6708 42.5465 52.6708 42.4844 52.6708C42.4223 52.6708 42.2981 52.6087 42.236 52.5466C42.1739 52.4845 42.1117 52.4224 42.0496 52.3602C41.9875 52.236 41.9875 52.0497 42.0496 51.8633C42.1117 51.677 42.236 51.5528 42.4223 51.4286C42.4844 51.3665 42.5465 51.3664 42.6708 51.3043C42.7329 51.3664 42.8571 51.3664 42.9192 51.3664Z" fill="#868686"/>
<path d="M45.7764 49.2546C45.9006 49.3168 46.0248 49.5031 46.2112 49.6273C46.2112 49.6273 46.2112 49.6273 46.1491 49.6273C46.0248 49.5652 45.8385 49.5652 45.7764 49.5031C45.7143 49.441 45.5901 49.5031 45.4658 49.5031C45.4037 49.5031 45.2795 49.6273 45.0932 49.6894C44.969 49.8136 44.8447 49.8758 44.7826 50V50.0621C44.7826 50.0621 44.7826 50.0621 44.7826 50.1242C44.8447 50.1863 44.9689 50.4348 45.2795 50.8074C45.2795 50.8074 45.2795 50.8695 45.3416 50.8695C45.4037 50.8074 45.4658 50.8074 45.5279 50.7453C45.6522 50.6211 45.7143 50.559 45.7764 50.4969C45.8385 50.4348 45.7764 50.3105 45.7143 50.1242V50.0621H45.7764L45.8385 50.1242C45.9006 50.1863 45.9627 50.3105 46.0249 50.3727C46.1491 50.4969 46.2112 50.6211 46.3354 50.7453C46.3354 50.8074 46.3354 50.8074 46.3354 50.8074H46.2733C46.1491 50.6832 46.0248 50.6832 45.9627 50.6832C45.8385 50.6832 45.7143 50.7453 45.4658 50.9317C45.5279 50.9938 45.5901 51.118 45.7143 51.3043C45.9006 51.4907 45.9627 51.6149 46.0249 51.677C46.087 51.7391 46.1491 51.7391 46.2112 51.7391C46.2733 51.7391 46.3975 51.677 46.5217 51.5528C46.8944 51.2422 47.0808 50.9316 46.9565 50.559C46.9565 50.4969 46.9565 50.4969 46.9565 50.4969H47.0186C47.0186 50.4969 47.0186 50.4969 47.0186 50.559C47.0186 50.559 47.0807 50.6832 47.1429 50.8074C47.1429 50.8074 47.205 50.9317 47.2671 51.0559L46.646 51.5528C46.5839 51.6149 46.3975 51.7391 46.2733 51.8633C46.087 51.9876 45.9627 52.1118 45.7764 52.1739C45.6522 52.2981 45.5901 52.2981 45.5901 52.2981V52.236C45.7143 52.1739 45.7764 52.0497 45.7143 51.9876C45.7143 51.9254 45.5901 51.7391 45.4658 51.5528L45.2795 51.3043L45.0932 50.9938C45.0311 50.9317 44.9689 50.8074 44.8447 50.6832C44.7205 50.559 44.6584 50.4348 44.5963 50.4348C44.5963 50.4348 44.5342 50.4348 44.4721 50.3727C44.4099 50.3727 44.3478 50.3727 44.2236 50.4348H44.1615C44.1615 50.4348 44.1615 50.3727 44.2236 50.3727L44.5342 50.1863C44.6584 50.1242 44.9068 49.9379 45.3416 49.5652C45.5901 49.3168 45.7143 49.2546 45.7764 49.2546Z" fill="#868686"/>
<path d="M48.6336 48.1366C48.8199 48.0745 48.9441 48.0124 49.0683 48.0745C49.1926 48.1366 49.3168 48.1366 49.441 48.2609C49.6274 48.3851 49.7516 48.4472 49.8758 48.4472C50 48.4472 50.0621 48.3851 50.1864 48.323H50.2485V48.3851C50 48.6335 49.8758 48.7578 49.7516 48.8199C49.6895 48.882 49.5652 48.8199 49.3789 48.6956C49.1926 48.5714 49.0683 48.4472 48.9441 48.4472C48.8199 48.3851 48.7578 48.3851 48.6336 48.3851C48.5093 48.3851 48.4472 48.4472 48.323 48.5714C48.2609 48.6335 48.2609 48.6956 48.1988 48.7578C48.2609 48.8199 48.323 48.882 48.3851 48.9441C48.6336 49.1925 48.7578 49.3168 48.8199 49.3789C48.882 49.441 48.9441 49.441 49.0062 49.441C49.0683 49.441 49.1304 49.3789 49.1926 49.3168C49.2547 49.3168 49.2547 49.2546 49.2547 49.3168C49.2547 49.3168 49.2547 49.3789 49.1926 49.3789L48.5714 50.0621C48.5093 50.1242 48.5093 50.1242 48.5093 50.1242V50.0621C48.5715 50 48.6336 49.9379 48.6336 49.8758C48.6336 49.8137 48.6336 49.7515 48.5714 49.6894C48.5714 49.6273 48.4472 49.5652 48.3851 49.441L48.1367 49.1925L47.7019 48.7578C47.5155 48.5714 47.3292 48.4472 47.2671 48.3851C47.205 48.323 47.1429 48.323 47.0808 48.323C47.0186 48.323 46.9565 48.3851 46.8323 48.4472H46.7702C46.7702 48.4472 46.7702 48.3851 46.8323 48.3851L47.5777 47.5776C47.764 47.3913 48.0124 47.2671 48.1988 47.205C48.3851 47.1428 48.5093 47.2671 48.6336 47.3913C48.6957 47.4534 48.7578 47.5776 48.7578 47.6397C48.7578 47.764 48.7578 47.8261 48.7578 47.8882C48.7578 47.9503 48.6957 48.0124 48.6336 48.1366ZM48.0746 48.6335C48.2609 48.4472 48.3851 48.323 48.4472 48.1988C48.5093 48.0745 48.5093 47.9503 48.5093 47.8261C48.5093 47.7019 48.4472 47.5776 48.323 47.5155C48.1988 47.3913 48.0745 47.3913 47.9503 47.3292C47.8261 47.3292 47.6398 47.3913 47.5156 47.5155C47.4534 47.5776 47.3292 47.7019 47.2671 47.8261C47.5156 48.0745 47.7019 48.2609 47.8261 48.4472C47.9503 48.5093 48.0124 48.5714 48.0746 48.6335Z" fill="#868686"/>
<path d="M51.677 46.5838L51.6149 46.646C51.4286 46.5839 51.1801 46.5217 50.8074 46.3975L49.8758 46.1491C49.5652 46.087 49.3789 46.0248 49.3168 46.0248C49.2547 46.0248 49.1926 46.0248 49.1304 46.0248C49.0683 46.0248 49.0683 46.087 49.0062 46.1491H48.9441V46.087L49.5652 45.2795C49.6273 45.2174 49.6273 45.2174 49.6273 45.2174V45.2795C49.5031 45.4037 49.5031 45.5279 49.6273 45.5901C49.6273 45.5901 49.6894 45.6522 49.7516 45.6522C49.8137 45.7143 49.9379 45.7143 50 45.7764C50.1242 45.8385 50.3106 45.9006 50.6832 45.9627C50.9938 46.087 51.2422 46.1491 51.3044 46.1491L50.6832 45.1553C50.4969 44.8447 50.3727 44.7205 50.3106 44.6584C50.1863 44.5963 50.1242 44.5963 50 44.7205H49.9379C49.9379 44.7205 49.9379 44.6584 50 44.6584L50.3727 44.1615C50.4348 44.0994 50.4348 44.0994 50.4348 44.0994C50.4348 44.0994 50.4348 44.0994 50.4969 44.0994V44.1615C50.4348 44.2236 50.4348 44.3478 50.4348 44.4099C50.4348 44.472 50.4969 44.5342 50.4969 44.6584C50.559 44.7205 50.6832 45.0311 50.9938 45.4658C51.118 45.6522 51.3664 46.0248 51.677 46.5838Z" fill="#868686"/>
<path d="M51.0559 43.1056L51.2422 42.795L51.4907 42.3602C51.5528 42.2981 51.5528 42.2981 51.5528 42.2981C51.5528 42.2981 51.5528 42.2981 51.5528 42.3602C51.4907 42.4845 51.4907 42.6087 51.5528 42.6708C51.6149 42.7329 51.8633 42.9192 52.2981 43.1677C52.4844 43.2919 52.6708 43.354 52.8571 43.4782C53.0435 43.6025 53.2298 43.6646 53.2298 43.6646C53.2919 43.6646 53.2919 43.6646 53.354 43.6646C53.4161 43.6646 53.4782 43.6025 53.4782 43.5404C53.4782 43.5404 53.5403 43.4782 53.5403 43.5404C53.5403 43.5404 53.5403 43.5404 53.5403 43.6025L53.2919 43.9751L53.1056 44.3478C53.1056 44.4099 53.0435 44.4099 53.0435 44.4099V44.3478C53.1056 44.2236 53.1056 44.1615 53.0435 44.0994C52.9813 44.0372 52.795 43.913 52.4223 43.7267C52.1118 43.5403 51.8012 43.354 51.6149 43.2298C51.4286 43.1056 51.2422 43.0435 51.1801 43.0435C51.118 43.0435 51.0559 43.1056 50.9938 43.1677C51.0559 43.1677 51.0559 43.1677 51.0559 43.1056C50.9938 43.1677 50.9938 43.1677 51.0559 43.1056Z" fill="#868686"/>
<path d="M53.0435 39.5031C53.0435 39.441 52.9813 39.3788 52.9813 39.3167V39.2546H53.0435L53.6646 39.5031C53.7267 39.5031 53.7267 39.5031 53.7267 39.5652C53.7267 39.6273 53.7267 39.5652 53.7267 39.5652C53.7267 39.5652 53.6646 39.5652 53.6025 39.5652C53.4161 39.5652 53.1677 39.6273 53.0435 39.6894C52.8571 39.7515 52.7329 39.8757 52.6708 40.0621C52.6087 40.1863 52.6087 40.3726 52.6087 40.4969C52.6087 40.6211 52.7329 40.8074 52.8571 40.9316C52.9814 41.0559 53.1677 41.1801 53.354 41.2422C53.6646 41.3664 53.9751 41.4285 54.2857 41.3043C54.5963 41.2422 54.7826 41.0559 54.8447 40.8695C54.9068 40.7453 54.9068 40.559 54.9068 40.3726C54.9068 40.1863 54.7826 40.0621 54.7205 39.9379C54.7205 39.8757 54.6584 39.8757 54.7205 39.8757C54.7205 39.8757 54.7205 39.8757 54.7826 39.8757C54.8447 39.8757 54.8447 39.9379 54.9689 40.1242C55.0931 40.3105 55.0931 40.4347 55.0931 40.559C55.0931 40.7453 55.0931 40.8695 54.9689 41.0559C54.9068 41.2422 54.7826 41.4285 54.5963 41.5528C54.4099 41.677 54.2236 41.7391 54.0372 41.8012C53.8509 41.8012 53.6025 41.8012 53.354 41.677C53.1056 41.5528 52.9192 41.4285 52.795 41.2422C52.6708 41.0559 52.6087 40.8695 52.5466 40.6211C52.5466 40.3726 52.5466 40.1863 52.6708 40C52.7329 39.8757 52.795 39.8136 52.8571 39.6894C52.9192 39.5652 52.9813 39.6273 53.0435 39.5031Z" fill="#868686"/>
<path d="M54.0373 36.2733C54.1615 36.2733 54.3478 36.2733 54.6584 36.3354C54.4721 36.3975 54.3478 36.3975 54.2857 36.4596C54.2236 36.5217 54.0994 36.5838 54.0994 36.6459C54.0373 36.708 53.9752 36.8323 53.9131 37.0186C53.8509 37.2049 53.8509 37.3292 53.8509 37.4534C53.8509 37.4534 53.8509 37.4534 53.9131 37.5155C53.9131 37.5155 53.9131 37.5155 53.9752 37.5155C54.0373 37.5776 54.3478 37.6397 54.7205 37.7639H54.7826C54.7826 37.7018 54.8447 37.6397 54.8447 37.5776C54.9068 37.4534 54.9068 37.3292 54.8447 37.2049C54.8447 37.1428 54.7205 37.0186 54.5963 36.9565C54.5963 36.9565 54.5342 36.9565 54.5963 36.8944C54.5963 36.8944 54.5963 36.8944 54.6584 36.8944H54.7205C54.7826 36.9565 54.9069 36.9565 55.0311 37.0186C55.2174 37.0807 55.3416 37.0807 55.4659 37.1428C55.528 37.1428 55.528 37.1428 55.528 37.2049C55.528 37.2049 55.528 37.2049 55.4659 37.2049C55.3416 37.2049 55.2174 37.2049 55.0932 37.267C55.0311 37.3292 54.9068 37.5155 54.8447 37.7639C54.9068 37.7639 55.0932 37.8261 55.2795 37.8882C55.528 37.9503 55.7143 38.0124 55.7764 38.0124C55.8385 38.0124 55.9006 38.0124 55.9628 37.9503C56.0249 37.8882 56.087 37.7639 56.1491 37.6397C56.2733 37.2049 56.2112 36.8323 55.9628 36.5838C55.9006 36.5838 55.9006 36.5217 55.9006 36.5217C55.9006 36.5217 55.9006 36.5217 55.9628 36.5217C55.9628 36.5217 55.9627 36.5217 56.0249 36.5217C56.0249 36.5217 56.1491 36.5838 56.2733 36.6459C56.2733 36.6459 56.3975 36.7081 56.5218 36.7702L56.2733 37.5155C56.2112 37.6397 56.2112 37.764 56.1491 38.0124C56.087 38.1987 56.0249 38.3851 55.9628 38.5714C55.9006 38.7577 55.9006 38.8198 55.9006 38.8198C55.9006 38.8198 55.9006 38.8198 55.9006 38.7577C55.9628 38.6335 55.9006 38.5093 55.9006 38.4472C55.9006 38.3851 55.6522 38.323 55.4037 38.2608L55.0311 38.1366L54.6584 38.0124C54.5963 38.0124 54.4721 37.9503 54.2857 37.8882C54.0994 37.8261 53.9752 37.8261 53.9752 37.8261C53.9752 37.8261 53.9131 37.8261 53.8509 37.8882C53.7888 37.9503 53.7888 37.9503 53.7267 38.0745L53.6646 38.1366C53.6646 38.1366 53.6646 38.1366 53.6646 38.0745L53.7888 37.7018C53.851 37.5776 53.9131 37.2671 54.0994 36.7702C53.9752 36.4596 53.9752 36.2733 54.0373 36.2733Z" fill="#868686"/>
<path d="M12.795 28.6335H13.913V31.3043C13.913 32.0497 14.2236 32.6087 14.7826 32.9192C15.0311 33.1056 15.3416 33.1677 15.7764 33.1677H18.5093V34.2857H15.8385C15.0932 34.2857 14.5342 34.1615 14.0994 33.8509C13.9752 33.7888 13.7888 33.6646 13.5404 33.4161C13.2298 33.0435 13.0435 32.7329 12.9193 32.3602C12.795 32.1118 12.795 31.677 12.795 31.1801V28.6335Z" fill="#868686"/>
<path d="M24.8447 34.2857C23.913 34.2857 23.1677 33.913 22.5466 33.1677C22.4223 33.0434 22.3602 32.8571 22.2981 32.795C22.236 32.6708 22.1739 32.4844 22.1118 32.2981C22.0497 32.0496 21.9875 31.677 21.9875 31.2422V28.6956H23.1056V31.3664C23.1056 32.2981 23.5403 32.8571 24.3478 33.1677C24.5341 33.2298 24.7205 33.2298 24.8447 33.2298C24.9689 33.2298 25.1552 33.2298 25.3416 33.1677C26.149 32.8571 26.5838 32.236 26.5838 31.3664V28.6956H27.7018V31.2422C27.7018 31.677 27.6397 32.0496 27.5776 32.2981C27.5155 32.5465 27.4534 32.6708 27.3913 32.795C27.3292 32.9192 27.267 33.0434 27.1428 33.1677C26.4596 33.913 25.7143 34.2857 24.8447 34.2857Z" fill="#868686"/>
<path d="M31.118 28.6335H32.4223L34.0994 30.6211L35.7764 28.6335H37.0807L34.7205 31.4286L36.9565 34.2857H35.6522L33.9751 32.2981L32.2981 34.2857H30.9938L33.2298 31.4286L31.118 28.6335Z" fill="#868686"/>
<path d="M43.0434 28.5714C43.9751 28.5714 44.7205 28.9441 45.3416 29.6273C45.7143 30.1863 45.9627 30.7453 45.9627 31.3665V31.4286C45.9627 32.2981 45.59 33.0435 44.8447 33.6646C44.2857 34.0373 43.7267 34.2857 43.1056 34.2857H43.0434C42.1739 34.2857 41.4285 33.913 40.8074 33.2298C40.6211 32.9193 40.4348 32.6708 40.3726 32.4224C40.2484 32.1118 40.2484 31.8012 40.2484 31.4907V31.4286C40.2484 30.559 40.6211 29.8137 41.3043 29.2547C41.8012 28.9441 42.236 28.6957 42.6087 28.6957C42.7329 28.6335 42.8571 28.5714 43.0434 28.5714ZM41.3664 31.4286C41.3664 31.9255 41.5528 32.3603 41.9254 32.7329C42.2981 33.0435 42.6087 33.1677 42.9813 33.1677H43.1056C43.4161 33.1677 43.7267 33.0435 44.0372 32.8571C44.3478 32.6087 44.5962 32.2981 44.7205 31.9255C44.7826 31.8012 44.7826 31.677 44.7826 31.4286C44.7826 30.9317 44.5962 30.4969 44.2236 30.1242C43.8509 29.8137 43.4782 29.6273 43.0434 29.6273C42.5465 29.6273 42.1118 29.8137 41.7391 30.2485C41.5528 30.4348 41.4906 30.6211 41.4285 30.8075C41.3664 31.0559 41.3664 31.2422 41.3664 31.4286Z" fill="#868686"/>
<path d="M59.9379 29.9379C59.9379 33.8509 59.1925 37.764 57.7019 41.4286C56.2112 45.0311 53.9752 48.3851 51.2422 51.1801C48.4472 53.9751 45.1553 56.2112 41.5528 57.7019C37.9503 59.1925 34.0373 60 30.0621 60C26.1491 60 22.1739 59.2547 18.5714 57.764C14.9068 56.2733 11.6149 54.0373 8.81986 51.3043C6.02483 48.5093 3.78882 45.2174 2.29813 41.5528C0.807451 37.9503 0 33.9752 0 30.0621C0 26.1491 0.807451 22.1739 2.29813 18.5714C3.78882 14.9068 6.02483 11.6149 8.81986 8.81988C11.6149 6.02485 14.9689 3.78883 18.5714 2.29814C22.1739 0.807461 26.1491 0 30.0621 0C33.9752 0 37.8882 0.807461 41.5528 2.29814C45.1553 3.78883 48.5093 6.02485 51.2422 8.81988C54.0373 11.6149 56.2112 14.9068 57.7019 18.5714C59.1925 22.1118 59.9379 26.0248 59.9379 29.9379ZM59.9379 29.9379C59.9379 26.0248 59.1304 22.1118 57.6397 18.5093C56.1491 14.9068 53.913 11.6149 51.118 8.81988C48.323 6.08696 45.031 3.85093 41.4286 2.36025C37.8261 0.869567 33.913 0.124231 30 0.124231C26.0869 0.124231 22.1739 0.931683 18.5714 2.42237C14.9689 3.91305 11.677 6.14907 8.9441 8.88199C6.21118 11.677 3.97516 14.9689 2.48447 18.5714C0.993789 22.1739 0.248443 26.087 0.248443 29.9379C0.248443 33.8509 0.993789 37.7019 2.48447 41.3043C3.97516 44.9068 6.14906 48.1988 8.9441 50.9938C11.677 53.7267 15.0311 55.9627 18.6335 57.4534C22.236 58.9441 26.1491 59.7516 30.0621 59.7516C33.9752 59.7516 37.8882 59.0062 41.4907 57.5155C45.0932 56.0248 48.4472 53.7888 51.1801 51.0559C53.9752 48.2609 56.1491 44.9689 57.6397 41.3665C59.1925 37.764 59.9379 33.8509 59.9379 29.9379Z" fill="#868686"/>
<path d="M2.54656 36.708C5.09314 34.8447 6.64594 31.8012 6.77016 28.6956C6.77016 27.9503 6.70805 27.1428 6.52172 26.3975C6.33538 25.6521 5.96271 24.9068 5.34159 24.472C4.78258 24.0372 3.91302 23.913 3.22979 24.2857C2.91923 24.472 2.67078 24.7205 2.54656 25.0931C2.42233 25.4037 2.48444 25.7764 2.67078 26.149C3.04345 26.7701 3.7888 27.2049 4.47203 27.2049C5.21737 27.2049 5.9006 26.7701 6.4596 26.2733C7.01861 25.7764 7.51549 25.1552 7.88817 24.472C8.32295 23.8509 8.63351 23.1055 8.88196 22.3602C9.81364 19.441 9.50308 16.0248 7.70184 13.4161H7.88817C7.57761 14.0993 7.32916 14.9068 7.20494 15.6521C7.08072 16.3975 6.9565 17.2049 6.9565 17.9503C6.9565 18.7577 6.9565 19.5031 7.08072 20.3105C7.20494 21.118 7.39127 21.8633 7.57761 22.6087C7.32916 21.8633 7.14283 21.118 7.0186 20.3105C6.89438 19.5652 6.83228 18.7577 6.83228 17.9503C6.83228 17.1428 6.89438 16.3975 7.08072 15.59C7.20494 14.7826 7.45339 14.0372 7.76395 13.2919L7.82607 13.1677L7.95028 13.2919C9.75152 15.9006 10.1863 19.3788 9.25463 22.4223C9.00619 23.1677 8.69562 23.913 8.26084 24.5962C7.82606 25.2795 7.39128 25.9006 6.77016 26.4596C6.14904 26.9565 5.4037 27.3913 4.53413 27.4534C3.66457 27.4534 2.85712 26.9565 2.48445 26.2733C2.29812 25.9006 2.236 25.4658 2.36022 25.031C2.48444 24.5962 2.795 24.2857 3.16767 24.0993C3.91302 23.7267 4.8447 23.8509 5.52792 24.3478C6.21115 24.8447 6.58383 25.6521 6.77016 26.3975C6.9565 27.2049 7.01861 27.9503 6.9565 28.7577C6.89439 30.3726 6.4596 31.9254 5.71426 33.2919C4.90681 34.5962 3.8509 35.7764 2.54656 36.708Z" fill="#868686"/>
<path d="M13.2298 8.57142C13.6025 10.3106 13.5404 12.1739 13.0435 13.913C12.6087 15.6522 11.7391 17.3292 10.559 18.6956L10.3727 18.9441L10.3106 18.6335C9.75157 16.8323 9.81367 14.9068 10.3727 13.1677C10.9317 11.4907 11.9876 9.93788 13.2298 8.57142ZM13.2298 8.57142C12.0497 9.99999 11.118 11.5528 10.6211 13.2919C10.3727 14.1615 10.2485 15.0311 10.2485 15.9627C10.2485 16.8323 10.3727 17.764 10.6832 18.5714L10.4348 18.5093C11.6149 17.1428 12.4224 15.5279 12.9193 13.8509C13.354 12.1739 13.4783 10.3727 13.2298 8.57142Z" fill="#868686"/>
<path d="M18.5093 9.81365C19.6273 8.69564 21.0559 7.82607 22.6087 7.32918C24.1615 6.83228 25.8385 6.77017 27.4534 7.14284L27.7018 7.20495L27.5155 7.4534C26.4596 8.75774 24.9689 9.68943 23.354 10.0621C21.7391 10.3727 20.0621 10.2484 18.5093 9.81365ZM18.5093 9.81365C20.1242 10.1242 21.7391 10.1863 23.2919 9.75154C24.0372 9.56521 24.7826 9.25464 25.4658 8.75775C26.149 8.32297 26.708 7.76396 27.267 7.14284L27.3913 7.39129C25.8385 7.01862 24.2236 7.08073 22.7329 7.51551C21.118 8.01241 19.6894 8.75775 18.5093 9.81365Z" fill="#868686"/>
<path d="M18.3851 9.87577C18.5714 9.06832 18.882 8.26086 19.2546 7.45341C19.6273 6.70806 20.0621 5.96272 20.6211 5.27949C21.1801 4.59626 21.7391 3.97515 22.4223 3.47825C23.1056 2.91925 23.8509 2.48446 24.5963 2.1739L24.8447 2.04968L24.7826 2.29813C24.5341 3.91304 23.7888 5.46584 22.7329 6.64596C23.1677 5.96273 23.6025 5.2795 23.8509 4.53415C24.1615 3.78881 24.3478 3.04347 24.472 2.23602L24.6583 2.42236C23.913 2.79503 23.2298 3.2298 22.5466 3.7267C21.9254 4.22359 21.3043 4.84471 20.7453 5.46583C20.2484 6.08695 19.7515 6.77018 19.3167 7.51552C19.0062 8.26086 18.6335 9.06832 18.3851 9.87577Z" fill="#868686"/>
<path d="M15.3416 14.0372C16.4596 13.1677 17.3292 12.0497 17.764 10.7453C18.0124 10.1242 18.1366 9.44097 18.1987 8.75774C18.1987 8.07451 18.1366 7.39128 17.764 6.83227C17.4534 6.27326 16.8944 5.83849 16.2733 5.71426C15.6521 5.59004 14.9689 5.83848 14.5963 6.39749C14.2236 6.95649 14.1615 7.70184 14.5341 8.26084C14.9068 8.81985 15.59 9.19252 16.2733 9.0683C15.59 9.25463 14.7826 8.94408 14.3478 8.32296C13.913 7.70184 13.913 6.83227 14.3478 6.21115C14.5342 5.90059 14.8447 5.65215 15.2174 5.46581C15.59 5.34159 15.9627 5.27948 16.3354 5.34159C17.0807 5.46581 17.7019 5.96271 18.0745 6.64594C18.4472 7.32917 18.5714 8.07451 18.5093 8.75774C18.4472 9.50308 18.323 10.1863 18.0124 10.8695C17.5155 12.1739 16.5838 13.2919 15.3416 14.0372Z" fill="#868686"/>
<path d="M57.5155 36.646C56.2112 35.7764 55.1553 34.5342 54.3478 33.1677C53.6025 31.8012 53.1677 30.2484 53.0435 28.6335C53.0435 27.8261 53.0435 27.0186 53.2298 26.2733C53.4161 25.528 53.7888 24.7205 54.472 24.2236C55.1553 23.7267 56.087 23.6025 56.8323 23.9752C57.205 24.1615 57.5155 24.4721 57.6397 24.9068C57.764 25.3416 57.7019 25.7764 57.5155 26.1491C57.0807 26.8944 56.2733 27.3913 55.4658 27.3292C54.5963 27.3292 53.8509 26.8944 53.2298 26.3354C52.6087 25.7764 52.1118 25.1553 51.7391 24.4721C51.3043 23.7888 50.9938 23.0435 50.7453 22.2981C49.7515 19.2547 50.1863 15.7764 51.9876 13.1677L52.1118 13.0435L52.1739 13.1677C52.4845 13.913 52.7329 14.6584 52.8571 15.4658C52.9814 16.2733 53.1056 17.0186 53.1056 17.8261C53.1056 18.6335 53.0435 19.3789 52.9192 20.1863C52.795 20.9938 52.6087 21.7391 52.3602 22.4845C52.6087 21.7391 52.795 20.9938 52.8571 20.1863C52.9814 19.441 52.9814 18.6335 52.9814 17.8261C52.9814 17.0186 52.8571 16.2733 52.7329 15.5279C52.6087 14.7826 52.3602 13.9752 52.0497 13.2919H52.236C50.4969 15.9006 50.1242 19.2547 51.0559 22.236C51.3043 22.9814 51.6149 23.6646 52.0497 24.3478C52.4845 25.0311 52.9193 25.6522 53.4783 26.1491C54.0373 26.646 54.7205 27.0186 55.4658 27.0807C56.2112 27.1429 56.8944 26.7081 57.2671 26.0248C57.4534 25.7143 57.5155 25.3416 57.3913 24.969C57.2671 24.6584 57.0186 24.3478 56.7081 24.2236C56.0248 23.913 55.2174 23.9752 54.5963 24.4099C53.9751 24.8447 53.6646 25.5901 53.4161 26.3354C53.2298 27.0807 53.1677 27.8882 53.1677 28.6335C53.4161 31.7391 54.9689 34.7826 57.5155 36.646Z" fill="#868686"/>
<path d="M46.7701 8.57142C46.5217 10.3727 46.708 12.1739 47.1428 13.8509C47.6397 15.5279 48.4472 17.1428 49.6273 18.5093L49.3788 18.5714C49.6273 17.7019 49.8136 16.8323 49.8136 15.9006C49.8136 15.031 49.6894 14.0994 49.441 13.2298C48.882 11.5528 47.9503 9.99999 46.7701 8.57142ZM46.7701 8.57142C48.0124 9.87577 49.0683 11.4286 49.6273 13.2298C50.1863 14.9689 50.2484 16.8944 49.6894 18.6956L49.6273 19.0062L49.441 18.7578C48.2608 17.3913 47.3913 15.7143 46.9565 13.9751C46.5217 12.1739 46.4596 10.3106 46.7701 8.57142Z" fill="#868686"/>
<path d="M41.5528 9.81365C40.3105 8.75775 38.882 8.01241 37.3913 7.63973C35.8385 7.20495 34.2236 7.14284 32.7329 7.51551L32.8571 7.26707C33.354 7.88819 33.9751 8.44719 34.6584 8.88197C35.3416 9.31675 36.0869 9.62731 36.8323 9.81365C38.323 10.1863 39.9379 10.1242 41.5528 9.81365ZM41.5528 9.81365C40 10.3105 38.323 10.4348 36.7081 10.0621C35.0931 9.68943 33.6025 8.75775 32.5466 7.4534L32.3602 7.20495L32.6087 7.14284C34.2236 6.77017 35.9006 6.83228 37.4534 7.32918C39.0062 7.82607 40.4348 8.63352 41.5528 9.81365Z" fill="#868686"/>
<path d="M41.677 9.81366C41.4285 9.0062 41.0559 8.26086 40.6211 7.51552C40.2484 6.77018 39.7515 6.08695 39.1925 5.46583C38.6335 4.84471 38.0745 4.22359 37.3913 3.7267C36.7701 3.2298 36.0248 2.73292 35.2795 2.42236L35.4658 2.23602C35.59 3.04347 35.7764 3.78881 36.0869 4.53415C36.3975 5.2795 36.7702 5.96273 37.2049 6.64596C36.149 5.46584 35.4037 3.91304 35.1553 2.29813L35.0931 2.04968L35.3416 2.1739C36.149 2.54657 36.8323 2.98136 37.5155 3.47825C38.1987 4.03726 38.7577 4.65838 39.3167 5.27949C39.8757 5.96272 40.3105 6.70806 40.6832 7.45341C41.1801 8.19875 41.4907 9.0062 41.677 9.81366Z" fill="#868686"/>
<path d="M44.6584 14.0372C43.4782 13.2919 42.4845 12.1739 41.9876 10.8695C41.7391 10.1863 41.5528 9.50309 41.4907 8.75774C41.4285 8.0124 41.5528 7.26706 41.9254 6.64595C42.2981 6.02483 42.9192 5.52793 43.6646 5.3416C44.0372 5.27948 44.4099 5.27948 44.7826 5.46582C45.1553 5.59004 45.4037 5.9006 45.6522 6.21116C46.0869 6.83227 46.0869 7.70185 45.6522 8.32296C45.2174 8.88197 44.472 9.25464 43.7267 9.0683C44.4099 9.13041 45.1552 8.81985 45.4658 8.26085C45.8385 7.70184 45.7764 6.9565 45.4037 6.39749C45.031 5.83849 44.3478 5.59005 43.7267 5.71427C43.1056 5.83849 42.5466 6.27327 42.236 6.83227C41.9254 7.39128 41.8012 8.07451 41.8012 8.75774C41.8012 9.44097 41.9876 10.1242 42.236 10.7453C42.6708 12.0497 43.5403 13.1677 44.6584 14.0372Z" fill="#868686"/>
<path d="M30 1.80125C30.8075 1.80125 31.5528 2.1118 32.1118 2.67081C32.6708 3.22982 33.0435 3.97516 33.1056 4.78262C33.1056 5.59007 32.8571 6.39752 32.236 7.01864C31.677 7.63975 30.8075 7.95031 30 7.95031C29.1304 7.95031 28.323 7.57764 27.764 7.01864C27.205 6.39752 26.8944 5.59007 26.8944 4.78262C26.8944 3.97516 27.2671 3.1677 27.8261 2.67081C28.4472 2.04969 29.2547 1.73914 30 1.80125ZM30 1.80125C29.1925 1.80125 28.4472 2.1118 27.8882 2.67081C27.3292 3.22982 27.0808 4.03727 27.0808 4.78262C27.0808 5.52796 27.4534 6.2733 27.9503 6.77019C28.5093 7.26709 29.1925 7.57765 29.9379 7.57765C30.6832 7.57765 31.3665 7.26709 31.9255 6.77019C32.4845 6.2733 32.795 5.52796 32.795 4.78262C32.795 4.03727 32.5466 3.22982 31.9876 2.67081C31.5528 2.1118 30.8075 1.80125 30 1.80125Z" fill="#868686"/>
<path d="M15.7764 38.5093C15.8385 39.0683 15.9006 39.6894 15.9006 40.2484C15.9628 40.8075 15.9627 41.4286 15.9627 41.9876C15.9627 42.5466 15.9628 43.1677 15.9006 43.7267C15.9006 44.2857 15.8385 44.9068 15.7764 45.4658C15.7143 44.9068 15.6522 44.2857 15.6522 43.7267C15.5901 43.1677 15.5901 42.5466 15.5901 41.9876C15.5901 41.4286 15.5901 40.8075 15.6522 40.2484C15.6522 39.6273 15.7143 39.0683 15.7764 38.5093Z" fill="#868686"/>
<path d="M18.6336 38.5093C18.6957 39.3168 18.7578 40.1242 18.7578 40.9317C18.7578 41.7391 18.7578 42.5466 18.8199 43.354C18.8199 44.1615 18.8199 44.969 18.7578 45.7764C18.7578 46.5839 18.6957 47.3913 18.6336 48.1988C18.5714 47.3913 18.5093 46.5839 18.5093 45.7764C18.5093 44.969 18.5093 44.1615 18.4472 43.354C18.4472 42.5466 18.4472 41.7391 18.5093 40.9317C18.5093 40.1242 18.5714 39.3168 18.6336 38.5093Z" fill="#868686"/>
<path d="M21.4907 38.5093C21.5528 39.441 21.6149 40.3727 21.6149 41.3043C21.677 42.236 21.677 43.1677 21.677 44.0994C21.677 45.0311 21.677 45.9627 21.677 46.8944C21.677 47.8261 21.6149 48.7578 21.5528 49.6894C21.4907 48.7578 21.4286 47.8261 21.4286 46.8944C21.3665 45.9627 21.3665 45.0311 21.3665 44.0994C21.3665 43.1677 21.3665 42.236 21.3665 41.3043C21.3665 40.3727 21.4286 39.441 21.4907 38.5093Z" fill="#868686"/>
<path d="M24.3478 38.5093C24.4099 39.5031 24.4721 40.559 24.4721 41.5528C24.4721 42.5466 24.4721 43.6025 24.5342 44.5963C24.5342 45.5901 24.5342 46.646 24.4721 47.6398C24.4721 48.6335 24.4099 49.6894 24.3478 50.6832C24.2857 49.6894 24.2236 48.6335 24.2236 47.6398C24.2236 46.646 24.2236 45.5901 24.1615 44.5963C24.1615 43.6025 24.1615 42.5466 24.2236 41.5528C24.2236 40.4969 24.2857 39.5031 24.3478 38.5093Z" fill="#868686"/>
<path d="M27.205 38.5093C27.2671 39.5652 27.2671 40.6832 27.3292 41.7391C27.3292 42.795 27.3292 43.913 27.3292 44.9689C27.3292 46.0248 27.3292 47.1429 27.2671 48.1988C27.205 49.2547 27.205 50.3727 27.0808 51.4286C27.0187 50.3727 27.0187 49.2547 26.9565 48.1988C26.9565 47.1429 26.9565 46.0248 26.9565 44.9689C26.9565 43.913 26.9565 42.795 27.0187 41.7391C27.0808 40.6211 27.0808 39.5652 27.205 38.5093Z" fill="#868686"/>
<path d="M30.0621 38.5093C30.1242 39.5652 30.1864 40.6211 30.1864 41.6149C30.1864 42.6708 30.1863 43.7267 30.2484 44.7205C30.2484 45.7764 30.2485 46.8323 30.1864 47.8261C30.1864 48.882 30.1242 49.9379 30.0621 50.9317C30 49.8758 29.9379 48.8199 29.9379 47.8261C29.9379 46.7702 29.9379 45.7143 29.8758 44.7205C29.8758 43.6646 29.8758 42.6087 29.9379 41.6149C29.9379 40.559 29.9379 39.5031 30.0621 38.5093Z" fill="#868686"/>
<path d="M32.9193 38.5093C32.9814 39.5652 33.0435 40.6832 33.0435 41.7391C33.0435 42.795 33.0435 43.913 33.1056 44.9689C33.1056 46.0248 33.1056 47.1429 33.0435 48.1988C33.0435 49.2547 32.9814 50.3727 32.9193 51.4286C32.8571 50.3727 32.795 49.2547 32.795 48.1988C32.795 47.1429 32.795 46.0248 32.7329 44.9689C32.7329 43.913 32.7329 42.795 32.795 41.7391C32.795 40.6211 32.795 39.5652 32.9193 38.5093Z" fill="#868686"/>
<path d="M35.7143 38.5093C35.7764 39.5031 35.8385 40.559 35.8385 41.5528C35.8385 42.5466 35.8385 43.6025 35.9006 44.5963C35.9006 45.5901 35.9006 46.646 35.8385 47.6398C35.8385 48.6335 35.7764 49.6894 35.7143 50.6832C35.6522 49.6894 35.5901 48.6335 35.5901 47.6398C35.5901 46.646 35.5901 45.5901 35.528 44.5963C35.528 43.6025 35.528 42.5466 35.5901 41.5528C35.6522 40.4969 35.6522 39.5031 35.7143 38.5093Z" fill="#868686"/>
<path d="M38.5714 38.4472C38.6335 39.3167 38.6956 40.2484 38.6956 41.118C38.6956 41.9876 38.6956 42.9192 38.7577 43.7888C38.7577 44.6584 38.7577 45.59 38.6956 46.4596C38.6956 47.3292 38.6335 48.2608 38.5714 49.1304C38.5093 48.2608 38.4472 47.3292 38.4472 46.4596C38.4472 45.59 38.4472 44.6584 38.3851 43.7888C38.3851 42.9192 38.3851 41.9876 38.4472 41.118C38.5093 40.2484 38.5093 39.3789 38.5714 38.4472Z" fill="#868686"/>
<path d="M41.4286 38.4472C41.4907 39.1925 41.5528 39.9379 41.5528 40.6832C41.6149 41.4285 41.6149 42.1739 41.6149 42.9192C41.6149 43.6646 41.6149 44.4099 41.5528 45.1553C41.5528 45.9006 41.4907 46.6459 41.4286 47.3913C41.3665 46.6459 41.3044 45.9006 41.3044 45.1553C41.2423 44.4099 41.2422 43.6646 41.2422 42.9192C41.2422 42.1739 41.2423 41.4285 41.3044 40.6832C41.3665 40 41.3665 39.2546 41.4286 38.4472Z" fill="#868686"/>
<path d="M44.2857 38.4472C44.3478 39.0683 44.4099 39.6273 44.4099 40.2484C44.472 40.8695 44.472 41.4285 44.472 42.0497C44.472 42.6708 44.472 43.2298 44.4099 43.8509C44.4099 44.472 44.3478 45.031 44.2857 45.6521C44.2236 45.031 44.1615 44.472 44.1615 43.8509C44.0994 43.2298 44.0994 42.6708 44.0994 42.0497C44.0994 41.4285 44.0994 40.8695 44.1615 40.2484C44.2236 39.6894 44.2236 39.0683 44.2857 38.4472Z" fill="#868686"/>
<path d="M44.2857 23.2298C44.2236 22.6708 44.1615 22.0497 44.1615 21.4906C44.0994 20.9316 44.0994 20.3105 44.0994 19.7515C44.0994 19.1925 44.0994 18.5714 44.1615 18.0124C44.1615 17.4534 44.2236 16.8323 44.2857 16.2733C44.3478 16.8323 44.4099 17.4534 44.4099 18.0124C44.472 18.5714 44.472 19.1925 44.472 19.7515C44.472 20.3105 44.472 20.9316 44.4099 21.4906C44.4099 22.1118 44.3478 22.6708 44.2857 23.2298Z" fill="#868686"/>
<path d="M41.4286 23.2298C41.3665 22.4224 41.3044 21.6149 41.3044 20.8074C41.3044 20 41.3044 19.1925 41.2422 18.3851C41.2422 17.5776 41.2423 16.7702 41.3044 15.9627C41.3044 15.1553 41.3665 14.3478 41.4286 13.5404C41.4907 14.3478 41.5528 15.1553 41.5528 15.9627C41.5528 16.7702 41.5528 17.5776 41.6149 18.3851C41.6149 19.1925 41.6149 20 41.5528 20.8074C41.5528 21.6149 41.4907 22.4224 41.4286 23.2298Z" fill="#868686"/>
<path d="M38.5714 23.2298C38.5093 22.2981 38.4472 21.3664 38.4472 20.4348C38.3851 19.5031 38.3851 18.5714 38.3851 17.6397C38.3851 16.7081 38.3851 15.7764 38.3851 14.8447C38.3851 13.913 38.4472 12.9813 38.5093 12.0497C38.5714 12.9813 38.6335 13.913 38.6335 14.8447C38.6956 15.7764 38.6956 16.7081 38.6956 17.6397C38.6956 18.5714 38.6956 19.5031 38.6956 20.4348C38.6956 21.3664 38.6335 22.2981 38.5714 23.2298Z" fill="#868686"/>
<path d="M35.7143 23.2298C35.6522 22.236 35.5901 21.1801 35.5901 20.1863C35.5901 19.1925 35.5901 18.1366 35.528 17.1428C35.528 16.1491 35.528 15.0932 35.5901 14.0994C35.5901 13.1056 35.6522 12.0497 35.7143 11.0559C35.7764 12.0497 35.8385 13.1056 35.8385 14.0994C35.8385 15.0932 35.8385 16.1491 35.9006 17.1428C35.9006 18.1366 35.9006 19.1925 35.8385 20.1863C35.8385 21.2422 35.8385 22.236 35.7143 23.2298Z" fill="#868686"/>
<path d="M32.8571 23.2298C32.795 22.1739 32.795 21.0559 32.7329 20C32.7329 18.9441 32.7329 17.8261 32.7329 16.7702C32.7329 15.7143 32.7329 14.5963 32.795 13.5404C32.8571 12.4845 32.8571 11.3664 32.9814 10.3105C33.0435 11.3664 33.0435 12.4845 33.1056 13.5404C33.1056 14.5963 33.1056 15.7143 33.1056 16.7702C33.1056 17.8261 33.1056 18.9441 33.0435 20C32.9814 21.118 32.9814 22.1739 32.8571 23.2298Z" fill="#868686"/>
<path d="M30 23.2298C29.9379 22.1739 29.8758 21.118 29.8758 20.1242C29.8758 19.0683 29.8758 18.0124 29.8137 17.0186C29.8137 15.9627 29.8137 14.9068 29.8758 13.913C29.8758 12.8571 29.9379 11.8012 30 10.8074C30.0621 11.8633 30.1242 12.9192 30.1242 13.913C30.1242 14.9689 30.1242 16.0248 30.1863 17.0186C30.1863 18.0745 30.1863 19.1304 30.1242 20.1242C30.1242 21.1801 30.1242 22.236 30 23.2298Z" fill="#868686"/>
<path d="M27.2049 23.2298C27.1428 22.1739 27.0807 21.0559 27.0807 20C27.0807 18.9441 27.0807 17.8261 27.0186 16.7702C27.0186 15.7143 27.0186 14.5963 27.0807 13.5404C27.0807 12.4845 27.1428 11.3664 27.2049 10.3105C27.2671 11.3664 27.3292 12.4845 27.3292 13.5404C27.3292 14.5963 27.3292 15.7143 27.3913 16.7702C27.3913 17.8261 27.3913 18.9441 27.3292 20C27.2671 21.118 27.2671 22.1739 27.2049 23.2298Z" fill="#868686"/>
<path d="M24.3478 23.2919C24.2857 22.2981 24.2236 21.2422 24.2236 20.2484C24.2236 19.2546 24.2236 18.1987 24.1615 17.2049C24.1615 16.2112 24.1615 15.1553 24.2236 14.1615C24.2236 13.1677 24.2857 12.1118 24.3478 11.118C24.4099 12.1118 24.4721 13.1677 24.4721 14.1615C24.4721 15.1553 24.4721 16.2112 24.5342 17.2049C24.5342 18.1987 24.5342 19.2546 24.4721 20.2484C24.4099 21.2422 24.4099 22.236 24.3478 23.2919Z" fill="#868686"/>
<path d="M21.4907 23.2919C21.4286 22.4224 21.3664 21.4907 21.3664 20.6211C21.3664 19.7516 21.3664 18.8199 21.3043 17.9503C21.3043 17.0807 21.3043 16.1491 21.3664 15.2795C21.3664 14.4099 21.4286 13.4783 21.4907 12.6087C21.5528 13.4783 21.6149 14.4099 21.6149 15.2795C21.6149 16.1491 21.6149 17.0807 21.677 17.9503C21.677 18.8199 21.677 19.7516 21.6149 20.6211C21.5528 21.4907 21.5528 22.3602 21.4907 23.2919Z" fill="#868686"/>
<path d="M18.6336 23.2919C18.5714 22.5466 18.5093 21.8012 18.5093 21.0559C18.4472 20.3105 18.4472 19.5652 18.4472 18.8199C18.4472 18.0745 18.4472 17.3292 18.5093 16.5838C18.5093 15.8385 18.5714 15.0932 18.6336 14.3478C18.6957 15.0932 18.7578 15.8385 18.7578 16.5838C18.8199 17.3292 18.8199 18.0745 18.8199 18.8199C18.8199 19.5652 18.8199 20.3105 18.7578 21.0559C18.6957 21.7391 18.6957 22.4845 18.6336 23.2919Z" fill="#868686"/>
<path d="M15.7764 23.2919C15.7143 22.6708 15.6522 22.1118 15.6522 21.4907C15.5901 20.8695 15.5901 20.3105 15.5901 19.6894C15.5901 19.0683 15.5901 18.5093 15.6522 17.8882C15.6522 17.2671 15.7143 16.7081 15.7764 16.0869C15.8385 16.7081 15.9006 17.2671 15.9006 17.8882C15.9628 18.5093 15.9627 19.0683 15.9627 19.6894C15.9627 20.3105 15.9628 20.8695 15.9006 21.4907C15.8385 22.0497 15.8385 22.6708 15.7764 23.2919Z" fill="#868686"/>
<path d="M15.9627 19.6894L15.9006 16.1491H15.9627V19.6894Z" fill="#868686"/>
<path d="M15.9627 23.2919L15.9006 16.1491L15.9627 19.6894V23.2919Z" fill="#868686"/>
<line x1="11" y1="38.335" x2="49" y2="38.335" stroke="#868686" stroke-width="0.33"/>
<line x1="11" y1="23.335" x2="49" y2="23.335" stroke="#868686" stroke-width="0.33"/>
</svg>
