<svg width="80" height="60" viewBox="0 0 80 60" fill="none" xmlns="http://www.w3.org/2000/svg">
<g clip-path="url(#clip0_887_1809)">
<path d="M27.7686 8.71311C27.9103 7.72137 29.0437 6.87131 30.1771 7.2255C31.2397 7.50886 31.948 8.78394 31.4522 9.84652C31.0271 10.9091 29.8229 11.4758 28.6895 11.1924C27.6269 10.9091 26.8477 9.91736 26.5643 8.92562C26.3518 7.86305 26.6352 6.72963 27.2727 5.87958C27.9103 5.02952 28.8312 4.39197 29.8229 4.10862C30.8146 3.82527 31.8772 3.75443 32.9398 3.96694C33.9315 4.17946 34.9233 4.53365 35.8441 4.95868C33.9315 4.2503 31.8772 3.75443 29.8937 4.39197C28.9728 4.74616 28.0519 5.24203 27.5561 6.09209C26.9894 6.87131 26.706 7.93388 26.9185 8.85478C27.131 9.77568 27.8394 10.6257 28.7603 10.9091C29.6812 11.1924 30.7438 10.6966 31.098 9.84652C31.523 8.99646 30.9563 7.86305 30.0354 7.50886C29.1145 7.08383 27.9811 7.72137 27.7686 8.71311Z" fill="#868686"/>
<path d="M52.2078 8.71311C51.9953 7.72137 50.791 7.08382 49.8701 7.36718C48.9492 7.65053 48.3825 8.85478 48.8076 9.70484C49.2326 10.5549 50.2952 11.0508 51.1452 10.7674C52.0661 10.4841 52.7745 9.634 52.987 8.71311C53.1995 7.79221 52.9162 6.72963 52.3495 5.95041C51.7828 5.10035 50.9327 4.60449 50.0118 4.25029C48.17 3.68359 46.0449 4.10862 44.1322 4.817C45.0531 4.39197 46.0449 4.03778 47.0366 3.82527C48.0283 3.68359 49.0909 3.68359 50.1535 3.96694C51.1452 4.25029 52.137 4.88784 52.7037 5.7379C53.3412 6.58796 53.6246 7.72137 53.412 8.78394C53.1995 9.84652 52.3495 10.7674 51.2869 11.0508C50.2243 11.3341 48.9492 10.7674 48.5242 9.70484C48.0992 8.64227 48.8076 7.36718 49.7993 7.08383C50.9327 6.94215 52.0661 7.72137 52.2078 8.71311Z" fill="#868686"/>
<path d="M78.7721 15.1594C78.2763 14.2385 77.072 13.8843 76.2219 14.3802C75.3719 14.876 75.0885 16.1511 75.7261 16.8595C76.2928 17.5679 77.497 17.8512 78.2763 17.3554C79.1263 16.9303 79.6222 15.9386 79.6222 14.9469C79.6222 13.9551 79.1263 13.0342 78.4179 12.3967C77.7095 11.7592 76.7178 11.405 75.7261 11.2633C73.7426 11.0508 71.7591 11.9717 70.059 13.1051C70.8382 12.4675 71.7591 11.9008 72.68 11.4758C73.6009 11.0508 74.6635 10.8383 75.7261 10.9091C76.7887 10.9799 77.8512 11.3341 78.6304 12.0425C79.4097 12.7509 79.9764 13.7426 79.9764 14.876C79.9764 15.9386 79.4097 17.072 78.4179 17.5679C77.4262 18.0638 76.0803 17.8512 75.4427 16.9303C74.7343 16.0094 75.1594 14.5927 76.0803 14.0968C77.1428 13.6718 78.4179 14.2385 78.7721 15.1594Z" fill="#868686"/>
<path d="M1.20425 15.1594C1.55844 14.1677 2.90437 13.6718 3.8961 14.2385C4.817 14.7344 5.24203 16.1511 4.53365 17.072C3.8961 17.9929 2.55018 18.2763 1.55844 17.7096C0.566706 17.2137 0 16.1511 0 15.0177C0 13.9551 0.566706 12.8926 1.34593 12.1842C2.12515 11.4758 3.18772 11.0508 4.2503 11.0508C5.31287 10.9799 6.37544 11.1924 7.29634 11.6175C8.21724 12.0425 9.13814 12.6092 9.91736 13.2468C8.21724 12.1133 6.30461 11.1924 4.2503 11.405C3.25856 11.4758 2.26682 11.83 1.55844 12.5384C0.850059 13.1759 0.354191 14.0968 0.354191 15.0885C0.354191 16.0094 0.850059 17.0012 1.70012 17.497C2.55018 17.9929 3.68359 17.7096 4.2503 17.0012C4.88784 16.2928 4.53365 15.0177 3.75443 14.5218C2.90437 13.8843 1.62928 14.2385 1.20425 15.1594Z" fill="#868686"/>
<path d="M26.6352 11.405C26.6352 11.0508 26.4935 10.6966 26.2101 10.5549C25.9268 10.3424 25.5726 10.4132 25.2184 10.5549C24.9351 10.6966 24.6517 10.9091 24.51 11.1924C24.3683 11.4758 24.3683 11.83 24.4392 12.1133C24.6517 12.7509 25.2892 13.1051 25.9268 13.2468C26.5643 13.3884 27.2727 13.3884 27.9103 13.2468C29.2562 12.9634 30.3896 12.1842 31.4522 11.2633C32.4439 10.3424 33.4356 9.27981 34.6399 8.57143C35.2774 8.21724 35.9858 8.00472 36.6942 7.93388C37.4026 7.93388 38.1818 8.07556 38.7485 8.50059C39.3861 8.85478 39.8819 9.49233 40.0236 10.2007C40.2361 10.9091 40.0236 11.6883 39.5986 12.3259C39.1735 12.8926 38.536 13.3884 37.8276 13.5301C37.1192 13.6718 36.34 13.4593 35.7733 13.0342C35.49 12.8217 35.2774 12.5384 35.1358 12.1842C34.9941 11.83 35.0649 11.4758 35.2066 11.1216C35.3483 10.7674 35.6316 10.5549 35.9858 10.4132C36.34 10.2715 36.6942 10.2715 36.9776 10.4132C36.6234 10.2715 36.2692 10.2715 35.9858 10.4132C35.7025 10.5549 35.4191 10.8383 35.2774 11.1216C34.9232 11.7592 35.2774 12.4675 35.8441 12.8926C36.34 13.3176 37.0484 13.4593 37.7568 13.3176C38.3943 13.1759 38.961 12.7509 39.3152 12.1842C39.6694 11.6175 39.8111 10.9799 39.6694 10.3424C39.5277 9.70484 39.1027 9.20897 38.536 8.85478C37.9693 8.50059 37.3317 8.35891 36.6942 8.35891C36.0567 8.35891 35.4191 8.64227 34.7816 8.92562C33.5773 9.56316 32.6564 10.6257 31.5938 11.5466C30.5313 12.4675 29.327 13.2468 27.9103 13.5301C27.2019 13.6718 26.4935 13.6718 25.7851 13.5301C25.1476 13.3176 24.3683 12.9634 24.1558 12.1842C24.085 11.83 24.085 11.4758 24.2975 11.1216C24.4392 10.7674 24.7934 10.5549 25.0767 10.4132C25.4309 10.2715 25.7851 10.2715 26.1393 10.4841C26.4935 10.6257 26.6352 11.0508 26.6352 11.405Z" fill="#868686"/>
<path d="M53.4121 11.405C53.4121 11.0508 53.5537 10.6966 53.8371 10.4841C54.1204 10.2715 54.5455 10.2715 54.8997 10.4132C55.2538 10.5549 55.5372 10.7674 55.6789 11.1216C55.8206 11.4758 55.8914 11.83 55.8206 12.1842C55.608 12.9634 54.8997 13.3176 54.1913 13.5301C53.4829 13.7426 52.7745 13.7426 52.0661 13.5301C50.6494 13.2468 49.4451 12.4675 48.3825 11.5466C47.32 10.6257 46.3991 9.56316 45.1948 8.92562C44.6281 8.57143 43.9906 8.35891 43.2822 8.35891C42.6446 8.28808 41.9363 8.50059 41.4404 8.85478C40.8737 9.20897 40.4487 9.70484 40.307 10.3424C40.1653 10.9799 40.307 11.6175 40.6612 12.1842C41.0154 12.7509 41.5821 13.1759 42.2196 13.3176C42.8572 13.4593 43.5655 13.3176 44.1322 12.8926C44.6281 12.5384 44.9823 11.7592 44.6989 11.1216C44.5573 10.8383 44.2739 10.5549 43.9906 10.4132C43.7072 10.2715 43.2822 10.2715 42.9988 10.4132C43.2822 10.2715 43.7072 10.2715 43.9906 10.4132C44.3448 10.5549 44.6281 10.7674 44.7698 11.1216C44.9115 11.405 44.9823 11.83 44.8406 12.1842C44.6989 12.5384 44.4864 12.8217 44.2031 13.0342C43.6364 13.4593 42.8572 13.6718 42.1488 13.5301C41.4404 13.3884 40.8028 12.8926 40.3778 12.3259C39.9528 11.7592 39.7403 10.9799 39.9528 10.2007C40.1653 9.49233 40.6612 8.85478 41.2279 8.50059C41.8654 8.07556 42.5738 7.93388 43.2822 7.93388C43.9906 7.93388 44.6989 8.21724 45.3365 8.57143C46.6116 9.27981 47.5325 10.3424 48.5242 11.2633C49.5868 12.1842 50.7202 12.8926 52.0661 13.2468C52.7037 13.3884 53.4121 13.4593 54.0496 13.2468C54.6871 13.1051 55.3247 12.7509 55.5372 12.1133C55.608 11.83 55.608 11.4758 55.4664 11.1924C55.3247 10.9091 55.0413 10.6257 54.758 10.5549C54.4746 10.4132 54.0496 10.4132 53.7662 10.5549C53.5537 10.6966 53.4121 11.0508 53.4121 11.405Z" fill="#868686"/>
<path d="M58.2999 11.405C58.2999 11.0508 58.1582 10.6966 57.8749 10.5549C57.5915 10.3424 57.2373 10.4132 56.8831 10.5549C56.5998 10.6966 56.3164 10.9091 56.1748 11.1924C56.0331 11.4758 56.0331 11.83 56.1039 12.1133C56.3164 12.7509 56.954 13.1051 57.5915 13.2468C58.2291 13.3884 58.9374 13.3884 59.575 13.2468C60.9209 12.9634 62.0543 12.1842 63.1169 11.2633C64.1086 10.3424 65.1004 9.27981 66.3046 8.57143C66.9422 8.21724 67.6506 8.00472 68.3589 7.93388C69.0673 7.93388 69.8465 8.07556 70.4132 8.50059C71.0508 8.85478 71.5467 9.49233 71.6883 10.2007C71.9008 10.9091 71.6883 11.6883 71.2633 12.3259C70.8383 12.8926 70.2007 13.3884 69.4923 13.5301C68.784 13.6718 68.0047 13.4593 67.438 13.0342C67.1547 12.8217 66.9422 12.5384 66.8005 12.1842C66.6588 11.83 66.7297 11.4758 66.8713 11.1216C67.013 10.7674 67.2964 10.5549 67.6506 10.4132C68.0047 10.2715 68.3589 10.2715 68.6423 10.4132C68.2881 10.2715 67.9339 10.2715 67.6506 10.4132C67.3672 10.5549 67.0838 10.8383 66.9422 11.1216C66.588 11.7592 66.9422 12.4675 67.5089 12.8926C68.0047 13.3176 68.7131 13.4593 69.4215 13.3176C70.0591 13.1759 70.6258 12.7509 70.9799 12.1842C71.3341 11.6175 71.4758 10.9799 71.3341 10.3424C71.1925 9.70484 70.7674 9.20897 70.2007 8.85478C69.634 8.50059 68.9965 8.35891 68.3589 8.35891C67.7214 8.35891 67.0838 8.64227 66.4463 8.92562C65.2421 9.56316 64.3212 10.6257 63.2586 11.5466C62.196 12.4675 60.9918 13.2468 59.575 13.5301C58.8666 13.6718 58.1582 13.6718 57.4498 13.5301C56.8123 13.3176 56.0331 12.9634 55.8206 12.1842C55.7497 11.83 55.7497 11.4758 55.9622 11.1216C56.1039 10.7674 56.4581 10.5549 56.7415 10.4132C57.0957 10.2715 57.4498 10.2715 57.804 10.4841C58.1582 10.6257 58.2999 11.0508 58.2999 11.405Z" fill="#868686"/>
<path d="M21.7474 11.405C21.7474 11.0508 21.889 10.6966 22.1724 10.4841C22.4557 10.2715 22.8808 10.2715 23.235 10.4132C23.5892 10.5549 23.8725 10.7674 24.0142 11.1216C24.1559 11.4758 24.2267 11.83 24.1559 12.1842C23.9433 12.9634 23.235 13.3176 22.5266 13.5301C21.8182 13.7426 21.1098 13.7426 20.4014 13.5301C18.9847 13.2468 17.7804 12.4675 16.7178 11.5466C15.5844 10.6257 14.6635 9.56316 13.4593 8.92562C12.8926 8.57143 12.255 8.35891 11.5466 8.35891C10.9091 8.28808 10.2007 8.50059 9.70485 8.85478C9.13815 9.20897 8.71312 9.70484 8.57144 10.3424C8.42977 10.9799 8.57144 11.6175 8.92563 12.1842C9.27983 12.7509 9.84653 13.1759 10.4841 13.3176C11.1216 13.4593 11.83 13.3176 12.3967 12.8926C12.8926 12.5384 13.2468 11.7592 12.9634 11.1216C12.8217 10.8383 12.5384 10.5549 12.255 10.4132C11.9717 10.2715 11.5466 10.2715 11.2633 10.4132C11.5466 10.2715 11.9717 10.2715 12.255 10.4132C12.6092 10.5549 12.8926 10.7674 13.0343 11.1216C13.1759 11.405 13.2468 11.83 13.1051 12.1842C12.9634 12.5384 12.7509 12.8217 12.4675 13.0342C11.9008 13.4593 11.1216 13.6718 10.4132 13.5301C9.70485 13.3884 9.06731 12.8926 8.64228 12.3259C8.21725 11.7592 8.00474 10.9799 8.21725 10.2007C8.42977 9.49233 8.92563 8.85478 9.49234 8.50059C10.1299 8.07556 10.8383 7.93388 11.5466 7.93388C12.255 7.93388 12.9634 8.21724 13.601 8.57143C14.876 9.27981 15.7969 10.3424 16.7887 11.2633C17.8513 12.1842 18.9847 12.8926 20.3306 13.2468C20.9681 13.3884 21.6765 13.4593 22.3141 13.2468C22.9516 13.1051 23.5892 12.7509 23.8017 12.1133C23.8725 11.83 23.8725 11.4758 23.7308 11.1924C23.5892 10.9091 23.3058 10.6257 23.0224 10.5549C22.7391 10.4132 22.3141 10.4132 22.0307 10.5549C21.889 10.6966 21.7474 11.0508 21.7474 11.405Z" fill="#868686"/>
<path d="M70.5549 17.7804H9.42147C9.42147 21.1806 6.65878 23.9433 3.25854 23.9433V44.2031C6.65878 44.2031 9.42147 46.9658 9.42147 50.366H70.5549C70.5549 46.9658 73.3176 44.2031 76.7178 44.2031V23.9433C73.3176 23.9433 70.5549 21.1806 70.5549 17.7804ZM20.7556 43.2113H11.7591V27.1311H13.8134V41.5112H20.6848V43.2113H20.7556ZM42.4321 36.4817C42.4321 41.4404 39.8111 43.4238 36.34 43.4238C33.0106 43.4238 30.5313 41.5112 30.5313 36.5525V27.1311H32.6564V36.6234C32.6564 40.2361 34.2857 41.7237 36.4109 41.7237C38.8194 41.7237 40.307 40.1653 40.307 36.6234V27.1311H42.4321V36.4817V36.4817ZM63.1877 43.2113L61.1334 39.6694C60.2833 38.3235 59.7875 37.4026 59.2916 36.4817H59.2208C58.7957 37.4026 58.2999 38.2527 57.4498 39.6694L55.5372 43.2113H53.1287L58.0874 35.0649L53.3412 27.1311H55.7497L57.8748 30.8855C58.4415 31.9481 58.9374 32.7273 59.3624 33.5773H59.4333C59.8583 32.6564 60.2833 31.8772 60.9209 30.8855L63.1169 27.1311H65.5254L60.6375 34.9941L65.5962 43.2113H63.1877Z" fill="#868686"/>
<path d="M11.5466 59.9292L9.634 55.0413H10.3424L11.6175 58.5832C11.6883 58.8666 11.83 59.1499 11.9008 59.3625C11.9717 59.0791 12.0425 58.7957 12.1842 58.5832L13.5301 55.0413H14.1677L12.255 59.9292H11.5466Z" fill="#868686"/>
<path d="M16.5761 59.9292V55.0413H17.2137V59.9292H16.5761Z" fill="#868686"/>
<path d="M20.1181 59.9292V55.0413H21.9599C22.3141 55.0413 22.5266 55.0413 22.7391 55.1122C22.9516 55.183 23.1641 55.2538 23.3766 55.3247C23.5183 55.4664 23.66 55.608 23.8017 55.8205C23.8725 56.0331 23.9433 56.2456 23.9433 56.4581C23.9433 56.8831 23.8017 57.2373 23.5183 57.5207C23.235 57.804 22.7391 57.9457 22.1015 57.9457H20.8265V59.9292H20.1181V59.9292ZM20.7556 57.379H22.0307C22.4557 57.379 22.7391 57.3081 22.9516 57.1665C23.0933 57.0248 23.235 56.8123 23.235 56.5289C23.235 56.3164 23.1641 56.1747 23.0933 56.0331C23.0224 55.8914 22.8808 55.8205 22.6683 55.7497C22.5266 55.7497 22.3849 55.6789 22.0307 55.6789H20.7556V57.379V57.379Z" fill="#868686"/>
<path d="M29.6812 58.3707L30.3188 58.2999C30.3188 58.5124 30.3896 58.7249 30.5313 58.9374C30.6021 59.0791 30.8147 59.2208 31.0272 59.2916C31.2397 59.3625 31.523 59.4333 31.8064 59.4333C32.0897 59.4333 32.3023 59.3625 32.4439 59.2916C32.6564 59.2208 32.7981 59.1499 32.869 59.0083C32.9398 58.8666 33.0106 58.7249 33.0106 58.5832C33.0106 58.4416 32.9398 58.2999 32.869 58.1582C32.7981 58.0165 32.6564 57.9457 32.4439 57.8749C32.3023 57.804 32.0189 57.7332 31.5939 57.6623C31.1688 57.5915 30.8147 57.4498 30.673 57.379C30.4605 57.2373 30.2479 57.0956 30.1771 56.954C30.0354 56.7414 30.0354 56.5998 30.0354 56.3164C30.0354 56.0331 30.1063 55.8205 30.2479 55.608C30.3896 55.3955 30.6021 55.2538 30.8855 55.1122C31.1688 54.9705 31.4522 54.9705 31.8064 54.9705C32.1606 54.9705 32.5148 55.0413 32.7981 55.1122C33.0815 55.183 33.294 55.3955 33.4357 55.608C33.5773 55.8205 33.6482 56.1039 33.6482 56.3873L33.0106 56.4581C33.0106 56.1747 32.869 55.8914 32.6564 55.7497C32.4439 55.608 32.1606 55.5372 31.8064 55.5372C31.3814 55.5372 31.098 55.608 30.9563 55.7497C30.7438 55.8914 30.673 56.1039 30.673 56.2456C30.673 56.4581 30.7438 56.5998 30.8855 56.6706C31.0272 56.8123 31.3105 56.8831 31.8772 57.0248C32.3731 57.1665 32.7981 57.2373 32.9398 57.3082C33.2232 57.4498 33.4357 57.5915 33.5773 57.804C33.719 58.0165 33.7899 58.229 33.7899 58.5124C33.7899 58.7958 33.719 59.0083 33.5773 59.2208C33.4357 59.4333 33.2232 59.6458 32.9398 59.7875C32.6564 59.9292 32.3731 60 32.0189 60C31.5939 60 31.1688 59.9292 30.8855 59.7875C30.6021 59.6458 30.3188 59.4333 30.1771 59.2208C29.7521 58.9374 29.6812 58.6541 29.6812 58.3707Z" fill="#868686"/>
<path d="M36.1984 59.9292V55.0413H39.7403V55.608H36.8359V57.0956H39.5278V57.6623H36.8359V59.3625H39.882V59.9292H36.1984V59.9292Z" fill="#868686"/>
<path d="M42.503 59.9292V55.0413H44.6989C45.124 55.0413 45.4782 55.1122 45.6907 55.183C45.9032 55.2538 46.1157 55.3955 46.2574 55.6789C46.3991 55.8914 46.4699 56.1747 46.4699 56.3872C46.4699 56.7414 46.3282 57.0248 46.1157 57.2373C45.9032 57.4498 45.549 57.6623 45.0531 57.6623C45.1948 57.7332 45.3365 57.804 45.4782 57.8749C45.6907 58.0165 45.8324 58.2999 46.0449 58.5124L46.8949 59.8583H46.0449L45.4073 58.8666C45.1948 58.5832 45.0531 58.3707 44.9115 58.1582C44.7698 58.0165 44.6989 57.8749 44.5573 57.804C44.4864 57.7332 44.3448 57.7332 44.2739 57.6623C44.2031 57.6623 44.0614 57.6623 43.9197 57.6623H43.2113V59.8583H42.503V59.9292ZM43.2113 57.1665H44.6281C44.9115 57.1665 45.124 57.1665 45.3365 57.0956C45.4782 57.0248 45.6198 56.954 45.6907 56.8123C45.7615 56.6706 45.8324 56.5289 45.8324 56.3872C45.8324 56.1747 45.7615 55.9622 45.549 55.8205C45.4073 55.6789 45.124 55.608 44.7698 55.608H43.2113V57.1665Z" fill="#868686"/>
<path d="M50.5077 59.9292L48.595 55.0413H49.3034L50.5785 58.5832C50.6493 58.8666 50.791 59.1499 50.8619 59.3625C50.9327 59.0791 51.0035 58.7957 51.1452 58.5832L52.4911 55.0413H53.1287L51.2161 59.9292H50.5077Z" fill="#868686"/>
<path d="M55.4664 59.9292V55.0413H56.1039V59.9292H55.4664Z" fill="#868686"/>
<path d="M62.5502 58.229L63.1877 58.3707C63.046 58.9374 62.8335 59.2916 62.4793 59.575C62.1251 59.8583 61.7001 60 61.2042 60C60.7084 60 60.2125 59.8583 59.9292 59.6458C59.575 59.4333 59.3624 59.1499 59.1499 58.7249C59.0083 58.2999 58.8666 57.8749 58.8666 57.379C58.8666 56.8831 58.9374 56.3872 59.1499 56.0331C59.3624 55.6789 59.6458 55.3955 60 55.183C60.3542 54.9705 60.7792 54.8996 61.2042 54.8996C61.7001 54.8996 62.1251 55.0413 62.4793 55.2538C62.8335 55.5372 63.046 55.8914 63.1877 56.3164L62.5502 56.4581C62.4085 56.1039 62.2668 55.8205 62.0543 55.6789C61.8418 55.5372 61.5584 55.4664 61.2042 55.4664C60.8501 55.4664 60.4959 55.5372 60.2833 55.7497C60 55.9622 59.8583 56.1747 59.7166 56.4581C59.575 56.7414 59.5041 57.0956 59.5041 57.4498C59.5041 57.8749 59.575 58.229 59.7166 58.5124C59.8583 58.7957 60 59.0791 60.2833 59.2208C60.5667 59.3625 60.8501 59.4333 61.1334 59.4333C61.4876 59.4333 61.8418 59.3625 62.0543 59.1499C62.2668 58.9374 62.4085 58.5832 62.5502 58.229Z" fill="#868686"/>
<path d="M65.7379 59.9292V55.0413H69.2798V55.608H66.3755V57.0956H69.0673V57.6623H66.3755V59.3625H69.4215V59.9292H65.7379V59.9292Z" fill="#868686"/>
<path d="M38.8902 1.77096C38.8902 1.70012 38.8902 1.70012 38.8194 1.70012H38.4652C38.4652 1.62928 38.4652 1.62928 38.4652 1.62928H39.882V1.70012L39.3861 1.77096V6.3046H41.2987L41.4404 5.17119H41.5821L41.4404 6.37544H39.8111H38.3943V6.3046L38.7485 6.23377C38.8194 6.23377 38.8194 6.16293 38.8194 6.16293V1.77096H38.8902Z" fill="#868686"/>
<path d="M39.7402 52.4203L7.65052 52.4911H7.57968V52.4203C7.57968 51.4994 7.57968 50.5785 7.50885 49.7285C7.36717 48.8784 7.01298 48.0283 6.44627 47.3908C5.87957 46.7533 5.02951 46.2574 4.17945 46.1157C3.75442 46.0449 3.32939 46.0449 2.83352 46.0449H1.48759H1.34592V45.9032V22.1015V21.9599H1.48759H2.76268C3.18771 21.9599 3.61274 21.9599 4.03777 21.889C4.88783 21.6765 5.66705 21.2515 6.23376 20.6139C6.80046 20.0472 7.22549 19.268 7.36717 18.4179C7.43801 17.9929 7.43801 17.5679 7.43801 17.1429V15.8678V15.7261H7.57968L39.9528 15.6553L72.3258 15.7261H72.4675V15.8678V17.1429C72.4675 17.5679 72.4675 17.9929 72.5384 18.4179C72.68 19.268 73.1051 19.9764 73.6718 20.6139C74.2385 21.1806 75.0177 21.6057 75.8678 21.7473C76.2928 21.8182 76.7178 21.8182 77.1428 21.8182H78.4179H78.5596V21.9599V45.7615V45.9032H78.4179H77.072C76.647 45.9032 76.1511 45.9032 75.7261 45.974C74.876 46.1865 74.0968 46.6116 73.4593 47.2491C72.8926 47.8867 72.4675 48.7367 72.3967 49.5868C72.3258 50.4368 72.3967 51.3577 72.3258 52.2786V52.3495H72.255L40.2361 52.4203L72.3258 52.3495L72.255 52.4203C72.255 51.4994 72.1842 50.6494 72.255 49.7285C72.3967 48.8076 72.7509 47.9575 73.3884 47.2491C74.026 46.5407 74.876 46.1157 75.7261 45.9032C76.1511 45.8324 76.647 45.7615 77.072 45.8323H78.4179L78.2763 45.974V22.1724L78.4179 22.3141H77.1428C76.7178 22.3141 76.2928 22.314 75.7969 22.2432C74.9469 22.1015 74.0968 21.6057 73.4593 20.9681C72.8217 20.3306 72.3967 19.4805 72.1842 18.6305C72.1133 18.2054 72.1133 17.7096 72.1133 17.2845V16.0094L72.255 16.1511L39.8819 16.222L7.50885 16.1511L7.65052 16.0094V17.2845C7.65052 17.7096 7.65052 18.1346 7.57968 18.6305C7.43801 19.5514 6.94214 20.3306 6.30459 20.9681C5.66705 21.6057 4.81699 22.0307 3.96693 22.2432C3.5419 22.314 3.04603 22.3141 2.62101 22.3141H1.34592L1.48759 22.1724V45.974L1.34592 45.8323H2.69184C3.11687 45.8323 3.61274 45.8324 4.03777 45.9032C4.95867 46.1157 5.80873 46.6116 6.37543 47.2491C7.01298 47.9575 7.36717 48.8076 7.50885 49.7285C7.57968 50.6494 7.50885 51.5703 7.50885 52.4203L7.43801 52.3495L39.7402 52.4203Z" fill="#868686"/>
<path d="M40.0236 0C41.0862 0 42.2196 0.42503 42.9988 1.20425C43.778 1.98347 44.2739 3.04605 44.2739 4.17946C44.2739 5.31287 43.8489 6.44628 43.0697 7.2255C42.2904 8.00472 41.157 8.50059 40.0236 8.50059C38.8902 8.50059 37.7568 8.00472 36.9776 7.2255C36.1983 6.44628 35.7733 5.24203 35.7733 4.17946C35.7733 3.04605 36.2692 1.98347 37.0484 1.20425C37.8276 0.42503 38.8902 0 40.0236 0ZM40.0236 0C38.961 0 37.8276 0.495868 37.1192 1.27509C36.34 2.05431 35.9858 3.11688 35.9858 4.17946C35.9858 5.24203 36.4817 6.3046 37.2609 7.01299C38.0401 7.72137 39.0319 8.1464 40.0944 8.1464C41.157 8.1464 42.1488 7.72137 42.928 7.01299C43.7072 6.3046 44.1322 5.24203 44.2031 4.17946C44.2031 3.11688 43.8489 2.05431 43.0697 1.27509C42.1488 0.495868 41.0862 0 40.0236 0Z" fill="#868686"/>
</g>
<defs>
<clipPath id="clip0_887_1809">
<rect width="79.9764" height="60" fill="white"/>
</clipPath>
</defs>
</svg>
