<svg width="49" height="29" fill="none" xmlns="http://www.w3.org/2000/svg"><g clip-path="url(#clip0_997_40519)"><path d="M48.1 14.4c0 7.9-6.4 14.4-14.4 14.4-7.9 0-14.4-6.5-14.4-14.4C19.2 6.5 25.7 0 33.6 0c8.1 0 14.5 6.5 14.5 14.4z" fill="#FFB600"/><path d="M33.7 0c7.9 0 14.4 6.5 14.4 14.4s-6.4 14.4-14.4 14.4c-7.9 0-14.4-6.5-14.4-14.4" fill="#F7981D"/><path d="M33.7 0c7.9 0 14.4 6.5 14.4 14.4s-6.4 14.4-14.4 14.4" fill="#FF8500"/><path d="M14.3 0C6.4.1 0 6.5 0 14.4s6.4 14.4 14.4 14.4c3.7 0 7.1-1.5 9.7-3.7l1.5-1.5h-3c-.4-.5-.8-1-1.1-1.5h5.1c.3-.5.6-1 .8-1.5h-6.8c-.2-.5-.5-1-.6-1.5h8c.5-1.5.8-3 .8-4.6 0-1.1-.2-2.1-.3-3.1h-8.9c.1-.5.2-1 .4-1.5h7.9c-.2-.5-.4-1.1-.6-1.5h-6.7c.2-.5.5-1 .8-1.5h5.1c-.3-.5-.7-1.1-1.1-1.5h-2.8c.5-.5.9-1 1.5-1.5-2.5-2.4-6-3.7-9.7-3.7 0-.2 0-.2-.1-.2z" fill="#FF5050"/><path d="M0 14.4c0 7.9 6.4 14.4 14.4 14.4 3.7 0 7.1-1.5 9.7-3.7l1.5-1.5h-3c-.4-.5-.8-1-1.1-1.5h5.1c.3-.5.6-1 .8-1.5h-6.8c-.2-.5-.5-1-.6-1.5h8c.5-1.5.8-3 .8-4.6 0-1.1-.2-2.1-.3-3.1h-8.9c.1-.5.2-1 .4-1.5h7.9c-.2-.5-.4-1.1-.6-1.5h-6.7c.2-.5.5-1 .8-1.5h5.1c-.3-.5-.7-1.1-1.1-1.5h-2.8c.5-.5.9-1 1.5-1.5-2.5-2.4-6-3.7-9.7-3.7h-.1" fill="#E52836"/><path d="M14.4 28.9c3.7 0 7.1-1.5 9.7-3.7l1.5-1.5h-3c-.4-.5-.8-1-1.1-1.5h5.1c.3-.5.6-1 .8-1.5h-6.8c-.2-.5-.5-1-.6-1.5h8c.5-1.5.8-3 .8-4.6 0-1.1-.2-2.1-.3-3.1h-8.9c.1-.5.2-1 .4-1.5h7.9c-.2-.5-.4-1.1-.6-1.5h-6.7c.2-.5.5-1 .8-1.5h5.1c-.3-.5-.7-1.1-1.1-1.5h-2.8c.5-.5.9-1 1.5-1.5-2.5-2.4-6-3.7-9.7-3.7h-.1" fill="#CB2026"/><path d="M19.5 18.1l.2-1.3c-.1 0-.2.1-.4.1-.5 0-.6-.3-.5-.5l.5-2.7h.8l.2-1.5h-.8l.2-.9h-1.5s-.9 5-.9 5.6c0 .9.5 1.3 1.2 1.3.5.1.9 0 1-.1zm.6-2.4c0 2.1 1.5 2.7 2.7 2.7 1.1 0 1.6-.2 1.6-.2l.3-1.5s-.8.4-1.6.4c-1.7 0-1.4-1.2-1.4-1.2h3.1s.2-1 .2-1.4c0-1-.5-2.2-2.2-2.2-1.6-.2-2.7 1.4-2.7 3.4zm2.6-2.3c.8 0 .7 1 .7 1.1h-1.7c.1-.1.2-1.1 1-1.1zm9.7 4.7l.3-1.7s-.8.4-1.3.4c-1.1 0-1.5-.8-1.5-1.8 0-1.8.9-2.8 2-2.8.8 0 1.4.5 1.4.5l.2-1.6s-.9-.4-1.8-.4c-1.8 0-3.5 1.5-3.5 4.4 0 1.9.9 3.2 2.7 3.2.7 0 1.5-.2 1.5-.2zm-21.3-6c-1.1 0-1.8.3-1.8.3l-.2 1.3s.7-.3 1.7-.3c.5 0 1 .1 1 .5 0 .3-.1.4-.1.4H11c-1.3 0-2.7.5-2.7 2.3 0 1.4.9 1.7 1.5 1.7 1.1 0 1.5-.7 1.6-.7l-.1.6h1.4l.6-4.2c-.1-1.9-1.6-1.9-2.2-1.9zm.4 3.4c0 .2-.2 1.5-1.1 1.5-.5 0-.6-.4-.6-.6 0-.4.2-.9 1.4-.9h.3zm3.2 2.7c.4 0 2.3.1 2.3-2 0-1.9-1.8-1.5-1.8-2.3 0-.4.3-.5.8-.5.2 0 1.1.1 1.1.1l.2-1.4s-.5-.2-1.5-.2c-1.1 0-2.3.5-2.3 2 0 1.8 1.9 1.6 1.9 2.3 0 .5-.5.5-.9.5-.7 0-1.4-.2-1.4-.2l-.2 1.4c.1.2.5.3 1.8.3zm30.4-7.4l-.3 2.1s-.6-.8-1.5-.8c-1.4 0-2.6 1.7-2.6 3.7 0 1.2.6 2.5 1.9 2.5.9 0 1.5-.6 1.5-.6l-.1.5h1.5l1.1-7.3-1.5-.1zm-.7 4.1c0 .8-.4 1.9-1.2 1.9-.5 0-.8-.5-.8-1.2 0-1.2.5-2 1.2-2 .5 0 .8.4.8 1.3zM2.8 18.2l.9-5.5.2 5.5H5l2-5.5-.8 5.5h1.6L9 10.9H6.4l-1.5 4.5-.1-4.5H2.6l-1.2 7.3h1.4zm23.7 0c.5-2.5.5-4.6 1.6-4.2.2-1 .4-1.4.5-1.8h-.3c-.7 0-1.2.9-1.2.9l.2-.8h-1.5l-1 6 1.7-.1zm9.5-6.1c-1.1 0-1.8.3-1.8.3l-.2 1.3s.7-.3 1.7-.3c.5 0 1 .1 1 .5 0 .3-.1.4-.1.4h-.7c-1.3 0-2.7.5-2.7 2.3 0 1.4.9 1.7 1.5 1.7 1.1 0 1.5-.7 1.6-.7l-.3.6h1.4L38 14c.1-1.9-1.5-1.9-2-1.9zm.3 3.4c0 .2-.2 1.5-1.1 1.5-.5 0-.6-.4-.6-.6 0-.4.2-.9 1.4-.9h.3zm3 2.7c.5-2.5.5-4.6 1.6-4.2.2-1 .4-1.4.5-1.8h-.3c-.7 0-1.2.9-1.2.9l.2-.8h-1.5l-1 6 1.7-.1z" fill="#fff"/><path d="M17.2 17c0 .9.5 1.3 1.2 1.3.5 0 1-.2 1.1-.2l.2-1.3c-.1 0-.2.1-.4.1-.5 0-.6-.3-.5-.5l.5-2.7h.8l.2-1.5h-.8l.2-.9m1.1 4.4c0 2.1.7 2.7 1.9 2.7 1.1 0 1.6-.2 1.6-.2l.3-1.5s-.8.4-1.6.4c-1.7 0-1.4-1.2-1.4-1.2h3.1s.2-1 .2-1.4c0-1-.5-2.2-2.2-2.2-1.5-.2-1.9 1.4-1.9 3.4zm1.9-2.3c.8 0 1 1 1 1.1h-2c.1-.1.2-1.1 1-1.1zm9.7 4.7l.3-1.7s-.8.4-1.3.4c-1.1 0-1.5-.8-1.5-1.8 0-1.8.9-2.8 2-2.8.8 0 1.4.5 1.4.5l.2-1.6s-.9-.4-1.8-.4c-1.8 0-2.7 1.5-2.7 4.4 0 1.9.2 3.2 2 3.2.6 0 1.4-.2 1.4-.2zM9.1 13.7s.7-.3 1.7-.3c.5 0 1 .1 1 .5 0 .3-.1.4-.1.4H11c-1.3 0-2.7.5-2.7 2.3 0 1.4.9 1.7 1.5 1.7 1.1 0 1.5-.7 1.6-.7l-.1.6h1.4l.6-4.2c0-1.8-1.5-1.8-2.1-1.8m1 3.3c0 .2-.9 1.5-1.8 1.5-.5 0-.6-.4-.6-.6 0-.4.2-.9 1.4-.9h1zm.8 2.6s.5.2 1.8.2c.4 0 2.3.1 2.3-2 0-1.9-1.8-1.5-1.8-2.3 0-.4.3-.5.8-.5.2 0 1.1.1 1.1.1l.2-1.4s-.5-.2-1.5-.2c-1.1 0-1.5.5-1.5 2 0 1.8 1.1 1.6 1.1 2.3 0 .5-.5.5-.9.5m30.2-3.9s-.6-.8-1.5-.8c-1.4 0-1.8 1.7-1.8 3.7 0 1.2-.2 2.5 1.1 2.5.9 0 1.5-.6 1.5-.6l-.1.5h1.5l1.1-7.3m-1.9 4c0 .8-.7 1.9-1.5 1.9-.5 0-.8-.5-.8-1.2 0-1.2.5-2 1.2-2 .5 0 1.1.4 1.1 1.3zM2.8 18.2l.9-5.5.2 5.5H5l2-5.5-.8 5.5h1.6L9 10.9H7l-2.1 4.5-.1-4.5H4l-2.6 7.3h1.4zm22.1 0h1.6c.5-2.5.5-4.6 1.6-4.2.2-1 .4-1.4.5-1.8h-.3c-.7 0-1.2.9-1.2.9l.2-.8m6.6 1.4s.7-.3 1.7-.3c.5 0 1 .1 1 .5 0 .3-.1.4-.1.4h-.7c-1.3 0-2.7.5-2.7 2.3 0 1.4.9 1.7 1.5 1.7 1.1 0 1.5-.7 1.6-.7l-.2.6h1.4L38 14c0-1.8-1.5-1.8-2.1-1.8m1.1 3.3c0 .2-.9 1.5-1.8 1.5-.5 0-.6-.4-.6-.6 0-.4.2-.9 1.4-.9h1zm.7 2.7h1.6c.5-2.5.5-4.6 1.6-4.2.2-1 .4-1.4.5-1.8h-.3c-.7 0-1.2.9-1.2.9l.2-.8" fill="#DCE5E5"/></g><defs><clipPath id="clip0_997_40519"><path fill="#fff" d="M0 0h48.1v28.9H0z"/></clipPath></defs></svg>