<svg width="57" height="15" fill="none" xmlns="http://www.w3.org/2000/svg"><g clip-path="url(#clip0_998_40559)"><path d="M43.6 3.8h-3c-.2 0-.4.2-.4.4L38.8 12c0 .2.1.3.3.3h1.6c.2 0 .3-.1.3-.3l.4-2.2c0-.2.2-.4.4-.4h1c2.1 0 3.2-1 3.5-3 .2-.8 0-1.5-.4-2-.6-.4-1.4-.6-2.3-.6zm.3 2.9c-.2 1.1-1 1.1-1.8 1.1h-.5l.4-2.1c0-.1.1-.2.3-.2h.2c.5 0 1.1 0 1.3.4.1.1.1.4.1.8z" fill="#139AD6"/><path d="M21.6 3.8h-3c-.2 0-.4.2-.4.4L16.9 12c0 .2.1.3.3.3h1.4c.2 0 .4-.2.4-.4l.4-2.1c0-.2.2-.4.4-.4h1c2.1 0 3.2-1 3.5-3 .2-.8 0-1.5-.4-2-.5-.4-1.2-.6-2.3-.6zm.4 2.9c-.2 1.1-1 1.1-1.8 1.1h-.4l.4-2.1c0-.1.1-.2.3-.2h.2c.5 0 1.1 0 1.3.4 0 .1.1.4 0 .8zm8.9-.1h-1.4c-.1 0-.3.1-.3.2l-.1.4-.1-.1c-.4-.4-1-.6-1.7-.6-1.6 0-3 1.3-3.3 3-.2.9.1 1.7.5 2.2.4.5 1.1.7 1.9.7 1.3 0 2.1-.8 2.1-.8l-.1.4c0 .2.1.3.3.3H30c.2 0 .4-.2.4-.4l.8-5-.3-.3zm-2.1 2.9c-.2.8-.8 1.4-1.7 1.4-.4 0-.8-.2-1-.4-.2-.3-.3-.6-.3-1.1.1-.7.9-1.4 1.7-1.4.4 0 .7.2 1 .4.2.3.3.7.3 1.1z" fill="#263B80"/><path d="M52.7 6.6h-1.4c-.1 0-.3.1-.3.2l-.1.4-.1-.2c-.4-.4-1-.6-1.7-.6-1.6 0-3 1.3-3.3 3-.2.9.1 1.7.5 2.2.4.5 1.1.7 1.9.7 1.3 0 2.1-.8 2.1-.8l-.1.5c0 .2.1.3.3.3h1.3c.2 0 .4-.2.4-.4l.8-5c-.1-.1-.1-.3-.3-.3zm-2.1 2.9c-.2.8-.8 1.4-1.7 1.4-.4 0-.8-.2-1-.4-.2-.3-.3-.6-.3-1.1.2-.7.9-1.4 1.7-1.4.4 0 .7.2 1 .4.3.3.4.7.3 1.1z" fill="#139AD6"/><path d="M38.6 6.6h-1.5c-.2 0-.3.1-.4.2l-2 3-.8-2.8c-.1-.2-.2-.3-.4-.3H32c-.2 0-.3.2-.3.4l1.6 4.7-1.5 2.2c-.1.2 0 .4.2.4h1.4c.2 0 .3-.1.4-.2l4.9-7.1c.3-.2.1-.5-.1-.5z" fill="#263B80"/><path d="M54.4 4l-1.3 8c0 .2.1.3.3.3h1.3c.2 0 .4-.2.4-.4L56.4 4c0-.2-.1-.3-.3-.3h-1.4c-.1.1-.2.1-.3.3z" fill="#139AD6"/><path d="M10.3 1.1C9.7.4 8.5 0 6.9 0H2.4c-.3 0-.5.3-.6.5L0 12.3c0 .3.2.4.4.4h2.8l.7-4.4v.2c0-.3.3-.5.6-.5h1.3c2.6 0 4.6-1.1 5.2-4v-.3c-.1 0-.1 0 0 0 .1-1.2-.1-1.9-.7-2.6z" fill="#263B80"/><path d="M10.9 3.7V4c-.6 3-2.6 4-5.2 4H4.4c-.3 0-.6.2-.6.5L2.9 14c0 .2.1.4.4.4h2.3c.3 0 .5-.2.5-.4v-.1l.4-2.9v-.2c0-.3.3-.4.5-.4h.4c2.2 0 4-.9 4.5-3.6.2-1.1.1-2.1-.4-2.7-.1-.2-.3-.3-.6-.4z" fill="#139AD6"/><path d="M10.3 3.4c-.1 0-.2-.1-.3-.1-.1 0-.2 0-.3-.1-.3-.1-.7-.1-1.1-.1H5.1c-.1 0-.2 0-.3.1-.1.1-.2.3-.2.5l-.8 4.6v.2c.1-.3.4-.5.7-.5h1.3c2.6 0 4.6-1.1 5.2-4 0-.1 0-.2.1-.3-.2-.1-.3-.2-.4-.2-.3-.1-.3-.1-.4-.1z" fill="#232C65"/></g><defs><clipPath id="clip0_998_40559"><path fill="#fff" d="M0 0h56.3v14.4H0z"/></clipPath></defs></svg>