<svg width="13" height="17" fill="none" xmlns="http://www.w3.org/2000/svg"><path d="M6.906 0C3.433 0 0 2.316 0 6.063c0 2.384 1.34 3.738 2.153 3.738.335 0 .528-.935.528-1.199 0-.315-.802-.985-.802-2.295 0-2.722 2.072-4.652 4.753-4.652 2.306 0 4.012 1.31 4.012 3.718 0 1.797-.721 5.17-3.057 5.17-.843 0-1.564-.61-1.564-1.484 0-1.28.893-2.518.893-3.839 0-2.24-3.179-1.835-3.179.874 0 .568.072 1.198.325 1.716-.467 2.011-1.421 5.007-1.421 7.08 0 .639.091 1.269.152 1.908.115.13.058.116.234.051 1.706-2.336 1.645-2.793 2.417-5.85.416.792 1.493 1.219 2.346 1.219 3.595 0 5.21-3.504 5.21-6.663C13 2.194 10.095 0 6.906 0z" fill="#000"/></svg>