<svg width="48" height="34" fill="none" xmlns="http://www.w3.org/2000/svg"><g clip-path="url(#clip0_998_40548)"><path d="M48 30.3c0 1.6-1.3 2.8-2.8 2.8H2.8c-1.6 0-2.8-1.3-2.8-2.8V2.8C0 1.3 1.3 0 2.8 0h42.3C46.7 0 48 1.3 48 2.8v27.5z" fill="#fff"/><path d="M10.7 16.7l-1.1-5.4c-.2-.7-.8-1-1.5-1H2.9v.2c4 1.1 6.6 3.4 7.8 6.2z" fill="#F79F1A"/><path d="M22.6 10.4h-3.3l-2.1 12.3h3.3l2.1-12.3zm-9.9 12.3L18 10.5h-3.5l-3.3 8.3-.3-1.3c-.6-1.5-2.5-3.7-4.6-5.1l3 10.2 3.4.1zm19.4-4c0-1.4-.9-2.4-2.8-3.3-1.2-.6-1.9-.9-1.9-1.5 0-.5.6-1.1 1.9-1.1 1.1 0 1.9.2 2.5.5l.3.1.5-2.7c-.7-.2-1.7-.5-3-.5-3.3 0-5.6 1.7-5.6 4 0 1.8 1.7 2.7 2.9 3.3 1.3.6 1.7 1 1.7 1.5 0 .8-1 1.2-2 1.2-1.3 0-2-.2-3.1-.6l-.4-.2-.5 2.7c.8.3 2.2.6 3.7.6 3.5.2 5.8-1.5 5.8-4zm4 2.2h4.3c.1.4.4 1.8.4 1.8h3.1l-2.7-12.2h-2.6c-.8 0-1.4.2-1.7 1l-5 11.2h3.5s.6-1.5.7-1.8zm2.3-6s.3-.7.4-1.2l.2 1.1s.6 2.9.8 3.5H37c.4-.7 1.4-3.4 1.4-3.4zM45.2 0H2.8C1.3 0 0 1.3 0 2.8v2.9h48V2.8C48 1.3 46.7 0 45.2 0z" fill="#059BBF"/><path d="M45.2 33.1H2.8c-1.6 0-2.8-1.3-2.8-2.8v-2.9h48v2.9c0 1.5-1.3 2.8-2.8 2.8z" fill="#F79F1A"/><path opacity=".15" d="M2 30.3V2.8C2 1.3 3.3 0 4.9 0h-2C1.3 0 0 1.3 0 2.8v27.4C0 31.8 1.3 33 2.8 33h2c-1.5.1-2.8-1.2-2.8-2.7z" fill="#202121"/></g><defs><clipPath id="clip0_998_40548"><path fill="#fff" d="M0 0h48v33.1H0z"/></clipPath></defs></svg>