<svg width="210" height="35" fill="none" xmlns="http://www.w3.org/2000/svg"><g clip-path="url(#clip0_973_40509)"><path d="M0 34.4V.1h.5l16.2 19L32.8.1h.5v34.3h-5V16.8l.2-4.9c-1.1 1.7-2.1 3.1-3 4.1L17 26.3h-.6L7.8 16l-3-4.1c.2 2 .2 3.6.2 4.9v17.6H0zm90.8-10.5L98 34.4h-6.1l-6.1-8.9c-1.3.1-2.2.2-2.8.2h-3.2v8.7h-5.3V.4H83c4.7 0 8.3 1.1 10.8 3.4s3.8 5.4 3.8 9.3c0 5.2-2.3 8.8-6.8 10.8zm-11-2.8h3c6.3 0 9.4-2.7 9.4-8 0-5.4-3.1-8-9.4-8h-3v16z" fill="#1A1A1A"/><path d="M120.6 34.9c-4.9 0-9-1.6-12.4-4.9-3.4-3.3-5-7.5-5-12.5s1.7-9.1 5-12.4c3.4-3.3 7.5-4.9 12.4-4.9 6.1 0 10.6 2.2 13.6 6.7l-4 2.9c-2.1-3.3-5.3-4.9-9.5-4.9-3.5 0-6.4 1.2-8.6 3.6-2.3 2.4-3.4 5.4-3.4 9 0 3.6 1.1 6.6 3.4 9.1 2.3 2.4 5.1 3.6 8.6 3.6 4.3 0 7.6-1.8 10-5.3l4 2.8c-3.2 4.7-7.9 7.2-14.1 7.2zm20-.5V.4h5.3v15.3h16.3V.4h5.3v34h-5.3v-14h-16.3v14h-5.3zm51.1.5c-4.9 0-9.1-1.6-12.5-4.9-3.4-3.3-5.1-7.5-5.1-12.5s1.7-9.2 5.1-12.5c3.4-3.3 7.5-4.9 12.5-4.9 4.9 0 9 1.6 12.4 4.9 3.4 3.3 5.1 7.5 5.1 12.5s-1.7 9.2-5.1 12.5c-3.3 3.2-7.5 4.9-12.4 4.9zm-8.7-8.4c2.3 2.4 5.2 3.6 8.7 3.6 3.5 0 6.4-1.2 8.7-3.6 2.3-2.4 3.4-5.4 3.4-9.1 0-3.6-1.1-6.6-3.4-9.1-2.3-2.4-5.2-3.6-8.7-3.6-3.5 0-6.4 1.2-8.7 3.6-2.3 2.4-3.4 5.4-3.4 9.1 0 3.7 1.1 6.7 3.4 9.1z" fill="#FE3E57"/><path d="M54.1.1h-.6L38.9 34.4H44l9.7-24.9 9.8 24.9H69L54.1.1z" fill="#1A1A1A"/></g><defs><clipPath id="clip0_973_40509"><path fill="#fff" d="M0 0h209.2v34.9H0z"/></clipPath></defs></svg>