<svg width="600" height="549" fill="none" xmlns="http://www.w3.org/2000/svg"><g clip-path="url(#clip0_902_1572)"><path d="M283.411 309.526l-17.339-.215-.214 30.611-42.169-.215.214-30.61-63.361-.428.214-31.466 66.358-95.897 39.6.214-.642 95.683 17.339.214v32.109zm-59.508-32.323l.214-18.409c0-3.425.214-8.134.428-13.913.214-5.78.428-8.991.642-9.205h-1.284a153.833 153.833 0 01-8.348 15.626l-17.767 25.901h26.115z" fill="#A4C639"/><path opacity=".1" d="M265.858 309.311l17.339.215.214-31.895-17.339-.214.214-31.466c-1.926 1.712-3.853 3.425-5.565 5.565-10.275 12.416-16.697 32.537-18.837 60.578-.856 10.061-.856 19.265 0 27.613l23.76.215.214-30.611z" fill="#000"/><path d="M366.25 321.085c-2.14 27.827-8.348 47.948-18.837 60.363-10.274 12.202-25.258 17.553-44.523 16.055-18.837-1.499-32.537-9.419-41.099-23.547-8.562-14.341-11.773-34.891-9.633-61.648 2.141-28.041 8.349-48.376 18.837-60.578 10.275-12.415 25.259-17.766 44.524-16.268 18.837 1.498 32.537 9.418 41.099 23.76 8.562 14.128 11.773 34.891 9.632 61.863zm-71.494-5.566c-1.285 17.767-1.285 30.182.428 37.032 1.712 6.85 5.137 10.489 10.488 10.917 5.352.428 9.419-2.783 11.988-9.419 2.782-6.636 4.709-18.837 6.207-36.175 1.285-17.553 1.285-29.754-.428-37.032-1.712-7.278-5.137-10.917-10.489-11.345-5.351-.428-9.204 2.783-11.987 9.204-2.782 6.636-4.709 18.837-6.207 36.818z" fill="#F0C419"/><path opacity=".1" d="M356.618 259.008c-2.783-4.709-5.994-8.562-9.847-11.987l-17.552 34.035 3.853 31.252 33.821-4.281c.214-20.763-3.211-37.032-10.275-49.019z" fill="#000"/><path d="M462.362 289.832l-17.339 2.141 3.853 30.396-41.955 5.351-3.853-30.396-62.718 7.92-3.853-31.252 53.3-103.603 39.172-4.923 11.987 95.041 17.339-2.141 4.067 31.466zm-63.147-24.188l-2.355-18.195c-.428-3.425-.856-8.134-1.284-13.913-.428-5.78-.642-8.991-.642-9.205l-1.284.214c-1.713 5.78-3.853 11.345-6.422 16.482L373.1 269.069l26.115-3.425z" fill="#D36BC5"/><path d="M451.231 428.541H173.386l-32.323-219.836h350.838l-40.67 219.836zm-264.36-15.626h251.302l34.892-188.37H159.258l27.613 188.37z" fill="#DADADA"/><path d="M471.352 273.564H160.97v8.562h310.382v-8.562zm-12.629 82.198H174.028v8.562h284.695v-8.562z" fill="#DADADA"/><path d="M320.442 216.625h-8.562v204.21h8.562v-204.21zm-100.309-.519l-8.517.884 21.206 204.192 8.517-.884-21.206-204.192zm192.248.013l-25.117 204.166 8.498 1.045 25.117-204.165-8.498-1.046zm-267.893 13.563l-37.46-37.245H57.581V165.68h60.578l45.166 45.166-18.837 18.836z" fill="#DADADA"/><path d="M433.25 502.604H179.165c-27.827 0-50.517-22.69-50.517-50.517s22.69-50.517 50.517-50.517h1.07v26.757h-1.07c-13.057 0-23.76 10.703-23.76 23.76 0 13.057 10.703 23.76 23.76 23.76H433.25v26.757z" fill="#DADADA"/><path d="M89.261 192.437H41.1c-7.278 0-13.272-5.994-13.272-13.272 0-7.278 5.994-13.271 13.272-13.271h48.163c7.277 0 13.271 5.993 13.271 13.271 0 7.278-5.994 13.272-13.272 13.272z" fill="#E2413E"/><path d="M474.761 508.826c4.06-25.807-13.57-50.02-39.378-54.08-25.808-4.06-50.021 13.57-54.081 39.378-4.06 25.807 13.57 50.02 39.378 54.08 25.808 4.06 50.021-13.57 54.081-39.378z" fill="#28384F"/><path d="M451.518 505.135c2.034-12.964-6.826-25.122-19.79-27.156-12.963-2.034-25.121 6.826-27.155 19.79-2.034 12.964 6.826 25.122 19.79 27.156 12.963 2.034 25.121-6.827 27.155-19.79z" fill="#fff"/><path d="M226.267 509.142c4.214-25.784-13.272-50.103-39.057-54.317-25.784-4.214-50.103 13.272-54.317 39.056-4.214 25.785 13.272 50.103 39.056 54.317 25.785 4.215 50.103-13.271 54.318-39.056z" fill="#28384F"/><path d="M203.028 505.305c2.109-12.952-6.681-25.161-19.633-27.269-12.952-2.109-25.161 6.681-27.27 19.633-2.109 12.952 6.681 25.161 19.633 27.269 12.952 2.109 25.161-6.681 27.27-19.633z" fill="#fff"/><path d="M186.015 84.338c0 3.425-2.783 5.994-5.994 5.994-3.425 0-5.993-2.783-5.993-5.994 0-3.21 2.783-5.993 5.993-5.993 3.425 0 5.994 2.782 5.994 5.993z" fill="#F0C419"/><path d="M333.928 193.935a7.492 7.492 0 007.492-7.492 7.492 7.492 0 00-7.492-7.492 7.492 7.492 0 00-7.492 7.492 7.492 7.492 0 007.492 7.492z" fill="#33AEFF"/><path d="M530.646 156.903a5.994 5.994 0 10-.001-11.987 5.994 5.994 0 00.001 11.987z" fill="#A4C639"/><path d="M196.504 339.493a5.994 5.994 0 10-.001-11.987 5.994 5.994 0 00.001 11.987z" fill="#F0C419"/><path d="M331.573 12.415a5.993 5.993 0 10.001-11.987 5.993 5.993 0 00-.001 11.987z" fill="#D36BC5"/><path d="M580.093 261.363a5.994 5.994 0 10-.001-11.987 5.994 5.994 0 00.001 11.987z" fill="#E2413E"/><path d="M348.698 469.212a5.994 5.994 0 10-.001-11.987 5.994 5.994 0 00.001 11.987z" fill="#A4C639"/><path d="M19.907 121.584a5.993 5.993 0 100-11.987 5.993 5.993 0 000 11.987z" fill="#E2413E"/><path d="M96.968 232.037a8.13 8.13 0 01-8.135 8.134 8.13 8.13 0 01-8.134-8.134 8.13 8.13 0 018.134-8.134 8.13 8.13 0 018.135 8.134z" fill="#A4C639"/><path d="M372.03 41.955a3.837 3.837 0 01-3.853 3.853 3.837 3.837 0 01-3.853-3.853 3.837 3.837 0 013.853-3.853 3.837 3.837 0 013.853 3.853z" fill="#E2413E"/><path d="M174.028 197.788a3.853 3.853 0 100-7.706 3.853 3.853 0 000 7.706z" fill="#D36BC5"/><path d="M515.448 282.554c0 2.569-2.141 4.71-4.709 4.71-2.569 0-4.71-2.141-4.71-4.71 0-2.568 2.141-4.709 4.71-4.709 2.568 0 4.709 2.141 4.709 4.709z" fill="#33AEFF"/><path d="M268.213 452.943a4.709 4.709 0 100-9.418 4.71 4.71 0 100 9.418z" fill="#D36BC5"/><path d="M201.855 19.265h-2.783v-2.783c0-1.926-1.498-3.425-3.424-3.425-1.927 0-3.425 1.499-3.425 3.425v2.783h-2.783c-1.927 0-3.425 1.498-3.425 3.425 0 1.926 1.498 3.425 3.425 3.425h2.783v2.783c0 1.926 1.498 3.424 3.425 3.424 1.926 0 3.424-1.498 3.424-3.424v-2.783h2.783c1.927 0 3.425-1.498 3.425-3.425 0-1.927-1.498-3.425-3.425-3.425zm300.749 337.567h-2.782v-2.783c0-1.926-1.499-3.425-3.425-3.425-1.927 0-3.425 1.499-3.425 3.425v2.783h-2.783c-1.926 0-3.425 1.498-3.425 3.425 0 1.926 1.499 3.425 3.425 3.425h2.783v2.783c0 1.926 1.498 3.424 3.425 3.424 1.926 0 3.425-1.498 3.425-3.424v-2.783h2.782c1.927 0 3.425-1.499 3.425-3.425-.214-1.927-1.712-3.425-3.425-3.425zm9.633-275.919h-2.783v-2.782c0-1.927-1.498-3.425-3.425-3.425-1.926 0-3.425 1.498-3.425 3.425v2.782h-2.782c-1.927 0-3.425 1.499-3.425 3.425 0 1.927 1.498 3.425 3.425 3.425h2.782v2.783c0 1.926 1.499 3.425 3.425 3.425 1.927 0 3.425-1.499 3.425-3.425v-2.783h2.783c1.926 0 3.425-1.498 3.425-3.425 0-1.926-1.713-3.425-3.425-3.425zM117.945 305.672h-2.783v-2.782c0-1.927-1.498-3.425-3.425-3.425-1.926 0-3.425 1.498-3.425 3.425v2.782h-2.782c-1.927 0-3.425 1.499-3.425 3.425 0 1.927 1.498 3.425 3.425 3.425h2.782v2.783c0 1.927 1.499 3.425 3.425 3.425 1.927 0 3.425-1.498 3.425-3.425v-2.783h2.783c1.927 0 3.425-1.498 3.425-3.425 0-1.926-1.498-3.425-3.425-3.425z" fill="#28384F"/><path d="M111.737 116.661c-1.284 0-2.354-.428-3.425-1.071l-19.479-12.843c-2.996-1.926-3.853-5.993-1.926-8.99 1.926-2.997 5.993-3.853 8.99-1.927l19.479 12.844c2.997 1.926 3.853 5.993 1.927 8.99a6.73 6.73 0 01-5.566 2.997z" fill="#D36BC5"/><path d="M449.946 60.578c-1.284 0-2.568-.428-3.638-1.07-2.997-2.14-3.639-5.994-1.499-8.99L462.148 25.9c2.14-2.997 5.993-3.64 8.99-1.499s3.639 5.994 1.498 8.99L455.298 58.01c-1.284 1.713-3.425 2.569-5.352 2.569z" fill="#A4C639"/><path d="M566.607 192.865c-2.782 0-5.351-1.927-6.207-4.709-.857-3.425 1.07-6.85 4.495-7.921l27.185-7.277c3.425-.857 6.85 1.07 7.92 4.495.856 3.425-1.07 6.85-4.495 7.92l-27.399 7.278c-.429.214-1.071.214-1.499.214z" fill="#D36BC5"/><path d="M526.579 429.397c-1.285 0-2.569-.428-3.853-1.284l-22.048-16.054c-2.783-2.141-3.425-5.994-1.498-8.991 2.14-2.783 5.993-3.425 8.99-1.498l22.048 16.054c2.782 2.141 3.425 5.994 1.498 8.99-1.284 1.713-3.211 2.783-5.137 2.783z" fill="#A4C639"/><path d="M74.278 396.646c-1.927 0-4.068-.856-5.138-2.782-2.14-2.783-1.498-6.85 1.499-8.991l22.69-16.268c2.782-2.14 6.849-1.498 8.99 1.498 2.141 2.783 1.498 6.85-1.498 8.991l-22.69 16.268c-1.285 1.07-2.57 1.284-3.853 1.284zM278.701 48.377c-2.996 0-5.565-2.14-6.207-5.138l-7.706-35.533c-.642-3.425 1.498-6.85 4.923-7.706 3.425-.642 6.85 1.498 7.706 4.923l7.706 35.534c.642 3.425-1.498 6.85-4.923 7.706-.428.214-.856.214-1.499.214z" fill="#F0C419"/><path d="M6.422 277.417c-2.783 0-5.352-1.712-6.208-4.495-1.07-3.425.856-7.064 4.281-8.134l27.185-8.563c3.425-1.07 7.064.857 8.135 4.282 1.07 3.424-.857 7.063-4.282 8.134l-27.185 8.562c-.642 0-1.284.214-1.926.214z" fill="#A4C639"/><path d="M582.233 320.228c-.428 0-.856 0-1.284-.214l-24.188-4.709c-3.425-.642-5.78-4.067-5.138-7.492.642-3.425 4.067-5.779 7.492-5.137l24.189 4.709c3.425.642 5.779 4.067 5.137 7.492-.428 3.211-3.211 5.351-6.208 5.351z" fill="#F0C419"/><path d="M201.427 161.613c-6.208 1.498-11.345.856-15.626-1.713-4.281-2.569-7.064-6.85-8.348-12.843-1.499-6.208-1.071-11.559 1.498-15.626 2.355-4.067 6.636-6.85 12.415-8.135 5.566-1.284 10.275-.856 13.914 1.285 3.639 2.14 6.208 5.993 7.492 11.559l1.284 5.779-22.904 5.352c.642 2.14 1.713 3.425 3.425 4.281 1.713.856 3.853 1.07 6.208.428 2.354-.428 4.281-1.284 5.993-2.141 1.713-.856 3.639-2.14 5.566-3.638l2.14 9.204c-1.712 1.498-3.639 2.783-5.779 3.639-1.713 1.07-4.281 1.926-7.278 2.569zm-7.706-29.54c-1.498.428-2.569 1.07-3.425 2.354-.856 1.285-1.07 2.783-.856 4.924l11.131-2.569c-.428-1.712-1.285-3.211-2.569-3.853-1.07-1.07-2.569-1.284-4.281-.856zm74.278-37.674c1.07 0 2.14.214 3.21.642l.643.214-2.141 12.415c-1.07-.428-2.569-.642-4.495-.856-2.783-.214-4.923.214-6.422 1.499-1.498 1.284-2.14 2.996-2.354 5.565l-1.499 18.837-13.057-1.07 3.211-38.102 9.846.856 1.499 6.207h.642c1.284-1.926 2.996-3.424 4.923-4.495 1.926-1.498 3.853-1.926 5.994-1.712zm56.939 19.051c1.07-.214 2.14-.428 3.21-.428h.857l1.07 12.415c-1.07 0-2.569 0-4.495.428-2.783.428-4.71 1.499-5.78 2.997-1.07 1.498-1.284 3.425-.856 5.994l3.425 18.408-13.058 2.355-7.063-37.674 9.632-1.712 3.211 5.565.642-.214c.642-2.141 1.927-4.067 3.639-5.78 1.927-1.07 3.639-1.926 5.566-2.354zm134.641 3.639c1.07 0 2.141 0 3.211.214l.642.214-.856 12.415a14.23 14.23 0 00-4.495-.214c-2.783 0-4.924.856-6.208 2.141-1.284 1.284-1.926 3.211-1.712 5.779l.642 18.837-13.272.428-.856-38.53 9.847-.214 2.354 5.994h.642c1.071-2.141 2.569-3.639 4.496-5.138 1.712-1.284 3.639-1.926 5.565-1.926zm-56.297.642c-.642 8.776-2.568 14.984-5.779 18.837-3.211 3.853-7.92 5.565-13.914 5.137-5.78-.428-10.061-2.782-12.843-7.278-2.783-4.495-3.639-10.916-3.211-19.265.642-8.776 2.568-14.984 5.779-18.837 3.211-3.853 7.92-5.565 13.914-5.137 5.779.428 10.061 2.783 12.843 7.278 2.569 4.281 3.639 10.703 3.211 19.265zm-22.476-1.712c-.428 5.565-.428 9.418.214 11.559.642 2.14 1.713 3.21 3.211 3.425 1.713.214 2.997-.857 3.853-2.997.856-2.141 1.499-5.78 1.927-11.345.428-5.352.214-9.205-.214-11.559-.643-2.141-1.713-3.425-3.211-3.639-1.713-.214-2.783.856-3.639 2.997-1.07 2.14-1.713 5.993-2.141 11.559z" fill="#28384F"/></g><defs><clipPath id="clip0_902_1572"><path fill="#fff" d="M0 0h600v548.841H0z"/></clipPath></defs></svg>