<svg xmlns="http://www.w3.org/2000/svg" width="192" height="197"><path d="M182.95 55.11a2.065 2.065 0 102.08 2.07 2.078 2.078 0 00-2.08-2.07zm-13.91-14.33a2.353 2.353 0 00-2.05 1.93 3.313 3.313 0 00-.04.55 2.35 2.35 0 001.66 2.27 2.874 2.874 0 00.43.28c1.15 0 2.08-1.37 2.08-2.51s-.93-2.52-2.08-2.52zm6.95 7.44a2.065 2.065 0 102.09 2.07 2.085 2.085 0 00-2.09-2.07zm6.96 34.44a2.07 2.07 0 102.08 2.07 2.078 2.078 0 00-2.08-2.07zm0-13.77a2.065 2.065 0 102.08 2.06 2.07 2.07 0 00-2.08-2.06zm-13.91-.06a1.816 1.816 0 100 3.59 1.815 1.815 0 100-3.59zm20.86 20.72a2.07 2.07 0 102.09 2.07 2.076 2.076 0 00-2.09-2.07zm0-13.77a2.065 2.065 0 102.09 2.06 2.068 2.068 0 00-2.09-2.06zm-13.91 0a2.065 2.065 0 102.09 2.06 2.076 2.076 0 00-2.09-2.06zm6.96 34.44a2.065 2.065 0 102.08 2.07 2.072 2.072 0 00-2.08-2.07zm0-13.78a2.065 2.065 0 102.08 2.07 2.078 2.078 0 00-2.08-2.07zm-13.91-.29a2.161 2.161 0 000 4.32 2.162 2.162 0 000-4.32zm20.86 20.96a2.065 2.065 0 102.09 2.06 2.068 2.068 0 00-2.09-2.06zm0-13.78a2.065 2.065 0 102.09 2.07 2.07 2.07 0 00-2.09-2.07zm-13.91 0a2.065 2.065 0 102.09 2.07 2.078 2.078 0 00-2.09-2.07zm6.96 34.44a2.07 2.07 0 102.08 2.07 2.078 2.078 0 00-2.08-2.07zm0-13.78a2.07 2.07 0 102.08 2.07 2.078 2.078 0 00-2.08-2.07zm-13.91.21a1.82 1.82 0 100 3.6 1.819 1.819 0 100-3.6zm6.95 6.68a2.07 2.07 0 102.09 2.07 2.085 2.085 0 00-2.09-2.07zm-6.95 19.93a2.156 2.156 0 000 4.31 2.156 2.156 0 000-4.31zm-6.96-116.36a2.065 2.065 0 102.09 2.06 2.076 2.076 0 00-2.09-2.06zm-13.1-13.11a3.418 3.418 0 00-.81.35c-.87 0-1.61.01-1.92.75a.991.991 0 00-.17.55 1.719 1.719 0 00.17.75 2.021 2.021 0 001.92 1.2 2.226 2.226 0 00.81-.23 1.753 1.753 0 000-3.37zm20.06 37.9a2.065 2.065 0 10-2.09-2.06 2.068 2.068 0 002.09 2.06zM162.08 62a2.065 2.065 0 102.09 2.07 2.078 2.078 0 00-2.09-2.07zm13.91 4.13a2.065 2.065 0 10-2.09-2.06 2.076 2.076 0 002.09 2.06zm-13.91-17.91a2.065 2.065 0 102.09 2.07 2.085 2.085 0 00-2.09-2.07zm-13.1-.12a2.668 2.668 0 00-.81-.44 2.345 2.345 0 00-1.92 1.55 2.617 2.617 0 00-.17.94 1.5 1.5 0 00.17.69 1.981 1.981 0 001.92 1.15 2.025 2.025 0 00.81.02 2.14 2.14 0 000-3.91zm20.06 38.7a2.07 2.07 0 10-2.09-2.07 2.076 2.076 0 002.09 2.07zm-6.96 2.75a2.07 2.07 0 102.09 2.07 2.085 2.085 0 00-2.09-2.07zm13.91 4.14a2.07 2.07 0 10-2.09-2.07 2.085 2.085 0 002.09 2.07zm-13.91-17.91a2.065 2.065 0 102.09 2.06 2.076 2.076 0 00-2.09-2.06zm-13.1.17a1.98 1.98 0 00-.81-.15 2.048 2.048 0 00-1.92 1.25 1.911 1.911 0 00-.17.8 2.535 2.535 0 00.17.91 2.163 2.163 0 001.92 1.36 2.265 2.265 0 00.81-.26 2.142 2.142 0 001.27-1.96 2.118 2.118 0 00-1.27-1.95zm20.06 38.4a2.065 2.065 0 10-2.09-2.06 2.074 2.074 0 002.09 2.06zm-6.96 2.76a2.065 2.065 0 102.09 2.06 2.076 2.076 0 00-2.09-2.06zm13.91 4.13a2.065 2.065 0 10-2.09-2.07 2.085 2.085 0 002.09 2.07zm-13.91-17.91a2.065 2.065 0 102.09 2.07 2.078 2.078 0 00-2.09-2.07zm-13.1-.08a2.554 2.554 0 00-.81-.4 2.307 2.307 0 00-1.92 1.5 2.6 2.6 0 00-.17.93 1.622 1.622 0 00.17.72 2 2 0 001.92 1.17 2.193 2.193 0 00.81-.01 2.14 2.14 0 000-3.91zm20.06 38.66a2.07 2.07 0 10-2.09-2.07 2.076 2.076 0 002.09 2.07zm-6.96 2.75a2.065 2.065 0 102.09 2.07 2.085 2.085 0 00-2.09-2.07zm13.91 4.13a2.065 2.065 0 10-2.09-2.06 2.076 2.076 0 002.09 2.06zm-13.91-17.91a2.07 2.07 0 102.09 2.07 2.085 2.085 0 00-2.09-2.07zm-13.1.21a2.15 2.15 0 00-.81-.11 2.029 2.029 0 00-1.92 1.21 1.887 1.887 0 00-.17.78.561.561 0 00.17.4c.31.74 1.05.85 1.92.85a2.821 2.821 0 00.81.24 1.753 1.753 0 000-3.37zm13.1 27.35a2.065 2.065 0 102.09 2.06 2.076 2.076 0 00-2.09-2.06zm-13.1-.05a2.454 2.454 0 00-.81-.36 2.258 2.258 0 00-1.92 1.47 2.4 2.4 0 00-.17.9 1.719 1.719 0 00.17.75 2.029 2.029 0 001.92 1.21 1.971 1.971 0 00.81-.06 2.14 2.14 0 000-3.91zM134.26 6.89a2.07 2.07 0 102.08 2.07 2.078 2.078 0 00-2.08-2.07zm20.86 20.67a2.093 2.093 0 00-1.92 1.26 2.105 2.105 0 000 1.61 2.093 2.093 0 001.92 1.26 2.072 2.072 0 001.92-1.26 1.991 1.991 0 000-1.61 2.072 2.072 0 00-1.92-1.26zm-13.91 0a2.065 2.065 0 102.09 2.06 2.068 2.068 0 00-2.09-2.06zm-13.91 0a2.065 2.065 0 102.09 2.06 2.068 2.068 0 00-2.09-2.06zm13.91-13.78a2.074 2.074 0 00-2.04 1.65 1.931 1.931 0 00-.04.42 2.059 2.059 0 001.66 2.02 1.992 1.992 0 00.42.04 1.872 1.872 0 00.42-.04 2.068 2.068 0 001.67-2.02 1.931 1.931 0 00-.04-.42 2.094 2.094 0 00-2.05-1.65zm-13.91 0a2.074 2.074 0 00-2.04 1.65 1.931 1.931 0 00-.04.42 2.059 2.059 0 001.66 2.02 1.992 1.992 0 00.42.04 1.872 1.872 0 00.42-.04 2.068 2.068 0 001.67-2.02 1.931 1.931 0 00-.05-.42 2.074 2.074 0 00-2.04-1.65zm-13.91 0a2.074 2.074 0 00-2.04 1.65 1.931 1.931 0 00-.05.42 2.068 2.068 0 001.67 2.02 1.931 1.931 0 00.42.04 2.065 2.065 0 100-4.13zm20.87 20.67a2.065 2.065 0 102.08 2.06 2.07 2.07 0 00-2.08-2.06zm13.91 0a2.065 2.065 0 102.08 2.06 2.076 2.076 0 00-2.08-2.06zm-13.91-13.78a2.065 2.065 0 102.08 2.07 2.072 2.072 0 00-2.08-2.07zm-13.91 0a2.065 2.065 0 102.08 2.07 2.072 2.072 0 00-2.08-2.07zm34.77 34.44a2.093 2.093 0 00-1.92 1.26 2.105 2.105 0 000 1.61 2.093 2.093 0 001.92 1.26 2.072 2.072 0 001.92-1.26 1.991 1.991 0 000-1.61 2.072 2.072 0 00-1.92-1.26zm-13.91 0a2.065 2.065 0 102.09 2.07 2.076 2.076 0 00-2.09-2.07zm-13.91 0a2.065 2.065 0 102.09 2.07 2.076 2.076 0 00-2.09-2.07zm29.74-12.51a2.065 2.065 0 00-1.92-1.27 2.086 2.086 0 00-1.92 1.27 2.4 2.4 0 00-.12.38 1.992 1.992 0 00-.04.42 2.068 2.068 0 001.66 2.03 2.984 2.984 0 00.42.04 2.722 2.722 0 00.42-.04 2.069 2.069 0 001.5-1.23 1.945 1.945 0 00.17-.8 1.992 1.992 0 00-.04-.42 1.706 1.706 0 00-.13-.38zm-15.83-1.27a2.074 2.074 0 00-2.04 1.65 1.992 1.992 0 00-.04.42 2.079 2.079 0 001.66 2.03 2.984 2.984 0 00.42.04 2.722 2.722 0 00.42-.04 2.087 2.087 0 001.67-2.03 1.992 1.992 0 00-.04-.42 2.094 2.094 0 00-2.05-1.65zm-13.91 0a2.074 2.074 0 00-2.04 1.65 1.992 1.992 0 00-.04.42 2.079 2.079 0 001.66 2.03 2.984 2.984 0 00.42.04 2.722 2.722 0 00.42-.04 2.087 2.087 0 001.67-2.03 2.007 2.007 0 00-.05-.42 2.074 2.074 0 00-2.04-1.65zm-13.91 0a2.074 2.074 0 00-2.04 1.65 2.007 2.007 0 00-.05.42 2.087 2.087 0 001.67 2.03 2.848 2.848 0 00.42.04 2.07 2.07 0 100-4.14zM134.26 62a2.065 2.065 0 102.08 2.07 2.072 2.072 0 00-2.08-2.07zm13.91 0a2.065 2.065 0 102.08 2.07 2.078 2.078 0 00-2.08-2.07zm-13.91-13.78a2.065 2.065 0 102.08 2.07 2.078 2.078 0 00-2.08-2.07zm-13.91 0a2.065 2.065 0 102.08 2.07 2.078 2.078 0 00-2.08-2.07zm34.77 34.44a2.1 2.1 0 00-1.92 1.27 2.076 2.076 0 00-.16.8 2.166 2.166 0 00.16.81 2.093 2.093 0 001.92 1.26 2.072 2.072 0 001.92-1.26 1.992 1.992 0 00.17-.81 1.911 1.911 0 00-.17-.8 2.08 2.08 0 00-1.92-1.27zm-13.91 0a2.07 2.07 0 102.09 2.07 2.076 2.076 0 00-2.09-2.07zm-13.91 0a2.07 2.07 0 102.09 2.07 2.076 2.076 0 00-2.09-2.07zm27.82-13.77a2.093 2.093 0 00-1.92 1.26 2.105 2.105 0 000 1.61 2.093 2.093 0 001.92 1.26 2.072 2.072 0 001.92-1.26 1.991 1.991 0 000-1.61 2.072 2.072 0 00-1.92-1.26zm-13.91 0a2.065 2.065 0 102.09 2.06 2.068 2.068 0 00-2.09-2.06zm-13.91 0a2.065 2.065 0 102.09 2.06 2.068 2.068 0 00-2.09-2.06zm-13.91 0a2.065 2.065 0 100 4.13 2.065 2.065 0 100-4.13zm20.87 20.66a2.07 2.07 0 102.08 2.07 2.078 2.078 0 00-2.08-2.07zm13.91 0a2.07 2.07 0 102.08 2.07 2.085 2.085 0 00-2.08-2.07zm-13.91-13.77a2.065 2.065 0 102.08 2.06 2.07 2.07 0 00-2.08-2.06zm-13.91 0a2.065 2.065 0 102.08 2.06 2.07 2.07 0 00-2.08-2.06zm34.77 34.44a2.093 2.093 0 00-1.92 1.26 2.105 2.105 0 000 1.61 2.093 2.093 0 001.92 1.26 2.072 2.072 0 001.92-1.26 1.991 1.991 0 000-1.61 2.072 2.072 0 00-1.92-1.26zm-13.91 0a2.065 2.065 0 102.09 2.07 2.07 2.07 0 00-2.09-2.07zm-13.91 0a2.065 2.065 0 102.09 2.07 2.07 2.07 0 00-2.09-2.07zm27.82-13.78a2.093 2.093 0 00-1.92 1.26 2.166 2.166 0 00-.16.81 2.114 2.114 0 00.16.8 2.093 2.093 0 001.92 1.26 2.072 2.072 0 001.92-1.26 1.945 1.945 0 00.17-.8 1.992 1.992 0 00-.17-.81 2.072 2.072 0 00-1.92-1.26zm-13.91 0a2.065 2.065 0 102.09 2.07 2.076 2.076 0 00-2.09-2.07zm-13.91 0a2.065 2.065 0 102.09 2.07 2.076 2.076 0 00-2.09-2.07zm-13.91 0a2.065 2.065 0 100 4.13 2.065 2.065 0 100-4.13zm20.87 20.67a2.065 2.065 0 102.08 2.06 2.07 2.07 0 00-2.08-2.06zm13.91 0a2.065 2.065 0 102.08 2.06 2.076 2.076 0 00-2.08-2.06zm-13.91-13.78a2.065 2.065 0 102.08 2.07 2.072 2.072 0 00-2.08-2.07zm-13.91 0a2.065 2.065 0 102.08 2.07 2.072 2.072 0 00-2.08-2.07zm34.77 34.44a2.093 2.093 0 00-1.92 1.26 2.166 2.166 0 00-.16.81 2.114 2.114 0 00.16.8 2.086 2.086 0 001.92 1.27 2.065 2.065 0 001.92-1.27 1.945 1.945 0 00.17-.8 1.992 1.992 0 00-.17-.81 2.072 2.072 0 00-1.92-1.26zm-13.91 0a2.07 2.07 0 102.09 2.07 2.076 2.076 0 00-2.09-2.07zm-13.91 0a2.07 2.07 0 102.09 2.07 2.076 2.076 0 00-2.09-2.07zm27.82-13.78a2.086 2.086 0 00-1.92 1.27 2.114 2.114 0 00-.16.8 2.166 2.166 0 00.16.81 2.093 2.093 0 001.92 1.26 2.072 2.072 0 001.92-1.26 1.992 1.992 0 00.17-.81 1.945 1.945 0 00-.17-.8 2.065 2.065 0 00-1.92-1.27zm-13.91 0a2.07 2.07 0 102.09 2.07 2.076 2.076 0 00-2.09-2.07zm-13.91 0a2.07 2.07 0 102.09 2.07 2.076 2.076 0 00-2.09-2.07zm-13.91 0a2.07 2.07 0 100 4.14 2.07 2.07 0 100-4.14zm20.87 20.67a2.065 2.065 0 102.08 2.07 2.078 2.078 0 00-2.08-2.07zm13.91 0a2.065 2.065 0 102.08 2.07 2.085 2.085 0 00-2.08-2.07zm-13.91-13.78a2.07 2.07 0 102.08 2.07 2.078 2.078 0 00-2.08-2.07zm-13.91 0a2.07 2.07 0 102.08 2.07 2.078 2.078 0 00-2.08-2.07zm34.77 34.45a2.093 2.093 0 00-1.92 1.26 2.105 2.105 0 000 1.61 2.093 2.093 0 001.92 1.26 2.072 2.072 0 001.92-1.26 1.991 1.991 0 000-1.61 2.072 2.072 0 00-1.92-1.26zm-13.91 0a2.065 2.065 0 102.09 2.06 2.068 2.068 0 00-2.09-2.06zm-13.91 0a2.065 2.065 0 102.09 2.06 2.068 2.068 0 00-2.09-2.06zm27.82-13.78a2.093 2.093 0 00-1.92 1.26 2.105 2.105 0 000 1.61 2.093 2.093 0 001.92 1.26 2.072 2.072 0 001.92-1.26 1.991 1.991 0 000-1.61 2.072 2.072 0 00-1.92-1.26zm-13.91 0a2.065 2.065 0 102.09 2.06 2.068 2.068 0 00-2.09-2.06zm-13.91 0a2.065 2.065 0 102.09 2.06 2.068 2.068 0 00-2.09-2.06zm-13.91 0a2.065 2.065 0 100 4.13 2.065 2.065 0 100-4.13zm20.87 20.66a2.07 2.07 0 102.08 2.07 2.078 2.078 0 00-2.08-2.07zm13.91 0a2.07 2.07 0 102.08 2.07 2.085 2.085 0 00-2.08-2.07zm-13.91-13.77a2.065 2.065 0 102.08 2.06 2.07 2.07 0 00-2.08-2.06zm-13.91 0a2.065 2.065 0 102.08 2.06 2.07 2.07 0 00-2.08-2.06zm20.86 20.66a2.07 2.07 0 102.09 2.07 2.076 2.076 0 00-2.09-2.07zm-13.91 0a2.07 2.07 0 102.09 2.07 2.076 2.076 0 00-2.09-2.07zm-13.91 0a2.07 2.07 0 100 4.14 2.07 2.07 0 100-4.14zm20.87 6.89a2.065 2.065 0 102.08 2.07 2.078 2.078 0 00-2.08-2.07zm-13.91 0a2.065 2.065 0 102.08 2.07 2.078 2.078 0 00-2.08-2.07zM113.39 4.14a2.07 2.07 0 10-2.09-2.07 2.085 2.085 0 002.09 2.07zm-13.86 0a2.07 2.07 0 10-2.09-2.07 2.085 2.085 0 002.09 2.07zm6.9 2.75a2.07 2.07 0 102.09 2.07 2.076 2.076 0 00-2.09-2.07zm13.92 4.14a2.07 2.07 0 10-2.09-2.07 2.076 2.076 0 002.09 2.07zm-6.96 20.66a2.065 2.065 0 10-2.09-2.07 2.078 2.078 0 002.09 2.07zm-6.96 2.76a2.065 2.065 0 102.09 2.06 2.068 2.068 0 00-2.09-2.06zm13.92 4.13a2.065 2.065 0 10-2.09-2.07 2.076 2.076 0 002.09 2.07zm-13.92-17.91a2.065 2.065 0 102.09 2.07 2.07 2.07 0 00-2.09-2.07zm-13.09.16a2.218 2.218 0 00-.82-.16 2.093 2.093 0 00-1.92 1.26 2.105 2.105 0 000 1.61 2.093 2.093 0 001.92 1.26 2.218 2.218 0 00.82-.16 2.064 2.064 0 000-3.81zm20.05 38.41a2.065 2.065 0 10-2.09-2.06 2.076 2.076 0 002.09 2.06zM106.43 62a2.065 2.065 0 102.09 2.07 2.07 2.07 0 00-2.09-2.07zm13.92 4.13a2.065 2.065 0 10-2.09-2.06 2.068 2.068 0 002.09 2.06zm-13.92-17.91a2.065 2.065 0 102.09 2.07 2.076 2.076 0 00-2.09-2.07zm-13.09.16a2.218 2.218 0 00-.82-.16 2.093 2.093 0 00-1.92 1.26 2.166 2.166 0 00-.16.81 2.114 2.114 0 00.16.8 2.093 2.093 0 001.92 1.26 2.033 2.033 0 00.82-.16 2.064 2.064 0 000-3.81zm20.05 38.42a2.07 2.07 0 10-2.09-2.07 2.085 2.085 0 002.09 2.07zm-6.96 2.75a2.07 2.07 0 102.09 2.07 2.076 2.076 0 00-2.09-2.07zm13.92 4.14a2.07 2.07 0 10-2.09-2.07 2.076 2.076 0 002.09 2.07zm-13.92-17.91a2.065 2.065 0 102.09 2.06 2.068 2.068 0 00-2.09-2.06zm-13.09.16a2.033 2.033 0 00-.82-.16 2.093 2.093 0 00-1.92 1.26 2.105 2.105 0 000 1.61 2.093 2.093 0 001.92 1.26 2.218 2.218 0 00.82-.16 2.064 2.064 0 000-3.81zm20.05 38.41a2.065 2.065 0 10-2.09-2.06 2.083 2.083 0 002.09 2.06zm-6.96 2.76a2.065 2.065 0 102.09 2.06 2.068 2.068 0 00-2.09-2.06zm13.92 4.13a2.065 2.065 0 10-2.09-2.07 2.076 2.076 0 002.09 2.07zm-13.92-17.91a2.065 2.065 0 102.09 2.07 2.07 2.07 0 00-2.09-2.07zm-13.09.16a2.218 2.218 0 00-.82-.16 2.093 2.093 0 00-1.92 1.26 2.105 2.105 0 000 1.61 2.093 2.093 0 001.92 1.26 2.033 2.033 0 00.82-.16 2.064 2.064 0 000-3.81zm20.05 38.42a2.07 2.07 0 10-2.09-2.07 2.085 2.085 0 002.09 2.07zm-6.96 2.75a2.065 2.065 0 102.09 2.07 2.076 2.076 0 00-2.09-2.07zm13.92 4.13a2.065 2.065 0 10-2.09-2.06 2.068 2.068 0 002.09 2.06zm-13.92-17.91a2.07 2.07 0 102.09 2.07 2.076 2.076 0 00-2.09-2.07zm-13.09.17a2.039 2.039 0 00-.82-.17 2.068 2.068 0 00-2.08 2.07 2.114 2.114 0 00.16.8 2.086 2.086 0 001.92 1.27 2.039 2.039 0 00.82-.17 2.056 2.056 0 000-3.8zm20.05 38.41a2.065 2.065 0 10-2.09-2.07 2.085 2.085 0 002.09 2.07zm-6.96 2.75a2.07 2.07 0 102.09 2.07 2.076 2.076 0 00-2.09-2.07zm13.92 4.14a2.07 2.07 0 10-2.09-2.07 2.076 2.076 0 002.09 2.07zm-13.92-17.91a2.065 2.065 0 102.09 2.06 2.068 2.068 0 00-2.09-2.06zm-13.09.16a2.218 2.218 0 00-.82-.16 2.093 2.093 0 00-1.92 1.26 2.105 2.105 0 000 1.61 2.093 2.093 0 001.92 1.26 2.218 2.218 0 00.82-.16 2.064 2.064 0 000-3.81zm20.05 38.41a2.065 2.065 0 10-2.09-2.06 2.076 2.076 0 002.09 2.06zm-6.96-11.02a2.065 2.065 0 102.09 2.07 2.076 2.076 0 00-2.09-2.07zm-13.09.16a2.218 2.218 0 00-.82-.16 2.093 2.093 0 00-1.92 1.26 2.166 2.166 0 00-.16.81 2.114 2.114 0 00.16.8 2.093 2.093 0 001.92 1.26 2.033 2.033 0 00.82-.16 2.064 2.064 0 000-3.81zM85.57 0a2.07 2.07 0 102.09 2.07A2.078 2.078 0 0085.57 0zm-6.96 6.89a2.07 2.07 0 102.09 2.07 2.076 2.076 0 00-2.09-2.07zm13.91 0a2.07 2.07 0 102.09 2.07 2.076 2.076 0 00-2.09-2.07zm6.96 21.3a1.838 1.838 0 00-1.92.94 1.341 1.341 0 00-.17.65 1.158 1.158 0 00.17.6 1.908 1.908 0 001.92 1.05 1.984 1.984 0 001.92-1.13 1.676 1.676 0 00.17-.74.707.707 0 00-.17-.46 1.836 1.836 0 00-1.92-.91zm-13.91-.63a2.065 2.065 0 102.09 2.06 2.07 2.07 0 00-2.09-2.06zm-13.91 0a2.065 2.065 0 102.08 2.06 2.07 2.07 0 00-2.08-2.06zm29.74-12.89a2.485 2.485 0 00-1.92-1.63 2.455 2.455 0 00-1.92 1.63 3.505 3.505 0 00-.13.58 4.058 4.058 0 00-.04.51 2.136 2.136 0 00.17.84 1.781 1.781 0 001.5.97 3.166 3.166 0 00.42-.2 4.359 4.359 0 00.42.23 1.922 1.922 0 001.5-1.09 1.633 1.633 0 00.17-.73 3.657 3.657 0 00-.05-.57 2.482 2.482 0 00-.12-.54zm-15.83-.89a2.094 2.094 0 00-2.05 1.65 2.848 2.848 0 00-.04.42 2.068 2.068 0 001.67 2.02 1.872 1.872 0 00.42.04 1.992 1.992 0 00.42-.04 2.068 2.068 0 001.67-2.02 1.931 1.931 0 00-.05-.42 2.074 2.074 0 00-2.04-1.65zm-13.91 0a2.094 2.094 0 00-2.05 1.65 2.848 2.848 0 00-.04.42 2.068 2.068 0 001.67 2.02 1.872 1.872 0 00.42.04 1.992 1.992 0 00.42-.04 2.059 2.059 0 001.66-2.02 1.931 1.931 0 00-.04-.42 2.083 2.083 0 00-2.04-1.65zm-13.91-.74h-.01a2.462 2.462 0 00-2.04 2.02 3.945 3.945 0 00-.04.6 1.892 1.892 0 001.66 1.85 3.447 3.447 0 00.42-.14h.01a2.167 2.167 0 000-4.33zm20.86 21.41a2.065 2.065 0 102.09 2.06 2.068 2.068 0 00-2.09-2.06zm13.91 0a2.065 2.065 0 102.09 2.06 2.068 2.068 0 00-2.09-2.06zM78.61 20.67a2.065 2.065 0 102.09 2.07 2.07 2.07 0 00-2.09-2.07zm-13.91 0a2.065 2.065 0 102.09 2.07 2.078 2.078 0 00-2.09-2.07zm34.78 34.57a2.013 2.013 0 00-1.92 1.19 1.853 1.853 0 00-.17.78 2.755 2.755 0 00.17.95 2.212 2.212 0 001.92 1.41 2.257 2.257 0 001.92-1.43 2.338 2.338 0 00.17-.88 1.82 1.82 0 00-.17-.78 2.059 2.059 0 00-1.92-1.24zm-13.91-.13a2.065 2.065 0 102.09 2.07 2.078 2.078 0 00-2.09-2.07zm-13.91 0a2.065 2.065 0 102.08 2.07 2.078 2.078 0 00-2.08-2.07zm29.74-12.6a2.167 2.167 0 00-1.92-1.34 2.144 2.144 0 00-1.92 1.34 2.347 2.347 0 00-.13.43 3.27 3.27 0 00-.04.44 1.957 1.957 0 00.17.81 2.113 2.113 0 001.5 1.25 2.832 2.832 0 00.42.06 2.026 2.026 0 00.42-.06 2.087 2.087 0 001.5-1.23 1.957 1.957 0 00.17-.81 2.4 2.4 0 00-.05-.46 1.731 1.731 0 00-.12-.43zm-15.83-1.18a2.094 2.094 0 00-2.05 1.65 2.984 2.984 0 00-.04.42 2.087 2.087 0 001.67 2.03 2.722 2.722 0 00.42.04 2.984 2.984 0 00.42-.04 2.087 2.087 0 001.67-2.03 2.007 2.007 0 00-.05-.42 2.074 2.074 0 00-2.04-1.65zm-13.91 0a2.094 2.094 0 00-2.05 1.65 2.984 2.984 0 00-.04.42 2.087 2.087 0 001.67 2.03 2.722 2.722 0 00.42.04 2.984 2.984 0 00.42-.04 2.079 2.079 0 001.66-2.03 1.992 1.992 0 00-.04-.42 2.083 2.083 0 00-2.04-1.65zm-13.91-.16h-.01a2.164 2.164 0 00-2.04 1.73 2.383 2.383 0 00-.04.46 2.1 2.1 0 001.66 2.06 2.073 2.073 0 00.42.08h.01a2.167 2.167 0 000-4.33zM78.61 62a2.065 2.065 0 102.09 2.07A2.07 2.07 0 0078.61 62zm13.91 0a2.065 2.065 0 102.09 2.07A2.07 2.07 0 0092.52 62zM78.61 48.22a2.065 2.065 0 102.09 2.07 2.076 2.076 0 00-2.09-2.07zm-13.91 0a2.065 2.065 0 102.09 2.07 2.085 2.085 0 00-2.09-2.07zm34.78 34.07a2.253 2.253 0 00-1.92 1.45 2.4 2.4 0 00-.17.9 1.8 1.8 0 00.17.76 2.037 2.037 0 001.92 1.22 2.009 2.009 0 001.92-1.18 1.719 1.719 0 00.17-.75 2.784 2.784 0 00-.17-.97 2.241 2.241 0 00-1.92-1.43zm-13.91.37a2.07 2.07 0 102.09 2.07 2.078 2.078 0 00-2.09-2.07zm-13.91 0a2.07 2.07 0 102.08 2.07 2.078 2.078 0 00-2.08-2.07zM99.48 69.3a1.915 1.915 0 00-1.92 1.06 1.508 1.508 0 00-.17.7.9.9 0 00.17.52 1.856 1.856 0 001.92.97 1.911 1.911 0 001.92-1.03 1.428 1.428 0 00.17-.68.935.935 0 00-.17-.54 1.891 1.891 0 00-1.92-1zm-13.91-.41a2.065 2.065 0 102.09 2.06 2.07 2.07 0 00-2.09-2.06zm-13.91 0a2.065 2.065 0 102.08 2.06 2.07 2.07 0 00-2.08-2.06zm-13.91.41h-.01c-1.15 0-2.08.48-2.08 1.63s.93 1.62 2.08 1.62h.01c1.15 0 2.08-.48 2.08-1.62s-.93-1.63-2.08-1.63zm20.86 20.25a2.07 2.07 0 102.09 2.07 2.076 2.076 0 00-2.09-2.07zm13.91 0a2.07 2.07 0 102.09 2.07 2.076 2.076 0 00-2.09-2.07zM78.61 75.78a2.065 2.065 0 102.09 2.06 2.068 2.068 0 00-2.09-2.06zm-13.91 0a2.065 2.065 0 102.09 2.06 2.076 2.076 0 00-2.09-2.06zm34.78 33.56a2.542 2.542 0 00-1.92 1.7 3.163 3.163 0 00-.17 1.02 1.064 1.064 0 00.17.58 1.894 1.894 0 001.92 1.03 1.842 1.842 0 001.92-.92 1.275 1.275 0 00.17-.64 4.069 4.069 0 00-.17-1.16 2.46 2.46 0 00-1.92-1.61zm-13.91.88a2.065 2.065 0 102.09 2.07 2.072 2.072 0 00-2.09-2.07zm-13.91 0a2.065 2.065 0 102.08 2.07 2.072 2.072 0 00-2.08-2.07zm27.82-13.87a2.116 2.116 0 00-1.92 1.31 2.088 2.088 0 00-.17.83 2.236 2.236 0 00.17.86 2.119 2.119 0 001.92 1.33 2.148 2.148 0 002.09-2.15 2.274 2.274 0 00-.17-.86 2.148 2.148 0 00-1.92-1.32zm-13.91.09a2.065 2.065 0 102.09 2.07 2.078 2.078 0 00-2.09-2.07zm-13.91 0a2.065 2.065 0 102.08 2.07 2.078 2.078 0 00-2.08-2.07zm-13.91-.09h-.01a2.167 2.167 0 000 4.33h.01a2.167 2.167 0 000-4.33zm20.86 20.76a2.065 2.065 0 102.09 2.06 2.068 2.068 0 00-2.09-2.06zm13.91 0a2.065 2.065 0 102.09 2.06 2.068 2.068 0 00-2.09-2.06zm-13.91-13.78a2.065 2.065 0 102.09 2.07 2.07 2.07 0 00-2.09-2.07zm-13.91 0a2.065 2.065 0 102.09 2.07 2.078 2.078 0 00-2.09-2.07zm34.78 34.14a2.212 2.212 0 00-1.92 1.41 2.376 2.376 0 00-.17.88 1.9 1.9 0 00.17.79 2.063 2.063 0 001.92 1.25 2.049 2.049 0 001.92-1.21 1.853 1.853 0 00.17-.78 2.7 2.7 0 00-.17-.94 2.226 2.226 0 00-1.92-1.4zm-13.91.3a2.07 2.07 0 102.09 2.07 2.078 2.078 0 00-2.09-2.07zm-13.91 0a2.07 2.07 0 102.08 2.07 2.078 2.078 0 00-2.08-2.07zm27.82-13.28a1.881 1.881 0 00-1.92 1.01 1.468 1.468 0 00-.17.69.959.959 0 00.17.54 1.875 1.875 0 001.92 1 1.932 1.932 0 001.92-1.06 1.549 1.549 0 00.17-.71.867.867 0 00-.17-.51 1.866 1.866 0 00-1.92-.96zm-13.91-.5a2.07 2.07 0 102.09 2.07 2.078 2.078 0 00-2.09-2.07zm-13.91 0a2.07 2.07 0 102.08 2.07 2.078 2.078 0 00-2.08-2.07zm-13.91.5h-.01c-1.15 0-2.08.48-2.08 1.62s.93 1.62 2.08 1.62h.01c1.15 0 2.08-.48 2.08-1.62s-.93-1.62-2.08-1.62zm20.86 20.17a2.065 2.065 0 102.09 2.07 2.076 2.076 0 00-2.09-2.07zm13.91 0a2.065 2.065 0 102.09 2.07 2.076 2.076 0 00-2.09-2.07zm-13.91-13.78a2.07 2.07 0 102.09 2.07 2.076 2.076 0 00-2.09-2.07zm-13.91 0a2.07 2.07 0 102.09 2.07 2.085 2.085 0 00-2.09-2.07zm34.78 34.72a1.966 1.966 0 00-1.92 1.13 1.633 1.633 0 00-.17.73.733.733 0 00.17.47 1.826 1.826 0 001.92.92 1.866 1.866 0 001.92-.96 1.285 1.285 0 00.17-.65 1.124 1.124 0 00-.17-.59 1.925 1.925 0 00-1.92-1.05zm-13.91-.27a2.065 2.065 0 102.09 2.06 2.07 2.07 0 00-2.09-2.06zm-13.91 0a2.065 2.065 0 102.08 2.06 2.07 2.07 0 00-2.08-2.06zm27.82-14.88c-.87 0-1.61 1.07-1.92 1.81a3.537 3.537 0 00-.17 1.08.768.768 0 00.17.49 1.829 1.829 0 001.92.95c.86 0 1.6-.07 1.92-.81a1.064 1.064 0 00.17-.58 4.64 4.64 0 00-.17-1.24 2.573 2.573 0 00-1.92-1.7zm-13.91 1.1a2.065 2.065 0 102.09 2.06 2.07 2.07 0 00-2.09-2.06zm-13.91 0a2.065 2.065 0 102.08 2.06 2.07 2.07 0 00-2.08-2.06zm-13.91-1.1h-.01a2.167 2.167 0 000 4.33h.01a2.167 2.167 0 000-4.33zm20.86 21.76a2.07 2.07 0 102.09 2.07 2.076 2.076 0 00-2.09-2.07zm13.91 0a2.07 2.07 0 102.09 2.07 2.076 2.076 0 00-2.09-2.07zm-13.91-13.77a2.065 2.065 0 102.09 2.06 2.068 2.068 0 00-2.09-2.06zm-13.91 0a2.065 2.065 0 102.09 2.06 2.076 2.076 0 00-2.09-2.06zm34.78 35.3c-.87 0-1.61.09-1.92.83a1.1 1.1 0 00-.17.59 1.428 1.428 0 00.17.68 1.973 1.973 0 001.92 1.14 2.068 2.068 0 001.92-1.25 1.9 1.9 0 00.17-.79c0-.29-.06-.13-.17-.37-.32-.75-1.06-.83-1.92-.83zm-13.91-.86a2.065 2.065 0 102.09 2.07 2.072 2.072 0 00-2.09-2.07zm13.91-14.29a2.328 2.328 0 00-1.92 1.52 2.6 2.6 0 00-.17.93 4.658 4.658 0 00.17 1.25 2.555 2.555 0 001.92 1.71 2.51 2.51 0 001.92-1.65 2.9 2.9 0 00.17-.99 4.017 4.017 0 00-.17-1.16 2.46 2.46 0 00-1.92-1.61zm-13.91.51a2.07 2.07 0 102.09 2.07 2.078 2.078 0 00-2.09-2.07zm-13.91 0a2.07 2.07 0 102.08 2.07 2.078 2.078 0 00-2.08-2.07zm-13.91-.51h-.01c-1.15 0-2.08 1.56-2.08 2.7s.93 2.71 2.08 2.71h.01c1.15 0 2.08-1.57 2.08-2.71s-.93-2.7-2.08-2.7zm20.86 7.4a2.065 2.065 0 102.09 2.07 2.076 2.076 0 00-2.09-2.07zm-13.91 0a2.065 2.065 0 102.09 2.07 2.085 2.085 0 00-2.09-2.07zm0-174.96a2.07 2.07 0 10-2.09-2.07 2.085 2.085 0 002.09 2.07zm-6.96 20.66a2.065 2.065 0 10-2.08-2.07 2.072 2.072 0 002.08 2.07zm-6.95 2.76a2.065 2.065 0 102.09 2.06 2.076 2.076 0 00-2.09-2.06zm13.91 4.13a2.065 2.065 0 10-2.09-2.07 2.085 2.085 0 002.09 2.07zM50.79 20.67a2.065 2.065 0 102.09 2.07 2.078 2.078 0 00-2.09-2.07zm-13.1.51a2.336 2.336 0 00-.81.18 1.834 1.834 0 00-1.92.92 1.239 1.239 0 00-.17.63 1.9 1.9 0 00.17.79 2.067 2.067 0 001.92 1.26 2.238 2.238 0 00.81-.24 1.9 1.9 0 001.28-1.77 1.884 1.884 0 00-1.28-1.77zm20.05 38.06a2.065 2.065 0 10-2.08-2.06 2.07 2.07 0 002.08 2.06zM50.79 62a2.065 2.065 0 102.09 2.07A2.078 2.078 0 0050.79 62zm13.91 4.13a2.065 2.065 0 10-2.09-2.06 2.076 2.076 0 002.09 2.06zM50.79 48.22a2.065 2.065 0 102.09 2.07 2.085 2.085 0 00-2.09-2.07zm-13.1.04a2.13 2.13 0 00-.81-.29 2.2 2.2 0 00-1.92 1.39 2.286 2.286 0 00-.17.87 1.98 1.98 0 00.17.8 2.082 2.082 0 001.92 1.26 2 2 0 002.09-2.08 2.126 2.126 0 00-1.28-1.95zM57.74 86.8a2.07 2.07 0 10-2.08-2.07 2.078 2.078 0 002.08 2.07zm-6.95 2.75a2.07 2.07 0 102.09 2.07 2.085 2.085 0 00-2.09-2.07zm13.91 4.14a2.07 2.07 0 10-2.09-2.07 2.085 2.085 0 002.09 2.07zM50.79 75.78a2.065 2.065 0 102.09 2.06 2.076 2.076 0 00-2.09-2.06zm-13.1-.08a2.554 2.554 0 00-.81-.4 2.32 2.32 0 00-1.92 1.5 2.589 2.589 0 00-.17.92 3.489 3.489 0 00.17 1.08 2.353 2.353 0 001.92 1.53 2.477 2.477 0 00.81-.37 2.412 2.412 0 000-4.26zm20.05 38.65a2.065 2.065 0 10-2.08-2.06 2.076 2.076 0 002.08 2.06zm-6.95 2.76a2.065 2.065 0 102.09 2.06 2.076 2.076 0 00-2.09-2.06zm13.91 4.13a2.065 2.065 0 10-2.09-2.07 2.085 2.085 0 002.09 2.07zm-13.91-17.91a2.065 2.065 0 102.09 2.07 2.078 2.078 0 00-2.09-2.07zm-13.1.17a2.161 2.161 0 00-.81-.15 2.073 2.073 0 00-1.92 1.25 1.945 1.945 0 00-.17.8.935.935 0 00.17.54 1.883 1.883 0 001.92 1 2.366 2.366 0 00.81.1 1.864 1.864 0 000-3.54zm20.05 38.41a2.07 2.07 0 10-2.08-2.07 2.078 2.078 0 002.08 2.07zm-6.95 2.75a2.065 2.065 0 102.09 2.07 2.085 2.085 0 00-2.09-2.07zm13.91 4.13a2.065 2.065 0 10-2.09-2.06 2.076 2.076 0 002.09 2.06zm-13.91-17.91a2.07 2.07 0 102.09 2.07 2.085 2.085 0 00-2.09-2.07zm-13.1.06a2.28 2.28 0 00-.81-.27 2.184 2.184 0 00-1.92 1.37 2.236 2.236 0 00-.17.86.681.681 0 00.17.45 1.82 1.82 0 001.92.92 2.7 2.7 0 00.81.21 1.864 1.864 0 000-3.54zm20.05 38.52a2.065 2.065 0 10-2.08-2.07 2.078 2.078 0 002.08 2.07zm-6.95 2.75a2.07 2.07 0 102.09 2.07 2.085 2.085 0 00-2.09-2.07zm13.91 4.14a2.07 2.07 0 10-2.09-2.07 2.085 2.085 0 002.09 2.07zm-13.91-17.91a2.065 2.065 0 102.09 2.06 2.076 2.076 0 00-2.09-2.06zm-13.1-.06a2.5 2.5 0 00-.81-.38 2.3 2.3 0 00-1.92 1.48 2.535 2.535 0 00-.17.91 1.676 1.676 0 00.17.74 2.023 2.023 0 001.92 1.19 1.979 1.979 0 00.81-.04 2.126 2.126 0 001.28-1.95 2.148 2.148 0 00-1.28-1.95zm6.15-130.82a2.1 2.1 0 00-1.93 1.26 2.105 2.105 0 000 1.61 2.1 2.1 0 001.93 1.26 2.093 2.093 0 001.92-1.26 2.105 2.105 0 000-1.61 2.093 2.093 0 00-1.92-1.26zm-13.92 0a2.065 2.065 0 102.09 2.06 2.068 2.068 0 00-2.09-2.06zm-6.95 6.89a2.065 2.065 0 102.09 2.06 2.076 2.076 0 00-2.09-2.06zm13.91 0a2.065 2.065 0 102.09 2.06 2.07 2.07 0 00-2.09-2.06zm6.96 20.66a2.1 2.1 0 00-1.93 1.26 2.105 2.105 0 000 1.61 2.1 2.1 0 001.93 1.26 2.093 2.093 0 001.92-1.26 2.105 2.105 0 000-1.61 2.093 2.093 0 00-1.92-1.26zm-13.92 0a2.065 2.065 0 102.09 2.07 2.076 2.076 0 00-2.09-2.07zm-13.91 0a2.065 2.065 0 102.09 2.07 2.085 2.085 0 00-2.09-2.07zM45.76 42.6a2.086 2.086 0 00-1.92-1.27 2.089 2.089 0 00-1.93 1.27 2.4 2.4 0 00-.12.38 1.992 1.992 0 00-.04.42 2.065 2.065 0 001.67 2.03 2.722 2.722 0 00.42.04 2.984 2.984 0 00.42-.04 2.068 2.068 0 001.66-2.03 1.992 1.992 0 00-.04-.42 2.4 2.4 0 00-.12-.38zm-15.84-1.27a2.083 2.083 0 00-2.04 1.65 1.992 1.992 0 00-.04.42 2.079 2.079 0 001.66 2.03 2.984 2.984 0 00.42.04 2.722 2.722 0 00.42-.04 2.087 2.087 0 001.67-2.03 2.984 2.984 0 00-.04-.42 2.094 2.094 0 00-2.05-1.65zm-13.91 0a2.074 2.074 0 00-2.04 1.65 2.007 2.007 0 00-.05.42 2.087 2.087 0 001.67 2.03 2.984 2.984 0 00.42.04 2.722 2.722 0 00.42-.04 2.087 2.087 0 001.67-2.03 2.984 2.984 0 00-.04-.42 2.094 2.094 0 00-2.05-1.65zM22.97 62a2.065 2.065 0 102.09 2.07A2.078 2.078 0 0022.97 62zm13.91 0a2.065 2.065 0 102.09 2.07A2.072 2.072 0 0036.88 62zM22.97 48.22a2.065 2.065 0 102.09 2.07 2.085 2.085 0 00-2.09-2.07zm-13.91 0a2.065 2.065 0 102.08 2.07 2.078 2.078 0 00-2.08-2.07zm34.78 34.44a2.105 2.105 0 00-1.93 1.27 2.076 2.076 0 00-.16.8 2.166 2.166 0 00.16.81 2.1 2.1 0 001.93 1.26 2.093 2.093 0 001.92-1.26 2.166 2.166 0 00.16-.81 2.076 2.076 0 00-.16-.8 2.1 2.1 0 00-1.92-1.27zm-13.92 0a2.07 2.07 0 102.09 2.07 2.076 2.076 0 00-2.09-2.07zm-13.91 0a2.07 2.07 0 102.09 2.07 2.085 2.085 0 00-2.09-2.07zm27.83-13.77a2.1 2.1 0 00-1.93 1.26 2.105 2.105 0 000 1.61 2.1 2.1 0 001.93 1.26 2.093 2.093 0 001.92-1.26 2.105 2.105 0 000-1.61 2.093 2.093 0 00-1.92-1.26zm-13.92 0a2.065 2.065 0 102.09 2.06 2.068 2.068 0 00-2.09-2.06zm-13.91 0a2.065 2.065 0 102.09 2.06 2.076 2.076 0 00-2.09-2.06zm-13.91 0a2.065 2.065 0 100 4.13 2.065 2.065 0 100-4.13zm20.87 20.66a2.07 2.07 0 102.09 2.07 2.085 2.085 0 00-2.09-2.07zm13.91 0a2.07 2.07 0 102.09 2.07 2.078 2.078 0 00-2.09-2.07zM22.97 75.78a2.065 2.065 0 102.09 2.06 2.076 2.076 0 00-2.09-2.06zm-13.91 0a2.065 2.065 0 102.08 2.06 2.07 2.07 0 00-2.08-2.06zm34.78 34.44a2.1 2.1 0 00-1.93 1.26 2.105 2.105 0 000 1.61 2.1 2.1 0 001.93 1.26 2.093 2.093 0 001.92-1.26 2.105 2.105 0 000-1.61 2.093 2.093 0 00-1.92-1.26zm-13.92 0a2.065 2.065 0 102.09 2.07 2.07 2.07 0 00-2.09-2.07zm-13.91 0a2.065 2.065 0 102.09 2.07 2.078 2.078 0 00-2.09-2.07zm27.83-13.78a2.1 2.1 0 00-1.93 1.26 2.166 2.166 0 00-.16.81 2.055 2.055 0 002.09 2.06 2.093 2.093 0 001.92-1.26 2.114 2.114 0 00.16-.8 2.166 2.166 0 00-.16-.81 2.093 2.093 0 00-1.92-1.26zm-13.92 0a2.065 2.065 0 102.09 2.07 2.076 2.076 0 00-2.09-2.07zm-13.91 0a2.065 2.065 0 102.09 2.07 2.085 2.085 0 00-2.09-2.07zm-13.91 0a2.065 2.065 0 100 4.13 2.065 2.065 0 100-4.13zm20.87 20.67a2.065 2.065 0 102.09 2.06 2.076 2.076 0 00-2.09-2.06zm13.91 0a2.065 2.065 0 102.09 2.06 2.07 2.07 0 00-2.09-2.06zm-13.91-13.78a2.065 2.065 0 102.09 2.07 2.078 2.078 0 00-2.09-2.07zm-13.91 0a2.065 2.065 0 102.08 2.07 2.072 2.072 0 00-2.08-2.07zm34.78 34.44a2.1 2.1 0 00-1.93 1.26 2.166 2.166 0 00-.16.81 2.114 2.114 0 00.16.8 2.089 2.089 0 001.93 1.27 2.086 2.086 0 001.92-1.27 2.114 2.114 0 00.16-.8 2.166 2.166 0 00-.16-.81 2.093 2.093 0 00-1.92-1.26zm-13.92 0a2.07 2.07 0 102.09 2.07 2.076 2.076 0 00-2.09-2.07zm-13.91 0a2.07 2.07 0 102.09 2.07 2.085 2.085 0 00-2.09-2.07zm27.83-13.78a2.089 2.089 0 00-1.93 1.27 2.114 2.114 0 00-.16.8 2.166 2.166 0 00.16.81 2.1 2.1 0 001.93 1.26 2.093 2.093 0 001.92-1.26 2.166 2.166 0 00.16-.81 2.114 2.114 0 00-.16-.8 2.086 2.086 0 00-1.92-1.27zm-13.92 0a2.07 2.07 0 102.09 2.07 2.076 2.076 0 00-2.09-2.07zm-13.91 0a2.07 2.07 0 102.09 2.07 2.085 2.085 0 00-2.09-2.07zm-13.91 0a2.07 2.07 0 100 4.14 2.07 2.07 0 100-4.14zm20.87 20.67a2.065 2.065 0 102.09 2.07 2.085 2.085 0 00-2.09-2.07zm13.91 0a2.065 2.065 0 102.09 2.07 2.078 2.078 0 00-2.09-2.07zm-13.91-13.78a2.07 2.07 0 102.09 2.07 2.085 2.085 0 00-2.09-2.07zm-13.91 0a2.07 2.07 0 102.08 2.07 2.078 2.078 0 00-2.08-2.07zm34.78 34.45a2.1 2.1 0 00-1.93 1.26 2.105 2.105 0 000 1.61 2.1 2.1 0 001.93 1.26 2.093 2.093 0 001.92-1.26 2.105 2.105 0 000-1.61 2.093 2.093 0 00-1.92-1.26zm-13.92 0a2.065 2.065 0 102.09 2.06 2.068 2.068 0 00-2.09-2.06zm13.92-13.78a2.1 2.1 0 00-1.93 1.26 2.105 2.105 0 000 1.61 2.1 2.1 0 001.93 1.26 2.093 2.093 0 001.92-1.26 2.105 2.105 0 000-1.61 2.093 2.093 0 00-1.92-1.26zm-13.92 0a2.065 2.065 0 102.09 2.06 2.068 2.068 0 00-2.09-2.06zm-13.91 0a2.065 2.065 0 102.09 2.06 2.076 2.076 0 00-2.09-2.06zm20.87 20.66a2.07 2.07 0 102.09 2.07 2.078 2.078 0 00-2.09-2.07zm-13.91-13.77a2.065 2.065 0 102.09 2.06 2.076 2.076 0 00-2.09-2.06zm20.87 20.66a2.068 2.068 0 00-2.09 2.07 2.068 2.068 0 002.09 2.07 2.068 2.068 0 002.08-2.07 2.068 2.068 0 00-2.08-2.07zM9.06 66.13a2.065 2.065 0 10-2.09-2.06 2.068 2.068 0 002.09 2.06zM2.1 86.8a2.07 2.07 0 10-2.09-2.07A2.085 2.085 0 002.1 86.8zm6.96 6.89a2.07 2.07 0 10-2.09-2.07 2.076 2.076 0 002.09 2.07zM2.1 114.35a2.065 2.065 0 10-2.09-2.06 2.083 2.083 0 002.09 2.06zm6.96 6.89a2.065 2.065 0 10-2.09-2.07 2.076 2.076 0 002.09 2.07zm0 27.55a2.065 2.065 0 10-2.09-2.06 2.068 2.068 0 002.09 2.06z" fill="#e9f7f7" fill-rule="evenodd"/></svg>